<?xml version="1.0" standalone="no"?><!DOCTYPE svg PUBLIC "-//W3C//DTD SVG 1.1//EN" "http://www.w3.org/Graphics/SVG/1.1/DTD/svg11.dtd" ><svg version="1.1" xmlns="http://www.w3.org/2000/svg"><defs><font horiz-adv-x="0" id="font"><font-face ascent="750" bbox="-280 -263 1408 1132" cap-height="750" descent="-250" font-family="Apex Serif Medium Italic" font-stretch="normal" font-style="normal" font-weight="600" units-per-em="1000" x-height="500" /><missing-glyph horiz-adv-x="200" /><glyph d="M241 557 319 626 479 444 683 626 743 557 539 375 699 193 622 124 462 306 258 124 197 193 401 375ZM234 650 167 100H707L774 650ZM141 750H891L800 0H50Z" glyph-name=".notdef&#195;&#191;" horiz-adv-x="910" /><glyph d="M296 316H472L419 596ZM627 96 731 84 721 0H402L412 84L514 95L491 219H254L200 95L299 84L289 0H-30L-20 84L87 95L346 655L254 666L264 750H483Z" glyph-name="A" horiz-adv-x="750" unicode="A" /><glyph d="M258 228H366L329 374ZM391 500 508 94 591 84 581 0H304L314 84L400 94L387 143H216L192 93L276 84L266 0H-10L0 84L84 94L249 407L168 416L178 500Z" glyph-name="A.sc" horiz-adv-x="632" /><glyph d="M543 438 561 585 449 438ZM1031 747 1009 560H924V650H674L648 438H807L828 528H912L878 248H793V338H636L607 100H859L880 190H964L941 2L942 0H400L410 84L501 94L531 338H373L185 92L256 84L246 0H-30L-20 84L62 93L502 658L433 666L443 750H1033Z" glyph-name="AE" horiz-adv-x="1043" unicode="&#198;" /><glyph d="M437 406 355 298H425L438 406ZM774 316H689V406H537L524 298H679L668 204H513L500 94H653L674 184H758L736 0H300L310 84L401 94L414 204H283L198 92L269 84L259 0H-5L5 84L87 93L331 408L262 416L272 500H796Z" glyph-name="AE.sc" horiz-adv-x="837" unicode="&#63462;" /><glyph d="M543 438 561 585 449 438ZM603 825 704 1000H825L679 825ZM1031 747 1009 560H924V650H674L648 438H807L828 528H912L878 248H793V338H636L607 100H859L880 190H964L941 2L942 0H400L410 84L501 94L531 338H373L185 92L256 84L246 0H-30L-20 84L62 93L502 658L433 666L443 750H1033Z" glyph-name="AEacute" horiz-adv-x="1043" unicode="&#508;" /><glyph d="M437 406 355 298H425L438 406ZM470 575 571 750H692L546 575ZM5 84 87 93 331 408 262 416 272 500H796L774 316H689V406H537L524 298H679L668 204H513L500 94H653L674 184H758L736 0H300L310 84L401 94L414 204H283L198 92L269 84L259 0H-5Z" glyph-name="AEacute.sc" horiz-adv-x="837" /><glyph d="M419 825 520 1000H641L475 825ZM296 316H472L419 596ZM-20 84 87 95 346 655 254 666 264 750H483L627 96L731 84L721 0H402L412 84L514 95L491 219H254L200 95L299 84L289 0H-30Z" glyph-name="Aacute" horiz-adv-x="750" unicode="&#193;" /><glyph d="M258 228H366L329 374ZM316 575 417 750H538L392 575ZM391 500 508 94 591 84 581 0H304L314 84L400 94L387 143H216L192 93L276 84L266 0H-10L0 84L84 94L249 407L168 416L178 500Z" glyph-name="Aacute.sc" horiz-adv-x="632" unicode="&#63457;" /><glyph d="M444 812Q369 812 329.5 859Q290 906 299 1000H376Q371 946 389 922Q407 898 454 898Q501 898 525 921Q549 944 557 1000H635Q621 903 570 857.5Q519 812 444 812ZM296 316H472L419 596ZM-20 84 87 95 346 655 254 666 264 750H483L627 96L731 84L721 0H402L412 84L514 95L491 219H254L200 95L299 84L289 0H-30Z" glyph-name="Abreve" horiz-adv-x="750" unicode="&#258;" /><glyph d="M351 562Q276 562 236.5 609Q197 656 206 750H283Q278 696 296 672Q314 648 361 648Q408 648 432 671Q456 694 464 750H542Q528 653 477 607.5Q426 562 351 562ZM258 228H366L329 374ZM508 94 591 84 581 0H304L314 84L400 94L387 143H216L192 93L276 84L266 0H-10L0 84L84 94L249 407L168 416L178 500H391Z" glyph-name="Abreve.sc" horiz-adv-x="632" /><glyph d="M547 825 458 930 343 825H267L413 1000H519L623 825ZM296 316H472L419 596ZM-20 84 87 95 346 655 254 666 264 750H483L627 96L731 84L721 0H402L412 84L514 95L491 219H254L200 95L299 84L289 0H-30Z" glyph-name="Acircumflex" horiz-adv-x="750" unicode="&#194;" /><glyph d="M258 228H366L329 374ZM457 575 367 680 253 575H177L323 750H429L533 575ZM508 94 591 84 581 0H304L314 84L400 94L387 143H216L192 93L276 84L266 0H-10L0 84L84 94L249 407L168 416L178 500H391Z" glyph-name="Acircumflex.sc" horiz-adv-x="632" /><glyph d="M515 977H635L620 857H500ZM295 977H415L400 857H280ZM296 316H472L419 596ZM-20 84 87 95 346 655 254 666 264 750H483L627 96L731 84L721 0H402L412 84L514 95L491 219H254L200 95L299 84L289 0H-30Z" glyph-name="Adieresis" horiz-adv-x="750" unicode="&#196;" /><glyph d="M258 228H366L329 374ZM423 727H543L528 607H408ZM203 727H323L308 607H188ZM508 94 591 84 581 0H304L314 84L400 94L387 143H216L192 93L276 84L266 0H-10L0 84L84 94L249 407L168 416L178 500H391Z" glyph-name="Adieresis.sc" horiz-adv-x="632" /><glyph d="M420 825 296 1000H417L476 825ZM296 316H472L419 596ZM627 96 731 84 721 0H402L412 84L514 95L491 219H254L200 95L299 84L289 0H-30L-20 84L87 95L346 655L254 666L264 750H483Z" glyph-name="Agrave" horiz-adv-x="750" unicode="&#192;" /><glyph d="M258 228H366L329 374ZM315 575 211 750H332L391 575ZM391 500 508 94 591 84 581 0H304L314 84L400 94L387 143H216L192 93L276 84L266 0H-10L0 84L84 94L249 407L168 416L178 500Z" glyph-name="Agrave.sc" horiz-adv-x="632" /><glyph d="M296 316H472L419 596ZM308 825 319 916H593L582 825ZM-20 84 87 95 346 655 254 666 264 750H483L627 96L731 84L721 0H402L412 84L514 95L491 219H254L200 95L299 84L289 0H-30Z" glyph-name="Amacron" horiz-adv-x="750" unicode="&#256;" /><glyph d="M258 228H366L329 374ZM216 575 227 666H501L490 575ZM391 500 508 94 591 84 581 0H304L314 84L400 94L387 143H216L192 93L276 84L266 0H-10L0 84L84 94L249 407L168 416L178 500Z" glyph-name="Amacron.sc" horiz-adv-x="632" /><glyph d="M296 316H472L419 596ZM-20 84 87 95 346 655 254 666 264 750H483L627 96L731 84L721 0Q696 -1 672 -9Q648 -17 628.5 -31Q609 -45 596 -64Q583 -83 580 -106Q578 -127 591 -135Q604 -143 619 -143Q634 -143 648 -141Q662 -139 673 -136Q685 -132 696 -128L685 -213Q677 -218 653 -225Q629 -232 588 -232Q565 -232 545 -225.5Q525 -219 510.5 -206Q496 -193 489 -173.5Q482 -154 485 -128Q489 -94 508.5 -61Q528 -28 561 0H402L412 84L514 95L491 219H254L200 95L299 84L289 0H-30Z" glyph-name="Aogonek" horiz-adv-x="750" unicode="&#260;" /><glyph d="M258 228H366L329 374ZM508 94 591 84 581 0H576Q553 -1 530 -9Q507 -17 488 -31Q469 -45 456 -64Q443 -83 440 -106Q438 -127 451 -135Q464 -143 479 -143Q494 -143 508 -141Q522 -139 533 -136Q545 -132 556 -128L545 -213Q537 -218 513 -225Q489 -232 448 -232Q425 -232 405 -225.5Q385 -219 370.5 -206Q356 -193 349 -173.5Q342 -154 345 -128Q349 -94 368.5 -61Q388 -28 421 0H304L314 84L400 94L387 143H216L192 93L276 84L266 0H-10L0 84L84 94L249 407L168 416L178 500H391Z" glyph-name="Aogonek.sc" horiz-adv-x="632" /><glyph d="M501 912Q504 938 494 947.5Q484 957 463 957Q441 957 428.5 947.5Q416 938 413 912Q410 888 420 878.5Q430 869 452 869Q473 869 485.5 878.5Q498 888 501 912ZM296 316H472L419 596ZM558 912Q552 860 521 836Q490 812 445 812Q399 812 374 836Q349 860 355 912Q362 965 392.5 989Q423 1013 469 1013Q514 1013 539.5 989Q565 965 558 912ZM-20 84 87 95 346 655 254 666 264 750H483L627 96L731 84L721 0H402L412 84L514 95L491 219H254L200 95L299 84L289 0H-30Z" glyph-name="Aring" horiz-adv-x="750" unicode="&#197;" /><glyph d="M408 662Q411 688 401 697.5Q391 707 370 707Q348 707 335.5 697.5Q323 688 320 662Q317 638 327 628.5Q337 619 359 619Q380 619 392.5 628.5Q405 638 408 662ZM258 228H366L329 374ZM465 662Q459 610 428 586Q397 562 352 562Q306 562 281 586Q256 610 262 662Q269 715 299.5 739Q330 763 376 763Q421 763 446.5 739Q472 715 465 662ZM391 500 508 94 591 84 581 0H304L314 84L400 94L387 143H216L192 93L276 84L266 0H-10L0 84L84 94L249 407L168 416L178 500Z" glyph-name="Aring.sc" horiz-adv-x="632" unicode="&#63461;" /><glyph d="M501 912Q504 938 494 947.5Q484 957 463 957Q441 957 428.5 947.5Q416 938 413 912Q410 888 420 878.5Q430 869 452 869Q473 869 485.5 878.5Q498 888 501 912ZM296 316H472L419 596ZM558 912Q552 860 521 836Q490 812 445 812Q399 812 374 836Q349 860 355 912Q357 931 363 945.5Q369 960 377 972L469 1132H590L489 1011Q525 1006 544.5 982Q564 958 558 912ZM627 96 731 84 721 0H402L412 84L514 95L491 219H254L200 95L299 84L289 0H-30L-20 84L87 95L346 655L254 666L264 750H483Z" glyph-name="Aringacute" horiz-adv-x="750" unicode="&#506;" /><glyph d="M408 662Q411 688 401 697.5Q391 707 370 707Q348 707 335.5 697.5Q323 688 320 662Q317 638 327 628.5Q337 619 359 619Q380 619 392.5 628.5Q405 638 408 662ZM258 228H366L329 374ZM465 662Q459 610 428 586Q397 562 352 562Q306 562 281 586Q256 610 262 662Q264 681 270 695.5Q276 710 284 722L376 882H497L396 761Q432 756 451.5 732Q471 708 465 662ZM391 500 508 94 591 84 581 0H304L314 84L400 94L387 143H216L192 93L276 84L266 0H-10L0 84L84 94L249 407L168 416L178 500Z" glyph-name="Aringacute.sc" horiz-adv-x="632" /><glyph d="M296 316H472L419 596ZM602 874Q585 888 568 894.5Q551 901 530 901Q511 901 495.5 891Q480 881 463 869Q446 857 426 847Q406 837 378 837Q352 837 332 849Q312 861 301 873L311 951Q328 937 345 930.5Q362 924 383 924Q402 924 417.5 934Q433 944 449.5 956Q466 968 486 978Q506 988 534 988Q560 988 580 976Q600 964 611 952ZM-20 84 87 95 346 655 254 666 264 750H483L627 96L731 84L721 0H402L412 84L514 95L491 219H254L200 95L299 84L289 0H-30Z" glyph-name="Atilde" horiz-adv-x="750" unicode="&#195;" /><glyph d="M258 228H366L329 374ZM510 624Q493 638 476 644.5Q459 651 438 651Q419 651 403.5 641Q388 631 371 619Q354 607 334 597Q314 587 286 587Q260 587 240 599Q220 611 209 623L219 701Q236 687 253 680.5Q270 674 291 674Q310 674 325.5 684Q341 694 357.5 706Q374 718 394 728Q414 738 442 738Q468 738 488 726Q508 714 519 702ZM391 500 508 94 591 84 581 0H304L314 84L400 94L387 143H216L192 93L276 84L266 0H-10L0 84L84 94L249 407L168 416L178 500Z" glyph-name="Atilde.sc" horiz-adv-x="632" unicode="&#63459;" /><glyph d="M543 544Q545 564 543 583Q541 602 529.5 617Q518 632 495 641Q472 650 433 650H290L264 438H415Q449 438 472.5 447Q496 456 511 471Q526 486 533 505Q540 524 543 544ZM223 100H372Q416 100 445 110.5Q474 121 491 137.5Q508 154 516 175Q524 196 527 218Q535 281 507.5 309.5Q480 338 403 338H252ZM441 750Q508 750 552 733.5Q596 717 621 689Q646 661 653.5 623.5Q661 586 656 544Q651 502 627.5 462Q604 422 565 395Q613 370 630 321.5Q647 273 640 218Q634 173 616 133Q598 93 564.5 63.5Q531 34 479.5 17Q428 0 356 0H15L25 84L116 94L184 656L96 666L106 750Z" glyph-name="B" horiz-adv-x="704" unicode="B" /><glyph d="M378 315Q408 315 418.5 327Q429 339 431 360Q434 381 425.5 393Q417 405 384 405H267L256 315ZM425 161Q429 190 418.5 208Q408 226 368 226H245L229 96H352Q392 96 406.5 114Q421 132 425 161ZM391 500Q436 500 465 491Q494 482 510 464Q526 446 530.5 420.5Q535 395 531 362Q528 338 515.5 312.5Q503 287 484 278Q510 264 521.5 229.5Q533 195 528 158Q524 124 512 95Q500 66 477.5 45Q455 24 420.5 12Q386 0 337 0H30L40 84L131 94L169 406L80 416L90 500Z" glyph-name="B.sc" horiz-adv-x="599" /><glyph d="M556 24Q520 9 468 -2Q416 -13 348 -13Q262 -13 203.5 17.5Q145 48 111 101Q77 154 66 224.5Q55 295 65 375Q75 455 103 525.5Q131 596 178 649Q225 702 290.5 732.5Q356 763 442 763Q510 763 559.5 752Q609 741 642 726L620 545H535V650Q509 657 484 660Q459 663 430 663Q377 663 333 641Q289 619 256 580Q223 541 202 488.5Q181 436 174 375Q166 314 174.5 261.5Q183 209 206.5 170Q230 131 268.5 109Q307 87 360 87Q390 87 415.5 89.5Q441 92 469 100L494 205H578Z" glyph-name="C" horiz-adv-x="659" unicode="C" /><glyph d="M481 11Q461 4 437 -0.5Q413 -5 388.5 -8Q364 -11 341.5 -12Q319 -13 301 -13Q237 -13 189.5 5.5Q142 24 111.5 58.5Q81 93 69 141.5Q57 190 64 250Q71 310 95 358.5Q119 407 157.5 441.5Q196 476 248 494.5Q300 513 364 513Q382 513 404 512Q426 511 449.5 508Q473 505 496 500.5Q519 496 538 489L517 317H432V410Q414 414 394.5 416Q375 418 351 418Q303 418 269.5 405Q236 392 214.5 369Q193 346 181.5 315.5Q170 285 166 250Q162 215 166 184.5Q170 154 186.5 131Q203 108 233 95Q263 82 311 82Q336 82 356 84Q376 86 395 90L417 183H501Z" glyph-name="C.sc" horiz-adv-x="600" /><glyph d="M402 825 503 1000H624L478 825ZM556 24Q520 9 468 -2Q416 -13 348 -13Q262 -13 203.5 17.5Q145 48 111 101Q77 154 66 224.5Q55 295 65 375Q75 455 103 525.5Q131 596 178 649Q225 702 290.5 732.5Q356 763 442 763Q510 763 559.5 752Q609 741 642 726L620 545H535V650Q509 657 484 660Q459 663 430 663Q377 663 333 641Q289 619 256 580Q223 541 202 488.5Q181 436 174 375Q166 314 174.5 261.5Q183 209 206.5 170Q230 131 268.5 109Q307 87 360 87Q390 87 415.5 89.5Q441 92 469 100L494 205H578Z" glyph-name="Cacute" horiz-adv-x="659" unicode="&#262;" /><glyph d="M334 575 435 750H556L410 575ZM481 11Q461 4 437 -0.5Q413 -5 388.5 -8Q364 -11 341.5 -12Q319 -13 301 -13Q237 -13 189.5 5.5Q142 24 111.5 58.5Q81 93 69 141.5Q57 190 64 250Q71 310 95 358.5Q119 407 157.5 441.5Q196 476 248 494.5Q300 513 364 513Q382 513 404 512Q426 511 449.5 508Q473 505 496 500.5Q519 496 538 489L517 317H432V410Q414 414 394.5 416Q375 418 351 418Q303 418 269.5 405Q236 392 214.5 369Q193 346 181.5 315.5Q170 285 166 250Q162 215 166 184.5Q170 154 186.5 131Q203 108 233 95Q263 82 311 82Q336 82 356 84Q376 86 395 90L417 183H501Z" glyph-name="Cacute.sc" horiz-adv-x="600" /><glyph d="M640 1000 494 825H388L284 1000H360L449 895L564 1000ZM556 24Q520 9 468 -2Q416 -13 348 -13Q262 -13 203.5 17.5Q145 48 111 101Q77 154 66 224.5Q55 295 65 375Q75 455 103 525.5Q131 596 178 649Q225 702 290.5 732.5Q356 763 442 763Q510 763 559.5 752Q609 741 642 726L620 545H535V650Q509 657 484 660Q459 663 430 663Q377 663 333 641Q289 619 256 580Q223 541 202 488.5Q181 436 174 375Q166 314 174.5 261.5Q183 209 206.5 170Q230 131 268.5 109Q307 87 360 87Q390 87 415.5 89.5Q441 92 469 100L494 205H578Z" glyph-name="Ccaron" horiz-adv-x="659" unicode="&#268;" /><glyph d="M474 575 384 680 270 575H194L340 750H446L550 575ZM481 11Q461 4 437 -0.5Q413 -5 388.5 -8Q364 -11 341.5 -12Q319 -13 301 -13Q237 -13 189.5 5.5Q142 24 111.5 58.5Q81 93 69 141.5Q57 190 64 250Q71 310 95 358.5Q119 407 157.5 441.5Q196 476 248 494.5Q300 513 364 513Q382 513 404 512Q426 511 449.5 508Q473 505 496 500.5Q519 496 538 489L517 317H432V410Q414 414 394.5 416Q375 418 351 418Q303 418 269.5 405Q236 392 214.5 369Q193 346 181.5 315.5Q170 285 166 250Q162 215 166 184.5Q170 154 186.5 131Q203 108 233 95Q263 82 311 82Q336 82 356 84Q376 86 395 90L417 183H501Z" glyph-name="Ccaron.sc" horiz-adv-x="600" /><glyph d="M556 24Q524 10 480.5 0.5Q437 -9 382 -12L371 -46Q401 -57 422 -79Q443 -101 439 -140Q436 -163 425 -178.5Q414 -194 396.5 -203.5Q379 -213 357 -217.5Q335 -222 311 -222Q279 -222 258 -216Q237 -210 229 -205L252 -155Q261 -158 272 -161Q281 -163 292.5 -165Q304 -167 317 -167Q343 -167 352 -157Q361 -147 362 -139Q363 -126 356.5 -117Q350 -108 338 -102Q326 -96 309.5 -92.5Q293 -89 275 -87L311 -11Q236 -4 184.5 29Q133 62 103.5 113.5Q74 165 65 232.5Q56 300 65 375Q75 455 103 525.5Q131 596 178 649Q225 702 290.5 732.5Q356 763 442 763Q510 763 559.5 752Q609 741 642 726L620 545H535V650Q509 657 484 660Q459 663 430 663Q377 663 333 641Q289 619 256 580Q223 541 202 488.5Q181 436 174 375Q166 314 174.5 261.5Q183 209 206.5 170Q230 131 268.5 109Q307 87 360 87Q390 87 415.5 89.5Q441 92 469 100L494 205H578Z" glyph-name="Ccedilla" horiz-adv-x="659" unicode="&#199;" /><glyph d="M481 11Q446 -1 401 -6.5Q356 -12 321 -13L310 -46Q340 -57 361 -79Q382 -101 378 -140Q375 -163 364 -178.5Q353 -194 335.5 -203.5Q318 -213 296 -217.5Q274 -222 250 -222Q218 -222 197 -216Q176 -210 168 -205L191 -155Q200 -158 211 -161Q220 -163 231.5 -165Q243 -167 256 -167Q282 -167 291 -157Q300 -147 301 -139Q302 -126 295.5 -117Q289 -108 277 -102Q265 -96 248.5 -92.5Q232 -89 214 -87L250 -9Q147 5 99 73.5Q51 142 64 250Q71 310 95 358.5Q119 407 157.5 441.5Q196 476 248 494.5Q300 513 364 513Q382 513 404 512Q426 511 449.5 508Q473 505 496 500.5Q519 496 538 489L517 317H432V410Q414 414 394.5 416Q375 418 351 418Q303 418 269.5 405Q236 392 214.5 369Q193 346 181.5 315.5Q170 285 166 250Q162 215 166 184.5Q170 154 186.5 131Q203 108 233 95Q263 82 311 82Q336 82 356 84Q376 86 395 90L417 183H501Z" glyph-name="Ccedilla.sc" horiz-adv-x="600" unicode="&#63463;" /><glyph d="M544 825 454 930 340 825H264L410 1000H516L620 825ZM556 24Q520 9 468 -2Q416 -13 348 -13Q262 -13 203.5 17.5Q145 48 111 101Q77 154 66 224.5Q55 295 65 375Q75 455 103 525.5Q131 596 178 649Q225 702 290.5 732.5Q356 763 442 763Q510 763 559.5 752Q609 741 642 726L620 545H535V650Q509 657 484 660Q459 663 430 663Q377 663 333 641Q289 619 256 580Q223 541 202 488.5Q181 436 174 375Q166 314 174.5 261.5Q183 209 206.5 170Q230 131 268.5 109Q307 87 360 87Q390 87 415.5 89.5Q441 92 469 100L494 205H578Z" glyph-name="Ccircumflex" horiz-adv-x="659" unicode="&#264;" /><glyph d="M571 750 425 575H319L215 750H291L380 645L495 750ZM481 11Q461 4 437 -0.5Q413 -5 388.5 -8Q364 -11 341.5 -12Q319 -13 301 -13Q237 -13 189.5 5.5Q142 24 111.5 58.5Q81 93 69 141.5Q57 190 64 250Q71 310 95 358.5Q119 407 157.5 441.5Q196 476 248 494.5Q300 513 364 513Q382 513 404 512Q426 511 449.5 508Q473 505 496 500.5Q519 496 538 489L517 317H432V410Q414 414 394.5 416Q375 418 351 418Q303 418 269.5 405Q236 392 214.5 369Q193 346 181.5 315.5Q170 285 166 250Q162 215 166 184.5Q170 154 186.5 131Q203 108 233 95Q263 82 311 82Q336 82 356 84Q376 86 395 90L417 183H501Z" glyph-name="Ccircumflex.sc" horiz-adv-x="600" /><glyph d="M409 977H529L514 857H394ZM556 24Q520 9 468 -2Q416 -13 348 -13Q262 -13 203.5 17.5Q145 48 111 101Q77 154 66 224.5Q55 295 65 375Q75 455 103 525.5Q131 596 178 649Q225 702 290.5 732.5Q356 763 442 763Q510 763 559.5 752Q609 741 642 726L620 545H535V650Q509 657 484 660Q459 663 430 663Q377 663 333 641Q289 619 256 580Q223 541 202 488.5Q181 436 174 375Q166 314 174.5 261.5Q183 209 206.5 170Q230 131 268.5 109Q307 87 360 87Q390 87 415.5 89.5Q441 92 469 100L494 205H578Z" glyph-name="Cdotaccent" horiz-adv-x="659" unicode="&#266;" /><glyph d="M330 727H450L435 607H315ZM481 11Q461 4 437 -0.5Q413 -5 388.5 -8Q364 -11 341.5 -12Q319 -13 301 -13Q237 -13 189.5 5.5Q142 24 111.5 58.5Q81 93 69 141.5Q57 190 64 250Q71 310 95 358.5Q119 407 157.5 441.5Q196 476 248 494.5Q300 513 364 513Q382 513 404 512Q426 511 449.5 508Q473 505 496 500.5Q519 496 538 489L517 317H432V410Q414 414 394.5 416Q375 418 351 418Q303 418 269.5 405Q236 392 214.5 369Q193 346 181.5 315.5Q170 285 166 250Q162 215 166 184.5Q170 154 186.5 131Q203 108 233 95Q263 82 311 82Q336 82 356 84Q376 86 395 90L417 183H501Z" glyph-name="Cdotaccent.sc" horiz-adv-x="600" /><glyph d="M222 100H334Q392 100 434 120.5Q476 141 504 177.5Q532 214 548 264.5Q564 315 571 375Q578 435 574.5 485.5Q571 536 552 572.5Q533 609 496 629.5Q459 650 401 650H289ZM409 750Q502 750 560 721.5Q618 693 648.5 642.5Q679 592 685.5 523.5Q692 455 682 375Q672 295 649 226.5Q626 158 583.5 107.5Q541 57 476 28.5Q411 0 318 0H15L25 84L116 94L184 656L96 666L106 750Z" glyph-name="D" horiz-adv-x="717" unicode="D" /><glyph d="M327 94Q409 94 445 136.5Q481 179 489 250Q493 285 489.5 314Q486 343 472 363.5Q458 384 432 395Q406 406 365 406H267L229 94ZM375 500Q440 500 484 482.5Q528 465 553.5 432.5Q579 400 587 353.5Q595 307 588 250Q581 193 561.5 146.5Q542 100 509 67.5Q476 35 428 17.5Q380 0 315 0H30L40 84L131 94L169 406L80 416L90 500Z" glyph-name="D.sc" horiz-adv-x="643" /><glyph d="M608 1000 462 825H356L252 1000H328L417 895L532 1000ZM222 100H334Q392 100 434 120.5Q476 141 504 177.5Q532 214 548 264.5Q564 315 571 375Q578 435 574.5 485.5Q571 536 552 572.5Q533 609 496 629.5Q459 650 401 650H289ZM409 750Q502 750 560 721.5Q618 693 648.5 642.5Q679 592 685.5 523.5Q692 455 682 375Q672 295 649 226.5Q626 158 583.5 107.5Q541 57 476 28.5Q411 0 318 0H15L25 84L116 94L184 656L96 666L106 750Z" glyph-name="Dcaron" horiz-adv-x="717" unicode="&#270;" /><glyph d="M554 750 408 575H302L198 750H274L363 645L478 750ZM327 94Q409 94 445 136.5Q481 179 489 250Q493 285 489.5 314Q486 343 472 363.5Q458 384 432 395Q406 406 365 406H267L229 94ZM375 500Q440 500 484 482.5Q528 465 553.5 432.5Q579 400 587 353.5Q595 307 588 250Q581 193 561.5 146.5Q542 100 509 67.5Q476 35 428 17.5Q380 0 315 0H30L40 84L131 94L169 406L80 416L90 500Z" glyph-name="Dcaron.sc" horiz-adv-x="643" /><glyph d="M260 418H386L376 336H250L222 100H334Q392 100 434 120.5Q476 141 504 177.5Q532 214 548 264.5Q564 315 571 375Q578 435 574.5 485.5Q571 536 552 572.5Q533 609 496 629.5Q459 650 401 650H289ZM409 750Q502 750 560 721.5Q618 693 648.5 642.5Q679 592 685.5 523.5Q692 455 682 375Q672 295 649 226.5Q626 158 583.5 107.5Q541 57 476 28.5Q411 0 318 0H15L25 84L116 94L146 336H56L66 418H156L184 656L96 666L106 750Z" glyph-name="Dcroat" horiz-adv-x="717" unicode="&#272;" /><glyph d="M327 94Q409 94 445 136.5Q481 179 489 250Q493 285 489.5 314Q486 343 472 363.5Q458 384 432 395Q406 406 365 406H267L253 294H385L375 212H243L229 94ZM375 500Q440 500 484 482.5Q528 465 553.5 432.5Q579 400 587 353.5Q595 307 588 250Q581 193 561.5 146.5Q542 100 509 67.5Q476 35 428 17.5Q380 0 315 0H30L40 84L131 94L145 212H55L65 294H155L169 406L80 416L90 500Z" glyph-name="Dcroat.sc" horiz-adv-x="643" /><glyph d="M67 250Q74 304 100.5 352Q127 400 167 436Q207 472 257.5 492.5Q308 513 362 513Q416 513 461.5 492.5Q507 472 538.5 436Q570 400 585 352Q600 304 593 250Q586 196 559.5 148Q533 100 493 64Q453 28 402.5 7.5Q352 -13 298 -13Q244 -13 198.5 7.5Q153 28 121.5 64Q90 100 75 148Q60 196 67 250Z" glyph-name="Delta" horiz-adv-x="660" unicode="&#8710;" /><glyph d="M624 560H539V650H289L263 438H422L443 528H527L493 248H408V338H251L222 100H474L495 190H579L556 0H15L25 84L116 94L184 656L96 666L106 750H647Z" glyph-name="E" horiz-adv-x="641" unicode="E" /><glyph d="M535 316H450V406H268L255 298H440L429 204H244L230 94H414L435 184H519L497 0H30L40 84L131 94L169 406L80 416L90 500H557Z" glyph-name="E.sc" horiz-adv-x="597" /><glyph d="M402 825 503 1000H624L458 825ZM624 560H539V650H289L263 438H422L443 528H527L493 248H408V338H251L222 100H474L495 190H579L556 0H15L25 84L116 94L184 656L96 666L106 750H647Z" glyph-name="Eacute" horiz-adv-x="641" unicode="&#201;" /><glyph d="M320 575 421 750H542L396 575ZM535 316H450V406H268L255 298H440L429 204H244L230 94H414L435 184H519L497 0H30L40 84L131 94L169 406L80 416L90 500H557Z" glyph-name="Eacute.sc" horiz-adv-x="597" unicode="&#63465;" /><glyph d="M408 812Q333 812 293.5 859Q254 906 263 1000H340Q335 946 353 922Q371 898 418 898Q465 898 489 921Q513 944 521 1000H599Q585 903 534 857.5Q483 812 408 812ZM624 560H539V650H289L263 438H422L443 528H527L493 248H408V338H251L222 100H474L495 190H579L556 0H15L25 84L116 94L184 656L96 666L106 750H647Z" glyph-name="Ebreve" horiz-adv-x="641" unicode="&#276;" /><glyph d="M365 562Q290 562 250.5 609Q211 656 220 750H297Q292 696 310 672Q328 648 375 648Q422 648 446 671Q470 694 478 750H556Q542 653 491 607.5Q440 562 365 562ZM535 316H450V406H268L255 298H440L429 204H244L230 94H414L435 184H519L497 0H30L40 84L131 94L169 406L80 416L90 500H557Z" glyph-name="Ebreve.sc" horiz-adv-x="597" /><glyph d="M610 1000 464 825H358L254 1000H330L419 895L534 1000ZM624 560H539V650H289L263 438H422L443 528H527L493 248H408V338H251L222 100H474L495 190H579L556 0H15L25 84L116 94L184 656L96 666L106 750H647Z" glyph-name="Ecaron" horiz-adv-x="641" unicode="&#282;" /><glyph d="M564 750 418 575H312L208 750H284L373 645L488 750ZM535 316H450V406H268L255 298H440L429 204H244L230 94H414L435 184H519L497 0H30L40 84L131 94L169 406L80 416L90 500H557Z" glyph-name="Ecaron.sc" horiz-adv-x="597" /><glyph d="M502 825 413 930 298 825H222L368 1000H474L578 825ZM624 560H539V650H289L263 438H422L443 528H527L493 248H408V338H251L222 100H474L495 190H579L556 0H15L25 84L116 94L184 656L96 666L106 750H647Z" glyph-name="Ecircumflex" horiz-adv-x="667" unicode="&#202;" /><glyph d="M463 575 373 680 259 575H183L329 750H435L539 575ZM535 316H450V406H268L255 298H440L429 204H244L230 94H414L435 184H519L497 0H30L40 84L131 94L169 406L80 416L90 500H557Z" glyph-name="Ecircumflex.sc" horiz-adv-x="597" /><glyph d="M497 977H617L602 857H482ZM277 977H397L382 857H262ZM624 560H539V650H289L263 438H422L443 528H527L493 248H408V338H251L222 100H474L495 190H579L556 0H15L25 84L116 94L184 656L96 666L106 750H647Z" glyph-name="Edieresis" horiz-adv-x="641" unicode="&#203;" /><glyph d="M208 727H328L313 607H193ZM428 727H548L533 607H413ZM535 316H450V406H268L255 298H440L429 204H244L230 94H414L435 184H519L508 94L497 0H30L40 84L131 94L169 406L80 416L90 500H557Z" glyph-name="Edieresis.sc" horiz-adv-x="597" /><glyph d="M368 977H488L473 857H353ZM624 560H539V650H289L263 438H422L443 528H527L493 248H408V338H251L222 100H474L495 190H579L556 0H15L25 84L116 94L184 656L96 666L106 750H647Z" glyph-name="Edotaccent" horiz-adv-x="641" unicode="&#278;" /><glyph d="M326 727H446L431 607H311ZM520 316H435V406H253L240 298H425L414 204H229L215 94H399L420 184H504L482 0H15L25 84L116 94L154 406L65 416L75 500H542Z" glyph-name="Edotaccent.sc" horiz-adv-x="597" /><glyph d="M401 825 277 1000H398L457 825ZM624 560H539V650H289L263 438H422L443 528H527L493 248H408V338H251L222 100H474L495 190H579L556 0H15L25 84L116 94L184 656L96 666L106 750H647Z" glyph-name="Egrave" horiz-adv-x="641" unicode="&#200;" /><glyph d="M322 575 218 750H339L398 575ZM535 316H450V406H268L255 298H440L429 204H244L230 94H414L435 184H519L497 0H30L40 84L131 94L169 406L80 416L90 500H557Z" glyph-name="Egrave.sc" horiz-adv-x="597" /><glyph d="M272 825 283 916H557L546 825ZM624 560H539V650H289L263 438H422L443 528H527L493 248H408V338H251L222 100H474L495 190H579L556 0H15L25 84L116 94L184 656L96 666L106 750H647Z" glyph-name="Emacron" horiz-adv-x="641" unicode="&#274;" /><glyph d="M228 575 239 666H513L502 575ZM535 316H450V406H268L255 298H440L429 204H244L230 94H414L435 184H519L497 0H30L40 84L131 94L169 406L80 416L90 500H557Z" glyph-name="Emacron.sc" horiz-adv-x="597" /><glyph d="M555 155 615 656 526 666 536 750H818L808 666L716 656L625 -88Q620 -129 596.5 -160Q573 -191 538.5 -212.5Q504 -234 463.5 -246Q423 -258 384 -260L396 -168Q417 -165 439 -159.5Q461 -154 479.5 -143.5Q498 -133 510.5 -117Q523 -101 526 -79L529 -52L277 595L218 94L307 84L297 0H15L25 84L116 94L184 656L96 666L106 750H324Z" glyph-name="Eng" horiz-adv-x="782" unicode="&#330;" /><glyph d="M40 84 131 94 169 406 81 416 91 500H250L471 185L498 406L411 416L421 500H699L689 416L597 406L548 0L537 -88Q532 -129 508.5 -160Q485 -191 451 -212.5Q417 -234 376.5 -246Q336 -258 297 -260L309 -168Q330 -165 352 -159.5Q374 -154 392.5 -143.5Q411 -133 423.5 -117Q436 -101 439 -79L453 36L256 316L229 94L318 84L308 0H30Z" glyph-name="Eng.sc" horiz-adv-x="708" /><glyph d="M624 560H539V650H289L263 438H422L443 528H527L493 248H408V338H251L222 100H474L495 190H579L556 0Q531 -1 507 -9Q483 -17 463.5 -31Q444 -45 431 -64Q418 -83 415 -106Q413 -127 426 -135Q439 -143 454 -143Q469 -143 483 -141Q497 -139 508 -136Q520 -132 531 -128L520 -213Q512 -218 488 -225Q464 -232 423 -232Q400 -232 380 -225.5Q360 -219 345.5 -206Q331 -193 324 -173.5Q317 -154 320 -128Q324 -94 343.5 -61Q363 -28 396 0H15L25 84L116 94L184 656L96 666L106 750H647Z" glyph-name="Eogonek" horiz-adv-x="641" unicode="&#280;" /><glyph d="M535 316H450V406H268L255 298H440L429 204H244L230 94H414L435 184H519L497 0Q472 -1 448 -9Q424 -17 404.5 -31Q385 -45 372 -64Q359 -83 356 -106Q354 -127 367 -135Q380 -143 395 -143Q410 -143 424 -141Q438 -139 449 -136Q461 -132 472 -128L461 -213Q453 -218 429 -225Q405 -232 364 -232Q341 -232 321 -225.5Q301 -219 286.5 -206Q272 -193 265 -173.5Q258 -154 261 -128Q265 -94 284.5 -61Q304 -28 337 0H30L40 84L131 94L169 406L80 416L90 500H557Z" glyph-name="Eogonek.sc" horiz-adv-x="597" /><glyph d="M260 418H386L376 336H250L222 100H334Q392 100 434 120.5Q476 141 504 177.5Q532 214 548 264.5Q564 315 571 375Q578 435 574.5 485.5Q571 536 552 572.5Q533 609 496 629.5Q459 650 401 650H289ZM409 750Q502 750 560 721.5Q618 693 648.5 642.5Q679 592 685.5 523.5Q692 455 682 375Q672 295 649 226.5Q626 158 583.5 107.5Q541 57 476 28.5Q411 0 318 0H15L25 84L116 94L146 336H56L66 418H156L184 656L96 666L106 750Z" glyph-name="Eth" horiz-adv-x="717" unicode="&#208;" /><glyph d="M327 94Q409 94 445 136.5Q481 179 489 250Q493 285 489.5 314Q486 343 472 363.5Q458 384 432 395Q406 406 365 406H267L253 294H385L375 212H243L229 94ZM375 500Q440 500 484 482.5Q528 465 553.5 432.5Q579 400 587 353.5Q595 307 588 250Q581 193 561.5 146.5Q542 100 509 67.5Q476 35 428 17.5Q380 0 315 0H30L40 84L131 94L145 212H55L65 294H155L169 406L80 416L90 500Z" glyph-name="Eth.sc" horiz-adv-x="653" unicode="&#63472;" /><glyph d="M52 401 64 500H125Q140 564 163 613.5Q186 663 221 696Q256 729 305 746Q354 763 421 763Q456 763 497 758Q538 753 575 736L563 639Q528 651 492.5 658Q457 665 410 665Q335 665 294.5 623.5Q254 582 232 500H492L447 401H213L207 349H424L379 250H202Q204 167 234 126Q264 85 339 85Q386 85 423.5 92Q461 99 499 111L487 14Q446 -3 404 -8Q362 -13 327 -13Q260 -13 215 4Q170 21 143 54Q116 87 105 136Q94 185 95 250H34L46 349H101L107 401Z" glyph-name="Euro" horiz-adv-x="546" unicode="&#8364;" /><glyph d="M36 262 48 361H119Q149 428 208 470.5Q267 513 360 513Q395 513 435.5 508Q476 503 514 486L502 392Q467 404 431 411.5Q395 419 348 419Q307 419 278.5 403Q250 387 231 361H439L394 262H193L191 238H382L336 139H204Q216 113 240.5 97Q265 81 306 81Q353 81 391.5 88.5Q430 96 468 108L456 14Q415 -3 373 -8Q331 -13 296 -13Q203 -13 154 29Q105 71 92 139H21L34 238H89L91 262Z" glyph-name="Euro.onum" horiz-adv-x="546" /><glyph d="M616 560H531V650H290L264 438H414L435 528H519L485 248H400V338H252L222 94L311 84L301 0H15L25 84L116 94L184 656L96 666L106 750H639Z" glyph-name="F" horiz-adv-x="603" unicode="F" /><glyph d="M525 316H440V406H268L255 298H430L419 204H244L230 95L318 84L309 0H30L40 84L131 94L169 406L80 416L90 500H547Z" glyph-name="F.sc" horiz-adv-x="577" /><glyph d="M591 33Q545 13 485.5 0Q426 -13 348 -13Q262 -13 203.5 17.5Q145 48 111 101Q77 154 66 224.5Q55 295 65 375Q75 455 103 525.5Q131 596 178 649Q225 702 290.5 732.5Q356 763 442 763Q518 763 570.5 749Q623 735 656 718L635 545H550V644Q520 654 492 658.5Q464 663 430 663Q376 663 332 641Q288 619 255 580Q222 541 201 488.5Q180 436 173 375Q165 314 173.5 261.5Q182 209 205.5 170Q229 131 267.5 109Q306 87 360 87Q393 87 430.5 90.5Q468 94 494 102L520 314L399 328L409 412H637Z" glyph-name="G" horiz-adv-x="692" unicode="G" /><glyph d="M491 14Q436 -4 386 -8.5Q336 -13 301 -13Q237 -13 189.5 5.5Q142 24 111.5 58.5Q81 93 69 141.5Q57 190 64 250Q71 310 95 358.5Q119 407 157.5 441.5Q196 476 248 494.5Q300 513 364 513Q382 513 404 512Q426 511 449.5 508Q473 505 496 500.5Q519 496 538 489L517 317H432V410Q414 414 394.5 416Q375 418 351 418Q303 418 269.5 405Q236 392 214.5 369Q193 346 181.5 315.5Q170 285 166 250Q162 215 166 184.5Q170 154 186.5 131Q203 108 233 95Q263 82 311 82Q338 82 360 84Q382 86 402 91L413 183L327 193L337 277H523Z" glyph-name="G.sc" horiz-adv-x="610" /><glyph d="M438 812Q363 812 323.5 859Q284 906 293 1000H370Q365 946 383 922Q401 898 448 898Q495 898 519 921Q543 944 551 1000H629Q615 903 564 857.5Q513 812 438 812ZM348 -13Q262 -13 203.5 17.5Q145 48 111 101Q77 154 66 224.5Q55 295 65 375Q75 455 103 525.5Q131 596 178 649Q225 702 290.5 732.5Q356 763 442 763Q518 763 570.5 749Q623 735 656 718L635 545H550V646Q519 655 490.5 659Q462 663 430 663Q376 663 332 641Q288 619 255 580Q222 541 201 488.5Q180 436 173 375Q165 314 173.5 261.5Q182 209 205.5 170Q229 131 267.5 109Q306 87 360 87Q393 87 430.5 90.5Q468 94 494 102L520 314L399 328L409 412H637L591 33Q545 13 485.5 0Q426 -13 348 -13Z" glyph-name="Gbreve" horiz-adv-x="692" unicode="&#286;" /><glyph d="M359 562Q284 562 244.5 609Q205 656 214 750H291Q286 696 304 672Q322 648 369 648Q416 648 440 671Q464 694 472 750H550Q536 653 485 607.5Q434 562 359 562ZM491 14Q436 -4 386 -8.5Q336 -13 301 -13Q237 -13 189.5 5.5Q142 24 111.5 58.5Q81 93 69 141.5Q57 190 64 250Q71 310 95 358.5Q119 407 157.5 441.5Q196 476 248 494.5Q300 513 364 513Q382 513 404 512Q426 511 449.5 508Q473 505 496 500.5Q519 496 538 489L517 317H432V410Q414 414 394.5 416Q375 418 351 418Q303 418 269.5 405Q236 392 214.5 369Q193 346 181.5 315.5Q170 285 166 250Q162 215 166 184.5Q170 154 186.5 131Q203 108 233 95Q263 82 311 82Q338 82 360 84Q382 86 402 91L413 183L327 193L337 277H523Z" glyph-name="Gbreve.sc" horiz-adv-x="610" /><glyph d="M544 825 454 930 340 825H264L410 1000H516L620 825ZM348 -13Q262 -13 203.5 17.5Q145 48 111 101Q77 154 66 224.5Q55 295 65 375Q75 455 103 525.5Q131 596 178 649Q225 702 290.5 732.5Q356 763 442 763Q518 763 570.5 749Q623 735 656 718L635 545H550V646Q519 655 490.5 659Q462 663 430 663Q376 663 332 641Q288 619 255 580Q222 541 201 488.5Q180 436 173 375Q165 314 173.5 261.5Q182 209 205.5 170Q229 131 267.5 109Q306 87 360 87Q393 87 430.5 90.5Q468 94 494 102L520 314L399 328L409 412H637L591 33Q545 13 485.5 0Q426 -13 348 -13Z" glyph-name="Gcircumflex" horiz-adv-x="692" unicode="&#284;" /><glyph d="M463 575 373 680 259 575H183L329 750H435L539 575ZM491 14Q436 -4 386 -8.5Q336 -13 301 -13Q237 -13 189.5 5.5Q142 24 111.5 58.5Q81 93 69 141.5Q57 190 64 250Q71 310 95 358.5Q119 407 157.5 441.5Q196 476 248 494.5Q300 513 364 513Q382 513 404 512Q426 511 449.5 508Q473 505 496 500.5Q519 496 538 489L517 317H432V410Q414 414 394.5 416Q375 418 351 418Q303 418 269.5 405Q236 392 214.5 369Q193 346 181.5 315.5Q170 285 166 250Q162 215 166 184.5Q170 154 186.5 131Q203 108 233 95Q263 82 311 82Q338 82 360 84Q382 86 402 91L413 183L327 193L337 277H523Z" glyph-name="Gcircumflex.sc" horiz-adv-x="610" /><glyph d="M232 -250 284 -50H405L299 -250ZM348 -13Q262 -13 203.5 17.5Q145 48 111 101Q77 154 66 224.5Q55 295 65 375Q75 455 103 525.5Q131 596 178 649Q225 702 290.5 732.5Q356 763 442 763Q518 763 570.5 749Q623 735 656 718L635 545H550V646Q519 655 490.5 659Q462 663 430 663Q376 663 332 641Q288 619 255 580Q222 541 201 488.5Q180 436 173 375Q165 314 173.5 261.5Q182 209 205.5 170Q229 131 267.5 109Q306 87 360 87Q393 87 430.5 90.5Q468 94 494 102L520 314L399 328L409 412H637L591 33Q545 13 485.5 0Q426 -13 348 -13Z" glyph-name="Gcommaaccent" horiz-adv-x="692" unicode="&#290;" /><glyph d="M261 -250H194L239 -75H353ZM491 14Q436 -4 386 -8.5Q336 -13 301 -13Q237 -13 189.5 5.5Q142 24 111.5 58.5Q81 93 69 141.5Q57 190 64 250Q71 310 95 358.5Q119 407 157.5 441.5Q196 476 248 494.5Q300 513 364 513Q382 513 404 512Q426 511 449.5 508Q473 505 496 500.5Q519 496 538 489L517 317H432V410Q414 414 394.5 416Q375 418 351 418Q303 418 269.5 405Q236 392 214.5 369Q193 346 181.5 315.5Q170 285 166 250Q162 215 166 184.5Q170 154 186.5 131Q203 108 233 95Q263 82 311 82Q338 82 360 84Q382 86 402 91L413 183L327 193L337 277H523Z" glyph-name="Gcommaaccent.sc" horiz-adv-x="610" /><glyph d="M400 977H520L505 857H385ZM591 33Q545 13 485.5 0Q426 -13 348 -13Q262 -13 203.5 17.5Q145 48 111 101Q77 154 66 224.5Q55 295 65 375Q75 455 103 525.5Q131 596 178 649Q225 702 290.5 732.5Q356 763 442 763Q518 763 570.5 749Q623 735 656 718L635 545H550V646Q519 655 490.5 659Q462 663 430 663Q376 663 332 641Q288 619 255 580Q222 541 201 488.5Q180 436 173 375Q165 314 173.5 261.5Q182 209 205.5 170Q229 131 267.5 109Q306 87 360 87Q393 87 430.5 90.5Q468 94 494 102L520 314L399 328L409 412H637Z" glyph-name="Gdotaccent" horiz-adv-x="692" unicode="&#288;" /><glyph d="M319 727H439L424 607H304ZM491 14Q436 -4 386 -8.5Q336 -13 301 -13Q237 -13 189.5 5.5Q142 24 111.5 58.5Q81 93 69 141.5Q57 190 64 250Q71 310 95 358.5Q119 407 157.5 441.5Q196 476 248 494.5Q300 513 364 513Q382 513 404 512Q426 511 449.5 508Q473 505 496 500.5Q519 496 538 489L517 317H432V410Q414 414 394.5 416Q375 418 351 418Q303 418 269.5 405Q236 392 214.5 369Q193 346 181.5 315.5Q170 285 166 250Q162 215 166 184.5Q170 154 186.5 131Q203 108 233 95Q263 82 311 82Q338 82 360 84Q382 86 402 91L413 183L327 193L337 277H523Z" glyph-name="Gdotaccent.sc" horiz-adv-x="610" /><glyph d="M381 666 289 656 263 438H577L603 656L515 666L525 750H810L800 666L708 656L640 94L729 84L719 0H434L444 84L535 94L565 338H251L221 94L310 84L300 0H15L25 84L116 94L184 656L96 666L106 750H391Z" glyph-name="H" horiz-adv-x="794" unicode="H" /><glyph d="M359 416 267 406 255 303H485L497 405L410 416L419 500H698L688 416L597 406L559 95L647 84L638 0H359L369 84L460 94L474 209H244L230 94L318 84L309 0H30L40 84L131 94L168 405L81 416L90 500H369Z" glyph-name="H.sc" horiz-adv-x="728" /><glyph d="M577 438 584 501H270L263 438ZM381 666 289 656 281 590H595L603 656L515 666L525 750H810L800 666L708 656L640 94L729 84L719 0H434L444 84L535 94L565 338H251L221 94L310 84L300 0H15L25 84L116 94L184 656L96 666L106 750H391Z" glyph-name="Hbar" horiz-adv-x="794" unicode="&#294;" /><glyph d="M485 303 487 325H257L255 303ZM359 416 267 406 266 394H496L497 405L410 416L419 500H698L688 416L597 406L559 94L647 84L638 0H359L369 84L460 94L474 209H244L230 94L318 84L309 0H30L40 84L131 94L168 405L81 416L90 500H369Z" glyph-name="Hbar.sc" horiz-adv-x="728" /><glyph d="M571 825 481 930 367 825H291L437 1000H543L647 825ZM381 666 289 656 263 438H577L603 656L515 666L525 750H810L800 666L708 656L640 94L729 84L719 0H434L444 84L535 94L565 338H251L221 94L310 84L300 0H15L25 84L116 94L184 656L96 666L106 750H391Z" glyph-name="Hcircumflex" horiz-adv-x="794" unicode="&#292;" /><glyph d="M506 575 416 680 302 575H226L372 750H478L582 575ZM359 416 267 406 255 303H485L497 405L410 416L419 500H698L688 416L597 406L559 94L647 84L638 0H359L369 84L460 94L474 209H244L230 94L318 84L309 0H30L40 84L131 94L168 405L81 416L90 500H369Z" glyph-name="Hcircumflex.sc" horiz-adv-x="728" /><glyph d="M35 84 126 94 194 656 106 666 116 750H401L391 666L299 656L231 94L320 84L310 0H25Z" glyph-name="I" horiz-adv-x="395" unicode="I" /><glyph d="M40 0 50 84 141 94 178 405 91 416 100 500H378L368 416L276 406L239 94L328 84L319 0H229L228 2V0Z" glyph-name="I.sc" horiz-adv-x="418" /><glyph d="M852 666 760 656 699 149Q689 71 639 29Q589 -13 489 -13Q473 -13 450.5 -10Q428 -7 404 -1L416 98Q443 91 460.5 88.5Q478 86 501 86Q539 86 564 99Q589 112 593 147L655 656L567 666L577 750H862ZM35 84 126 94 194 656 106 666 116 750H401L391 666L299 656L231 94L320 84L310 0H25Z" glyph-name="IJ" horiz-adv-x="836" unicode="&#306;" /><glyph d="M822 416 730 406 699 145Q690 69 643 28Q596 -13 499 -13Q491 -13 480 -12.5Q469 -12 457 -10.5Q445 -9 434 -7Q423 -5 416 -3L428 94Q446 87 467 84.5Q488 82 510 82Q547 82 571 95Q595 108 600 143L631 405L544 416L553 500H832ZM40 0 50 84 141 94 178 405 91 416 100 500H378L368 416L276 406L239 94L328 84L319 0H229L228 2V0Z" glyph-name="IJ.sc" horiz-adv-x="846" /><glyph d="M239 825 340 1000H461L295 825ZM35 84 126 94 194 656 106 666 116 750H401L391 666L299 656L231 94L320 84L310 0H25Z" glyph-name="Iacute" horiz-adv-x="395" unicode="&#205;" /><glyph d="M212 575 313 750H434L288 575ZM40 0 50 84 141 94 178 405 91 416 100 500H378L368 416L276 406L239 94L328 84L319 0H229L228 2V0Z" glyph-name="Iacute.sc" horiz-adv-x="418" /><glyph d="M264 812Q189 812 149.5 859Q110 906 119 1000H196Q191 946 209 922Q227 898 274 898Q321 898 345 921Q369 944 377 1000H455Q441 903 390 857.5Q339 812 264 812ZM35 84 126 94 194 656 106 666 116 750H401L391 666L299 656L231 94L320 84L310 0H25Z" glyph-name="Ibreve" horiz-adv-x="395" unicode="&#300;" /><glyph d="M248 562Q173 562 133.5 609Q94 656 103 750H180Q175 696 193 672Q211 648 258 648Q305 648 329 671Q353 694 361 750H439Q425 653 374 607.5Q323 562 248 562ZM40 0 50 84 141 94 178 405 91 416 100 500H378L368 416L276 406L239 94L328 84L319 0H229L228 2V0Z" glyph-name="Ibreve.sc" horiz-adv-x="418" /><glyph d="M369 825 280 930 165 825H89L235 1000H341L445 825ZM35 84 126 94 194 656 106 666 116 750H401L391 666L299 656L231 94L320 84L310 0H25Z" glyph-name="Icircumflex" horiz-adv-x="395" unicode="&#206;" /><glyph d="M352 575 262 680 148 575H72L218 750H324L428 575ZM40 0 50 84 141 94 178 405 91 416 100 500H378L368 416L276 406L239 94L328 84L319 0H229L228 2V0Z" glyph-name="Icircumflex.sc" horiz-adv-x="418" /><glyph d="M336 977H456L441 857H321ZM116 977H236L221 857H101ZM35 84 126 94 194 656 106 666 116 750H401L391 666L299 656L231 94L320 84L310 0H25Z" glyph-name="Idieresis" horiz-adv-x="395" unicode="&#207;" /><glyph d="M318 727H438L423 607H303ZM98 727H218L203 607H83ZM40 0 50 84 141 94 178 405 91 416 100 500H378L368 416L277 406L239 94L328 84L319 0H229L228 2V0Z" glyph-name="Idieresis.sc" horiz-adv-x="418" /><glyph d="M227 977H347L332 857H212ZM35 84 126 94 194 656 106 666 116 750H401L391 666L299 656L231 94L320 84L310 0H25Z" glyph-name="Idotaccent" horiz-adv-x="395" unicode="&#304;" /><glyph d="M207 727H327L312 607H192ZM40 0 50 84 141 94 178 405 91 416 100 500H378L368 416L276 406L239 94L328 84L319 0H229L228 2V0Z" glyph-name="Idotaccent.sc" horiz-adv-x="418" /><glyph d="M239 825 115 1000H236L295 825ZM35 84 126 94 194 656 106 666 116 750H401L391 666L299 656L231 94L320 84L310 0H25Z" glyph-name="Igrave" horiz-adv-x="395" unicode="&#204;" /><glyph d="M212 575 108 750H229L288 575ZM40 0 50 84 141 94 178 405 91 416 100 500H378L368 416L276 406L239 94L328 84L319 0H229L228 2V0Z" glyph-name="Igrave.sc" horiz-adv-x="418" /><glyph d="M129 825 140 916H414L403 825ZM35 84 126 94 194 656 106 666 116 750H401L391 666L299 656L231 94L320 84L310 0H25Z" glyph-name="Imacron" horiz-adv-x="395" unicode="&#298;" /><glyph d="M112 575 123 666H397L386 575ZM40 0 50 84 141 94 178 405 91 416 100 500H378L368 416L276 406L239 94L328 84L319 0H229L228 2V0Z" glyph-name="Imacron.sc" horiz-adv-x="418" /><glyph d="M391 666 299 656 231 94 320 84 310 0Q286 0 262.5 -8Q239 -16 219 -30Q199 -44 185.5 -63.5Q172 -83 169 -106Q167 -127 180 -135Q193 -143 208 -143Q223 -143 237 -141Q251 -139 262 -136Q274 -132 285 -128L274 -213Q266 -218 242 -225Q218 -232 177 -232Q154 -232 134 -225.5Q114 -219 99.5 -206Q85 -193 78 -173.5Q71 -154 74 -128Q78 -94 97.5 -61Q117 -28 150 0H25L35 84L126 94L194 656L106 666L116 750H401Z" glyph-name="Iogonek" horiz-adv-x="395" unicode="&#302;" /><glyph d="M368 416 276 406 239 94 328 84 327 73 319 0Q295 0 271.5 -8Q248 -16 228 -30Q208 -44 194.5 -63.5Q181 -83 178 -106Q176 -127 189 -135Q202 -143 217 -143Q232 -143 246 -141Q260 -139 271 -136Q283 -132 294 -128L283 -213Q275 -218 251 -225Q227 -232 186 -232Q163 -232 143 -225.5Q123 -219 108.5 -206Q94 -193 87 -173.5Q80 -154 83 -128Q87 -94 106.5 -61Q126 -28 159 0H40L50 84L141 94L178 405L91 416L100 500H378Z" glyph-name="Iogonek.sc" horiz-adv-x="418" /><glyph d="M422 874Q405 888 388 894.5Q371 901 350 901Q331 901 315.5 891Q300 881 283 869Q266 857 246 847Q226 837 198 837Q172 837 152 849Q132 861 121 873L131 951Q148 937 165 930.5Q182 924 203 924Q222 924 237.5 934Q253 944 269.5 956Q286 968 306 978Q326 988 354 988Q380 988 400 976Q420 964 431 952ZM35 84 126 94 194 656 106 666 116 750H401L391 666L299 656L231 94L320 84L310 0H25Z" glyph-name="Itilde" horiz-adv-x="395" unicode="&#296;" /><glyph d="M406 624Q389 638 372 644.5Q355 651 334 651Q315 651 299.5 641Q284 631 267 619Q250 607 230 597Q210 587 182 587Q156 587 136 599Q116 611 105 623L115 701Q132 687 149 680.5Q166 674 187 674Q206 674 221.5 684Q237 694 253.5 706Q270 718 290 728Q310 738 338 738Q364 738 384 726Q404 714 415 702ZM40 0 50 84 141 94 178 405 91 416 100 500H378L368 416L276 406L239 95L328 84L319 0H229L228 2V0Z" glyph-name="Itilde.sc" horiz-adv-x="418" /><glyph d="M457 666 365 656 304 149Q294 71 244 29Q194 -13 94 -13Q78 -13 55.5 -10Q33 -7 9 -1L21 98Q48 91 65.5 88.5Q83 86 106 86Q144 86 169 99Q194 112 198 147L260 656L172 666L182 750H467Z" glyph-name="J" horiz-adv-x="441" unicode="J" /><glyph d="M430 416 338 406 307 145Q298 69 251 28Q204 -13 107 -13Q99 -13 88 -12.5Q77 -12 65 -10.5Q53 -9 42 -7Q31 -5 24 -3L36 94Q54 87 75 84.5Q96 82 118 82Q155 82 179 95Q203 108 208 143L239 405L152 416L161 500H440Z" glyph-name="J.sc" horiz-adv-x="460" /><glyph d="M435 825 345 930 231 825H155L301 1000H407L511 825ZM457 666 365 656 304 149Q294 71 244 29Q194 -13 94 -13Q78 -13 55.5 -10Q33 -7 9 -1L21 98Q48 91 65.5 88.5Q83 86 106 86Q144 86 169 99Q194 112 198 147L260 656L172 666L182 750H467Z" glyph-name="Jcircumflex" horiz-adv-x="441" unicode="&#308;" /><glyph d="M412 575 322 680 208 575H132L278 750H384L488 575ZM430 416 338 406 307 145Q298 69 251 28Q204 -13 107 -13Q99 -13 88 -12.5Q77 -12 65 -10.5Q53 -9 42 -7Q31 -5 24 -3L36 94Q54 87 75 84.5Q96 82 118 82Q155 82 179 95Q203 108 208 143L239 405L152 416L161 500H440Z" glyph-name="Jcircumflex.sc" horiz-adv-x="460" /><glyph d="M241 277 219 94 308 84 298 0H15L25 84L116 94L184 656L96 666L106 750H389L379 666L287 656L259 420L494 659L434 666L444 750H735L725 666L625 655L386 420Q406 410 424 390.5Q442 371 457 339L551 139Q568 105 592 94Q616 83 643 83Q665 83 682 85.5Q699 88 714 91L703 -4Q689 -8 666 -10.5Q643 -13 628 -13Q594 -13 567.5 -7Q541 -1 518.5 14Q496 29 477.5 54Q459 79 441 116L353 303Q339 332 316 330.5Q293 329 269 305Z" glyph-name="K" horiz-adv-x="740" unicode="K" /><glyph d="M571 83Q593 83 605 85.5Q617 88 632 91L621 -4Q607 -8 589 -10.5Q571 -13 556 -13Q522 -13 497 -7Q472 -1 451.5 14Q431 29 414 54Q397 79 379 116L345 188Q323 235 266 193L239 172L229 95L317 84L308 0H30L40 84L131 94L168 405L81 416L90 500H368L358 416L267 406L253 290L412 412L379 416L390 500H654L644 416L540 404L396 293Q426 271 449 224L489 139Q506 105 525 94Q544 83 571 83Z" glyph-name="K.sc" horiz-adv-x="700" /><glyph d="M241 277 219 94 308 84 298 0H15L25 84L116 94L184 656L96 666L106 750H389L379 666L287 656L259 420L494 659L434 666L444 750H735L725 666L625 655L386 420Q406 410 424 390.5Q442 371 457 339L551 139Q568 105 592 94Q616 83 643 83Q665 83 682 85.5Q699 88 714 91L703 -4Q689 -8 666 -10.5Q643 -13 628 -13Q594 -13 567.5 -7Q541 -1 518.5 14Q496 29 477.5 54Q459 79 441 116L353 303Q339 332 316 330.5Q293 329 269 305ZM206 -250 258 -50H379L273 -250Z" glyph-name="Kcommaaccent" horiz-adv-x="740" unicode="&#310;" /><glyph d="M280 -250H213L258 -75H372ZM571 83Q593 83 605 85.5Q617 88 632 91L621 -4Q607 -8 589 -10.5Q571 -13 556 -13Q522 -13 497 -7Q472 -1 451.5 14Q431 29 414 54Q397 79 379 116L345 188Q323 235 266 193L239 172L229 95L317 84L308 0H30L40 84L131 94L168 405L81 416L90 500H368L358 416L267 406L253 290L412 412L379 416L390 500H654L644 416L540 404L396 293Q426 271 449 224L489 139Q506 105 525 94Q544 83 571 83Z" glyph-name="Kcommaaccent.sc" horiz-adv-x="699" /><glyph d="M381 666 289 656 222 100H456L477 190H561L538 0H15L25 84L116 94L184 656L96 666L106 750H391Z" glyph-name="L" horiz-adv-x="593" unicode="L" /><glyph d="M30 0 40 84 131 94 168 405 81 416 90 500H369L359 416L267 406L230 94H414L435 184H519L497 0Z" glyph-name="L.sc" horiz-adv-x="577" /><glyph d="M220 825 321 1000H442L296 825ZM381 666 289 656 222 100H456L477 190H561L538 0H15L25 84L116 94L184 656L96 666L106 750H391Z" glyph-name="Lacute" horiz-adv-x="593" unicode="&#313;" /><glyph d="M202 575 303 750H424L278 575ZM30 0 40 84 131 94 168 405 81 416 90 500H369L359 416L267 406L230 94H414L435 184H519L497 0Z" glyph-name="Lacute.sc" horiz-adv-x="577" /><glyph d="M493 1000 347 825H241L137 1000H213L302 895L417 1000ZM51 0 61 84 152 94 220 656 132 666 142 750H427L417 666L325 656L258 100H492L513 190H597L574 0Z" glyph-name="Lcaron" horiz-adv-x="593" unicode="&#317;" /><glyph d="M441 750 295 575H189L85 750H161L250 645L365 750ZM30 0 40 84 131 94 168 405 81 416 90 500H369L359 416L267 406L230 94H414L435 184H519L497 0Z" glyph-name="Lcaron.sc" horiz-adv-x="577" /><glyph d="M205 -250 257 -50H378L272 -250ZM15 0 25 84 116 94 184 656 96 666 106 750H391L381 666L289 656L222 100H456L477 190H561L538 0Z" glyph-name="Lcommaaccent" horiz-adv-x="593" unicode="&#315;" /><glyph d="M227 -250H160L205 -75H319ZM30 0 40 84 131 94 168 405 81 416 90 500H369L359 416L267 406L230 94H414L435 184H519L497 0Z" glyph-name="Lcommaaccent.sc" horiz-adv-x="577" /><glyph d="M391 470H511L496 350H376ZM381 666 289 656 222 100H456L477 190H561L538 0H15L25 84L116 94L184 656L96 666L106 750H391Z" glyph-name="Ldot" horiz-adv-x="593" unicode="&#319;" /><glyph d="M347 361H467L452 241H332ZM15 0 25 84 116 94 153 405 66 416 75 500H354L344 416L252 406L215 94H399L420 184H504L482 0Z" glyph-name="Ldot.sc" horiz-adv-x="577" /><glyph d="M15 0 25 84 116 94 137 264 42 218 52 307 148 353 184 656 96 666 106 750H391L381 666L289 656L259 406L495 520L484 431L248 317L222 100H456L477 190H561L538 0Z" glyph-name="Lslash" horiz-adv-x="603" unicode="&#321;" /><glyph d="M30 0 40 84 131 94 141 179 46 139 57 228 152 268 168 405 81 416 90 500H369L359 416L267 406L256 312L427 385L416 296L245 223L230 94H414L435 184H519L497 0Z" glyph-name="Lslash.sc" horiz-adv-x="577" /><glyph d="M616 84 708 94 776 621 511 100H417L278 621L218 94L308 84L298 0H15L25 84L116 94L184 656L96 666L106 750H343L480 236L743 750H980L970 666L878 656L810 94L899 84L889 0H606Z" glyph-name="M" horiz-adv-x="964" unicode="M" /><glyph d="M463 84 555 94 584 327 426 65H348L252 327L227 95L316 84L307 0H30L40 84L131 94L168 405L81 416L90 500H289L403 195L591 500H790L780 416L689 406L651 94L739 84L730 0H453Z" glyph-name="M.sc" horiz-adv-x="820" /><glyph d="M556 154 615 656 526 666 536 750H818L808 666L716 656L637 0H509L277 595L218 94L307 84L297 0H15L25 84L116 94L184 656L96 666L106 750H324Z" glyph-name="N" horiz-adv-x="782" unicode="N" /><glyph d="M472 184 498 405 410 416 419 500H698L688 416L596 406L548 0H479L256 316L230 94L318 84L309 0H30L40 84L131 94L168 405L81 416L90 500H249Z" glyph-name="N.sc" horiz-adv-x="703" /><glyph d="M432 825 533 1000H654L508 825ZM556 154 615 656 526 666 536 750H818L808 666L716 656L637 0H509L277 595L218 94L307 84L297 0H15L25 84L116 94L184 656L96 666L106 750H324Z" glyph-name="Nacute" horiz-adv-x="782" unicode="&#323;" /><glyph d="M366 575 467 750H588L442 575ZM472 184 498 405 410 416 419 500H698L688 416L597 406L548 0H479L256 316L230 95L318 84L309 0H30L40 84L131 94L168 405L81 416L90 500H249Z" glyph-name="Nacute.sc" horiz-adv-x="703" /><glyph d="M670 1000 524 825H418L314 1000H390L479 895L594 1000ZM556 154 615 656 526 666 536 750H818L808 666L716 656L637 0H509L277 595L218 94L307 84L297 0H15L25 84L116 94L184 656L96 666L106 750H324Z" glyph-name="Ncaron" horiz-adv-x="782" unicode="&#327;" /><glyph d="M604 750 458 575H352L248 750H324L413 645L528 750ZM472 184 498 405 410 416 419 500H698L688 416L597 406L548 0H479L256 316L230 95L318 84L309 0H30L40 84L131 94L168 405L81 416L90 500H249Z" glyph-name="Ncaron.sc" horiz-adv-x="703" /><glyph d="M248 -250 300 -50H421L315 -250ZM556 154 615 656 526 666 536 750H818L808 666L716 656L637 0H509L277 595L218 94L307 84L297 0H15L25 84L116 94L184 656L96 666L106 750H324Z" glyph-name="Ncommaaccent" horiz-adv-x="782" unicode="&#325;" /><glyph d="M295 -250H228L273 -75H387ZM472 184 498 405 410 416 419 500H698L688 416L597 406L548 0H479L256 316L230 95L318 84L309 0H30L40 84L131 94L168 405L81 416L90 500H249Z" glyph-name="Ncommaaccent.sc" horiz-adv-x="703" /><glyph d="M627 874Q610 888 593 894.5Q576 901 555 901Q536 901 520.5 891Q505 881 488 869Q471 857 451 847Q431 837 403 837Q377 837 357 849Q337 861 326 873L336 951Q353 937 370 930.5Q387 924 408 924Q427 924 442.5 934Q458 944 474.5 956Q491 968 511 978Q531 988 559 988Q585 988 605 976Q625 964 636 952ZM556 154 615 656 526 666 536 750H818L808 666L716 656L637 0H509L277 595L218 94L307 84L297 0H15L25 84L116 94L184 656L96 666L106 750H324Z" glyph-name="Ntilde" horiz-adv-x="782" unicode="&#209;" /><glyph d="M560 624Q543 638 526 644.5Q509 651 488 651Q469 651 453.5 641Q438 631 421 619Q404 607 384 597Q364 587 336 587Q310 587 290 599Q270 611 259 623L269 701Q286 687 303 680.5Q320 674 341 674Q360 674 375.5 684Q391 694 407.5 706Q424 718 444 728Q464 738 492 738Q518 738 538 726Q558 714 569 702ZM472 184 498 405 410 416 419 500H698L688 416L596 406L548 0H479L256 316L230 95L318 84L309 0H30L40 84L131 94L168 405L81 416L90 500H249Z" glyph-name="Ntilde.sc" horiz-adv-x="703" unicode="&#63473;" /><glyph d="M527 375Q534 433 534.5 485.5Q535 538 521 577.5Q507 617 475 640Q443 663 385 663Q327 663 289 640Q251 617 228 577.5Q205 538 192.5 485.5Q180 433 173 375Q166 317 165.5 264.5Q165 212 179 172.5Q193 133 225 110Q257 87 315 87Q373 87 411 110Q449 133 472 172.5Q495 212 507.5 264.5Q520 317 527 375ZM635 375Q626 301 608.5 231.5Q591 162 554.5 107.5Q518 53 457.5 20Q397 -13 303 -13Q209 -13 156.5 20Q104 53 81 107.5Q58 162 57 231.5Q56 301 65 375Q74 448 91.5 518Q109 588 145.5 642.5Q182 697 242.5 730Q303 763 397 763Q491 763 543.5 730Q596 697 619.5 642.5Q643 588 643.5 518Q644 448 635 375Z" glyph-name="O" horiz-adv-x="670" unicode="O" /><glyph d="M471 250Q475 286 472 316.5Q469 347 454 369.5Q439 392 411 405Q383 418 338 418Q293 418 262 405Q231 392 211 369.5Q191 347 180 316.5Q169 286 165 250Q161 214 164 183.5Q167 153 182 130.5Q197 108 225 95Q253 82 298 82Q343 82 374 95Q405 108 425.5 130.5Q446 153 456.5 183.5Q467 214 471 250ZM571 250Q564 193 545 144.5Q526 96 492 61Q458 26 407.5 6.5Q357 -13 287 -13Q217 -13 171 6.5Q125 26 99.5 61Q74 96 66 144.5Q58 193 65 250Q72 307 91.5 355.5Q111 404 145 439Q179 474 229.5 493.5Q280 513 350 513Q420 513 466 493.5Q512 474 537.5 439Q563 404 570.5 355.5Q578 307 571 250Z" glyph-name="O.sc" horiz-adv-x="636" /><glyph d="M496 650H434Q375 650 333.5 629.5Q292 609 264 572.5Q236 536 219.5 485.5Q203 435 196 375Q189 315 193 264.5Q197 214 216 177.5Q235 141 271.5 120.5Q308 100 367 100H429ZM959 750 936 560H851V650H601L575 438H734L755 528H839L805 248H720V338H563L534 100H786L807 190H891L868 0H359Q266 0 208 28.5Q150 57 119.5 107.5Q89 158 82 226.5Q75 295 85 375Q95 455 118 523.5Q141 592 184 642.5Q227 693 292 721.5Q357 750 450 750Z" glyph-name="OE" horiz-adv-x="928" unicode="&#338;" /><glyph d="M278 0Q213 0 169 17.5Q125 35 99.5 67.5Q74 100 65.5 146.5Q57 193 64 250Q71 307 90.5 353.5Q110 400 143 432.5Q176 465 224 482.5Q272 500 337 500H731L709 316H624V406H471L458 298H614L603 204H447L434 94H588L609 184H693L671 0ZM163 250Q159 215 162.5 186Q166 157 180 136.5Q194 116 220.5 105Q247 94 288 94H335L372 406H325Q284 406 255 395Q226 384 207 363.5Q188 343 177.5 314Q167 285 163 250Z" glyph-name="OE.sc" horiz-adv-x="771" unicode="&#63226;" /><glyph d="M378 825 479 1000H600L434 825ZM527 375Q534 433 534.5 485.5Q535 538 521 577.5Q507 617 475 640Q443 663 385 663Q327 663 289 640Q251 617 228 577.5Q205 538 192.5 485.5Q180 433 173 375Q166 317 165.5 264.5Q165 212 179 172.5Q193 133 225 110Q257 87 315 87Q373 87 411 110Q449 133 472 172.5Q495 212 507.5 264.5Q520 317 527 375ZM635 375Q626 301 608.5 231.5Q591 162 554.5 107.5Q518 53 457.5 20Q397 -13 303 -13Q209 -13 156.5 20Q104 53 81 107.5Q58 162 57 231.5Q56 301 65 375Q74 448 91.5 518Q109 588 145.5 642.5Q182 697 242.5 730Q303 763 397 763Q491 763 543.5 730Q596 697 619.5 642.5Q643 588 643.5 518Q644 448 635 375Z" glyph-name="Oacute" horiz-adv-x="670" unicode="&#211;" /><glyph d="M471 250Q475 286 472 316.5Q469 347 454 369.5Q439 392 411 405Q383 418 338 418Q293 418 262 405Q231 392 211 369.5Q191 347 180 316.5Q169 286 165 250Q161 214 164 183.5Q167 153 182 130.5Q197 108 225 95Q253 82 298 82Q343 82 374 95Q405 108 425.5 130.5Q446 153 456.5 183.5Q467 214 471 250ZM571 250Q564 193 545 144.5Q526 96 492 61Q458 26 407.5 6.5Q357 -13 287 -13Q217 -13 171 6.5Q125 26 99.5 61Q74 96 66 144.5Q58 193 65 250Q72 307 91.5 355.5Q111 404 145 439Q179 474 229.5 493.5Q280 513 350 513Q420 513 466 493.5Q512 474 537.5 439Q563 404 570.5 355.5Q578 307 571 250ZM319 575 420 750H541L395 575Z" glyph-name="Oacute.sc" horiz-adv-x="636" unicode="&#63475;" /><glyph d="M402 812Q327 812 287.5 859Q248 906 257 1000H334Q329 946 347 922Q365 898 412 898Q459 898 483 921Q507 944 515 1000H593Q579 903 528 857.5Q477 812 402 812ZM527 375Q534 433 534.5 485.5Q535 538 521 577.5Q507 617 475 640Q443 663 385 663Q327 663 289 640Q251 617 228 577.5Q205 538 192.5 485.5Q180 433 173 375Q166 317 165.5 264.5Q165 212 179 172.5Q193 133 225 110Q257 87 315 87Q373 87 411 110Q449 133 472 172.5Q495 212 507.5 264.5Q520 317 527 375ZM635 375Q626 301 608.5 231.5Q591 162 554.5 107.5Q518 53 457.5 20Q397 -13 303 -13Q209 -13 156.5 20Q104 53 81 107.5Q58 162 57 231.5Q56 301 65 375Q74 448 91.5 518Q109 588 145.5 642.5Q182 697 242.5 730Q303 763 397 763Q491 763 543.5 730Q596 697 619.5 642.5Q643 588 643.5 518Q644 448 635 375Z" glyph-name="Obreve" horiz-adv-x="670" unicode="&#334;" /><glyph d="M471 250Q475 286 472 316.5Q469 347 454 369.5Q439 392 411 405Q383 418 338 418Q293 418 262 405Q231 392 211 369.5Q191 347 180 316.5Q169 286 165 250Q161 214 164 183.5Q167 153 182 130.5Q197 108 225 95Q253 82 298 82Q343 82 374 95Q405 108 425.5 130.5Q446 153 456.5 183.5Q467 214 471 250ZM571 250Q564 193 545 144.5Q526 96 492 61Q458 26 407.5 6.5Q357 -13 287 -13Q217 -13 171 6.5Q125 26 99.5 61Q74 96 66 144.5Q58 193 65 250Q72 307 91.5 355.5Q111 404 145 439Q179 474 229.5 493.5Q280 513 350 513Q420 513 466 493.5Q512 474 537.5 439Q563 404 570.5 355.5Q578 307 571 250ZM355 562Q280 562 240.5 609Q201 656 210 750H287Q282 696 300 672Q318 648 365 648Q412 648 436 671Q460 694 468 750H546Q532 653 481 607.5Q430 562 355 562Z" glyph-name="Obreve.sc" horiz-adv-x="636" /><glyph d="M507 825 418 930 303 825H227L373 1000H479L583 825ZM527 375Q534 433 534.5 485.5Q535 538 521 577.5Q507 617 475 640Q443 663 385 663Q327 663 289 640Q251 617 228 577.5Q205 538 192.5 485.5Q180 433 173 375Q166 317 165.5 264.5Q165 212 179 172.5Q193 133 225 110Q257 87 315 87Q373 87 411 110Q449 133 472 172.5Q495 212 507.5 264.5Q520 317 527 375ZM635 375Q626 301 608.5 231.5Q591 162 554.5 107.5Q518 53 457.5 20Q397 -13 303 -13Q209 -13 156.5 20Q104 53 81 107.5Q58 162 57 231.5Q56 301 65 375Q74 448 91.5 518Q109 588 145.5 642.5Q182 697 242.5 730Q303 763 397 763Q491 763 543.5 730Q596 697 619.5 642.5Q643 588 643.5 518Q644 448 635 375Z" glyph-name="Ocircumflex" horiz-adv-x="670" unicode="&#212;" /><glyph d="M471 250Q475 286 472 316.5Q469 347 454 369.5Q439 392 411 405Q383 418 338 418Q293 418 262 405Q231 392 211 369.5Q191 347 180 316.5Q169 286 165 250Q161 214 164 183.5Q167 153 182 130.5Q197 108 225 95Q253 82 298 82Q343 82 374 95Q405 108 425.5 130.5Q446 153 456.5 183.5Q467 214 471 250ZM571 250Q564 193 545 144.5Q526 96 492 61Q458 26 407.5 6.5Q357 -13 287 -13Q217 -13 171 6.5Q125 26 99.5 61Q74 96 66 144.5Q58 193 65 250Q72 307 91.5 355.5Q111 404 145 439Q179 474 229.5 493.5Q280 513 350 513Q420 513 466 493.5Q512 474 537.5 439Q563 404 570.5 355.5Q578 307 571 250ZM459 575 369 680 255 575H179L325 750H431L535 575Z" glyph-name="Ocircumflex.sc" horiz-adv-x="636" /><glyph d="M473 977H593L578 857H458ZM253 977H373L358 857H238ZM527 375Q534 433 534.5 485.5Q535 538 521 577.5Q507 617 475 640Q443 663 385 663Q327 663 289 640Q251 617 228 577.5Q205 538 192.5 485.5Q180 433 173 375Q166 317 165.5 264.5Q165 212 179 172.5Q193 133 225 110Q257 87 315 87Q373 87 411 110Q449 133 472 172.5Q495 212 507.5 264.5Q520 317 527 375ZM635 375Q626 301 608.5 231.5Q591 162 554.5 107.5Q518 53 457.5 20Q397 -13 303 -13Q209 -13 156.5 20Q104 53 81 107.5Q58 162 57 231.5Q56 301 65 375Q74 448 91.5 518Q109 588 145.5 642.5Q182 697 242.5 730Q303 763 397 763Q491 763 543.5 730Q596 697 619.5 642.5Q643 588 643.5 518Q644 448 635 375Z" glyph-name="Odieresis" horiz-adv-x="670" unicode="&#214;" /><glyph d="M471 250Q475 286 472 316.5Q469 347 454 369.5Q439 392 411 405Q383 418 338 418Q293 418 262 405Q231 392 211 369.5Q191 347 180 316.5Q169 286 165 250Q161 214 164 183.5Q167 153 182 130.5Q197 108 225 95Q253 82 298 82Q343 82 374 95Q405 108 425.5 130.5Q446 153 456.5 183.5Q467 214 471 250ZM571 250Q564 193 545 144.5Q526 96 492 61Q458 26 407.5 6.5Q357 -13 287 -13Q217 -13 171 6.5Q125 26 99.5 61Q74 96 66 144.5Q58 193 65 250Q72 307 91.5 355.5Q111 404 145 439Q179 474 229.5 493.5Q280 513 350 513Q420 513 466 493.5Q512 474 537.5 439Q563 404 570.5 355.5Q578 307 571 250ZM426 727H546L531 607H411ZM206 727H326L311 607H191Z" glyph-name="Odieresis.sc" horiz-adv-x="636" /><glyph d="M378 825 254 1000H375L434 825ZM527 375Q534 433 534.5 485.5Q535 538 521 577.5Q507 617 475 640Q443 663 385 663Q327 663 289 640Q251 617 228 577.5Q205 538 192.5 485.5Q180 433 173 375Q166 317 165.5 264.5Q165 212 179 172.5Q193 133 225 110Q257 87 315 87Q373 87 411 110Q449 133 472 172.5Q495 212 507.5 264.5Q520 317 527 375ZM635 375Q626 301 608.5 231.5Q591 162 554.5 107.5Q518 53 457.5 20Q397 -13 303 -13Q209 -13 156.5 20Q104 53 81 107.5Q58 162 57 231.5Q56 301 65 375Q74 448 91.5 518Q109 588 145.5 642.5Q182 697 242.5 730Q303 763 397 763Q491 763 543.5 730Q596 697 619.5 642.5Q643 588 643.5 518Q644 448 635 375Z" glyph-name="Ograve" horiz-adv-x="670" unicode="&#210;" /><glyph d="M471 250Q475 286 472 316.5Q469 347 454 369.5Q439 392 411 405Q383 418 338 418Q293 418 262 405Q231 392 211 369.5Q191 347 180 316.5Q169 286 165 250Q161 214 164 183.5Q167 153 182 130.5Q197 108 225 95Q253 82 298 82Q343 82 374 95Q405 108 425.5 130.5Q446 153 456.5 183.5Q467 214 471 250ZM571 250Q564 193 545 144.5Q526 96 492 61Q458 26 407.5 6.5Q357 -13 287 -13Q217 -13 171 6.5Q125 26 99.5 61Q74 96 66 144.5Q58 193 65 250Q72 307 91.5 355.5Q111 404 145 439Q179 474 229.5 493.5Q280 513 350 513Q420 513 466 493.5Q512 474 537.5 439Q563 404 570.5 355.5Q578 307 571 250ZM318 575 214 750H335L394 575Z" glyph-name="Ograve.sc" horiz-adv-x="636" /><glyph d="M444 825 545 1000H666L520 825ZM267 825 368 1000H490L344 825ZM517 375Q524 433 524.5 485.5Q525 538 511 577.5Q497 617 465 640Q433 663 375 663Q317 663 279 640Q241 617 218 577.5Q195 538 182.5 485.5Q170 433 163 375Q156 317 155.5 264.5Q155 212 169 172.5Q183 133 215 110Q247 87 305 87Q363 87 401 110Q439 133 462 172.5Q485 212 497.5 264.5Q510 317 517 375ZM625 375Q616 301 598.5 231.5Q581 162 544.5 107.5Q508 53 447.5 20Q387 -13 293 -13Q199 -13 146.5 20Q94 53 71 107.5Q48 162 47 231.5Q46 301 55 375Q64 448 81.5 518Q99 588 135.5 642.5Q172 697 232.5 730Q293 763 387 763Q481 763 533.5 730Q586 697 609.5 642.5Q633 588 633.5 518Q634 448 625 375Z" glyph-name="Ohungarumlaut" horiz-adv-x="606" unicode="&#336;" /><glyph d="M471 250Q475 286 472 316.5Q469 347 454 369.5Q439 392 411 405Q383 418 338 418Q293 418 262 405Q231 392 211 369.5Q191 347 180 316.5Q169 286 165 250Q161 214 164 183.5Q167 153 182 130.5Q197 108 225 95Q253 82 298 82Q343 82 374 95Q405 108 425.5 130.5Q446 153 456.5 183.5Q467 214 471 250ZM571 250Q564 193 545 144.5Q526 96 492 61Q458 26 407.5 6.5Q357 -13 287 -13Q217 -13 171 6.5Q125 26 99.5 61Q74 96 66 144.5Q58 193 65 250Q72 307 91.5 355.5Q111 404 145 439Q179 474 229.5 493.5Q280 513 350 513Q420 513 466 493.5Q512 474 537.5 439Q563 404 570.5 355.5Q578 307 571 250ZM407 575 487 750H608L483 575ZM230 575 310 750H432L307 575Z" glyph-name="Ohungarumlaut.sc" horiz-adv-x="636" /><glyph d="M268 825 279 916H553L542 825ZM527 375Q534 433 534.5 485.5Q535 538 521 577.5Q507 617 475 640Q443 663 385 663Q327 663 289 640Q251 617 228 577.5Q205 538 192.5 485.5Q180 433 173 375Q166 317 165.5 264.5Q165 212 179 172.5Q193 133 225 110Q257 87 315 87Q373 87 411 110Q449 133 472 172.5Q495 212 507.5 264.5Q520 317 527 375ZM635 375Q626 301 608.5 231.5Q591 162 554.5 107.5Q518 53 457.5 20Q397 -13 303 -13Q209 -13 156.5 20Q104 53 81 107.5Q58 162 57 231.5Q56 301 65 375Q74 448 91.5 518Q109 588 145.5 642.5Q182 697 242.5 730Q303 763 397 763Q491 763 543.5 730Q596 697 619.5 642.5Q643 588 643.5 518Q644 448 635 375Z" glyph-name="Omacron" horiz-adv-x="670" unicode="&#332;" /><glyph d="M471 250Q475 286 472 316.5Q469 347 454 369.5Q439 392 411 405Q383 418 338 418Q293 418 262 405Q231 392 211 369.5Q191 347 180 316.5Q169 286 165 250Q161 214 164 183.5Q167 153 182 130.5Q197 108 225 95Q253 82 298 82Q343 82 374 95Q405 108 425.5 130.5Q446 153 456.5 183.5Q467 214 471 250ZM571 250Q564 193 545 144.5Q526 96 492 61Q458 26 407.5 6.5Q357 -13 287 -13Q217 -13 171 6.5Q125 26 99.5 61Q74 96 66 144.5Q58 193 65 250Q72 307 91.5 355.5Q111 404 145 439Q179 474 229.5 493.5Q280 513 350 513Q420 513 466 493.5Q512 474 537.5 439Q563 404 570.5 355.5Q578 307 571 250ZM219 575 230 666H504L493 575Z" glyph-name="Omacron.sc" horiz-adv-x="636" /><glyph d="M244 459Q275 459 303.5 463.5Q332 468 360 475L349 382Q314 374 284.5 370.5Q255 367 233 367Q139 367 104.5 417.5Q70 468 81 565Q93 662 140 712.5Q187 763 281 763Q303 763 332 759.5Q361 756 394 748L374 583H290L291 670Q286 671 280.5 671Q275 671 270 671Q226 671 205.5 647Q185 623 177 565Q170 507 185 483Q200 459 244 459Z" glyph-name="Omega" horiz-adv-x="410" unicode="&#937;" /><glyph d="M174 375Q168 325 166.5 280Q165 235 173 197L487 631Q470 646 445 654.5Q420 663 386 663Q328 663 290 640Q252 617 229 577.5Q206 538 193.5 485.5Q181 433 174 375ZM528 375Q534 425 535 470.5Q536 516 528 553L214 119Q231 104 256 95.5Q281 87 316 87Q374 87 412 110Q450 133 473 172.5Q496 212 508.5 264.5Q521 317 528 375ZM609 665Q625 637 633 603.5Q641 570 643.5 532.5Q646 495 643.5 455Q641 415 636 375Q627 301 609.5 231.5Q592 162 555.5 107.5Q519 53 458.5 20Q398 -13 304 -13Q252 -13 213.5 -3Q175 7 147 26L128 0H30L92 86Q76 114 68.5 147.5Q61 181 58.5 218Q56 255 58.5 294.5Q61 334 66 375Q75 448 92.5 518Q110 588 146.5 642.5Q183 697 243.5 730Q304 763 398 763Q449 763 487.5 753Q526 743 554 724L573 750H671Z" glyph-name="Oslash" horiz-adv-x="670" unicode="&#216;" /><glyph d="M165 250Q162 220 163 193.5Q164 167 174 146L409 405Q380 418 338 418Q293 418 262 405Q231 392 211 369.5Q191 347 180 316.5Q169 286 165 250ZM471 250Q475 280 473 306.5Q471 333 462 354L226 94Q254 82 298 82Q343 82 374 95Q405 108 425.5 130.5Q446 153 456.5 183.5Q467 214 471 250ZM594 500 538 438Q563 403 570.5 355Q578 307 571 250Q564 193 545 144.5Q526 96 492 61Q458 26 407.5 6.5Q357 -13 287 -13Q245 -13 212 -6Q179 1 153 15L140 0H42L98 63Q72 98 65 145.5Q58 193 65 250Q72 307 91.5 355.5Q111 404 145 439Q179 474 229.5 493.5Q280 513 350 513Q430 513 481 485L495 500Z" glyph-name="Oslash.sc" horiz-adv-x="636" unicode="&#63480;" /><glyph d="M368 825 469 1000H590L444 825ZM174 375Q168 325 166.5 280Q165 235 173 197L487 631Q470 646 445 654.5Q420 663 386 663Q328 663 290 640Q252 617 229 577.5Q206 538 193.5 485.5Q181 433 174 375ZM528 375Q534 425 535 470.5Q536 516 528 553L214 119Q231 104 256 95.5Q281 87 316 87Q374 87 412 110Q450 133 473 172.5Q496 212 508.5 264.5Q521 317 528 375ZM609 665Q625 637 633 603.5Q641 570 643.5 532.5Q646 495 643.5 455Q641 415 636 375Q627 301 609.5 231.5Q592 162 555.5 107.5Q519 53 458.5 20Q398 -13 304 -13Q252 -13 213.5 -3Q175 7 147 26L128 0H30L92 86Q76 114 68.5 147.5Q61 181 58.5 218Q56 255 58.5 294.5Q61 334 66 375Q75 448 92.5 518Q110 588 146.5 642.5Q183 697 243.5 730Q304 763 398 763Q449 763 487.5 753Q526 743 554 724L573 750H671Z" glyph-name="Oslashacute" horiz-adv-x="670" unicode="&#510;" /><glyph d="M165 250Q162 220 163 193.5Q164 167 174 146L409 405Q380 418 338 418Q293 418 262 405Q231 392 211 369.5Q191 347 180 316.5Q169 286 165 250ZM471 250Q475 280 473 306.5Q471 333 462 354L226 94Q254 82 298 82Q343 82 374 95Q405 108 425.5 130.5Q446 153 456.5 183.5Q467 214 471 250ZM594 500 538 438Q563 403 570.5 355Q578 307 571 250Q564 193 545 144.5Q526 96 492 61Q458 26 407.5 6.5Q357 -13 287 -13Q245 -13 212 -6Q179 1 153 15L140 0H42L98 63Q72 98 65 145.5Q58 193 65 250Q72 307 91.5 355.5Q111 404 145 439Q179 474 229.5 493.5Q280 513 350 513Q430 513 481 485L495 500ZM315 575 416 750H537L391 575Z" glyph-name="Oslashacute.sc" horiz-adv-x="636" /><glyph d="M561 874Q544 888 527 894.5Q510 901 489 901Q470 901 454.5 891Q439 881 422 869Q405 857 385 847Q365 837 337 837Q311 837 291 849Q271 861 260 873L270 951Q287 937 304 930.5Q321 924 342 924Q361 924 376.5 934Q392 944 408.5 956Q425 968 445 978Q465 988 493 988Q519 988 539 976Q559 964 570 952ZM527 375Q534 433 534.5 485.5Q535 538 521 577.5Q507 617 475 640Q443 663 385 663Q327 663 289 640Q251 617 228 577.5Q205 538 192.5 485.5Q180 433 173 375Q166 317 165.5 264.5Q165 212 179 172.5Q193 133 225 110Q257 87 315 87Q373 87 411 110Q449 133 472 172.5Q495 212 507.5 264.5Q520 317 527 375ZM635 375Q626 301 608.5 231.5Q591 162 554.5 107.5Q518 53 457.5 20Q397 -13 303 -13Q209 -13 156.5 20Q104 53 81 107.5Q58 162 57 231.5Q56 301 65 375Q74 448 91.5 518Q109 588 145.5 642.5Q182 697 242.5 730Q303 763 397 763Q491 763 543.5 730Q596 697 619.5 642.5Q643 588 643.5 518Q644 448 635 375Z" glyph-name="Otilde" horiz-adv-x="670" unicode="&#213;" /><glyph d="M471 250Q475 286 472 316.5Q469 347 454 369.5Q439 392 411 405Q383 418 338 418Q293 418 262 405Q231 392 211 369.5Q191 347 180 316.5Q169 286 165 250Q161 214 164 183.5Q167 153 182 130.5Q197 108 225 95Q253 82 298 82Q343 82 374 95Q405 108 425.5 130.5Q446 153 456.5 183.5Q467 214 471 250ZM571 250Q564 193 545 144.5Q526 96 492 61Q458 26 407.5 6.5Q357 -13 287 -13Q217 -13 171 6.5Q125 26 99.5 61Q74 96 66 144.5Q58 193 65 250Q72 307 91.5 355.5Q111 404 145 439Q179 474 229.5 493.5Q280 513 350 513Q420 513 466 493.5Q512 474 537.5 439Q563 404 570.5 355.5Q578 307 571 250ZM513 624Q496 638 479 644.5Q462 651 441 651Q422 651 406.5 641Q391 631 374 619Q357 607 337 597Q317 587 289 587Q263 587 243 599Q223 611 212 623L222 701Q239 687 256 680.5Q273 674 294 674Q313 674 328.5 684Q344 694 360.5 706Q377 718 397 728Q417 738 445 738Q471 738 491 726Q511 714 522 702Z" glyph-name="Otilde.sc" horiz-adv-x="636" unicode="&#63477;" /><glyph d="M257 385H392Q437 385 466 397.5Q495 410 512.5 429Q530 448 538.5 471.5Q547 495 550 518Q553 540 550.5 563.5Q548 587 535 606.5Q522 626 496 638Q470 650 425 650H290ZM434 750Q506 750 553 731Q600 712 626.5 679.5Q653 647 661 605Q669 563 664 518Q658 472 639.5 430Q621 388 586.5 355.5Q552 323 500.5 304Q449 285 377 285H245L222 94L311 84L301 0H15L25 84L116 94L184 656L96 666L106 750Z" glyph-name="P" horiz-adv-x="671" unicode="P" /><glyph d="M437 332Q438 346 437 359Q436 372 429.5 382.5Q423 393 409.5 399.5Q396 406 374 406H268L250 257H356Q378 257 393 263.5Q408 270 417 280.5Q426 291 430.5 304.5Q435 318 437 332ZM387 500Q435 500 467 486.5Q499 473 516.5 450Q534 427 539.5 397Q545 367 541 333Q537 299 524 268.5Q511 238 487.5 214.5Q464 191 429 177.5Q394 164 346 164H238L230 95L318 84L309 0H30L40 84L131 94L168 405L81 416L90 500Z" glyph-name="P.sc" horiz-adv-x="586" /><glyph d="M530 375Q537 433 537.5 485.5Q538 538 524 577.5Q510 617 478 640Q446 663 388 663Q330 663 292 640Q254 617 231 577.5Q208 538 195.5 485.5Q183 433 176 375Q169 317 168.5 264.5Q168 212 182 172.5Q196 133 228 110Q260 87 318 87Q376 87 414 110Q452 133 475 172.5Q498 212 510.5 264.5Q523 317 530 375ZM630 -103Q652 -103 673 -99.5Q694 -96 709 -93L698 -188Q691 -190 680 -192Q669 -194 657 -195.5Q645 -197 633.5 -198Q622 -199 615 -199Q577 -199 548.5 -193Q520 -187 497 -172Q474 -157 455 -132Q436 -107 417 -70L409 -54Q395 -26 366.5 -19.5Q338 -13 306 -13Q212 -13 159.5 20Q107 53 84 107.5Q61 162 60 231.5Q59 301 68 375Q77 448 94.5 518Q112 588 148.5 642.5Q185 697 245.5 730Q306 763 400 763Q494 763 546.5 730Q599 697 622.5 642.5Q646 588 646.5 518Q647 448 638 375Q632 322 621.5 271.5Q611 221 593 175.5Q575 130 547.5 92.5Q520 55 479 30Q494 19 504 2Q514 -15 526 -39L530 -47Q547 -81 571 -92Q595 -103 630 -103Z" glyph-name="Q" horiz-adv-x="670" unicode="Q" /><glyph d="M471 250Q475 286 472 316.5Q469 347 454 369.5Q439 392 411 405Q383 418 338 418Q293 418 262 405Q231 392 211 369.5Q191 347 180 316.5Q169 286 165 250Q161 214 164 183.5Q167 153 182 130.5Q197 108 225 95Q253 82 298 82Q343 82 374 95Q405 108 425.5 130.5Q446 153 456.5 183.5Q467 214 471 250ZM571 250Q562 173 530.5 113.5Q499 54 439 21Q450 11 458.5 -3.5Q467 -18 477 -39L481 -47Q498 -81 521 -92Q544 -103 571 -103Q593 -103 610 -100.5Q627 -98 642 -95L631 -190Q617 -194 594 -196.5Q571 -199 556 -199Q522 -199 495 -193Q468 -187 445.5 -172Q423 -157 404.5 -132Q386 -107 368 -70L361 -54Q355 -41 349 -33Q343 -25 334.5 -20.5Q326 -16 315 -14.5Q304 -13 287 -13Q217 -13 171 6.5Q125 26 99.5 61Q74 96 66 144.5Q58 193 65 250Q72 307 91.5 355.5Q111 404 145 439Q179 474 229.5 493.5Q280 513 350 513Q420 513 466 493.5Q512 474 537.5 439Q563 404 570.5 355.5Q578 307 571 250Z" glyph-name="Q.sc" horiz-adv-x="636" /><glyph d="M260 412H411Q452 412 478 421.5Q504 431 519.5 447Q535 463 542 485Q549 507 552 532Q555 556 553 577.5Q551 599 540 615Q529 631 505 640.5Q481 650 440 650H289ZM25 84 116 94 184 656 96 666 106 750H438Q510 750 557 735Q604 720 630 691.5Q656 663 663.5 622.5Q671 582 665 532Q660 491 648 457Q636 423 614.5 396.5Q593 370 561.5 351.5Q530 333 486 323Q491 315 496 306.5Q501 298 506 288L575 139Q592 105 615 94Q638 83 665 83Q687 83 704 85.5Q721 88 736 91L725 -4Q711 -8 688 -10.5Q665 -13 650 -13Q616 -13 589 -7Q562 -1 539.5 14Q517 29 498 54Q479 79 462 116L389 273Q377 299 365.5 306Q354 313 330 314H249L221 94L310 84L300 0H15Z" glyph-name="R" horiz-adv-x="730" unicode="R" /><glyph d="M477 341Q478 354 477 366Q476 378 469.5 387Q463 396 449.5 401Q436 406 413 406H268L252 276H397Q420 276 434.5 281Q449 286 458 295Q467 304 471 315.5Q475 327 477 341ZM559 83Q581 83 598 85.5Q615 88 630 91L619 -4Q605 -8 582 -10.5Q559 -13 544 -13Q510 -13 483 -7Q456 -1 433.5 14Q411 29 392.5 54Q374 79 356 116L344 143Q333 166 323 173.5Q313 181 295 183H241L230 95L318 84L309 0H30L40 84L131 94L168 405L81 416L90 500H428Q476 500 507.5 488Q539 476 557 455Q575 434 580 405Q585 376 581 342Q574 284 543 243Q512 202 443 189Q448 182 451.5 174Q455 166 460 158L469 139Q486 105 509 94Q532 83 559 83Z" glyph-name="R.sc" horiz-adv-x="675" /><glyph d="M376 825 477 1000H598L452 825ZM260 412H411Q452 412 478 421.5Q504 431 519.5 447Q535 463 542 485Q549 507 552 532Q555 556 553 577.5Q551 599 540 615Q529 631 505 640.5Q481 650 440 650H289ZM25 84 116 94 184 656 96 666 106 750H438Q510 750 557 735Q604 720 630 691.5Q656 663 663.5 622.5Q671 582 665 532Q660 491 648 457Q636 423 614.5 396.5Q593 370 561.5 351.5Q530 333 486 323Q491 315 496 306.5Q501 298 506 288L575 139Q592 105 615 94Q638 83 665 83Q687 83 704 85.5Q721 88 736 91L725 -4Q711 -8 688 -10.5Q665 -13 650 -13Q616 -13 589 -7Q562 -1 539.5 14Q517 29 498 54Q479 79 462 116L389 273Q377 299 365.5 306Q354 313 330 314H249L221 94L310 84L300 0H15Z" glyph-name="Racute" horiz-adv-x="730" unicode="&#340;" /><glyph d="M324 575 425 750H546L400 575ZM477 341Q478 354 477 366Q476 378 469.5 387Q463 396 449.5 401Q436 406 413 406H268L252 276H397Q420 276 434.5 281Q449 286 458 295Q467 304 471 315.5Q475 327 477 341ZM559 83Q581 83 598 85.5Q615 88 630 91L619 -4Q605 -8 582 -10.5Q559 -13 544 -13Q510 -13 483 -7Q456 -1 433.5 14Q411 29 392.5 54Q374 79 356 116L344 143Q333 166 323 173.5Q313 181 295 183H241L230 95L318 84L309 0H30L40 84L131 94L168 405L81 416L90 500H428Q476 500 507.5 488Q539 476 557 455Q575 434 580 405Q585 376 581 342Q574 284 543 243Q512 202 443 189Q448 182 451.5 174Q455 166 460 158L469 139Q486 105 509 94Q532 83 559 83Z" glyph-name="Racute.sc" horiz-adv-x="675" /><glyph d="M613 1000 467 825H361L257 1000H333L422 895L537 1000ZM260 412H411Q452 412 478 421.5Q504 431 519.5 447Q535 463 542 485Q549 507 552 532Q555 556 553 577.5Q551 599 540 615Q529 631 505 640.5Q481 650 440 650H289ZM25 84 116 94 184 656 96 666 106 750H438Q510 750 557 735Q604 720 630 691.5Q656 663 663.5 622.5Q671 582 665 532Q660 491 648 457Q636 423 614.5 396.5Q593 370 561.5 351.5Q530 333 486 323Q491 315 496 306.5Q501 298 506 288L575 139Q592 105 615 94Q638 83 665 83Q687 83 704 85.5Q721 88 736 91L725 -4Q711 -8 688 -10.5Q665 -13 650 -13Q616 -13 589 -7Q562 -1 539.5 14Q517 29 498 54Q479 79 462 116L389 273Q377 299 365.5 306Q354 313 330 314H249L221 94L310 84L300 0H15Z" glyph-name="Rcaron" horiz-adv-x="730" unicode="&#344;" /><glyph d="M477 341Q478 354 477 366Q476 378 469.5 387Q463 396 449.5 401Q436 406 413 406H268L252 276H397Q420 276 434.5 281Q449 286 458 295Q467 304 471 315.5Q475 327 477 341ZM561 750 415 575H309L205 750H281L370 645L485 750ZM559 83Q581 83 598 85.5Q615 88 630 91L619 -4Q605 -8 582 -10.5Q559 -13 544 -13Q510 -13 483 -7Q456 -1 433.5 14Q411 29 392.5 54Q374 79 356 116L344 143Q333 166 323 173.5Q313 181 295 183H241L230 95L318 84L309 0H30L40 84L131 94L168 405L81 416L90 500H428Q476 500 507.5 488Q539 476 557 455Q575 434 580 405Q585 376 581 342Q574 284 543 243Q512 202 443 189Q448 182 451.5 174Q455 166 460 158L469 139Q486 105 509 94Q532 83 559 83Z" glyph-name="Rcaron.sc" horiz-adv-x="675" /><glyph d="M236 -250 288 -50H409L303 -250ZM260 412H411Q452 412 478 421.5Q504 431 519.5 447Q535 463 542 485Q549 507 552 532Q555 556 553 577.5Q551 599 540 615Q529 631 505 640.5Q481 650 440 650H289ZM25 84 116 94 184 656 96 666 106 750H438Q510 750 557 735Q604 720 630 691.5Q656 663 663.5 622.5Q671 582 665 532Q660 491 648 457Q636 423 614.5 396.5Q593 370 561.5 351.5Q530 333 486 323Q491 315 496 306.5Q501 298 506 288L575 139Q592 105 615 94Q638 83 665 83Q687 83 704 85.5Q721 88 736 91L725 -4Q711 -8 688 -10.5Q665 -13 650 -13Q616 -13 589 -7Q562 -1 539.5 14Q517 29 498 54Q479 79 462 116L389 273Q382 288 376 296Q370 304 362 308Q354 312 343 313Q332 314 316 314H249L221 94L310 84L300 0H15Z" glyph-name="Rcommaaccent" horiz-adv-x="730" unicode="&#342;" /><glyph d="M292 -250H225L270 -75H384ZM477 341Q478 354 477 366Q476 378 469.5 387Q463 396 449.5 401Q436 406 413 406H268L252 276H397Q420 276 434.5 281Q449 286 458 295Q467 304 471 315.5Q475 327 477 341ZM559 83Q581 83 598 85.5Q615 88 630 91L619 -4Q605 -8 582 -10.5Q559 -13 544 -13Q510 -13 483 -7Q456 -1 433.5 14Q411 29 392.5 54Q374 79 356 116L344 143Q333 166 323 173.5Q313 181 295 183H241L230 95L318 84L309 0H30L40 84L131 94L168 405L81 416L90 500H428Q476 500 507.5 488Q539 476 557 455Q575 434 580 405Q585 376 581 342Q574 284 543 243Q512 202 443 189Q448 182 451.5 174Q455 166 460 158L469 139Q486 105 509 94Q532 83 559 83Z" glyph-name="Rcommaaccent.sc" horiz-adv-x="675" /><glyph d="M364 663Q317 663 286 653Q255 643 236.5 626.5Q218 610 209.5 588Q201 566 198 542Q194 512 202 493.5Q210 475 229 464.5Q248 454 276.5 448.5Q305 443 342 438Q398 431 440.5 417.5Q483 404 511 379.5Q539 355 550.5 317Q562 279 555 224Q550 184 532.5 142Q515 100 479 65.5Q443 31 385 9Q327 -13 242 -13Q216 -13 187 -9.5Q158 -6 129 0Q100 6 73.5 14.5Q47 23 28 32L49 205H134V101Q156 94 184 90.5Q212 87 255 87Q305 87 340 98Q375 109 397 127.5Q419 146 430.5 171Q442 196 445 224Q449 254 443.5 274Q438 294 421.5 306.5Q405 319 378 326Q351 333 311 338H312Q245 347 200 362Q155 377 128.5 401Q102 425 93.5 460Q85 495 91 543Q95 577 109.5 615.5Q124 654 156.5 687Q189 720 242 741.5Q295 763 376 763Q444 763 493.5 751Q543 739 576 722L555 545H470V650Q444 658 418.5 660.5Q393 663 364 663Z" glyph-name="S" horiz-adv-x="613" unicode="S" /><glyph d="M179 354Q177 337 185 327.5Q193 318 209 312Q225 306 248.5 303Q272 300 301 297Q354 292 393 283.5Q432 275 457 259Q482 243 492 217.5Q502 192 498 152Q493 117 475 86.5Q457 56 425 34Q393 12 346 -0.5Q299 -13 238 -13Q219 -13 191.5 -11Q164 -9 136 -5Q108 -1 84.5 3.5Q61 8 50 13L71 183H156V90Q177 86 200.5 84Q224 82 250 82Q317 82 355.5 100Q394 118 399 151Q401 167 393.5 177Q386 187 371 192.5Q356 198 333 200.5Q310 203 281 206Q227 211 187 220Q147 229 122 245Q97 261 86.5 286Q76 311 81 349Q90 424 153 468.5Q216 513 331 513Q349 513 373 512Q397 511 422.5 508Q448 505 472 500Q496 495 515 487L494 315H409V411Q388 415 366 416.5Q344 418 318 418Q255 418 219 402Q183 386 179 354Z" glyph-name="S.sc" horiz-adv-x="580" /><glyph d="M327 825 428 1000H549L403 825ZM364 663Q317 663 286 653Q255 643 236.5 626.5Q218 610 209.5 588Q201 566 198 542Q194 512 202 493.5Q210 475 229 464.5Q248 454 276.5 448.5Q305 443 342 438Q398 431 440.5 417.5Q483 404 511 379.5Q539 355 550.5 317Q562 279 555 224Q550 184 532.5 142Q515 100 479 65.5Q443 31 385 9Q327 -13 242 -13Q216 -13 187 -9.5Q158 -6 129 0Q100 6 73.5 14.5Q47 23 28 32L49 205H134V103Q155 95 182.5 91Q210 87 255 87Q305 87 340 98Q375 109 397 127.5Q419 146 430.5 171Q442 196 445 224Q449 254 443.5 274Q438 294 421.5 306.5Q405 319 378 326Q351 333 311 338H312Q245 347 200 362Q155 377 128.5 401Q102 425 93.5 460Q85 495 91 543Q95 577 109.5 615.5Q124 654 156.5 687Q189 720 242 741.5Q295 763 376 763Q444 763 493.5 751Q543 739 576 722L555 545H470V648Q444 656 420 659.5Q396 663 364 663Z" glyph-name="Sacute" horiz-adv-x="613" unicode="&#346;" /><glyph d="M293 575 394 750H515L369 575ZM179 354Q177 337 185 327.5Q193 318 209 312Q225 306 248.5 303Q272 300 301 297Q354 292 393 283.5Q432 275 457 259Q482 243 492 217.5Q502 192 498 152Q493 117 475 86.5Q457 56 425 34Q393 12 346 -0.5Q299 -13 238 -13Q219 -13 191.5 -11Q164 -9 136 -5Q108 -1 84.5 3.5Q61 8 50 13L71 183H156V90Q177 86 200.5 84Q224 82 250 82Q317 82 355.5 100Q394 118 399 151Q401 167 393.5 177Q386 187 371 192.5Q356 198 333 200.5Q310 203 281 206Q227 211 187 220Q147 229 122 245Q97 261 86.5 286Q76 311 81 349Q90 424 153 468.5Q216 513 331 513Q349 513 373 512Q397 511 422.5 508Q448 505 472 500Q496 495 515 487L494 315H409V411Q388 415 366 416.5Q344 418 318 418Q255 418 219 402Q183 386 179 354Z" glyph-name="Sacute.sc" horiz-adv-x="580" /><glyph d="M570 1000 424 825H318L214 1000H290L379 895L494 1000ZM364 663Q317 663 286 653Q255 643 236.5 626.5Q218 610 209.5 588Q201 566 198 542Q194 512 202 493.5Q210 475 229 464.5Q248 454 276.5 448.5Q305 443 342 438Q398 431 440.5 417.5Q483 404 511 379.5Q539 355 550.5 317Q562 279 555 224Q550 184 532.5 142Q515 100 479 65.5Q443 31 385 9Q327 -13 242 -13Q216 -13 187 -9.5Q158 -6 129 0Q100 6 73.5 14.5Q47 23 28 32L49 205H134V103Q155 95 182.5 91Q210 87 255 87Q305 87 340 98Q375 109 397 127.5Q419 146 430.5 171Q442 196 445 224Q449 254 443.5 274Q438 294 421.5 306.5Q405 319 378 326Q351 333 311 338H312Q245 347 200 362Q155 377 128.5 401Q102 425 93.5 460Q85 495 91 543Q95 577 109.5 615.5Q124 654 156.5 687Q189 720 242 741.5Q295 763 376 763Q444 763 493.5 751Q543 739 576 722L555 545H470V648Q444 656 420 659.5Q396 663 364 663Z" glyph-name="Scaron" horiz-adv-x="613" unicode="&#352;" /><glyph d="M531 752 385 577H279L175 752H251L340 647L455 752ZM179 354Q177 337 185 327.5Q193 318 209 312Q225 306 248.5 303Q272 300 301 297Q354 292 393 283.5Q432 275 457 259Q482 243 492 217.5Q502 192 498 152Q493 117 475 86.5Q457 56 425 34Q393 12 346 -0.5Q299 -13 238 -13Q219 -13 191.5 -11Q164 -9 136 -5Q108 -1 84.5 3.5Q61 8 50 13L71 183H156V90Q177 86 200.5 84Q224 82 250 82Q317 82 355.5 100Q394 118 399 151Q401 167 393.5 177Q386 187 371 192.5Q356 198 333 200.5Q310 203 281 206Q227 211 187 220Q147 229 122 245Q97 261 86.5 286Q76 311 81 349Q90 424 153 468.5Q216 513 331 513Q349 513 373 512Q397 511 422.5 508Q448 505 472 500Q496 495 515 487L494 315H409V411Q388 415 366 416.5Q344 418 318 418Q255 418 219 402Q183 386 179 354Z" glyph-name="Scaron.sc" horiz-adv-x="580" unicode="&#63229;" /><glyph d="M364 663Q317 663 286 653Q255 643 236.5 626.5Q218 610 209.5 588Q201 566 198 542Q194 512 202 493.5Q210 475 229 464.5Q248 454 276.5 448.5Q305 443 342 438Q398 431 440.5 417.5Q483 404 511 379.5Q539 355 550.5 317Q562 279 555 224Q550 188 535.5 149.5Q521 111 491 78Q461 45 414.5 21Q368 -3 299 -10L287 -46Q317 -57 338 -79Q359 -101 355 -140Q352 -163 341 -178.5Q330 -194 312.5 -203.5Q295 -213 273 -217.5Q251 -222 227 -222Q195 -222 174 -216Q153 -210 145 -205L168 -155Q177 -158 188 -161Q197 -163 208.5 -165Q220 -167 233 -167Q259 -167 268 -157Q277 -147 278 -139Q279 -126 272.5 -117Q266 -108 254 -102Q242 -96 225.5 -92.5Q209 -89 191 -87L226 -12Q201 -11 173.5 -7.5Q146 -4 119.5 2Q93 8 69.5 15.5Q46 23 28 32L49 205H134V103Q155 95 182.5 91Q210 87 255 87Q305 87 340 98Q375 109 397 127.5Q419 146 430.5 171Q442 196 445 224Q449 254 443.5 274Q438 294 421.5 306.5Q405 319 378 326Q351 333 311 338H312Q245 347 200 362Q155 377 128.5 401Q102 425 93.5 460Q85 495 91 543Q95 577 109.5 615.5Q124 654 156.5 687Q189 720 242 741.5Q295 763 376 763Q444 763 493.5 751Q543 739 576 722L555 545H470V648Q444 656 420 659.5Q396 663 364 663Z" glyph-name="Scedilla" horiz-adv-x="613" unicode="&#63169;" /><glyph d="M179 354Q177 337 185 327.5Q193 318 209 312Q225 306 248.5 303Q272 300 301 297Q354 292 393 283.5Q432 275 457 259Q482 243 492 217.5Q502 192 498 152Q490 89 440 45Q390 1 293 -10L282 -46Q312 -57 333 -79Q354 -101 350 -140Q347 -163 336 -178.5Q325 -194 307.5 -203.5Q290 -213 268 -217.5Q246 -222 222 -222Q190 -222 169 -216Q148 -210 140 -205L163 -155Q172 -158 183 -161Q192 -163 203.5 -165Q215 -167 228 -167Q254 -167 263 -157Q272 -147 273 -139Q274 -126 267.5 -117Q261 -108 249 -102Q237 -96 220.5 -92.5Q204 -89 186 -87L221 -12Q200 -11 174.5 -9Q149 -7 124.5 -3.5Q100 0 80 4Q60 8 50 13L71 183H156V90Q177 86 200.5 84Q224 82 250 82Q317 82 355.5 100Q394 118 399 151Q401 167 393.5 177Q386 187 371 192.5Q356 198 333 200.5Q310 203 281 206Q227 211 187 220Q147 229 122 245Q97 261 86.5 286Q76 311 81 349Q90 424 153 468.5Q216 513 331 513Q349 513 373 512Q397 511 422.5 508Q448 505 472 500Q496 495 515 487L494 315H409V411Q388 415 366 416.5Q344 418 318 418Q255 418 219 402Q183 386 179 354Z" glyph-name="Scedilla.sc" horiz-adv-x="580" /><glyph d="M468 825 378 930 264 825H188L334 1000H440L544 825ZM364 663Q317 663 286 653Q255 643 236.5 626.5Q218 610 209.5 588Q201 566 198 542Q194 512 202 493.5Q210 475 229 464.5Q248 454 276.5 448.5Q305 443 342 438Q398 431 440.5 417.5Q483 404 511 379.5Q539 355 550.5 317Q562 279 555 224Q550 184 532.5 142Q515 100 479 65.5Q443 31 385 9Q327 -13 242 -13Q216 -13 187 -9.5Q158 -6 129 0Q100 6 73.5 14.5Q47 23 28 32L49 205H134V103Q155 95 182.5 91Q210 87 255 87Q305 87 340 98Q375 109 397 127.5Q419 146 430.5 171Q442 196 445 224Q449 254 443.5 274Q438 294 421.5 306.5Q405 319 378 326Q351 333 311 338H312Q245 347 200 362Q155 377 128.5 401Q102 425 93.5 460Q85 495 91 543Q95 577 109.5 615.5Q124 654 156.5 687Q189 720 242 741.5Q295 763 376 763Q444 763 493.5 751Q543 739 576 722L555 545H470V648Q444 656 420 659.5Q396 663 364 663Z" glyph-name="Scircumflex" horiz-adv-x="613" unicode="&#348;" /><glyph d="M154 576 300 751H406L510 576H434L345 681L230 576ZM179 354Q177 337 185 327.5Q193 318 209 312Q225 306 248.5 303Q272 300 301 297Q354 292 393 283.5Q432 275 457 259Q482 243 492 217.5Q502 192 498 152Q493 117 475 86.5Q457 56 425 34Q393 12 346 -0.5Q299 -13 238 -13Q219 -13 191.5 -11Q164 -9 136 -5Q108 -1 84.5 3.5Q61 8 50 13L71 183H156V90Q177 86 200.5 84Q224 82 250 82Q317 82 355.5 100Q394 118 399 151Q401 167 393.5 177Q386 187 371 192.5Q356 198 333 200.5Q310 203 281 206Q227 211 187 220Q147 229 122 245Q97 261 86.5 286Q76 311 81 349Q90 424 153 468.5Q216 513 331 513Q349 513 373 512Q397 511 422.5 508Q448 505 472 500Q496 495 515 487L494 315H409V411Q388 415 366 416.5Q344 418 318 418Q255 418 219 402Q183 386 179 354Z" glyph-name="Scircumflex.sc" horiz-adv-x="580" /><glyph d="M160 -250 212 -50H333L227 -250ZM364 663Q317 663 286 653Q255 643 236.5 626.5Q218 610 209.5 588Q201 566 198 542Q194 512 202 493.5Q210 475 229 464.5Q248 454 276.5 448.5Q305 443 342 438Q398 431 440.5 417.5Q483 404 511 379.5Q539 355 550.5 317Q562 279 555 224Q550 184 532.5 142Q515 100 479 65.5Q443 31 385 9Q327 -13 242 -13Q216 -13 187 -9.5Q158 -6 129 0Q100 6 73.5 14.5Q47 23 28 32L49 205H134V103Q155 95 182.5 91Q210 87 255 87Q305 87 340 98Q375 109 397 127.5Q419 146 430.5 171Q442 196 445 224Q449 254 443.5 274Q438 294 421.5 306.5Q405 319 378 326Q351 333 311 338H312Q245 347 200 362Q155 377 128.5 401Q102 425 93.5 460Q85 495 91 543Q95 577 109.5 615.5Q124 654 156.5 687Q189 720 242 741.5Q295 763 376 763Q444 763 493.5 751Q543 739 576 722L555 545H470V648Q444 656 420 659.5Q396 663 364 663Z" glyph-name="Scommaaccent" horiz-adv-x="613" unicode="&#536;" /><glyph d="M225 -250H158L203 -75H317ZM179 354Q177 337 185 327.5Q193 318 209 312Q225 306 248.5 303Q272 300 301 297Q354 292 393 283.5Q432 275 457 259Q482 243 492 217.5Q502 192 498 152Q493 117 475 86.5Q457 56 425 34Q393 12 346 -0.5Q299 -13 238 -13Q219 -13 191.5 -11Q164 -9 136 -5Q108 -1 84.5 3.5Q61 8 50 13L71 183H156V90Q177 86 200.5 84Q224 82 250 82Q317 82 355.5 100Q394 118 399 151Q401 167 393.5 177Q386 187 371 192.5Q356 198 333 200.5Q310 203 281 206Q227 211 187 220Q147 229 122 245Q97 261 86.5 286Q76 311 81 349Q90 424 153 468.5Q216 513 331 513Q349 513 373 512Q397 511 422.5 508Q448 505 472 500Q496 495 515 487L494 315H409V411Q388 415 366 416.5Q344 418 318 418Q255 418 219 402Q183 386 179 354Z" glyph-name="Scommaaccent.sc" horiz-adv-x="580" /><glyph d="M665 750 642 560H557V650H415L347 93L436 84L426 0H141L151 84L242 92L310 650H166L145 560H61L84 750Z" glyph-name="T" horiz-adv-x="631" unicode="T" /><glyph d="M582 500 560 316H475V406H366L328 94L416 84L407 0H124L134 84L225 94L263 406H152L131 316H47L69 500Z" glyph-name="T.sc" horiz-adv-x="593" /><glyph d="M665 750 642 560H557V650H415L386 413H537L526 324H375L347 93L436 84L426 0H141L151 84L242 92L270 324H124L135 413H281L310 650H166L145 560H61L84 750Z" glyph-name="Tbar" horiz-adv-x="631" unicode="&#358;" /><glyph d="M582 500 560 316H475V406H366L351 284H450L441 215H343L328 94L416 84L407 0H124L134 84L225 94L240 215H134L143 284H248L263 406H152L131 316H47L69 500Z" glyph-name="Tbar.sc" horiz-adv-x="593" /><glyph d="M581 1000 435 825H329L225 1000H301L390 895L505 1000ZM665 750 642 560H557V650H415L347 93L436 84L426 0H141L151 84L242 92L310 650H166L145 560H61L84 750Z" glyph-name="Tcaron" horiz-adv-x="631" unicode="&#356;" /><glyph d="M533 750 387 575H281L177 750H253L342 645L457 750ZM582 500 560 316H475V406H366L328 94L416 84L407 0H124L134 84L225 94L263 406H152L131 316H47L69 500Z" glyph-name="Tcaron.sc" horiz-adv-x="593" /><glyph d="M164 -250 216 -50H337L231 -250ZM665 750 642 560H557V650H415L347 93L436 84L426 0H141L151 84L242 92L310 650H166L145 560H61L84 750Z" glyph-name="Tcommaaccent" horiz-adv-x="631" unicode="&#354;" /><glyph d="M224 -250H157L202 -75H316ZM582 500 560 316H475V406H366L328 94L416 84L407 0H124L134 84L225 94L263 406H152L131 316H47L69 500Z" glyph-name="Tcommaaccent.sc" horiz-adv-x="593" /><glyph d="M240 242H375Q420 242 449 254.5Q478 267 495.5 286Q513 305 521 328.5Q529 352 532 375Q535 397 532.5 420.5Q530 444 517 463.5Q504 483 478 495Q452 507 407 507H272ZM382 666 290 656 284 607H416Q488 607 535 588Q582 569 608.5 536.5Q635 504 643.5 462Q652 420 646 375Q640 329 622 287Q604 245 569.5 212.5Q535 180 483.5 161Q432 142 360 142H228L222 94L311 84L301 0H15L25 84L116 94L184 656L96 666L106 750H392Z" glyph-name="Thorn" horiz-adv-x="671" unicode="&#222;" /><glyph d="M428 250Q430 270 419 282.5Q408 295 377 295H255L244 205H366Q397 205 411 217.5Q425 230 428 250ZM532 250Q524 190 479 151Q434 112 348 112H233L230 94L319 84L309 0H30L40 84L131 94L170 406L81 416L91 500H370L360 416L269 406L266 388H381Q467 388 503 349Q539 310 532 250Z" glyph-name="Thorn.sc" horiz-adv-x="586" unicode="&#63486;" /><glyph d="M359 666 267 656 218 252Q211 195 225 162Q239 129 263 112.5Q287 96 315 92Q343 88 364 88Q385 88 414.5 92Q444 96 471.5 112.5Q499 129 521 162Q543 195 550 252L599 656L511 666L521 750H806L796 666L704 656L654 239Q644 157 608.5 107.5Q573 58 527.5 31Q482 4 434 -4.5Q386 -13 352 -13Q329 -13 300.5 -9.5Q272 -6 243 4Q214 14 187.5 31.5Q161 49 142 77Q123 105 114 145Q105 185 112 239L162 656L74 666L84 750H369Z" glyph-name="U" horiz-adv-x="772" unicode="U" /><glyph d="M676 416 585 406 556 166Q545 83 487 35Q429 -13 315 -13Q201 -13 154 35Q107 83 118 166L146 405L59 416L68 500H351L341 416L250 406L221 166Q215 120 244 101Q273 82 326 82Q379 82 413 101Q447 120 453 166L481 405L394 416L403 500H686Z" glyph-name="U.sc" horiz-adv-x="698" /><glyph d="M427 825 528 1000H649L483 825ZM359 666 267 656 218 252Q211 195 225 162Q239 129 263 112.5Q287 96 315 92Q343 88 364 88Q385 88 414.5 92Q444 96 471.5 112.5Q499 129 521 162Q543 195 550 252L599 656L511 666L521 750H806L796 666L704 656L654 239Q644 157 608.5 107.5Q573 58 527.5 31Q482 4 434 -4.5Q386 -13 352 -13Q329 -13 300.5 -9.5Q272 -6 243 4Q214 14 187.5 31.5Q161 49 142 77Q123 105 114 145Q105 185 112 239L162 656L74 666L84 750H369Z" glyph-name="Uacute" horiz-adv-x="772" unicode="&#218;" /><glyph d="M348 575 449 750H570L424 575ZM676 416 585 406 556 166Q545 83 487 35Q429 -13 315 -13Q201 -13 154 35Q107 83 118 166L146 405L59 416L68 500H351L341 416L250 406L221 166Q215 120 244 101Q273 82 326 82Q379 82 413 101Q447 120 453 166L481 405L394 416L403 500H686Z" glyph-name="Uacute.sc" horiz-adv-x="698" /><glyph d="M450 812Q375 812 335.5 859Q296 906 305 1000H382Q377 946 395 922Q413 898 460 898Q507 898 531 921Q555 944 563 1000H641Q627 903 576 857.5Q525 812 450 812ZM359 666 267 656 218 252Q211 195 225 162Q239 129 263 112.5Q287 96 315 92Q343 88 364 88Q385 88 414.5 92Q444 96 471.5 112.5Q499 129 521 162Q543 195 550 252L599 656L511 666L521 750H806L796 666L704 656L654 239Q644 157 608.5 107.5Q573 58 527.5 31Q482 4 434 -4.5Q386 -13 352 -13Q329 -13 300.5 -9.5Q272 -6 243 4Q214 14 187.5 31.5Q161 49 142 77Q123 105 114 145Q105 185 112 239L162 656L74 666L84 750H369Z" glyph-name="Ubreve" horiz-adv-x="772" unicode="&#364;" /><glyph d="M385 562Q310 562 270.5 609Q231 656 240 750H317Q312 696 330 672Q348 648 395 648Q442 648 466 671Q490 694 498 750H576Q562 653 511 607.5Q460 562 385 562ZM676 416 585 406 556 166Q545 83 487 35Q429 -13 315 -13Q201 -13 154 35Q107 83 118 166L146 405L59 416L68 500H351L341 416L250 406L221 166Q215 120 244 101Q273 82 326 82Q379 82 413 101Q447 120 453 166L481 405L394 416L403 500H686Z" glyph-name="Ubreve.sc" horiz-adv-x="698" /><glyph d="M555 825 466 930 351 825H275L421 1000H527L631 825ZM359 666 267 656 218 252Q211 195 225 162Q239 129 263 112.5Q287 96 315 92Q343 88 364 88Q385 88 414.5 92Q444 96 471.5 112.5Q499 129 521 162Q543 195 550 252L599 656L511 666L521 750H806L796 666L704 656L654 239Q644 157 608.5 107.5Q573 58 527.5 31Q482 4 434 -4.5Q386 -13 352 -13Q329 -13 300.5 -9.5Q272 -6 243 4Q214 14 187.5 31.5Q161 49 142 77Q123 105 114 145Q105 185 112 239L162 656L74 666L84 750H369Z" glyph-name="Ucircumflex" horiz-adv-x="772" unicode="&#219;" /><glyph d="M489 575 399 680 285 575H209L355 750H461L565 575ZM676 416 585 406 556 166Q545 83 487 35Q429 -13 315 -13Q201 -13 154 35Q107 83 118 166L146 405L59 416L68 500H351L341 416L250 406L221 166Q215 120 244 101Q273 82 326 82Q379 82 413 101Q447 120 453 166L481 405L394 416L403 500H686Z" glyph-name="Ucircumflex.sc" horiz-adv-x="698" /><glyph d="M522 977H642L627 857H507ZM302 977H422L407 857H287ZM359 666 267 656 218 252Q211 195 225 162Q239 129 263 112.5Q287 96 315 92Q343 88 364 88Q385 88 414.5 92Q444 96 471.5 112.5Q499 129 521 162Q543 195 550 252L599 656L511 666L521 750H806L796 666L704 656L654 239Q644 157 608.5 107.5Q573 58 527.5 31Q482 4 434 -4.5Q386 -13 352 -13Q329 -13 300.5 -9.5Q272 -6 243 4Q214 14 187.5 31.5Q161 49 142 77Q123 105 114 145Q105 185 112 239L162 656L74 666L84 750H369Z" glyph-name="Udieresis" horiz-adv-x="772" unicode="&#220;" /><glyph d="M235 727H355L340 607H220ZM455 727H575L560 607H440ZM676 416 585 406 556 166Q545 83 487 35Q429 -13 315 -13Q201 -13 154 35Q107 83 118 166L146 405L59 416L68 500H351L341 416L250 406L221 166Q215 120 244 101Q273 82 326 82Q379 82 413 101Q447 120 453 166L481 405L394 416L403 500H686Z" glyph-name="Udieresis.sc" horiz-adv-x="698" /><glyph d="M425 825 301 1000H422L481 825ZM359 666 267 656 218 252Q211 195 225 162Q239 129 263 112.5Q287 96 315 92Q343 88 364 88Q385 88 414.5 92Q444 96 471.5 112.5Q499 129 521 162Q543 195 550 252L599 656L511 666L521 750H806L796 666L704 656L654 239Q644 157 608.5 107.5Q573 58 527.5 31Q482 4 434 -4.5Q386 -13 352 -13Q329 -13 300.5 -9.5Q272 -6 243 4Q214 14 187.5 31.5Q161 49 142 77Q123 105 114 145Q105 185 112 239L162 656L74 666L84 750H369Z" glyph-name="Ugrave" horiz-adv-x="772" unicode="&#217;" /><glyph d="M348 575 244 750H365L424 575ZM676 416 585 406 556 166Q545 83 487 35Q429 -13 315 -13Q201 -13 154 35Q107 83 118 166L146 405L59 416L68 500H351L341 416L250 406L221 166Q215 120 244 101Q273 82 326 82Q379 82 413 101Q447 120 453 166L481 405L394 416L403 500H686Z" glyph-name="Ugrave.sc" horiz-adv-x="698" /><glyph d="M502 825 603 1000H724L578 825ZM325 825 426 1000H548L402 825ZM359 666 267 656 218 252Q211 195 225 162Q239 129 263 112.5Q287 96 315 92Q343 88 364 88Q385 88 414.5 92Q444 96 471.5 112.5Q499 129 521 162Q543 195 550 252L599 656L511 666L521 750H806L796 666L704 656L654 239Q644 157 608.5 107.5Q573 58 527.5 31Q482 4 434 -4.5Q386 -13 352 -13Q329 -13 300.5 -9.5Q272 -6 243 4Q214 14 187.5 31.5Q161 49 142 77Q123 105 114 145Q105 185 112 239L162 656L74 666L84 750H369Z" glyph-name="Uhungarumlaut" horiz-adv-x="772" unicode="&#368;" /><glyph d="M435 575 515 750H636L511 575ZM258 575 338 750H460L335 575ZM676 416 585 406 556 166Q545 83 487 35Q429 -13 315 -13Q201 -13 154 35Q107 83 118 166L146 405L59 416L68 500H351L341 416L250 406L221 166Q215 120 244 101Q273 82 326 82Q379 82 413 101Q447 120 453 166L481 405L394 416L403 500H686Z" glyph-name="Uhungarumlaut.sc" horiz-adv-x="698" /><glyph d="M316 825 327 916H601L590 825ZM359 666 267 656 218 252Q211 195 225 162Q239 129 263 112.5Q287 96 315 92Q343 88 364 88Q385 88 414.5 92Q444 96 471.5 112.5Q499 129 521 162Q543 195 550 252L599 656L511 666L521 750H806L796 666L704 656L654 239Q644 157 608.5 107.5Q573 58 527.5 31Q482 4 434 -4.5Q386 -13 352 -13Q329 -13 300.5 -9.5Q272 -6 243 4Q214 14 187.5 31.5Q161 49 142 77Q123 105 114 145Q105 185 112 239L162 656L74 666L84 750H369Z" glyph-name="Umacron" horiz-adv-x="772" unicode="&#362;" /><glyph d="M249 575 260 666H534L523 575ZM676 416 585 406 556 166Q545 83 487 35Q429 -13 315 -13Q201 -13 154 35Q107 83 118 166L146 405L59 416L68 500H351L341 416L250 406L221 166Q215 120 244 101Q273 82 326 82Q379 82 413 101Q447 120 453 166L481 405L394 416L403 500H686Z" glyph-name="Umacron.sc" horiz-adv-x="698" /><glyph d="M359 666 267 656 218 252Q211 195 225 162Q239 129 263 112.5Q287 96 315 92Q343 88 364 88Q385 88 414.5 92Q444 96 471.5 112.5Q499 129 521 162Q543 195 550 252L599 656L511 666L521 750H806L796 666L704 656L654 239Q646 177 623 133.5Q600 90 569 61.5Q538 33 501.5 17.5Q465 2 431 -5Q393 -15 362.5 -41.5Q332 -68 327 -106Q325 -127 338 -135Q351 -143 366 -143Q381 -143 395 -141Q409 -139 420 -136Q432 -132 443 -128L432 -213Q424 -218 400 -225Q376 -232 335 -232Q312 -232 292 -225.5Q272 -219 257.5 -206Q243 -193 236 -173.5Q229 -154 232 -128Q235 -97 252 -66Q269 -35 297 -9Q262 -4 226 10Q190 24 161.5 52.5Q133 81 118 126Q103 171 112 239L162 656L74 666L84 750H369Z" glyph-name="Uogonek" horiz-adv-x="772" unicode="&#370;" /><glyph d="M676 416 585 406 556 166Q548 104 512.5 61Q477 18 402 -4Q383 -10 364.5 -19.5Q346 -29 331.5 -41.5Q317 -54 307 -70.5Q297 -87 294 -106Q292 -127 305 -135Q318 -143 333 -143Q348 -143 362 -141Q376 -139 387 -136Q399 -132 410 -128L399 -213Q391 -218 367 -225Q343 -232 302 -232Q279 -232 259 -225.5Q239 -219 224.5 -206Q210 -193 203 -173.5Q196 -154 199 -128Q202 -97 218.5 -66.5Q235 -36 263 -10Q178 1 143 47Q108 93 118 166L146 405L59 416L68 500H351L341 416L250 406L221 166Q215 120 244 101Q273 82 326 82Q379 82 413 101Q447 120 453 166L481 405L394 416L403 500H686Z" glyph-name="Uogonek.sc" horiz-adv-x="698" /><glyph d="M508 912Q511 938 501 947.5Q491 957 470 957Q448 957 435.5 947.5Q423 938 420 912Q417 888 427 878.5Q437 869 459 869Q480 869 492.5 878.5Q505 888 508 912ZM565 912Q559 860 528 836Q497 812 452 812Q406 812 381 836Q356 860 362 912Q369 965 399.5 989Q430 1013 476 1013Q521 1013 546.5 989Q572 965 565 912ZM359 666 267 656 218 252Q211 195 225 162Q239 129 263 112.5Q287 96 315 92Q343 88 364 88Q385 88 414.5 92Q444 96 471.5 112.5Q499 129 521 162Q543 195 550 252L599 656L511 666L521 750H806L796 666L704 656L654 239Q644 157 608.5 107.5Q573 58 527.5 31Q482 4 434 -4.5Q386 -13 352 -13Q329 -13 300.5 -9.5Q272 -6 243 4Q214 14 187.5 31.5Q161 49 142 77Q123 105 114 145Q105 185 112 239L162 656L74 666L84 750H369Z" glyph-name="Uring" horiz-adv-x="772" unicode="&#366;" /><glyph d="M440 662Q443 688 433 697.5Q423 707 402 707Q380 707 367.5 697.5Q355 688 352 662Q349 638 359 628.5Q369 619 391 619Q412 619 424.5 628.5Q437 638 440 662ZM497 662Q491 610 460 586Q429 562 384 562Q338 562 313 586Q288 610 294 662Q301 715 331.5 739Q362 763 408 763Q453 763 478.5 739Q504 715 497 662ZM676 416 585 406 556 166Q545 83 487 35Q429 -13 315 -13Q201 -13 154 35Q107 83 118 166L146 405L59 416L68 500H351L341 416L250 406L221 166Q215 120 244 101Q273 82 326 82Q379 82 413 101Q447 120 453 166L481 405L394 416L403 500H686Z" glyph-name="Uring.sc" horiz-adv-x="698" /><glyph d="M609 874Q592 888 575 894.5Q558 901 537 901Q518 901 502.5 891Q487 881 470 869Q453 857 433 847Q413 837 385 837Q359 837 339 849Q319 861 308 873L318 951Q335 937 352 930.5Q369 924 390 924Q409 924 424.5 934Q440 944 456.5 956Q473 968 493 978Q513 988 541 988Q567 988 587 976Q607 964 618 952ZM359 666 267 656 218 252Q211 195 225 162Q239 129 263 112.5Q287 96 315 92Q343 88 364 88Q385 88 414.5 92Q444 96 471.5 112.5Q499 129 521 162Q543 195 550 252L599 656L511 666L521 750H806L796 666L704 656L654 239Q644 157 608.5 107.5Q573 58 527.5 31Q482 4 434 -4.5Q386 -13 352 -13Q329 -13 300.5 -9.5Q272 -6 243 4Q214 14 187.5 31.5Q161 49 142 77Q123 105 114 145Q105 185 112 239L162 656L74 666L84 750H369Z" glyph-name="Utilde" horiz-adv-x="772" unicode="&#360;" /><glyph d="M546 624Q529 638 512 644.5Q495 651 474 651Q455 651 439.5 641Q424 631 407 619Q390 607 370 597Q350 587 322 587Q296 587 276 599Q256 611 245 623L255 701Q272 687 289 680.5Q306 674 327 674Q346 674 361.5 684Q377 694 393.5 706Q410 718 430 728Q450 738 478 738Q504 738 524 726Q544 714 555 702ZM676 416 585 406 556 166Q545 83 487 35Q429 -13 315 -13Q201 -13 154 35Q107 83 118 166L146 405L59 416L68 500H351L341 416L250 406L221 166Q215 120 244 101Q273 82 326 82Q379 82 413 101Q447 120 453 166L481 405L394 416L403 500H686Z" glyph-name="Utilde.sc" horiz-adv-x="698" /><glyph d="M800 666 692 654 378 -13H305L154 654L49 666L59 750H378L368 666L266 655L363 163L580 654L481 666L491 750H810Z" glyph-name="V" horiz-adv-x="751" unicode="V" /><glyph d="M243 -13 117 406 34 416 44 500H321L311 416L225 406L297 139L432 406L349 416L359 500H636L626 416L541 406L315 -13Z" glyph-name="V.sc" horiz-adv-x="622" /><glyph d="M1047 666 938 654 712 -13H615L536 580L312 -13H216L152 654L49 666L59 750H378L368 666L262 654L292 181L506 750H607L683 180L828 654L728 666L738 750H1057Z" glyph-name="W" horiz-adv-x="1000" unicode="W" /><glyph d="M492 500 561 155 644 407 562 416 572 500H842L832 416L748 406L587 -13H505L428 369L259 -13H177L116 406L34 416L44 500H314L304 416L220 407L243 155L394 500Z" glyph-name="W.sc" horiz-adv-x="828" /><glyph d="M529 825 630 1000H751L605 825ZM506 750H607L683 180L828 654L728 666L738 750H1057L1047 666L938 654L712 -13H615L536 580L312 -13H216L152 654L49 666L59 750H378L368 666L262 654L292 181Z" glyph-name="Wacute" horiz-adv-x="798" unicode="&#7810;" /><glyph d="M419 575 520 750H641L495 575ZM492 500 561 155 644 407 562 416 572 500H842L832 416L748 406L587 -13H505L428 369L259 -13H177L116 406L34 416L44 500H314L304 416L220 407L243 155L394 500Z" glyph-name="Wacute.sc" horiz-adv-x="828" /><glyph d="M670 825 580 930 466 825H390L536 1000H642L746 825ZM1047 666 938 654 712 -13H615L536 580L312 -13H216L152 654L49 666L59 750H378L368 666L262 654L292 181L506 750H607L683 180L828 654L728 666L738 750H1057Z" glyph-name="Wcircumflex" horiz-adv-x="1000" unicode="&#372;" /><glyph d="M558 575 468 680 354 575H278L424 750H530L634 575ZM492 500 561 155 644 407 562 416 572 500H842L832 416L748 406L587 -13H505L428 369L259 -13H177L116 406L34 416L44 500H314L304 416L220 407L243 155L394 500Z" glyph-name="Wcircumflex.sc" horiz-adv-x="828" /><glyph d="M636 977H756L741 857H621ZM416 977H536L521 857H401ZM1047 666 938 654 712 -13H615L536 580L312 -13H216L152 654L49 666L59 750H378L368 666L262 654L292 181L506 750H607L683 180L828 654L728 666L738 750H1057Z" glyph-name="Wdieresis" horiz-adv-x="798" unicode="&#7812;" /><glyph d="M304 727H424L409 607H289ZM524 727H644L629 607H509ZM492 500 561 155 644 407 562 416 572 500H842L832 416L748 406L587 -13H505L428 369L259 -13H177L116 406L34 416L44 500H314L304 416L220 407L243 155L394 500Z" glyph-name="Wdieresis.sc" horiz-adv-x="828" /><glyph d="M530 825 426 1000H547L606 825ZM1047 666 938 654 712 -13H615L536 580L312 -13H216L152 654L49 666L59 750H378L368 666L262 654L292 181L506 750H607L683 180L828 654L728 666L738 750H1057Z" glyph-name="Wgrave" horiz-adv-x="798" unicode="&#7808;" /><glyph d="M417 575 313 750H434L493 575ZM492 500 561 155 644 407 562 416 572 500H842L832 416L748 406L587 -13H505L428 369L259 -13H177L116 406L34 416L44 500H314L304 416L220 407L243 155L394 500Z" glyph-name="Wgrave.sc" horiz-adv-x="828" /><glyph d="M414 666 314 655 410 457 555 655 461 666 471 750H796L786 666L677 654L464 380L615 96L719 84L709 0H382L392 84L489 94L391 300L243 94L335 84L325 0H0L10 84L118 96L338 380L191 654L87 666L97 750H424Z" glyph-name="X" horiz-adv-x="768" unicode="X" /><glyph d="M334 416 272 409 339 323 426 409 366 416 376 500H635L625 416L550 407L393 253L518 93L597 84L587 0H317L327 84L394 91L322 184L228 91L295 84L285 0H15L25 84L103 92L268 253L147 408L75 416L85 500H344Z" glyph-name="X.sc" horiz-adv-x="662" /><glyph d="M294 2 293 0H203L213 84L305 94L331 309L161 654L59 666L69 750H395L385 666L282 655L394 400L568 654L470 666L480 750H806L796 666L689 654L435 309L409 94L498 84L488 0H294Z" glyph-name="Y" horiz-adv-x="748" unicode="Y" /><glyph d="M308 416 237 408 305 267 408 408 340 416 350 500H614L604 416L524 407L345 178L335 94L424 84L414 0H135L145 84L236 94L246 177L118 407L44 416L54 500H318Z" glyph-name="Y.sc" horiz-adv-x="610" /><glyph d="M409 825 510 1000H631L485 825ZM203 0 213 84 305 94 331 309 161 654 59 666 69 750H395L385 666L282 655L394 400L568 654L470 666L480 750H806L796 666L689 654L435 309L409 94L498 84L488 0Z" glyph-name="Yacute" horiz-adv-x="748" unicode="&#221;" /><glyph d="M308 575 409 750H530L384 575ZM308 416 237 408 305 267 408 408 340 416 350 500H614L604 416L524 407L345 178L335 94L424 84L414 0H135L145 84L236 94L246 177L118 407L44 416L54 500H318Z" glyph-name="Yacute.sc" horiz-adv-x="610" unicode="&#63485;" /><glyph d="M203 0 213 84 305 94 331 309 161 654 59 666 69 750H395L385 666L282 655L394 400L568 654L470 666L480 750H806L796 666L689 654L435 309L409 94L498 84L488 0ZM548 825 458 930 344 825H268L414 1000H520L624 825Z" glyph-name="Ycircumflex" horiz-adv-x="748" unicode="&#374;" /><glyph d="M446 575 356 680 242 575H166L312 750H418L522 575ZM604 416 524 407 345 178 335 94 424 84 414 0H135L145 84L236 94L246 177L118 407L44 416L54 500H318L308 416L237 408L305 267L408 408L340 416L350 500H614Z" glyph-name="Ycircumflex.sc" horiz-adv-x="610" /><glyph d="M203 0 213 84 305 94 331 309 161 654 59 666 69 750H395L385 666L282 655L394 400L568 654L470 666L480 750H806L796 666L689 654L435 309L409 94L498 84L488 0ZM517 977H637L622 857H502ZM297 977H417L402 857H282Z" glyph-name="Ydieresis" horiz-adv-x="748" unicode="&#376;" /><glyph d="M193 727H313L298 607H178ZM413 727H533L518 607H398ZM308 416 237 408 305 267 408 408 340 416 350 500H614L604 416L524 407L345 178L335 94L424 84L414 0H135L145 84L236 94L246 177L118 407L44 416L54 500H318Z" glyph-name="Ydieresis.sc" horiz-adv-x="610" unicode="&#63487;" /><glyph d="M203 0 213 84 305 94 331 309 161 654 59 666 69 750H395L385 666L282 655L394 400L568 654L470 666L480 750H806L796 666L689 654L435 309L409 94L498 84L488 0ZM408 825 304 1000H425L484 825Z" glyph-name="Ygrave" horiz-adv-x="748" unicode="&#7922;" /><glyph d="M304 575 200 750H321L380 575ZM604 416 524 407 345 178 335 94 424 84 414 0H135L145 84L236 94L246 177L118 407L44 416L54 500H318L308 416L237 408L305 267L408 408L340 416L350 500H614Z" glyph-name="Ygrave.sc" horiz-adv-x="610" /><glyph d="M639 750 631 682 173 100H480L501 190H585L574 100L562 0H20L28 68L485 650H212L191 560H107L130 750Z" glyph-name="Z" horiz-adv-x="642" unicode="Z" /><glyph d="M514 500 506 432 188 95H380L401 184H485L463 0H35L43 68L360 405H191L171 316H87L109 500Z" glyph-name="Z.sc" horiz-adv-x="558" /><glyph d="M354 825 455 1000H576L430 825ZM639 750 631 682 173 100H480L501 190H585L562 0H20L28 68L485 650H212L191 560H107L130 750Z" glyph-name="Zacute" horiz-adv-x="642" unicode="&#377;" /><glyph d="M284 575 385 750H506L360 575ZM514 500 506 432 188 95H380L401 184H485L463 0H35L43 68L360 405H191L171 316H87L109 500Z" glyph-name="Zacute.sc" horiz-adv-x="558" /><glyph d="M591 1000 445 825H339L235 1000H311L400 895L515 1000ZM20 0 28 68 485 650H212L191 560H107L130 750H639L631 682L173 100H480L501 190H585L562 0Z" glyph-name="Zcaron" horiz-adv-x="642" unicode="&#381;" /><glyph d="M521 750 375 575H269L165 750H221L330 645L465 750ZM514 500 506 432 188 95H380L401 184H485L463 0H35L43 68L360 405H191L171 316H87L109 500Z" glyph-name="Zcaron.sc" horiz-adv-x="558" unicode="&#63231;" /><glyph d="M351 977H471L456 857H336ZM639 750 631 682 173 100H480L501 190H585L562 0H20L28 68L485 650H212L191 560H107L130 750Z" glyph-name="Zdotaccent" horiz-adv-x="642" unicode="&#379;" /><glyph d="M280 727H400L385 607H265ZM514 500 506 432 188 95H380L401 184H485L463 0H35L43 68L360 405H191L171 316H87L109 500Z" glyph-name="Zdotaccent.sc" horiz-adv-x="558" /><glyph d="M398 394Q377 405 350.5 411.5Q324 418 287 418Q250 418 226.5 404.5Q203 391 188 368Q173 345 165.5 314.5Q158 284 154 250Q150 216 150 185.5Q150 155 159 132Q168 109 188.5 95.5Q209 82 246 82Q283 82 313.5 94Q344 106 364 122ZM374 40Q348 17 309.5 2Q271 -13 235 -13Q172 -13 132.5 6Q93 25 72 59.5Q51 94 47 142.5Q43 191 50 250Q57 309 73 357.5Q89 406 118 440.5Q147 475 191.5 494Q236 513 299 513Q335 513 367 502Q399 491 431 472L444 500H511L462 94L551 84L541 0H384Z" glyph-name="a" horiz-adv-x="600" unicode="a" /><glyph d="M268 575 369 750H490L344 575ZM398 394Q377 405 350.5 411.5Q324 418 287 418Q250 418 226.5 404.5Q203 391 188 368Q173 345 165.5 314.5Q158 284 154 250Q150 216 150 185.5Q150 155 159 132Q168 109 188.5 95.5Q209 82 246 82Q283 82 313.5 94Q344 106 364 122ZM374 40Q348 17 309.5 2Q271 -13 235 -13Q172 -13 132.5 6Q93 25 72 59.5Q51 94 47 142.5Q43 191 50 250Q57 309 73 357.5Q89 406 118 440.5Q147 475 191.5 494Q236 513 299 513Q335 513 367 502Q399 491 431 472L444 500H511L462 94L551 84L541 0H384Z" glyph-name="aacute" horiz-adv-x="600" unicode="&#225;" /><glyph d="M305 562Q230 562 190.5 609Q151 656 160 750H237Q232 696 250 672Q268 648 315 648Q362 648 386 671Q410 694 418 750H496Q482 653 431 607.5Q380 562 305 562ZM398 394Q377 405 350.5 411.5Q324 418 287 418Q250 418 226.5 404.5Q203 391 188 368Q173 345 165.5 314.5Q158 284 154 250Q150 216 150 185.5Q150 155 159 132Q168 109 188.5 95.5Q209 82 246 82Q283 82 313.5 94Q344 106 364 122ZM374 40Q348 17 309.5 2Q271 -13 235 -13Q172 -13 132.5 6Q93 25 72 59.5Q51 94 47 142.5Q43 191 50 250Q57 309 73 357.5Q89 406 118 440.5Q147 475 191.5 494Q236 513 299 513Q335 513 367 502Q399 491 431 472L444 500H511L462 94L551 84L541 0H384Z" glyph-name="abreve" horiz-adv-x="600" unicode="&#259;" /><glyph d="M409 575 319 680 205 575H129L275 750H381L485 575ZM398 394Q377 405 350.5 411.5Q324 418 287 418Q250 418 226.5 404.5Q203 391 188 368Q173 345 165.5 314.5Q158 284 154 250Q150 216 150 185.5Q150 155 159 132Q168 109 188.5 95.5Q209 82 246 82Q283 82 313.5 94Q344 106 364 122ZM374 40Q348 17 309.5 2Q271 -13 235 -13Q172 -13 132.5 6Q93 25 72 59.5Q51 94 47 142.5Q43 191 50 250Q57 309 73 357.5Q89 406 118 440.5Q147 475 191.5 494Q236 513 299 513Q335 513 367 502Q399 491 431 472L444 500H511L462 94L551 84L541 0H384Z" glyph-name="acircumflex" horiz-adv-x="600" unicode="&#226;" /><glyph d="M280 575 381 750H502L356 575Z" glyph-name="acute" horiz-adv-x="540" unicode="&#180;" /><glyph d="M310 825 411 1000H532L386 825Z" glyph-name="acute.cap" horiz-adv-x="540" /><glyph d="M375 727H495L480 607H360ZM155 727H275L260 607H140ZM398 394Q377 405 350.5 411.5Q324 418 287 418Q250 418 226.5 404.5Q203 391 188 368Q173 345 165.5 314.5Q158 284 154 250Q150 216 150 185.5Q150 155 159 132Q168 109 188.5 95.5Q209 82 246 82Q283 82 313.5 94Q344 106 364 122ZM374 40Q348 17 309.5 2Q271 -13 235 -13Q172 -13 132.5 6Q93 25 72 59.5Q51 94 47 142.5Q43 191 50 250Q57 309 73 357.5Q89 406 118 440.5Q147 475 191.5 494Q236 513 299 513Q335 513 367 502Q399 491 431 472L444 500H511L462 94L551 84L541 0H384Z" glyph-name="adieresis" horiz-adv-x="600" unicode="&#228;" /><glyph d="M229 209Q181 209 162.5 192Q144 175 141 149Q139 136 141.5 124Q144 112 153 102.5Q162 93 180 87.5Q198 82 227 82Q259 82 282 91.5Q305 101 320.5 118.5Q336 136 345.5 159Q355 182 361 209ZM611 291Q659 291 677.5 308Q696 325 699 351Q701 364 698.5 376Q696 388 686.5 397.5Q677 407 659 412.5Q641 418 612 418Q580 418 557.5 408.5Q535 399 519.5 381.5Q504 364 494.5 341Q485 318 479 291ZM371 298Q371 324 366 346Q361 368 349.5 384Q338 400 318 409Q298 418 268 418Q220 418 180.5 410Q141 402 92 382L104 479Q155 501 199.5 507Q244 513 280 513Q342 513 381.5 495Q421 477 444 444Q474 477 518 495Q562 513 624 513Q676 513 712 500.5Q748 488 770 466Q792 444 799.5 415Q807 386 803 352Q800 322 788.5 294.5Q777 267 753 246.5Q729 226 690.5 214Q652 202 595 202H469Q469 176 473.5 154Q478 132 490 116Q502 100 521.5 91Q541 82 571 82Q619 82 659 90Q699 98 748 118L736 21Q685 -1 640.5 -7Q596 -13 560 -13Q498 -13 458.5 5Q419 23 396 55Q366 23 322 5Q278 -13 216 -13Q164 -13 128 -0.5Q92 12 70 33.5Q48 55 40 84.5Q32 114 37 148Q40 178 51.5 205.5Q63 233 87 253.5Q111 274 149.5 286Q188 298 245 298Z" glyph-name="ae" horiz-adv-x="845" unicode="&#230;" /><glyph d="M422 575 523 750H644L498 575ZM231 209Q183 209 164.5 192Q146 175 143 149Q141 136 143.5 124Q146 112 155 102.5Q164 93 182 87.5Q200 82 229 82Q261 82 284 91.5Q307 101 322.5 118.5Q338 136 347.5 159Q357 182 363 209ZM613 291Q661 291 679.5 308Q698 325 701 351Q703 364 700.5 376Q698 388 688.5 397.5Q679 407 661 412.5Q643 418 614 418Q582 418 559.5 408.5Q537 399 521.5 381.5Q506 364 496.5 341Q487 318 481 291ZM373 298Q373 324 368 346Q363 368 351.5 384Q340 400 320 409Q300 418 270 418Q222 418 182.5 410Q143 402 94 382L106 479Q157 501 201.5 507Q246 513 282 513Q344 513 383.5 495Q423 477 446 444Q476 477 520 495Q564 513 626 513Q678 513 714 500.5Q750 488 772 466Q794 444 801.5 415Q809 386 805 352Q802 322 790.5 294.5Q779 267 755 246.5Q731 226 692.5 214Q654 202 597 202H471Q471 176 475.5 154Q480 132 492 116Q504 100 523.5 91Q543 82 573 82Q621 82 661 90Q701 98 750 118L738 21Q687 -1 642.5 -7Q598 -13 562 -13Q500 -13 460.5 5Q421 23 398 55Q368 23 324 5Q280 -13 218 -13Q166 -13 130 -0.5Q94 12 72 33.5Q50 55 42 84.5Q34 114 39 148Q42 178 53.5 205.5Q65 233 89 253.5Q113 274 151.5 286Q190 298 247 298Z" glyph-name="aeacute" horiz-adv-x="826" unicode="&#509;" /><glyph d="M186 395Q223 437 255.5 494.5Q288 552 297 627Q301 653 296 665Q291 677 272 677Q249 677 230 637Q211 597 200 509ZM26 253Q33 258 45.5 266.5Q58 275 73 286L100 511Q109 584 126.5 632.5Q144 681 168 710Q192 739 220.5 750.5Q249 762 280 762Q341 762 361.5 723Q382 684 374 615Q367 556 346 504.5Q325 453 296.5 409.5Q268 366 234.5 329.5Q201 293 170 265L154 132Q151 111 154.5 99Q158 87 166 81Q174 75 186 73Q198 71 214 71Q231 73 248.5 77Q266 81 275 84L265 0Q252 -4 231.5 -8.5Q211 -13 188 -13Q160 -13 133.5 -8Q107 -3 87 10Q67 23 56.5 46Q46 69 50 104L60 184Q45 173 32 165Q19 157 13 154Z" glyph-name="afii61289" horiz-adv-x="365" unicode="&#8467;" /><glyph d="M275 575 151 750H272L331 575ZM398 394Q377 405 350.5 411.5Q324 418 287 418Q250 418 226.5 404.5Q203 391 188 368Q173 345 165.5 314.5Q158 284 154 250Q150 216 150 185.5Q150 155 159 132Q168 109 188.5 95.5Q209 82 246 82Q283 82 313.5 94Q344 106 364 122ZM374 40Q348 17 309.5 2Q271 -13 235 -13Q172 -13 132.5 6Q93 25 72 59.5Q51 94 47 142.5Q43 191 50 250Q57 309 73 357.5Q89 406 118 440.5Q147 475 191.5 494Q236 513 299 513Q335 513 367 502Q399 491 431 472L444 500H511L462 94L551 84L541 0H384Z" glyph-name="agrave" horiz-adv-x="600" unicode="&#224;" /><glyph d="M170 575 181 666H455L444 575ZM398 394Q377 405 350.5 411.5Q324 418 287 418Q250 418 226.5 404.5Q203 391 188 368Q173 345 165.5 314.5Q158 284 154 250Q150 216 150 185.5Q150 155 159 132Q168 109 188.5 95.5Q209 82 246 82Q283 82 313.5 94Q344 106 364 122ZM374 40Q348 17 309.5 2Q271 -13 235 -13Q172 -13 132.5 6Q93 25 72 59.5Q51 94 47 142.5Q43 191 50 250Q57 309 73 357.5Q89 406 118 440.5Q147 475 191.5 494Q236 513 299 513Q335 513 367 502Q399 491 431 472L444 500H511L462 94L551 84L541 0H384Z" glyph-name="amacron" horiz-adv-x="600" unicode="&#257;" /><glyph d="M139 287Q225 322 283.5 384.5Q342 447 380 519H374Q278 519 216.5 464Q155 409 141 303ZM709 308 634 299Q635 297 635 295Q635 293 636 291Q639 265 636 240Q629 184 604.5 137.5Q580 91 539 57.5Q498 24 440 5.5Q382 -13 309 -13Q238 -13 182.5 8.5Q127 30 91 70.5Q55 111 40 169.5Q25 228 34 303Q43 377 72.5 435Q102 493 148 533.5Q194 574 254.5 595.5Q315 617 386 617Q394 617 403 616.5Q412 616 420 615Q444 687 452 750H557Q547 668 517.5 583Q488 498 437.5 421.5Q387 345 316 283.5Q245 222 151 186Q169 136 212.5 110.5Q256 85 321 85Q410 85 464.5 122Q519 159 529 240Q532 264 521 291Q520 293 519 295Q518 297 517 299L443 308L453 392H719Z" glyph-name="ampersand" horiz-adv-x="720" unicode="&amp;" /><glyph d="M398 394Q377 405 350.5 411.5Q324 418 287 418Q250 418 226.5 404.5Q203 391 188 368Q173 345 165.5 314.5Q158 284 154 250Q150 216 150 185.5Q150 155 159 132Q168 109 188.5 95.5Q209 82 246 82Q283 82 313.5 94Q344 106 364 122ZM462 94 551 84 541 0Q517 0 493.5 -8Q470 -16 450 -30Q430 -44 416.5 -63.5Q403 -83 400 -106Q398 -127 411 -135Q424 -143 439 -143Q454 -143 468 -141Q482 -139 493 -136Q505 -132 516 -128L505 -213Q497 -218 473 -225Q449 -232 408 -232Q385 -232 365 -225.5Q345 -219 330.5 -206Q316 -193 309 -173.5Q302 -154 305 -128Q309 -93 329 -59.5Q349 -26 383 2L374 40Q348 17 309.5 2Q271 -13 235 -13Q172 -13 132.5 6Q93 25 72 59.5Q51 94 47 142.5Q43 191 50 250Q57 309 73 357.5Q89 406 118 440.5Q147 475 191.5 494Q236 513 299 513Q335 513 367 502Q399 491 431 472L444 500H511Z" glyph-name="aogonek" horiz-adv-x="600" unicode="&#261;" /><glyph d="M197 193 261 250 211 307 288 376 338 319 402 376 463 307 399 250 449 193 372 124 322 181 258 124ZM203 400 167 100H457L493 400ZM110 500H610L550 0H50Z" glyph-name="approxequal" horiz-adv-x="660" unicode="&#8776;" /><glyph d="M361 662Q364 688 354 697.5Q344 707 323 707Q301 707 288.5 697.5Q276 688 273 662Q270 638 280 628.5Q290 619 312 619Q333 619 345.5 628.5Q358 638 361 662ZM418 662Q412 610 381 586Q350 562 305 562Q259 562 234 586Q209 610 215 662Q222 715 252.5 739Q283 763 329 763Q374 763 399.5 739Q425 715 418 662ZM398 394Q377 405 350.5 411.5Q324 418 287 418Q250 418 226.5 404.5Q203 391 188 368Q173 345 165.5 314.5Q158 284 154 250Q150 216 150 185.5Q150 155 159 132Q168 109 188.5 95.5Q209 82 246 82Q283 82 313.5 94Q344 106 364 122ZM374 40Q348 17 309.5 2Q271 -13 235 -13Q172 -13 132.5 6Q93 25 72 59.5Q51 94 47 142.5Q43 191 50 250Q57 309 73 357.5Q89 406 118 440.5Q147 475 191.5 494Q236 513 299 513Q335 513 367 502Q399 491 431 472L444 500H511L462 94L551 84L541 0H384Z" glyph-name="aring" horiz-adv-x="600" unicode="&#229;" /><glyph d="M361 662Q364 688 354 697.5Q344 707 323 707Q301 707 288.5 697.5Q276 688 273 662Q270 638 280 628.5Q290 619 312 619Q333 619 345.5 628.5Q358 638 361 662ZM418 662Q412 610 381 586Q350 562 305 562Q259 562 234 586Q209 610 215 662Q217 681 223 695.5Q229 710 237 722L329 882H450L349 761Q385 756 404.5 732Q424 708 418 662ZM398 394Q377 405 350.5 411.5Q324 418 287 418Q250 418 226.5 404.5Q203 391 188 368Q173 345 165.5 314.5Q158 284 154 250Q150 216 150 185.5Q150 155 159 132Q168 109 188.5 95.5Q209 82 246 82Q283 82 313.5 94Q344 106 364 122ZM374 40Q348 17 309.5 2Q271 -13 235 -13Q172 -13 132.5 6Q93 25 72 59.5Q51 94 47 142.5Q43 191 50 250Q57 309 73 357.5Q89 406 118 440.5Q147 475 191.5 494Q236 513 299 513Q335 513 367 502Q399 491 431 472L444 500H511L462 94L551 84L541 0H384Z" glyph-name="aringacute" horiz-adv-x="600" unicode="&#507;" /><glyph d="M67 402 623 763 608 637 278 436 255 424H820L808 326H244L264 314L544 113L529 -13L61 348Z" glyph-name="arrowleft" horiz-adv-x="860" unicode="&#8592;" /><glyph d="M821 348 265 -13 280 113 610 314 632 326H68L80 424H645L626 436L344 637L359 763L827 402Z" glyph-name="arrowright" horiz-adv-x="860" unicode="&#8594;" /><glyph d="M393 750 542 500H476L331 677L142 500H76L287 750Z" glyph-name="asciicircum" horiz-adv-x="540" unicode="^" /><glyph d="M343 327Q326 341 309.5 347.5Q293 354 272 354Q253 354 237.5 344Q222 334 205 322Q188 310 168 300Q148 290 120 290Q94 290 74 302Q54 314 43 326L53 404Q70 390 86.5 383.5Q103 377 124 377Q143 377 158.5 387Q174 397 191 409Q208 421 228 431Q248 441 276 441Q302 441 322 429Q342 417 353 405Z" glyph-name="asciitilde" horiz-adv-x="370" unicode="~" /><glyph d="M294 617 424 676 441 566 310 543 391 445 289 381 240 497 163 378 80 447 181 543 53 566 102 675 216 617 213 750H329Z" glyph-name="asterisk" horiz-adv-x="420" unicode="*" /><glyph d="M618 394Q597 405 570.5 411.5Q544 418 507 418Q470 418 446.5 404.5Q423 391 408 368Q393 345 385.5 314.5Q378 284 374 250Q370 216 370 185.5Q370 155 379 132Q388 109 408.5 95.5Q429 82 466 82Q503 82 533.5 94Q564 106 584 122ZM455 -13Q392 -13 352.5 6Q313 25 292 59.5Q271 94 267 142.5Q263 191 270 250Q277 309 293 357.5Q309 406 338 440.5Q367 475 411.5 494Q456 513 519 513Q555 513 587 502Q619 491 651 472L664 500H731L682 95Q727 98 758.5 116Q790 134 810.5 165Q831 196 843 239.5Q855 283 862 338Q870 407 867.5 467Q865 527 835.5 571.5Q806 616 741.5 641Q677 666 562 666Q485 666 427 649.5Q369 633 326.5 604Q284 575 255.5 535.5Q227 496 208 450Q189 404 178 353Q167 302 161 250Q155 198 153 147Q151 96 159 50Q167 4 186 -35.5Q205 -75 240 -104Q275 -133 329 -149.5Q383 -166 460 -166Q540 -166 604 -152.5Q668 -139 722 -114L709 -224Q655 -243 590.5 -253Q526 -263 448 -263Q351 -263 282 -243Q213 -223 166.5 -187.5Q120 -152 94 -103.5Q68 -55 56.5 2Q45 59 46 122Q47 185 55 250Q63 315 77.5 378Q92 441 117.5 498Q143 555 180.5 603.5Q218 652 273 687.5Q328 723 402 743Q476 763 573 763Q718 763 802 730Q886 697 926.5 639.5Q967 582 973 504.5Q979 427 968 338Q959 261 939.5 199Q920 137 884.5 92.5Q849 48 796 24Q743 0 666 0H604L594 40Q568 17 529.5 2Q491 -13 455 -13Z" glyph-name="at" horiz-adv-x="1012" unicode="@" /><glyph d="M633 519Q612 530 585.5 536.5Q559 543 522 543Q485 543 461.5 529.5Q438 516 423 493Q408 470 400.5 439.5Q393 409 389 375Q385 341 385 310.5Q385 280 394 257Q403 234 423.5 220.5Q444 207 481 207Q518 207 548.5 219Q579 231 599 247ZM470 112Q407 112 367.5 131Q328 150 307 184.5Q286 219 282 267.5Q278 316 285 375Q292 434 308 482.5Q324 531 353 565.5Q382 600 426.5 619Q471 638 534 638Q570 638 602 627Q634 616 666 597L679 625H746L697 220Q742 223 773.5 241Q805 259 825.5 290Q846 321 858 364.5Q870 408 877 463Q885 532 882.5 592Q880 652 850.5 696.5Q821 741 756.5 766Q692 791 577 791Q500 791 442 774.5Q384 758 341.5 729Q299 700 270.5 660.5Q242 621 223 575Q204 529 193 478Q182 427 176 375Q170 323 168 272Q166 221 174 175Q182 129 201 89.5Q220 50 255 21Q290 -8 344 -24.5Q398 -41 475 -41Q555 -41 619 -27.5Q683 -14 737 11L724 -99Q670 -118 605.5 -128Q541 -138 463 -138Q366 -138 297 -118Q228 -98 181.5 -62.5Q135 -27 109 21.5Q83 70 71.5 127Q60 184 61 247Q62 310 70 375Q78 440 92.5 503Q107 566 132.5 623Q158 680 195.5 728.5Q233 777 288 812.5Q343 848 417 868Q491 888 588 888Q733 888 817 855Q901 822 941.5 764.5Q982 707 988 629.5Q994 552 983 463Q974 386 954.5 324Q935 262 899.5 217.5Q864 173 811 149Q758 125 681 125H619L609 165Q583 142 544.5 127Q506 112 470 112Z" glyph-name="at.cap" horiz-adv-x="1012" /><glyph d="M462 624Q445 638 428 644.5Q411 651 390 651Q371 651 355.5 641Q340 631 323 619Q306 607 286 597Q266 587 238 587Q212 587 192 599Q172 611 161 623L171 701Q188 687 205 680.5Q222 674 243 674Q262 674 277.5 684Q293 694 309.5 706Q326 718 346 728Q366 738 394 738Q420 738 440 726Q460 714 471 702ZM398 394Q377 405 350.5 411.5Q324 418 287 418Q250 418 226.5 404.5Q203 391 188 368Q173 345 165.5 314.5Q158 284 154 250Q150 216 150 185.5Q150 155 159 132Q168 109 188.5 95.5Q209 82 246 82Q283 82 313.5 94Q344 106 364 122ZM374 40Q348 17 309.5 2Q271 -13 235 -13Q172 -13 132.5 6Q93 25 72 59.5Q51 94 47 142.5Q43 191 50 250Q57 309 73 357.5Q89 406 118 440.5Q147 475 191.5 494Q236 513 299 513Q335 513 367 502Q399 491 431 472L444 500H511L462 94L551 84L541 0H384Z" glyph-name="atilde" horiz-adv-x="600" unicode="&#227;" /><glyph d="M236 408Q225 405 215.5 402Q206 399 198 395L162 106Q183 95 209 88.5Q235 82 272 82Q309 82 333 95.5Q357 109 372 132Q387 155 394.5 185.5Q402 216 406 250Q410 284 410 314.5Q410 345 400.5 368Q391 391 370.5 404.5Q350 418 313 418Q289 418 270.5 415Q252 412 236 408ZM50 750H241L209 486Q241 500 268 506.5Q295 513 325 513Q388 513 427.5 494Q467 475 488 440.5Q509 406 513 357.5Q517 309 510 250Q503 191 487 142.5Q471 94 442 59.5Q413 25 368.5 6Q324 -13 261 -13Q225 -13 193 -2Q161 9 129 28L116 0H49L128 656L40 666Z" glyph-name="b" horiz-adv-x="565" unicode="b" /><glyph d="M293 -206 67 816H174L400 -206Z" glyph-name="backslash" horiz-adv-x="458" unicode="\" /><glyph d="M147 -206H42L167 816H272Z" glyph-name="bar" horiz-adv-x="299" unicode="|" /><glyph d="M82 375Q92 455 131 526Q170 597 229 649.5Q288 702 362.5 732.5Q437 763 517 763Q597 763 664 732.5Q731 702 777.5 649.5Q824 597 846 526Q868 455 858 375Q848 295 809 224Q770 153 711 100.5Q652 48 577.5 17.5Q503 -13 423 -13Q343 -13 276 17.5Q209 48 162.5 100.5Q116 153 94 224Q72 295 82 375Z" glyph-name="blackcircle" horiz-adv-x="910" unicode="&#9679;" /><glyph d="M50 0 110 500H610L550 0Z" glyph-name="blacksmallsquare" horiz-adv-x="660" unicode="&#9642;" /><glyph d="M50 0 141 750H891L800 0Z" glyph-name="blacksquare" horiz-adv-x="910" /><glyph d="M201 382Q199 359 189 340Q179 321 164 305Q175 288 180.5 269Q186 250 182 228L126 -83Q123 -103 145 -103H179L166 -206H132Q103 -206 79.5 -199Q56 -192 41 -177Q26 -162 20.5 -138.5Q15 -115 21 -81L76 233Q79 253 60 254H28L41 356H69Q93 356 93 377L115 691Q120 759 159 787.5Q198 816 257 816H291L278 713H244Q221 713 221 693Z" glyph-name="braceleft" horiz-adv-x="262" unicode="{" /><glyph d="M209 452Q207 429 197 410Q187 391 172 375Q183 358 188.5 339Q194 320 190 298L134 -13Q131 -33 153 -33H187L174 -136H140Q111 -136 87.5 -129Q64 -122 49 -107Q34 -92 28.5 -68.5Q23 -45 29 -11L84 303Q87 323 68 324H36L49 426H77Q101 426 101 447L123 761Q128 829 167 857.5Q206 886 265 886H299L286 783H252Q229 783 229 763Z" glyph-name="braceleft.cap" horiz-adv-x="262" /><glyph d="M150 693Q153 713 131 713H97L110 816H144Q173 816 196.5 809Q220 802 235 787Q250 772 256 748.5Q262 725 256 691L200 377Q197 356 220 356H248L235 254H207Q183 254 183 233L162 -81Q157 -149 117.5 -177.5Q78 -206 19 -206H-15L-2 -103H32Q55 -103 55 -83L75 228Q77 250 87 269Q97 288 112 305Q101 321 95 340Q89 359 94 382Z" glyph-name="braceright" horiz-adv-x="262" unicode="}" /><glyph d="M158 763Q161 783 139 783H105L118 886H152Q181 886 204.5 879Q228 872 243 857Q258 842 264 818.5Q270 795 264 761L208 447Q205 426 228 426H256L243 324H215Q191 324 191 303L170 -11Q165 -79 125.5 -107.5Q86 -136 27 -136H-7L6 -33H40Q63 -33 63 -13L83 298Q85 320 95 339Q105 358 120 375Q109 391 103 410Q97 429 102 452Z" glyph-name="braceright.cap" horiz-adv-x="262" /><glyph d="M138 -106H202L189 -206H20L145 816H314L302 716H238Z" glyph-name="bracketleft" horiz-adv-x="284" unicode="[" /><glyph d="M146 -36H210L197 -136H28L153 886H322L310 786H246Z" glyph-name="bracketleft.cap" horiz-adv-x="284" /><glyph d="M162 716H98L110 816H279L154 -206H-15L-2 -106H62Z" glyph-name="bracketright" horiz-adv-x="284" unicode="]" /><glyph d="M170 786H106L118 886H287L162 -136H-7L6 -36H70Z" glyph-name="bracketright.cap" horiz-adv-x="284" /><glyph d="M316 562Q241 562 201.5 609Q162 656 171 750H248Q243 696 261 672Q279 648 326 648Q373 648 397 671Q421 694 429 750H507Q493 653 442 607.5Q391 562 316 562Z" glyph-name="breve" horiz-adv-x="602" unicode="&#728;" /><glyph d="M346 812Q271 812 231.5 859Q192 906 201 1000H278Q273 946 291 922Q309 898 356 898Q403 898 427 921Q451 944 459 1000H537Q523 903 472 857.5Q421 812 346 812Z" glyph-name="breve.cap" horiz-adv-x="602" /><glyph d="M147 -206H42L99 256H204ZM167 816H272L216 354H111Z" glyph-name="brokenbar" horiz-adv-x="299" unicode="&#166;" /><glyph d="M105 500H354L323 250H74Z" glyph-name="bullet" horiz-adv-x="400" unicode="&#8226;" /><glyph d="M106 331Q96 320 91 310.5Q86 301 85 296V321ZM440 750H479L468 619Q463 617 459.5 614.5Q456 612 451 610ZM493 750H534L494 617L488 626Q480 624 476 622ZM427 750 445 605Q437 599 432 594L386 750ZM548 750H595L510 593L499 609ZM835 321V300Q810 306 782 315Q754 324 730 336Q706 348 688.5 362.5Q671 377 668 394Q666 398 666 401ZM372 750 428 590Q425 587 422.5 584Q420 581 418 579L325 750ZM85 410 299 461Q273 451 248 443.5Q223 436 201 422Q179 408 162.5 393.5Q146 379 133 365L85 345ZM613 750H673L522 574L514 587ZM307 750 414 574Q412 571 410 568.5Q408 566 406 563L247 750ZM835 410V345L659 418Q651 431 641 441Q631 451 619 461ZM835 490V430L603 474Q596 479 590 484.5Q584 490 577 496ZM835 569V510L571 503Q568 507 565 510Q562 513 559 517ZM697 750H785L533 557L526 568ZM85 490 359 497Q344 484 331 476L85 430ZM85 569 375 515Q370 507 365 503L85 510ZM223 750 403 559Q401 557 400 554Q399 551 397 549L135 750ZM835 655V589L556 523Q553 526 549 534L548 535ZM85 655 385 530Q383 526 379 520L85 589ZM823 750H835V678L544 540L537 552ZM85 750H97L394 544Q389 538 388 534L85 678Z" glyph-name="bullseye" horiz-adv-x="910" unicode="&#664;" /><glyph d="M458 325H373V412Q347 418 312 418Q271 418 243 404.5Q215 391 196 368Q177 345 167 314.5Q157 284 153 250Q149 216 151.5 185.5Q154 155 167 132Q180 109 205 95.5Q230 82 271 82Q318 82 356 90Q394 98 432 111L420 16Q383 -1 339 -7Q295 -13 260 -13Q200 -13 157 6Q114 25 87.5 59.5Q61 94 51.5 142.5Q42 191 49 250Q56 309 77.5 357.5Q99 406 134 440.5Q169 475 216.5 494Q264 513 324 513Q359 513 401.5 507Q444 501 477 484Z" glyph-name="c" horiz-adv-x="512" unicode="c" /><glyph d="M284 575 385 750H506L360 575ZM458 325H373V412Q347 418 312 418Q271 418 243 404.5Q215 391 196 368Q177 345 167 314.5Q157 284 153 250Q149 216 151.5 185.5Q154 155 167 132Q180 109 205 95.5Q230 82 271 82Q318 82 356 90Q394 98 432 111L420 16Q383 -1 339 -7Q295 -13 260 -13Q200 -13 157 6Q114 25 87.5 59.5Q61 94 51.5 142.5Q42 191 49 250Q56 309 77.5 357.5Q99 406 134 440.5Q169 475 216.5 494Q264 513 324 513Q359 513 401.5 507Q444 501 477 484Z" glyph-name="cacute" horiz-adv-x="512" unicode="&#263;" /><glyph d="M517 750 371 575H265L161 750H237L326 645L441 750Z" glyph-name="caron" horiz-adv-x="540" unicode="&#711;" /><glyph d="M547 1000 401 825H295L191 1000H267L356 895L471 1000Z" glyph-name="caron.cap" horiz-adv-x="540" /><glyph d="M522 750 376 575H270L166 750H242L331 645L446 750ZM458 325H373V412Q347 418 312 418Q271 418 243 404.5Q215 391 196 368Q177 345 167 314.5Q157 284 153 250Q149 216 151.5 185.5Q154 155 167 132Q180 109 205 95.5Q230 82 271 82Q318 82 356 90Q394 98 432 111L420 16Q383 -1 339 -7Q295 -13 260 -13Q200 -13 157 6Q114 25 87.5 59.5Q61 94 51.5 142.5Q42 191 49 250Q56 309 77.5 357.5Q99 406 134 440.5Q169 475 216.5 494Q264 513 324 513Q359 513 401.5 507Q444 501 477 484Z" glyph-name="ccaron" horiz-adv-x="512" unicode="&#269;" /><glyph d="M458 325H373V412Q347 418 312 418Q271 418 243 404.5Q215 391 196 368Q177 345 167 314.5Q157 284 153 250Q149 216 151.5 185.5Q154 155 167 132Q180 109 205 95.5Q230 82 271 82Q318 82 356 90Q394 98 432 111L420 16Q388 2 350.5 -4.5Q313 -11 280 -13L269 -46Q299 -57 320 -79Q341 -101 337 -140Q334 -163 323 -178.5Q312 -194 294.5 -203.5Q277 -213 255 -217.5Q233 -222 209 -222Q177 -222 156 -216Q135 -210 127 -205L150 -155Q159 -158 170 -161Q179 -163 190.5 -165Q202 -167 215 -167Q241 -167 250 -157Q259 -147 260 -139Q261 -126 254.5 -117Q248 -108 236 -102Q224 -96 207.5 -92.5Q191 -89 173 -87L210 -9Q116 6 76 75Q36 144 49 250Q56 309 77.5 357.5Q99 406 134 440.5Q169 475 216.5 494Q264 513 324 513Q359 513 401.5 507Q444 501 477 484Z" glyph-name="ccedilla" horiz-adv-x="512" unicode="&#231;" /><glyph d="M425 575 335 680 221 575H145L291 750H397L501 575ZM458 325H373V412Q347 418 312 418Q271 418 243 404.5Q215 391 196 368Q177 345 167 314.5Q157 284 153 250Q149 216 151.5 185.5Q154 155 167 132Q180 109 205 95.5Q230 82 271 82Q318 82 356 90Q394 98 432 111L420 16Q383 -1 339 -7Q295 -13 260 -13Q200 -13 157 6Q114 25 87.5 59.5Q61 94 51.5 142.5Q42 191 49 250Q56 309 77.5 357.5Q99 406 134 440.5Q169 475 216.5 494Q264 513 324 513Q359 513 401.5 507Q444 501 477 484Z" glyph-name="ccircumflex" horiz-adv-x="512" unicode="&#265;" /><glyph d="M281 727H401L386 607H266ZM458 325H373V412Q347 418 312 418Q271 418 243 404.5Q215 391 196 368Q177 345 167 314.5Q157 284 153 250Q149 216 151.5 185.5Q154 155 167 132Q180 109 205 95.5Q230 82 271 82Q318 82 356 90Q394 98 432 111L420 16Q383 -1 339 -7Q295 -13 260 -13Q200 -13 157 6Q114 25 87.5 59.5Q61 94 51.5 142.5Q42 191 49 250Q56 309 77.5 357.5Q99 406 134 440.5Q169 475 216.5 494Q264 513 324 513Q359 513 401.5 507Q444 501 477 484Z" glyph-name="cdotaccent" horiz-adv-x="512" unicode="&#267;" /><glyph d="M278 0 263 -46Q293 -57 314 -79Q335 -101 331 -140Q328 -163 317 -178.5Q306 -194 288.5 -203.5Q271 -213 249 -217.5Q227 -222 203 -222Q171 -222 150 -216Q129 -210 121 -205L144 -155Q153 -158 164 -161Q173 -163 184.5 -165Q196 -167 209 -167Q235 -167 244 -157Q253 -147 254 -139Q255 -126 248.5 -117Q242 -108 230 -102Q218 -96 201.5 -92.5Q185 -89 167 -87L208 0Z" glyph-name="cedilla" horiz-adv-x="602" unicode="&#184;" /><glyph d="M74 375Q92 520 172.5 585.5Q253 651 389 651H393L439 750H550L496 642Q521 638 545.5 632Q570 626 590 618L578 520Q558 528 532 534.5Q506 541 478.5 545Q451 549 423 551Q395 553 371 553Q336 553 304 545Q272 537 246 516.5Q220 496 202 461.5Q184 427 178 375Q172 322 181.5 288Q191 254 212 233.5Q233 213 263 205Q293 197 328 197Q352 197 380.5 199Q409 201 437.5 205Q466 209 493 215.5Q520 222 543 230L531 132Q507 123 478.5 116.5Q450 110 421 106Q392 102 366 100.5Q340 99 322 99H298L252 0H141L198 117Q125 142 93 205Q61 268 74 375Z" glyph-name="cent" horiz-adv-x="600" unicode="&#162;" /><glyph d="M163 250Q159 216 160 185.5Q161 155 171 132Q181 109 202.5 95.5Q224 82 261 82Q308 82 346 90Q384 98 422 111L410 16Q373 -1 329 -7Q285 -13 250 -13H237L188 -117H79L142 7Q83 35 65.5 98.5Q48 162 59 250Q66 308 82.5 356Q99 404 128.5 438.5Q158 473 201.5 492Q245 511 306 513L355 617H464L407 504Q423 500 438.5 495.5Q454 491 467 484L456 389Q421 402 385 410Q349 418 302 418Q265 418 240.5 404.5Q216 391 200 368Q184 345 175.5 314.5Q167 284 163 250Z" glyph-name="cent.onum" horiz-adv-x="500" unicode="&#63394;" /><glyph d="M67 250Q74 304 100.5 352Q127 400 167 436Q207 472 257.5 492.5Q308 513 362 513Q416 513 461.5 492.5Q507 472 538.5 436Q570 400 585 352Q600 304 593 250Q586 196 559.5 148Q533 100 493 64Q453 28 402.5 7.5Q352 -13 298 -13Q244 -13 198.5 7.5Q153 28 121.5 64Q90 100 75 148Q60 196 67 250Z" glyph-name="circle" horiz-adv-x="660" unicode="&#9675;" /><glyph d="M420 575 330 680 216 575H140L286 750H392L496 575Z" glyph-name="circumflex" horiz-adv-x="540" unicode="&#710;" /><glyph d="M450 825 360 930 246 825H170L316 1000H422L526 825Z" glyph-name="circumflex.cap" horiz-adv-x="540" /><glyph d="M73 435H193L178 315H58ZM35 120H155L140 0H20Z" glyph-name="colon" horiz-adv-x="220" unicode=":" /><glyph d="M-30 -114 31 120H161L36 -114Z" glyph-name="comma" horiz-adv-x="220" unicode="," /><glyph d="M259 575 351 750H418L373 575Z" glyph-name="commaabovecmb" horiz-adv-x="500" unicode="&#787;" /><glyph d="M218 -250H151L196 -75H310Z" glyph-name="commaaccent" horiz-adv-x="500" unicode="&#61444;" /><glyph d="M331 183Q353 183 378.5 188Q404 193 425 198L415 116Q390 111 365 108Q340 105 321 105Q255 105 224 137Q193 169 203 250Q213 331 252 363Q291 395 357 395Q376 395 400 392Q424 389 447 384L437 302Q417 307 393 312Q369 317 347 317Q320 317 305 304Q290 291 285 250Q280 209 292 196Q304 183 331 183ZM317 71Q356 71 389.5 77.5Q423 84 449.5 103Q476 122 493.5 157.5Q511 193 518 250Q525 307 516 342.5Q507 378 485.5 397Q464 416 432 422.5Q400 429 361 429Q322 429 288.5 422.5Q255 416 228.5 397Q202 378 184.5 342.5Q167 307 160 250Q153 193 162 157.5Q171 122 192.5 103Q214 84 246 77.5Q278 71 317 71ZM307 -13Q253 -13 205.5 -2.5Q158 8 125 37Q92 66 76.5 117.5Q61 169 71 250Q81 331 108.5 382.5Q136 434 176.5 463Q217 492 267 502.5Q317 513 371 513Q425 513 472.5 502.5Q520 492 553 463Q586 434 601.5 382.5Q617 331 607 250Q597 169 569.5 117.5Q542 66 501.5 37Q461 8 411 -2.5Q361 -13 307 -13Z" glyph-name="copyright" horiz-adv-x="680" unicode="&#169;" /><glyph d="M229 459Q260 459 288.5 463.5Q317 468 345 475L334 382Q299 374 269.5 370.5Q240 367 218 367Q124 367 89.5 417.5Q55 468 66 565Q78 662 125 712.5Q172 763 266 763Q288 763 317 759.5Q346 756 379 748L359 583H275L276 670Q271 671 265.5 671Q260 671 255 671Q211 671 190.5 647Q170 623 162 565Q155 507 170 483Q185 459 229 459Z" glyph-name="cordinal" horiz-adv-x="375" /><glyph d="M369 382Q334 374 302 370.5Q270 367 248 367Q154 367 104 417.5Q54 468 66 565Q72 613 90.5 650Q109 687 139 712Q169 737 208.5 750Q248 763 295 763Q317 763 348.5 759.5Q380 756 413 748L394 592H309V670Q303 670 297.5 670.5Q292 671 285 671Q263 671 242.5 665.5Q222 660 205 647Q188 634 176.5 614Q165 594 162 565Q159 536 165.5 516Q172 496 185.5 483Q199 470 218 464.5Q237 459 259 459Q266 459 272.5 459Q279 459 285 460L304 541H388Z" glyph-name="cordinal.sc" horiz-adv-x="399" /><glyph d="M398 395Q383 402 362 408Q348 412 329.5 415Q311 418 287 418Q250 418 226.5 404.5Q203 391 188 368Q173 345 165.5 314.5Q158 284 154 250Q150 216 150 185.5Q150 155 159 132Q168 109 188.5 95.5Q209 82 246 82Q283 82 313.5 94Q344 106 364 122ZM235 -13Q172 -13 132.5 6Q93 25 72 59.5Q51 94 47 142.5Q43 191 50 250Q57 309 73 357.5Q89 406 118 440.5Q147 475 191.5 494Q236 513 299 513Q329 513 354.5 506.5Q380 500 409 486L429 656L341 666L351 750H542L462 94L551 84L541 0H384L374 40Q348 17 309.5 2Q271 -13 235 -13Z" glyph-name="d" horiz-adv-x="600" unicode="d" /><glyph d="M283 612 424 631 410 516 274 535V295H138L198 535L56 516L70 631L206 612L204 750H320Z" glyph-name="dagger" horiz-adv-x="404" unicode="&#8224;" /><glyph d="M283 612 424 631 410 516 274 535 275 480 261 427 402 446 388 330 251 350 252 110H116L175 350L34 330L48 446L184 427L183 480L197 535L56 516L70 631L206 612L204 750H320Z" glyph-name="daggerdbl" horiz-adv-x="404" unicode="&#8225;" /><glyph d="M659 575H592L637 750H751ZM398 395Q383 402 362 408Q348 412 329.5 415Q311 418 287 418Q250 418 226.5 404.5Q203 391 188 368Q173 345 165.5 314.5Q158 284 154 250Q150 216 150 185.5Q150 155 159 132Q168 109 188.5 95.5Q209 82 246 82Q283 82 313.5 94Q344 106 364 122ZM235 -13Q172 -13 132.5 6Q93 25 72 59.5Q51 94 47 142.5Q43 191 50 250Q57 309 73 357.5Q89 406 118 440.5Q147 475 191.5 494Q236 513 299 513Q329 513 354.5 506.5Q380 500 409 486L429 656L341 666L351 750H542L462 94L551 84L541 0H384L374 40Q348 17 309.5 2Q271 -13 235 -13Z" glyph-name="dcaron" horiz-adv-x="600" unicode="&#271;" /><glyph d="M398 395Q383 402 362 408Q348 412 329.5 415Q311 418 287 418Q250 418 226.5 404.5Q203 391 188 368Q173 345 165.5 314.5Q158 284 154 250Q150 216 150 185.5Q150 155 159 132Q168 109 188.5 95.5Q209 82 246 82Q283 82 313.5 94Q344 106 364 122ZM339 627H426L429 656L341 666L351 750H542L527 627H619L608 538H516L462 94L551 84L541 0H384L374 40Q348 17 309.5 2Q271 -13 235 -13Q172 -13 132.5 6Q93 25 72 59.5Q51 94 47 142.5Q43 191 50 250Q57 309 73 357.5Q89 406 118 440.5Q147 475 191.5 494Q236 513 299 513Q329 513 354.5 506.5Q380 500 409 486L415 538H328Z" glyph-name="dcroat" horiz-adv-x="600" unicode="&#273;" /><glyph d="M234 689Q205 689 186.5 674.5Q168 660 164 625Q159 590 174.5 575.5Q190 561 219 561Q248 561 266.5 575.5Q285 590 290 625Q294 660 278.5 674.5Q263 689 234 689ZM210 487Q184 487 159.5 493.5Q135 500 117 516Q99 532 90 558.5Q81 585 86 625Q91 665 106.5 692Q122 719 143.5 734.5Q165 750 191 756.5Q217 763 243 763Q269 763 293.5 756.5Q318 750 336 734.5Q354 719 363.5 692Q373 665 368 625Q363 585 347.5 558.5Q332 532 310 516Q288 500 262 493.5Q236 487 210 487Z" glyph-name="degree" horiz-adv-x="366" unicode="&#176;" /><glyph d="M387 727H507L492 607H372ZM167 727H287L272 607H152Z" glyph-name="dieresis" horiz-adv-x="540" unicode="&#168;" /><glyph d="M417 977H537L522 857H402ZM197 977H317L302 857H182Z" glyph-name="dieresis.cap" horiz-adv-x="540" /><glyph d="M236 554H356L341 434H221ZM199 248H319L304 128H184ZM476 390 464 292H64L76 390Z" glyph-name="divide" horiz-adv-x="520" unicode="&#247;" /><glyph d="M195 485Q193 466 204.5 456Q216 446 235.5 441Q255 436 280 434.5Q305 433 329 431Q388 426 430 417.5Q472 409 498 392Q524 375 533.5 347Q543 319 538 275Q528 194 460 147Q392 100 269 99L223 0H112L163 105Q131 108 103 113.5Q75 119 59 127L71 229Q88 221 114 215.5Q140 210 168.5 206.5Q197 203 225.5 201Q254 199 276 199Q306 199 333 202Q360 205 382 213Q404 221 418 235.5Q432 250 435 274Q437 293 426 304Q415 315 396.5 321Q378 327 353.5 330Q329 333 305 335Q247 340 204.5 347.5Q162 355 135.5 370Q109 385 98.5 410.5Q88 436 93 478Q104 565 172 608Q240 651 358 651H364L410 750H521L467 644Q492 641 516 635Q540 629 558 621L546 523Q526 531 500 536.5Q474 542 447 545Q420 548 393.5 549.5Q367 551 345 551Q318 551 292 548Q266 545 245 537.5Q224 530 210.5 517.5Q197 505 195 485Z" glyph-name="dollar" horiz-adv-x="600" unicode="$" /><glyph d="M172 354Q170 343 172.5 334.5Q175 326 184 320Q193 314 210.5 310Q228 306 256 303Q310 298 343.5 286Q377 274 395 255Q413 236 417 210Q421 184 417 151Q414 122 401 93.5Q388 65 363 42Q338 19 300 4Q262 -11 208 -13L159 -117H50L107 -4Q64 2 37 15L49 112Q78 101 117 91.5Q156 82 204 82Q234 82 255 88Q276 94 289.5 103.5Q303 113 309 125Q315 137 317 150Q318 162 316.5 172.5Q315 183 306 191Q297 199 280 204Q263 209 234 212Q179 217 146 229.5Q113 242 96 260.5Q79 279 75 302.5Q71 326 74 354Q77 381 90 409Q103 437 127 459.5Q151 482 188 497Q225 512 277 513L326 617H435L377 503Q391 500 405.5 495Q420 490 434 484L423 389Q388 401 352.5 409.5Q317 418 272 418Q243 418 224.5 413Q206 408 194.5 399.5Q183 391 178 379Q173 367 172 354Z" glyph-name="dollar.onum" horiz-adv-x="490" unicode="&#63268;" /><glyph d="M277 727H397L382 607H262Z" glyph-name="dotaccent" horiz-adv-x="540" unicode="&#729;" /><glyph d="M307 977H427L412 857H292Z" glyph-name="dotaccent.cap" horiz-adv-x="540" /><glyph d="M215 94 304 84 294 0H13L23 84L114 94L152 406L63 416L73 500H264Z" glyph-name="dotlessi" horiz-adv-x="360" unicode="&#305;" /><glyph d="M190 -88Q185 -129 161.5 -160Q138 -191 103.5 -212.5Q69 -234 28.5 -246Q-12 -258 -50 -260L-39 -168Q-18 -165 4 -159.5Q26 -154 44 -143.5Q62 -133 74.5 -117Q87 -101 90 -79L148 406L60 416L70 500H261Z" glyph-name="dotlessj" horiz-adv-x="325" unicode="&#63166;" /><glyph d="M311 291Q359 296 377.5 310.5Q396 325 399 351Q401 364 398.5 376Q396 388 386.5 397.5Q377 407 359 412.5Q341 418 312 418Q276 418 249 407Q222 396 203.5 377Q185 358 174 332.5Q163 307 157 277ZM324 513Q376 513 412 500.5Q448 488 470 466Q492 444 499.5 415Q507 386 503 352Q500 322 488.5 296Q477 270 453 250.5Q429 231 390.5 218.5Q352 206 295 202L151 192Q154 144 181 113Q208 82 271 82Q319 82 359 90Q399 98 448 118L436 21Q385 -1 340.5 -7Q296 -13 260 -13Q200 -13 157 6Q114 25 87.5 59.5Q61 94 51.5 142.5Q42 191 49 250Q56 309 77.5 357.5Q99 406 134 440.5Q169 475 216.5 494Q264 513 324 513Z" glyph-name="e" horiz-adv-x="545" unicode="e" /><glyph d="M294 575 395 750H516L370 575ZM311 291Q359 296 377.5 310.5Q396 325 399 351Q401 364 398.5 376Q396 388 386.5 397.5Q377 407 359 412.5Q341 418 312 418Q276 418 249 407Q222 396 203.5 377Q185 358 174 332.5Q163 307 157 277ZM324 513Q376 513 412 500.5Q448 488 470 466Q492 444 499.5 415Q507 386 503 352Q500 322 488.5 296Q477 270 453 250.5Q429 231 390.5 218.5Q352 206 295 202L151 192Q154 144 181 113Q208 82 271 82Q319 82 359 90Q399 98 448 118L436 21Q385 -1 340.5 -7Q296 -13 260 -13Q200 -13 157 6Q114 25 87.5 59.5Q61 94 51.5 142.5Q42 191 49 250Q56 309 77.5 357.5Q99 406 134 440.5Q169 475 216.5 494Q264 513 324 513Z" glyph-name="eacute" horiz-adv-x="545" unicode="&#233;" /><glyph d="M327 562Q252 562 212.5 609Q173 656 182 750H259Q254 696 272 672Q290 648 337 648Q384 648 408 671Q432 694 440 750H518Q504 653 453 607.5Q402 562 327 562ZM311 291Q359 296 377.5 310.5Q396 325 399 351Q401 364 398.5 376Q396 388 386.5 397.5Q377 407 359 412.5Q341 418 312 418Q276 418 249 407Q222 396 203.5 377Q185 358 174 332.5Q163 307 157 277ZM324 513Q376 513 412 500.5Q448 488 470 466Q492 444 499.5 415Q507 386 503 352Q500 322 488.5 296Q477 270 453 250.5Q429 231 390.5 218.5Q352 206 295 202L151 192Q154 144 181 113Q208 82 271 82Q319 82 359 90Q399 98 448 118L436 21Q385 -1 340.5 -7Q296 -13 260 -13Q200 -13 157 6Q114 25 87.5 59.5Q61 94 51.5 142.5Q42 191 49 250Q56 309 77.5 357.5Q99 406 134 440.5Q169 475 216.5 494Q264 513 324 513Z" glyph-name="ebreve" horiz-adv-x="545" unicode="&#277;" /><glyph d="M311 291Q359 296 377.5 310.5Q396 325 399 351Q401 364 398.5 376Q396 388 386.5 397.5Q377 407 359 412.5Q341 418 312 418Q276 418 249 407Q222 396 203.5 377Q185 358 174 332.5Q163 307 157 277ZM531 750 385 575H279L175 750H251L340 645L455 750ZM324 513Q376 513 412 500.5Q448 488 470 466Q492 444 499.5 415Q507 386 503 352Q500 322 488.5 296Q477 270 453 250.5Q429 231 390.5 218.5Q352 206 295 202L151 192Q154 144 181 113Q208 82 271 82Q319 82 359 90Q399 98 448 118L436 21Q385 -1 340.5 -7Q296 -13 260 -13Q200 -13 157 6Q114 25 87.5 59.5Q61 94 51.5 142.5Q42 191 49 250Q56 309 77.5 357.5Q99 406 134 440.5Q169 475 216.5 494Q264 513 324 513Z" glyph-name="ecaron" horiz-adv-x="545" unicode="&#283;" /><glyph d="M311 291Q359 296 377.5 310.5Q396 325 399 351Q401 364 398.5 376Q396 388 386.5 397.5Q377 407 359 412.5Q341 418 312 418Q276 418 249 407Q222 396 203.5 377Q185 358 174 332.5Q163 307 157 277ZM435 575 345 680 231 575H155L301 750H407L511 575ZM324 513Q376 513 412 500.5Q448 488 470 466Q492 444 499.5 415Q507 386 503 352Q500 322 488.5 296Q477 270 453 250.5Q429 231 390.5 218.5Q352 206 295 202L151 192Q154 144 181 113Q208 82 271 82Q319 82 359 90Q399 98 448 118L436 21Q385 -1 340.5 -7Q296 -13 260 -13Q200 -13 157 6Q114 25 87.5 59.5Q61 94 51.5 142.5Q42 191 49 250Q56 309 77.5 357.5Q99 406 134 440.5Q169 475 216.5 494Q264 513 324 513Z" glyph-name="ecircumflex" horiz-adv-x="545" unicode="&#234;" /><glyph d="M402 727H522L507 607H387ZM182 727H302L287 607H167ZM311 291Q359 296 377.5 310.5Q396 325 399 351Q401 364 398.5 376Q396 388 386.5 397.5Q377 407 359 412.5Q341 418 312 418Q276 418 249 407Q222 396 203.5 377Q185 358 174 332.5Q163 307 157 277ZM324 513Q376 513 412 500.5Q448 488 470 466Q492 444 499.5 415Q507 386 503 352Q500 322 488.5 296Q477 270 453 250.5Q429 231 390.5 218.5Q352 206 295 202L151 192Q154 144 181 113Q208 82 271 82Q319 82 359 90Q399 98 448 118L436 21Q385 -1 340.5 -7Q296 -13 260 -13Q200 -13 157 6Q114 25 87.5 59.5Q61 94 51.5 142.5Q42 191 49 250Q56 309 77.5 357.5Q99 406 134 440.5Q169 475 216.5 494Q264 513 324 513Z" glyph-name="edieresis" horiz-adv-x="545" unicode="&#235;" /><glyph d="M290 727H410L395 607H275ZM311 291Q359 296 377.5 310.5Q396 325 399 351Q401 364 398.5 376Q396 388 386.5 397.5Q377 407 359 412.5Q341 418 312 418Q276 418 249 407Q222 396 203.5 377Q185 358 174 332.5Q163 307 157 277ZM324 513Q376 513 412 500.5Q448 488 470 466Q492 444 499.5 415Q507 386 503 352Q500 322 488.5 296Q477 270 453 250.5Q429 231 390.5 218.5Q352 206 295 202L151 192Q154 144 181 113Q208 82 271 82Q319 82 359 90Q399 98 448 118L436 21Q385 -1 340.5 -7Q296 -13 260 -13Q200 -13 157 6Q114 25 87.5 59.5Q61 94 51.5 142.5Q42 191 49 250Q56 309 77.5 357.5Q99 406 134 440.5Q169 475 216.5 494Q264 513 324 513Z" glyph-name="edotaccent" horiz-adv-x="545" unicode="&#279;" /><glyph d="M294 575 190 750H311L370 575ZM311 291Q359 296 377.5 310.5Q396 325 399 351Q401 364 398.5 376Q396 388 386.5 397.5Q377 407 359 412.5Q341 418 312 418Q276 418 249 407Q222 396 203.5 377Q185 358 174 332.5Q163 307 157 277ZM324 513Q376 513 412 500.5Q448 488 470 466Q492 444 499.5 415Q507 386 503 352Q500 322 488.5 296Q477 270 453 250.5Q429 231 390.5 218.5Q352 206 295 202L151 192Q154 144 181 113Q208 82 271 82Q319 82 359 90Q399 98 448 118L436 21Q385 -1 340.5 -7Q296 -13 260 -13Q200 -13 157 6Q114 25 87.5 59.5Q61 94 51.5 142.5Q42 191 49 250Q56 309 77.5 357.5Q99 406 134 440.5Q169 475 216.5 494Q264 513 324 513Z" glyph-name="egrave" horiz-adv-x="545" unicode="&#232;" /><glyph d="M323 435Q357 435 382 446Q407 457 424 473.5Q441 490 450 510.5Q459 531 462 550Q464 570 461.5 591Q459 612 447.5 629Q436 646 413 657Q390 668 351 668Q312 668 286.5 657Q261 646 245 629Q229 612 221.5 591Q214 570 212 550Q209 531 213.5 510.5Q218 490 231 473.5Q244 457 266.5 446Q289 435 323 435ZM311 341Q238 341 196.5 307Q155 273 147 212Q144 190 148 167Q152 144 166.5 125Q181 106 208 94Q235 82 279 82Q322 82 352.5 94Q383 106 402 125Q421 144 430.5 167Q440 190 443 212Q451 273 417.5 307Q384 341 311 341ZM268 -13Q197 -13 151 5.5Q105 24 78.5 55Q52 86 44 126.5Q36 167 41 212Q44 237 53 264Q62 291 76.5 316Q91 341 111 362Q131 383 157 396Q142 409 131 427Q120 445 113.5 465.5Q107 486 105 508Q103 530 106 550Q111 591 127.5 629.5Q144 668 174.5 697.5Q205 727 251 745Q297 763 362 763Q426 763 468.5 745Q511 727 534.5 697.5Q558 668 565.5 629.5Q573 591 568 550Q565 530 557.5 508Q550 486 538.5 465.5Q527 445 512 427Q497 409 479 396Q501 383 516 362Q531 341 539.5 316Q548 291 550 264Q552 237 549 212Q544 167 525.5 126.5Q507 86 473.5 55Q440 24 389 5.5Q338 -13 268 -13Z" glyph-name="eight" horiz-adv-x="600" unicode="8" /><glyph d="M270 123Q272 140 256 151.5Q240 163 198 163Q156 163 137.5 151.5Q119 140 117 123Q115 104 130 92.5Q145 81 187 81Q229 81 248.5 92.5Q268 104 270 123ZM275 288Q276 294 275 301Q274 308 268.5 314Q263 320 251 323.5Q239 327 218 327Q197 327 184.5 323.5Q172 320 165 314Q158 308 155.5 301Q153 294 152 288Q151 281 152 274Q153 267 158.5 261.5Q164 256 175.5 252.5Q187 249 208 249Q229 249 242 252.5Q255 256 262 261.5Q269 267 271.5 274Q274 281 275 288ZM176 -12Q85 -12 45.5 23.5Q6 59 14 119Q19 153 35 179.5Q51 206 72 219Q61 227 55 246.5Q49 266 52 289Q60 348 102 384.5Q144 421 229 421Q272 421 301.5 411.5Q331 402 348.5 384.5Q366 367 372.5 342.5Q379 318 375 289Q372 266 361 246.5Q350 227 337 219Q355 206 365.5 179.5Q376 153 371 119Q363 59 315 23.5Q267 -12 176 -12Z" glyph-name="eight.dnom" horiz-adv-x="437" /><glyph d="M331 464Q333 481 317 492.5Q301 504 259 504Q217 504 198.5 492.5Q180 481 178 464Q176 445 191.5 433.5Q207 422 249 422Q291 422 310 433.5Q329 445 331 464ZM337 629Q338 635 337 642Q336 649 330.5 655Q325 661 313 664.5Q301 668 280 668Q259 668 246.5 664.5Q234 661 227 655Q220 649 217.5 642Q215 635 214 629Q213 622 214 615Q215 608 220.5 602.5Q226 597 237.5 593.5Q249 590 270 590Q291 590 304 593.5Q317 597 324 602.5Q331 608 333.5 615Q336 622 337 629ZM238 329Q147 329 107.5 364.5Q68 400 76 460Q81 494 97 520.5Q113 547 134 560Q123 568 117 587.5Q111 607 114 630Q121 689 163.5 725.5Q206 762 291 762Q334 762 363.5 752.5Q393 743 410.5 725.5Q428 708 434 683.5Q440 659 437 630Q434 607 423 587.5Q412 568 399 560Q417 547 427.5 520.5Q438 494 433 460Q425 400 377 364.5Q329 329 238 329Z" glyph-name="eight.numr" horiz-adv-x="437" /><glyph d="M324 435Q358 435 383 446Q408 457 425 473.5Q442 490 451 510.5Q460 531 463 550Q465 570 462.5 591Q460 612 448.5 629Q437 646 414 657Q391 668 352 668Q313 668 287.5 657Q262 646 246 629Q230 612 222.5 591Q215 570 213 550Q210 531 214.5 510.5Q219 490 232 473.5Q245 457 267.5 446Q290 435 324 435ZM312 341Q239 341 197.5 307Q156 273 148 212Q145 190 149 167Q153 144 167.5 125Q182 106 209 94Q236 82 280 82Q323 82 353.5 94Q384 106 403 125Q422 144 431.5 167Q441 190 444 212Q452 273 418.5 307Q385 341 312 341ZM269 -13Q198 -13 152 5.5Q106 24 79.5 55Q53 86 45 126.5Q37 167 42 212Q45 237 54 264Q63 291 77.5 316Q92 341 112 362Q132 383 158 396Q143 409 132 427Q121 445 114.5 465.5Q108 486 106 508Q104 530 107 550Q112 591 128.5 629.5Q145 668 175.5 697.5Q206 727 252 745Q298 763 363 763Q427 763 469.5 745Q512 727 535.5 697.5Q559 668 566.5 629.5Q574 591 569 550Q566 530 558.5 508Q551 486 539.5 465.5Q528 445 513 427Q498 409 480 396Q502 383 517 362Q532 341 540.5 316Q549 291 551 264Q553 237 550 212Q545 167 526.5 126.5Q508 86 474.5 55Q441 24 390 5.5Q339 -13 269 -13Z" glyph-name="eight.onum" horiz-adv-x="602" /><glyph d="M332 435Q366 435 391 446Q416 457 433 473.5Q450 490 459 510.5Q468 531 471 550Q473 570 470.5 591Q468 612 456.5 629Q445 646 422 657Q399 668 360 668Q321 668 295.5 657Q270 646 254 629Q238 612 230.5 591Q223 570 221 550Q218 531 222.5 510.5Q227 490 240 473.5Q253 457 275.5 446Q298 435 332 435ZM320 341Q247 341 205.5 307Q164 273 156 212Q153 190 157 167Q161 144 175.5 125Q190 106 217 94Q244 82 288 82Q331 82 361.5 94Q392 106 411 125Q430 144 439.5 167Q449 190 452 212Q460 273 426.5 307Q393 341 320 341ZM277 -13Q206 -13 160 5.5Q114 24 87.5 55Q61 86 53 126.5Q45 167 50 212Q53 237 62 264Q71 291 85.5 316Q100 341 120 362Q140 383 166 396Q151 409 140 427Q129 445 122.5 465.5Q116 486 114 508Q112 530 115 550Q120 591 136.5 629.5Q153 668 183.5 697.5Q214 727 260 745Q306 763 371 763Q435 763 477.5 745Q520 727 543.5 697.5Q567 668 574.5 629.5Q582 591 577 550Q574 530 566.5 508Q559 486 547.5 465.5Q536 445 521 427Q506 409 488 396Q510 383 525 362Q540 341 548.5 316Q557 291 559 264Q561 237 558 212Q553 167 534.5 126.5Q516 86 482.5 55Q449 24 398 5.5Q347 -13 277 -13Z" glyph-name="eight.pnum" horiz-adv-x="618" /><glyph d="M360 146Q363 175 340.5 192.5Q318 210 258 210Q198 210 170.5 192.5Q143 175 140 146Q136 117 159 99.5Q182 82 242 82Q302 82 329 99.5Q356 117 360 146ZM367 356Q368 366 366.5 377Q365 388 356.5 397Q348 406 330.5 412Q313 418 282 418Q251 418 232 412Q213 406 202.5 397Q192 388 188 377Q184 366 183 356Q182 345 183.5 334Q185 323 193.5 314Q202 305 219.5 299.5Q237 294 268 294Q299 294 318 299.5Q337 305 347.5 314Q358 323 362 334Q366 345 367 356ZM231 -13Q122 -13 75 28Q28 69 36 141Q41 186 63 219Q85 252 114 266Q98 275 89 301.5Q80 328 84 358Q92 428 142 470.5Q192 513 294 513Q396 513 435 470.5Q474 428 466 358Q462 328 447.5 301.5Q433 275 414 266Q440 252 453.5 219Q467 186 462 141Q454 69 397 28Q340 -13 231 -13Z" glyph-name="eight.sc" horiz-adv-x="526" /><glyph d="M750 120H870L855 0H735ZM420 120H540L525 0H405ZM90 120H210L195 0H75Z" glyph-name="ellipsis" horiz-adv-x="990" unicode="&#8230;" /><glyph d="M194 575 205 666H479L468 575ZM311 291Q359 296 377.5 310.5Q396 325 399 351Q401 364 398.5 376Q396 388 386.5 397.5Q377 407 359 412.5Q341 418 312 418Q276 418 249 407Q222 396 203.5 377Q185 358 174 332.5Q163 307 157 277ZM324 513Q376 513 412 500.5Q448 488 470 466Q492 444 499.5 415Q507 386 503 352Q500 322 488.5 296Q477 270 453 250.5Q429 231 390.5 218.5Q352 206 295 202L151 192Q154 144 181 113Q208 82 271 82Q319 82 359 90Q399 98 448 118L436 21Q385 -1 340.5 -7Q296 -13 260 -13Q200 -13 157 6Q114 25 87.5 59.5Q61 94 51.5 142.5Q42 191 49 250Q56 309 77.5 357.5Q99 406 134 440.5Q169 475 216.5 494Q264 513 324 513Z" glyph-name="emacron" horiz-adv-x="545" unicode="&#275;" /><glyph d="M706 292H64L76 390H718Z" glyph-name="emdash" horiz-adv-x="762" unicode="&#8212;" /><glyph d="M710 327H68L80 425H722Z" glyph-name="emdash.cap" horiz-adv-x="762" /><glyph glyph-name="emspace" horiz-adv-x="762" unicode="&#8195;" /><glyph d="M520 292H64L76 390H532Z" glyph-name="endash" horiz-adv-x="576" unicode="&#8211;" /><glyph d="M524 327H68L80 425H536Z" glyph-name="endash.cap" horiz-adv-x="576" /><glyph d="M15 84 106 94 144 406 55 416 65 500H224L231 472Q264 492 302 502.5Q340 513 376 513Q469 513 509.5 470.5Q550 428 540 352L485 -88Q480 -129 456.5 -160Q433 -191 398.5 -212.5Q364 -234 323.5 -246Q283 -258 244 -260L256 -168Q277 -165 299 -159.5Q321 -154 339.5 -143.5Q358 -133 370.5 -117Q383 -101 386 -79L437 355Q441 390 420 404Q399 418 364 418Q326 418 296.5 411Q267 404 246 394L209 94L298 84L288 0H5Z" glyph-name="eng" horiz-adv-x="605" unicode="&#331;" /><glyph glyph-name="enspace" horiz-adv-x="576" unicode="&#8194;" /><glyph d="M310 291Q358 296 376.5 310.5Q395 325 398 351Q400 364 397.5 376Q395 388 385.5 397.5Q376 407 358 412.5Q340 418 311 418Q275 418 248 407Q221 396 202.5 377Q184 358 173 332.5Q162 307 156 277ZM323 513Q375 513 411 500.5Q447 488 469 466Q491 444 498.5 415Q506 386 502 352Q499 322 487.5 296Q476 270 452 250.5Q428 231 389.5 218.5Q351 206 294 202L150 192Q153 144 180 113Q207 82 270 82Q318 82 358 90Q398 98 447 118L435 21Q412 11 390.5 5Q369 -1 349 -5Q311 -16 281.5 -42.5Q252 -69 247 -106Q245 -127 258 -135Q271 -143 286 -143Q301 -143 315 -141Q329 -139 340 -136Q352 -132 363 -128L352 -213Q344 -218 320 -225Q296 -232 255 -232Q232 -232 212 -225.5Q192 -219 177.5 -206Q163 -193 156 -173.5Q149 -154 152 -128Q155 -97 172 -66.5Q189 -36 216 -10Q119 3 77 72.5Q35 142 48 250Q55 309 76.5 357.5Q98 406 133 440.5Q168 475 215.5 494Q263 513 323 513Z" glyph-name="eogonek" horiz-adv-x="545" unicode="&#281;" /><glyph d="M454 209H54L66 308H466ZM474 374H74L86 473H486Z" glyph-name="equal" horiz-adv-x="520" unicode="=" /><glyph d="M402 666Q296 666 233 603V423H571V603Q506 666 402 666ZM721 187Q703 143 674.5 106.5Q646 70 606.5 43.5Q567 17 516 2Q465 -13 402 -13Q308 -13 241.5 20Q175 53 132.5 107.5Q90 162 70 231.5Q50 301 50 375Q50 448 70 518Q90 588 132.5 642.5Q175 697 241.5 730Q308 763 402 763Q496 763 563 730Q630 697 672.5 642.5Q715 588 734.5 518Q754 448 754 375V327H233V147Q296 84 402 84Q471 84 521.5 111Q572 138 601 187Z" glyph-name="estimated" horiz-adv-x="804" unicode="&#8494;" /><glyph d="M383 250Q387 286 387.5 316.5Q388 347 379 369.5Q370 392 348.5 405Q327 418 288 418Q248 418 223.5 405Q199 392 185 369.5Q171 347 164 316.5Q157 286 153 250Q149 214 148 183.5Q147 153 156 130.5Q165 108 186.5 95Q208 82 248 82Q287 82 311.5 95Q336 108 350.5 130.5Q365 153 372 183.5Q379 214 383 250ZM465 666 400 635Q422 605 440.5 567Q459 529 471.5 482.5Q484 436 488.5 380.5Q493 325 486 259Q485 256 485 250Q478 191 463.5 143Q449 95 421.5 60Q394 25 349 6Q304 -13 236 -13Q168 -13 128 6Q88 25 68.5 60Q49 95 46.5 143Q44 191 51 250Q58 308 72.5 356.5Q87 405 115 440Q143 475 187.5 494Q232 513 300 513Q315 513 329 510.5Q343 508 356 504Q339 551 309 591L158 518L168 602L260 646Q225 681 188 706.5Q151 732 122 750H277Q292 740 311.5 725.5Q331 711 352 690L476 750Z" glyph-name="eth" horiz-adv-x="536" unicode="&#240;" /><glyph d="M35 120H155L140 0H20ZM74 210 104 750H240L138 210Z" glyph-name="exclam" horiz-adv-x="220" unicode="!" /><glyph d="M187 380H67L82 500H202ZM148 290 118 -250H-18L84 290Z" glyph-name="exclamdown" horiz-adv-x="220" unicode="&#161;" /><glyph d="M217 630H97L112 750H232ZM178 540 148 0H12L114 540Z" glyph-name="exclamdown.cap" horiz-adv-x="220" /><glyph d="M425 657Q408 662 386 665Q364 668 343 668Q305 668 280 653Q255 638 250 603L237 500H385L374 407H226L146 -250H45L125 407H35L45 491L136 501L149 605Q158 681 207 722Q256 763 354 763Q361 763 372 762.5Q383 762 394.5 760.5Q406 759 417 757.5Q428 756 436 753Z" glyph-name="f" horiz-adv-x="405" unicode="f" /><glyph d="M666 408Q655 405 645.5 402Q636 399 628 395L592 106Q613 95 639 88.5Q665 82 702 82Q739 82 763 95.5Q787 109 802 132Q817 155 824.5 185.5Q832 216 836 250Q840 284 840 314.5Q840 345 830.5 368Q821 391 800.5 404.5Q780 418 743 418Q719 418 700.5 415Q682 412 666 408ZM237 500H385L374 407H226L146 -250H45L125 407H35L45 491L136 501L143 555Q148 598 167.5 635.5Q187 673 224 701Q261 729 316 744.5Q371 760 447 760Q518 760 574.5 750.5Q631 741 668 727L639 486Q671 500 698 506.5Q725 513 755 513Q818 513 857.5 494Q897 475 918 440.5Q939 406 943 357.5Q947 309 940 250Q933 191 917 142.5Q901 94 872 59.5Q843 25 798.5 6Q754 -13 691 -13Q655 -13 623 -2Q591 9 559 28L546 0H479L558 655Q533 660 502.5 663Q472 666 437 666Q383 666 347.5 657.5Q312 649 289.5 634Q267 619 256.5 598Q246 577 243 551Z" glyph-name="f_b" horiz-adv-x="995" /><glyph d="M641 500 592 94 681 84 671 0H390L400 84L491 94L529 407H226L146 -250H45L125 407H35L45 491L136 501L149 605Q158 681 207 722Q256 763 354 763Q361 763 372 762.5Q383 762 394.5 760.5Q406 759 417 757.5Q428 756 436 753L425 657Q408 662 386 665Q364 668 343 668Q305 668 280 653Q255 638 250 603L237 500Z" glyph-name="f_dotlessi" horiz-adv-x="727" /><glyph d="M237 500H540L553 605Q555 618 557 630.5Q559 643 564 654Q538 659 506.5 662.5Q475 666 437 666Q383 666 347.5 657.5Q312 649 289.5 634Q267 619 256.5 598Q246 577 243 551ZM829 657Q812 662 790 665Q768 668 747 668Q709 668 684 653Q659 638 654 603L641 500H789L778 407H630L550 -250H449L529 407H226L146 -250H45L125 407H35L45 491L136 501L143 555Q148 598 167.5 635.5Q187 673 224 701Q261 729 316 744.5Q371 760 447 760Q504 760 551.5 753.5Q599 747 635 737Q682 763 758 763Q765 763 776 762.5Q787 762 798.5 760.5Q810 759 821 757.5Q832 756 840 753Z" glyph-name="f_f" horiz-adv-x="809" unicode="&#64256;" /><glyph d="M237 500H540L547 555Q553 611 582 653Q551 658 514 662Q477 666 437 666Q383 666 347.5 657.5Q312 649 289.5 634Q267 619 256.5 598Q246 577 243 551ZM1070 408Q1059 405 1049.5 402Q1040 399 1032 395L996 106Q1017 95 1043 88.5Q1069 82 1106 82Q1143 82 1167 95.5Q1191 109 1206 132Q1221 155 1228.5 185.5Q1236 216 1240 250Q1244 284 1244 314.5Q1244 345 1234.5 368Q1225 391 1204.5 404.5Q1184 418 1147 418Q1123 418 1104.5 415Q1086 412 1070 408ZM641 500H789L778 407H630L550 -250H449L529 407H226L146 -250H45L125 407H35L45 491L136 501L143 555Q148 598 167.5 635.5Q187 673 224 701Q261 729 316 744.5Q371 760 447 760H449Q515 760 570 751Q625 742 672 726Q706 742 750 751Q794 760 851 760Q922 760 978.5 750.5Q1035 741 1072 727L1043 486Q1075 500 1102 506.5Q1129 513 1159 513Q1222 513 1261.5 494Q1301 475 1322 440.5Q1343 406 1347 357.5Q1351 309 1344 250Q1337 191 1321 142.5Q1305 94 1276 59.5Q1247 25 1202.5 6Q1158 -13 1095 -13Q1059 -13 1027 -2Q995 9 963 28L950 0H883L962 655Q937 660 906.5 663Q876 666 841 666Q787 666 751.5 657.5Q716 649 693.5 634Q671 619 660.5 598Q650 577 647 551Z" glyph-name="f_f_b" horiz-adv-x="1399" /><glyph d="M237 500H540L553 605Q555 618 557 630.5Q559 643 564 654Q538 659 506.5 662.5Q475 666 437 666Q383 666 347.5 657.5Q312 649 289.5 634Q267 619 256.5 598Q246 577 243 551ZM550 -250H449L529 407H226L146 -250H45L125 407H35L45 491L136 501L143 555Q148 598 167.5 635.5Q187 673 224 701Q261 729 316 744.5Q371 760 447 760Q504 760 551.5 753.5Q599 747 635 737Q682 763 758 763Q765 763 776 762.5Q787 762 798.5 760.5Q810 759 821 757.5Q832 756 840 753L829 657Q812 662 790 665Q768 668 747 668Q709 668 684 653Q659 638 654 603L641 500H1045L996 94L1085 84L1075 0H794L804 84L895 94L933 407H630Z" glyph-name="f_f_dotlessi" horiz-adv-x="1131" /><glyph d="M237 500H540L547 555Q553 611 582 653Q551 658 514 662Q477 666 437 666Q383 666 347.5 657.5Q312 649 289.5 634Q267 619 256.5 598Q246 577 243 551ZM641 500H789L778 407H630L550 -250H449L529 407H226L146 -250H45L125 407H35L45 491L136 501L143 555Q148 598 167.5 635.5Q187 673 224 701Q261 729 316 744.5Q371 760 447 760H449Q515 760 570 751Q625 742 672 726Q706 742 750 751Q794 760 851 760Q922 760 978.5 750.5Q1035 741 1072 727L1043 486Q1072 500 1102.5 506.5Q1133 513 1162 513Q1255 513 1295.5 470.5Q1336 428 1326 352L1295 94L1384 84L1374 0H1181L1224 354Q1228 389 1206.5 403.5Q1185 418 1150 418Q1112 418 1082.5 411Q1053 404 1032 394L995 94L1084 84L1074 0H793L803 84L894 94L962 655Q937 660 906.5 663Q876 666 841 666Q787 666 751.5 657.5Q716 649 693.5 634Q671 619 660.5 598Q650 577 647 551Z" glyph-name="f_f_h" horiz-adv-x="1429" /><glyph d="M237 500H540L547 555Q553 611 582 653Q551 658 514 662Q477 666 437 666Q383 666 347.5 657.5Q312 649 289.5 634Q267 619 256.5 598Q246 577 243 551ZM641 500H1045L996 94L1085 84L1075 0H794L804 84L895 94L933 407H630L550 -250H449L529 407H226L146 -250H45L125 407H35L45 491L136 501L143 555Q148 598 167.5 635.5Q187 673 224 701Q261 729 316 744.5Q371 760 447 760H449Q515 760 570 751Q625 742 672 726Q706 742 750 751Q794 760 851 760Q922 760 978.5 750.5Q1035 741 1072 727L1062 634Q1048 639 1025.5 644.5Q1003 650 974 655Q945 660 911 663Q877 666 841 666Q787 666 751.5 657.5Q716 649 693.5 634Q671 619 660.5 598Q650 577 647 551Z" glyph-name="f_f_i" horiz-adv-x="1131" unicode="&#64259;" /><glyph d="M237 500H540L547 555Q553 611 582 653Q551 658 514 662Q477 666 437 666Q383 666 347.5 657.5Q312 649 289.5 634Q267 619 256.5 598Q246 577 243 551ZM745 -168Q766 -165 788 -159.5Q810 -154 828 -143.5Q846 -133 858.5 -117Q871 -101 874 -79L933 407H630L550 -250H449L529 407H226L146 -250H45L125 407H35L45 491L136 501L143 555Q148 598 167.5 635.5Q187 673 224 701Q261 729 316 744.5Q371 760 447 760H449Q515 760 570 751Q625 742 672 726Q706 742 750 751Q794 760 851 760Q922 760 978.5 750.5Q1035 741 1072 727L1062 634Q1048 639 1025.5 644.5Q1003 650 974 655Q945 660 911 663Q877 666 841 666Q787 666 751.5 657.5Q716 649 693.5 634Q671 619 660.5 598Q650 577 647 551L641 500H1045L974 -88Q969 -129 945.5 -160Q922 -191 887.5 -212.5Q853 -234 812.5 -246Q772 -258 734 -260Z" glyph-name="f_f_j" horiz-adv-x="1109" /><glyph d="M237 500H540L547 555Q553 611 582 653Q551 658 514 662Q477 666 437 666Q383 666 347.5 657.5Q312 649 289.5 634Q267 619 256.5 598Q246 577 243 551ZM641 500H789L778 407H630L550 -250H449L529 407H226L146 -250H45L125 407H35L45 491L136 501L143 555Q148 598 167.5 635.5Q187 673 224 701Q261 729 316 744.5Q371 760 447 760H449Q515 760 570 751Q625 742 672 726Q706 742 750 751Q794 760 851 760Q922 760 978.5 750.5Q1035 741 1072 727L1021 300L1162 409L1102 416L1112 500H1408L1398 416L1297 405L1151 293Q1182 271 1205 224L1245 139Q1262 105 1281 94Q1300 83 1327 83Q1349 83 1361 85.5Q1373 88 1388 91L1377 -4Q1363 -8 1345 -10.5Q1327 -13 1312 -13Q1278 -13 1253 -7Q1228 -1 1207.5 14Q1187 29 1170 54Q1153 79 1135 116L1101 188Q1078 235 1019 191L1017 190Q1015 188 1015 188Q1014 187 1013 187L1007 182L996 94L1085 84L1075 0H794L804 84L895 94L962 655Q937 660 906.5 663Q876 666 841 666Q787 666 751.5 657.5Q716 649 693.5 634Q671 619 660.5 598Q650 577 647 551Z" glyph-name="f_f_k" horiz-adv-x="1424" /><glyph d="M237 500H540L547 555Q553 611 582 653Q551 658 514 662Q477 666 437 666Q383 666 347.5 657.5Q312 649 289.5 634Q267 619 256.5 598Q246 577 243 551ZM641 500H789L778 407H630L550 -250H449L529 407H226L146 -250H45L125 407H35L45 491L136 501L143 555Q148 598 167.5 635.5Q187 673 224 701Q261 729 316 744.5Q371 760 447 760H449Q515 760 570 751Q625 742 672 726Q706 742 750 751Q794 760 851 760Q922 760 978.5 750.5Q1035 741 1072 727L996 94L1085 84L1075 0H794L804 84L895 94L962 655Q937 660 906.5 663Q876 666 841 666Q787 666 751.5 657.5Q716 649 693.5 634Q671 619 660.5 598Q650 577 647 551Z" glyph-name="f_f_l" horiz-adv-x="1131" /><glyph d="M641 500H944L962 655Q937 660 906.5 663Q876 666 841 666Q787 666 751.5 657.5Q716 649 693.5 634Q671 619 660.5 598Q650 577 647 551ZM237 500H540L547 555Q553 611 582 653Q551 658 514 662Q477 666 437 666Q383 666 347.5 657.5Q312 649 289.5 634Q267 619 256.5 598Q246 577 243 551ZM1111 -7Q1091 -12 1072.5 -12.5Q1054 -13 1047 -13Q1016 -13 987.5 -5Q959 3 938 20Q917 37 905.5 63.5Q894 90 899 127L933 407H630L550 -250H449L529 407H226L146 -250H45L125 407H35L45 491L136 501L143 555Q148 598 167.5 635.5Q187 673 224 701Q261 729 316 744.5Q371 760 447 760H449Q515 760 570 751Q625 742 672 726Q706 742 750 751Q794 760 851 760Q922 760 978.5 750.5Q1035 741 1072 727L1045 500H1193L1182 407H1034L1001 136Q997 104 1015 93Q1033 82 1066 82Q1080 82 1097 83Q1114 84 1122 86Z" glyph-name="f_f_t" horiz-adv-x="1213" /><glyph d="M237 500H385L374 407H226L146 -250H45L125 407H35L45 491L136 501L143 555Q148 598 167.5 635.5Q187 673 224 701Q261 729 316 744.5Q371 760 447 760Q518 760 574.5 750.5Q631 741 668 727L639 486Q668 500 698.5 506.5Q729 513 758 513Q851 513 891.5 470.5Q932 428 922 352L891 94L980 84L970 0H777L820 354Q824 389 802.5 403.5Q781 418 746 418Q708 418 678.5 411Q649 404 628 394L591 94L680 84L670 0H389L399 84L490 94L558 655Q533 660 502.5 663Q472 666 437 666Q383 666 347.5 657.5Q312 649 289.5 634Q267 619 256.5 598Q246 577 243 551Z" glyph-name="f_h" horiz-adv-x="1025" /><glyph d="M341 -168Q362 -165 384 -159.5Q406 -154 424 -143.5Q442 -133 454.5 -117Q467 -101 470 -79L529 407H226L146 -250H45L125 407H35L45 491L136 501L143 555Q148 598 167.5 635.5Q187 673 224 701Q261 729 316 744.5Q371 760 447 760Q518 760 574.5 750.5Q631 741 668 727L658 634Q644 639 621.5 644.5Q599 650 570 655Q541 660 507 663Q473 666 437 666Q383 666 347.5 657.5Q312 649 289.5 634Q267 619 256.5 598Q246 577 243 551L237 500H641L570 -88Q565 -129 541.5 -160Q518 -191 483.5 -212.5Q449 -234 408.5 -246Q368 -258 330 -260Z" glyph-name="f_j" horiz-adv-x="705" /><glyph d="M237 500H385L374 407H226L146 -250H45L125 407H35L45 491L136 501L143 555Q148 598 167.5 635.5Q187 673 224 701Q261 729 316 744.5Q371 760 447 760Q518 760 574.5 750.5Q631 741 668 727L617 300L758 409L698 416L708 500H1004L994 416L893 405L747 293Q778 271 801 224L841 139Q858 105 877 94Q896 83 923 83Q945 83 957 85.5Q969 88 984 91L973 -4Q959 -8 941 -10.5Q923 -13 908 -13Q874 -13 849 -7Q824 -1 803.5 14Q783 29 766 54Q749 79 731 116L697 188Q674 235 615 191L613 190Q611 188 611 188Q610 187 609 187L603 182L592 94L681 84L671 0H390L400 84L491 94L558 655Q533 660 502.5 663Q472 666 437 666Q383 666 347.5 657.5Q312 649 289.5 634Q267 619 256.5 598Q246 577 243 551Z" glyph-name="f_k" horiz-adv-x="1020" /><glyph d="M237 500H540L558 655Q533 660 502.5 663Q472 666 437 666Q383 666 347.5 657.5Q312 649 289.5 634Q267 619 256.5 598Q246 577 243 551ZM707 -7Q687 -12 668.5 -12.5Q650 -13 643 -13Q612 -13 583.5 -5Q555 3 534 20Q513 37 501.5 63.5Q490 90 495 127L529 407H226L146 -250H45L125 407H35L45 491L136 501L143 555Q148 598 167.5 635.5Q187 673 224 701Q261 729 316 744.5Q371 760 447 760Q518 760 574.5 750.5Q631 741 668 727L641 500H789L778 407H630L597 136Q593 104 611 93Q629 82 662 82Q676 82 693 83Q710 84 718 86Z" glyph-name="f_t" horiz-adv-x="809" /><glyph d="M237 500H540L558 655Q533 660 502.5 663Q472 666 437 666Q383 666 347.5 657.5Q312 649 289.5 634Q267 619 256.5 598Q246 577 243 551ZM707 -7Q687 -12 668.5 -12.5Q650 -13 643 -13Q612 -13 583.5 -5Q555 3 534 20Q513 37 501.5 63.5Q490 90 495 127L529 407H226L146 -250H45L125 407H35L45 491L136 501L143 555Q148 598 167.5 635.5Q187 673 224 701Q261 729 316 744.5Q371 760 447 760Q518 760 574.5 750.5Q631 741 668 727L641 500H904L921 635L1023 646L1005 500H1153L1142 407H994L961 136Q957 104 975 93Q993 82 1026 82Q1040 82 1057 83Q1074 84 1082 86L1071 -7Q1051 -12 1032.5 -12.5Q1014 -13 1007 -13Q976 -13 947.5 -5Q919 3 898 20Q877 37 865.5 63.5Q854 90 859 127L893 407H630L597 136Q593 104 611 93Q629 82 662 82Q676 82 693 83Q710 84 718 86Z" glyph-name="f_t_t" horiz-adv-x="1173" /><glyph d="M400 84 491 94 529 407H226L146 -250H45L125 407H35L45 491L136 501L143 555Q148 598 167.5 635.5Q187 673 224 701Q261 729 316 744.5Q371 760 447 760Q518 760 574.5 750.5Q631 741 668 727L658 634Q644 639 621.5 644.5Q599 650 570 655Q541 660 507 663Q473 666 437 666Q383 666 347.5 657.5Q312 649 289.5 634Q267 619 256.5 598Q246 577 243 551L237 500H641L592 94L681 84L671 0H390Z" glyph-name="fi" horiz-adv-x="727" unicode="&#64257;" /><glyph d="M241 557 319 626 479 444 683 626 743 557 539 375 699 193 622 124 462 306 258 124 197 193 401 375ZM234 650 167 100H707L774 650ZM141 750H891L800 0H50Z" glyph-name="filledbox" horiz-adv-x="910" unicode="&#9632;" /><glyph d="M197 193 261 250 211 307 288 376 338 319 402 376 463 307 399 250 449 193 372 124 322 181 258 124ZM203 400 167 100H457L493 400ZM110 500H610L550 0H50Z" glyph-name="filledsmallbox" horiz-adv-x="660" /><glyph d="M227 -13Q195 -13 164.5 -10.5Q134 -8 108 -4Q82 0 61.5 6Q41 12 29 20L52 205H137V89Q162 85 188.5 83.5Q215 82 239 82Q271 82 304 87.5Q337 93 365.5 109.5Q394 126 414.5 156Q435 186 441 235Q447 281 435 305.5Q423 330 399 341Q375 352 342.5 353.5Q310 355 274 355H92L140 750H594L571 560H486V655H228L203 450Q229 452 256 452.5Q283 453 315 453Q366 453 412 446Q458 439 490.5 416.5Q523 394 538.5 351Q554 308 545 235Q535 153 503.5 104Q472 55 428 29Q384 3 331.5 -5Q279 -13 227 -13Z" glyph-name="five" horiz-adv-x="600" unicode="5" /><glyph d="M395 126Q378 -12 196 -12Q179 -12 155.5 -11Q132 -10 108 -7.5Q84 -5 61.5 -1Q39 3 23 10L39 141H126V87Q138 85 162.5 83Q187 81 210 81Q290 81 296 126Q298 147 284.5 156.5Q271 166 229 166H53L83 409H417L399 268H311L312 314H170L163 258Q180 259 196.5 259.5Q213 260 229 260Q411 260 395 126Z" glyph-name="five.dnom" horiz-adv-x="460" /><glyph d="M437 467Q420 329 238 329Q221 329 197.5 330Q174 331 150 333.5Q126 336 103.5 340Q81 344 65 351L81 482H168V428Q180 426 204.5 424Q229 422 252 422Q332 422 338 467Q340 488 326.5 497.5Q313 507 271 507H95L125 750H459L441 609H353L354 655H212L205 599Q222 600 238.5 600.5Q255 601 271 601Q453 601 437 467Z" glyph-name="five.numr" horiz-adv-x="440" /><glyph d="M156 -263Q102 -263 64.5 -252Q27 -241 -4 -225L14 -75H99V-161Q130 -168 169 -168Q196 -168 226.5 -162.5Q257 -157 284 -140.5Q311 -124 331.5 -94Q352 -64 358 -15Q364 31 352.5 55.5Q341 80 318.5 91Q296 102 266.5 103.5Q237 105 207 105H58L106 500H510L499 405H498L490 333H405V405H195L170 200Q189 202 207 202.5Q225 203 240 203Q286 203 329.5 196Q373 189 405.5 166.5Q438 144 454.5 101Q471 58 462 -15Q452 -97 419 -146Q386 -195 341.5 -221Q297 -247 248 -255Q199 -263 156 -263Z" glyph-name="five.onum" horiz-adv-x="529" /><glyph d="M230 -13Q198 -13 167.5 -10.5Q137 -8 111 -4Q85 0 64.5 6Q44 12 32 20L55 205H140V89Q165 85 191.5 83.5Q218 82 242 82Q274 82 307 87.5Q340 93 368.5 109.5Q397 126 417.5 156Q438 186 444 235Q450 281 438 305.5Q426 330 402 341Q378 352 345.5 353.5Q313 355 277 355H95L143 750H597L574 560H489V655H231L206 450Q232 452 259 452.5Q286 453 318 453Q369 453 415 446Q461 439 493.5 416.5Q526 394 541.5 351Q557 308 548 235Q538 153 506.5 104Q475 55 431 29Q387 3 334.5 -5Q282 -13 230 -13Z" glyph-name="five.pnum" horiz-adv-x="605" /><glyph d="M472 149Q462 67 401 27Q340 -13 231 -13Q210 -13 181.5 -12Q153 -11 123.5 -8Q94 -5 67 -0.5Q40 4 21 11L42 183H127V90Q145 86 179.5 84Q214 82 246 82Q306 82 335.5 98Q365 114 369 149Q374 184 348 200Q322 216 262 216H60L94 500H496L474 316H390V406H182L170 306Q196 308 222.5 309.5Q249 311 270 311Q379 311 430.5 271Q482 231 472 149Z" glyph-name="five.sc" horiz-adv-x="535" /><glyph d="M237 500H385L374 407H226L146 -250H45L125 407H35L45 491L136 501L143 555Q148 598 167.5 635.5Q187 673 224 701Q261 729 316 744.5Q371 760 447 760Q518 760 574.5 750.5Q631 741 668 727L592 94L681 84L671 0H390L400 84L491 94L558 655Q533 660 502.5 663Q472 666 437 666Q383 666 347.5 657.5Q312 649 289.5 634Q267 619 256.5 598Q246 577 243 551Z" glyph-name="fl" horiz-adv-x="727" unicode="&#64258;" /><glyph d="M417 763Q438 763 462.5 761.5Q487 760 512 756Q537 752 560.5 746.5Q584 741 603 732L591 638Q555 651 507.5 659.5Q460 668 406 668Q385 668 363 661.5Q341 655 323 642Q305 629 292.5 608.5Q280 588 277 561L262 438H533L522 345H251L209 0H109L150 345H60L70 429L162 439L177 561Q182 606 199.5 643Q217 680 246.5 707Q276 734 318.5 748.5Q361 763 417 763Z" glyph-name="florin" horiz-adv-x="600" unicode="&#402;" /><glyph d="M335 513Q371 513 412 507.5Q453 502 491 485L479 391Q443 404 407 411Q371 418 323 418Q286 418 259.5 398.5Q233 379 228 341L220 271H441L430 178H209L156 -250H56L108 178H19L29 262L120 272L128 341Q138 420 188 466.5Q238 513 335 513Z" glyph-name="florin.onum" horiz-adv-x="530" /><glyph d="M364 297 396 561 187 297ZM248 84 339 94 352 202H48L56 264L450 763H520L464 297H562L550 202H452L439 94L528 84L518 0H238Z" glyph-name="four" horiz-adv-x="600" unicode="4" /><glyph d="M167 217 175 279 102 217ZM323 88 313 0H67L77 88L152 96L156 123H-54L-46 194L217 421H291L266 217H347L336 123H255L251 96Z" glyph-name="four.dnom" horiz-adv-x="396" /><glyph d="M274 558 282 620 209 558ZM430 429 419 341H173L184 429L259 437L262 464H51L60 535L324 762H398L373 558H454L442 464H361L358 437Z" glyph-name="four.numr" horiz-adv-x="461" /><glyph d="M320 95 347 313 170 95ZM32 62 401 513H471L420 95H538L527 0H409L378 -250H278L309 0H25Z" glyph-name="four.onum" horiz-adv-x="602" /><glyph d="M345 297 377 561 168 297ZM229 84 320 94 333 202H29L37 264L431 763H501L445 297H543L531 202H433L420 94L509 84L499 0H219Z" glyph-name="four.pnum" horiz-adv-x="587" /><glyph d="M296 232 311 360 171 232ZM284 137H11L18 199L360 513H430L396 232H494L483 137H385L380 94L468 84L459 0H178L188 84L279 94Z" glyph-name="four.sc" horiz-adv-x="542" /><glyph d="M-280 0 344 750H463L-161 0Z" glyph-name="fraction" horiz-adv-x="151" unicode="&#8260;" /><glyph d="M221 -166Q261 -165 284.5 -152.5Q308 -140 320.5 -121Q333 -102 337.5 -79Q342 -56 345 -35L352 23Q326 7 295 -3Q264 -13 235 -13Q172 -13 132.5 6Q93 25 72 59.5Q51 94 47 142.5Q43 191 50 250Q57 309 73 357.5Q89 406 118 440.5Q147 475 191.5 494Q236 513 299 513Q335 513 367 502Q399 491 431 472L444 500H511L446 -35Q440 -82 428.5 -123.5Q417 -165 391 -196Q365 -227 321.5 -245Q278 -263 209 -263Q131 -263 87 -251Q43 -239 14 -225L27 -116Q44 -125 66.5 -134Q89 -143 115 -150.5Q141 -158 168 -162.5Q195 -167 221 -166ZM398 394Q377 405 350.5 411.5Q324 418 287 418Q250 418 226.5 404.5Q203 391 188 368Q173 345 165.5 314.5Q158 284 154 250Q150 216 150 185.5Q150 155 159 132Q168 109 188.5 95.5Q209 82 246 82Q283 82 313.5 94Q344 106 364 122Z" glyph-name="g" horiz-adv-x="565" unicode="g" /><glyph d="M304 562Q229 562 189.5 609Q150 656 159 750H236Q231 696 249 672Q267 648 314 648Q361 648 385 671Q409 694 417 750H495Q481 653 430 607.5Q379 562 304 562ZM221 -166Q261 -165 284.5 -152.5Q308 -140 320.5 -121Q333 -102 337.5 -79Q342 -56 345 -35L352 23Q326 7 295 -3Q264 -13 235 -13Q172 -13 132.5 6Q93 25 72 59.5Q51 94 47 142.5Q43 191 50 250Q57 309 73 357.5Q89 406 118 440.5Q147 475 191.5 494Q236 513 299 513Q335 513 367 502Q399 491 431 472L444 500H511L446 -35Q440 -82 428.5 -123.5Q417 -165 391 -196Q365 -227 321.5 -245Q278 -263 209 -263Q131 -263 87 -251Q43 -239 14 -225L27 -116Q44 -125 66.5 -134Q89 -143 115 -150.5Q141 -158 168 -162.5Q195 -167 221 -166ZM398 394Q377 405 350.5 411.5Q324 418 287 418Q250 418 226.5 404.5Q203 391 188 368Q173 345 165.5 314.5Q158 284 154 250Q150 216 150 185.5Q150 155 159 132Q168 109 188.5 95.5Q209 82 246 82Q283 82 313.5 94Q344 106 364 122Z" glyph-name="gbreve" horiz-adv-x="565" unicode="&#287;" /><glyph d="M408 575 318 680 204 575H128L274 750H380L484 575ZM221 -166Q261 -165 284.5 -152.5Q308 -140 320.5 -121Q333 -102 337.5 -79Q342 -56 345 -35L352 23Q326 7 295 -3Q264 -13 235 -13Q172 -13 132.5 6Q93 25 72 59.5Q51 94 47 142.5Q43 191 50 250Q57 309 73 357.5Q89 406 118 440.5Q147 475 191.5 494Q236 513 299 513Q335 513 367 502Q399 491 431 472L444 500H511L446 -35Q440 -82 428.5 -123.5Q417 -165 391 -196Q365 -227 321.5 -245Q278 -263 209 -263Q131 -263 87 -251Q43 -239 14 -225L27 -116Q44 -125 66.5 -134Q89 -143 115 -150.5Q141 -158 168 -162.5Q195 -167 221 -166ZM398 394Q377 405 350.5 411.5Q324 418 287 418Q250 418 226.5 404.5Q203 391 188 368Q173 345 165.5 314.5Q158 284 154 250Q150 216 150 185.5Q150 155 159 132Q168 109 188.5 95.5Q209 82 246 82Q283 82 313.5 94Q344 106 364 122Z" glyph-name="gcircumflex" horiz-adv-x="565" unicode="&#285;" /><glyph d="M246 575 338 750H405L360 575ZM221 -166Q261 -165 284.5 -152.5Q308 -140 320.5 -121Q333 -102 337.5 -79Q342 -56 345 -35L352 23Q326 7 295 -3Q264 -13 235 -13Q172 -13 132.5 6Q93 25 72 59.5Q51 94 47 142.5Q43 191 50 250Q57 309 73 357.5Q89 406 118 440.5Q147 475 191.5 494Q236 513 299 513Q335 513 367 502Q399 491 431 472L444 500H511L446 -35Q440 -82 428.5 -123.5Q417 -165 391 -196Q365 -227 321.5 -245Q278 -263 209 -263Q131 -263 87 -251Q43 -239 14 -225L27 -116Q44 -125 66.5 -134Q89 -143 115 -150.5Q141 -158 168 -162.5Q195 -167 221 -166ZM398 394Q377 405 350.5 411.5Q324 418 287 418Q250 418 226.5 404.5Q203 391 188 368Q173 345 165.5 314.5Q158 284 154 250Q150 216 150 185.5Q150 155 159 132Q168 109 188.5 95.5Q209 82 246 82Q283 82 313.5 94Q344 106 364 122Z" glyph-name="gcommaaccent" horiz-adv-x="565" unicode="&#291;" /><glyph d="M265 727H385L370 607H250ZM221 -166Q261 -165 284.5 -152.5Q308 -140 320.5 -121Q333 -102 337.5 -79Q342 -56 345 -35L352 23Q326 7 295 -3Q264 -13 235 -13Q172 -13 132.5 6Q93 25 72 59.5Q51 94 47 142.5Q43 191 50 250Q57 309 73 357.5Q89 406 118 440.5Q147 475 191.5 494Q236 513 299 513Q335 513 367 502Q399 491 431 472L444 500H511L446 -35Q440 -82 428.5 -123.5Q417 -165 391 -196Q365 -227 321.5 -245Q278 -263 209 -263Q131 -263 87 -251Q43 -239 14 -225L27 -116Q44 -125 66.5 -134Q89 -143 115 -150.5Q141 -158 168 -162.5Q195 -167 221 -166ZM398 394Q377 405 350.5 411.5Q324 418 287 418Q250 418 226.5 404.5Q203 391 188 368Q173 345 165.5 314.5Q158 284 154 250Q150 216 150 185.5Q150 155 159 132Q168 109 188.5 95.5Q209 82 246 82Q283 82 313.5 94Q344 106 364 122Z" glyph-name="gdotaccent" horiz-adv-x="565" unicode="&#289;" /><glyph d="M482 597Q478 563 466 540.5Q454 518 438 502Q422 486 404 474.5Q386 463 370 451Q354 439 343 425Q332 411 329 389Q327 367 344 351Q361 335 398 321Q430 308 455.5 294.5Q481 281 497.5 262.5Q514 244 520.5 219Q527 194 523 159Q520 130 509.5 100Q499 70 476.5 44.5Q454 19 418 3Q382 -13 328 -13Q293 -13 255.5 -7Q218 -1 193 13L212 166H297V85Q315 82 340 82Q363 82 378.5 88.5Q394 95 403 105.5Q412 116 416 129.5Q420 143 422 158Q426 187 408.5 206Q391 225 351 239Q285 262 255 297Q225 332 232 389Q236 422 248 444.5Q260 467 276 483Q292 499 309.5 510.5Q327 522 342.5 534Q358 546 369 560Q380 574 382 595Q387 630 364.5 649Q342 668 304 668Q266 668 239.5 649Q213 630 208 595L105 -250H5L108 597Q118 673 167.5 718Q217 763 315 763Q413 763 452.5 718Q492 673 482 597Z" glyph-name="germandbls" horiz-adv-x="577" unicode="&#223;" /><glyph d="M759 354Q757 337 765 327.5Q773 318 789 312Q805 306 828.5 303Q852 300 881 297Q934 292 973 283.5Q1012 275 1037 259Q1062 243 1072 217.5Q1082 192 1078 152Q1073 117 1055 86.5Q1037 56 1005 34Q973 12 926 -0.5Q879 -13 818 -13Q799 -13 771.5 -11Q744 -9 716 -5Q688 -1 664.5 3.5Q641 8 630 13L651 183H736V90Q757 86 780.5 84Q804 82 830 82Q897 82 935.5 100Q974 118 979 151Q981 167 973.5 177Q966 187 951 192.5Q936 198 913 200.5Q890 203 861 206Q807 211 767 220Q727 229 702 245Q677 261 666.5 286Q656 311 661 349Q670 424 733 468.5Q796 513 911 513Q929 513 953 512Q977 511 1002.5 508Q1028 505 1052 500Q1076 495 1095 487L1074 315H989V411Q968 415 946 416.5Q924 418 898 418Q835 418 799 402Q763 386 759 354ZM179 354Q177 337 185 327.5Q193 318 209 312Q225 306 248.5 303Q272 300 301 297Q354 292 393 283.5Q432 275 457 259Q482 243 492 217.5Q502 192 498 152Q493 117 475 86.5Q457 56 425 34Q393 12 346 -0.5Q299 -13 238 -13Q219 -13 191.5 -11Q164 -9 136 -5Q108 -1 84.5 3.5Q61 8 50 13L71 183H156V90Q177 86 200.5 84Q224 82 250 82Q317 82 355.5 100Q394 118 399 151Q401 167 393.5 177Q386 187 371 192.5Q356 198 333 200.5Q310 203 281 206Q227 211 187 220Q147 229 122 245Q97 261 86.5 286Q76 311 81 349Q90 424 153 468.5Q216 513 331 513Q349 513 373 512Q397 511 422.5 508Q448 505 472 500Q496 495 515 487L494 315H409V411Q388 415 366 416.5Q344 418 318 418Q255 418 219 402Q183 386 179 354Z" glyph-name="germandbls.sc" horiz-adv-x="1160" /><glyph d="M280 575 176 750H297L356 575Z" glyph-name="grave" horiz-adv-x="540" unicode="`" /><glyph d="M310 825 206 1000H327L386 825Z" glyph-name="grave.cap" horiz-adv-x="540" /><glyph d="M47 223 216 341 75 459 88 562 336 382 326 300 34 120Z" glyph-name="greater" horiz-adv-x="365" unicode="&gt;" /><glyph d="M821 348 265 -13 280 113 610 314 632 326H68L80 424H645L626 436L344 637L359 763L827 402Z" glyph-name="greaterequal" horiz-adv-x="860" unicode="&#8805;" /><glyph d="M250 296 457 436 445 339 328 250 424 161 412 63 239 204ZM60 296 267 436 255 339 138 250 234 161 222 63 49 204Z" glyph-name="guillemotleft" horiz-adv-x="495" unicode="&#171;" /><glyph d="M265 421 472 561 460 464 343 375 439 286 427 188 254 329ZM75 421 282 561 270 464 153 375 249 286 237 188 64 329Z" glyph-name="guillemotleft.cap" horiz-adv-x="495" /><glyph d="M244 204 37 63 49 161 167 250 70 339 82 436 255 296ZM434 204 227 63 239 161 357 250 260 339 272 436 445 296Z" glyph-name="guillemotright" horiz-adv-x="495" unicode="&#187;" /><glyph d="M259 329 52 188 64 286 182 375 85 464 97 561 270 421ZM449 329 242 188 254 286 372 375 275 464 287 561 460 421Z" glyph-name="guillemotright.cap" horiz-adv-x="495" /><glyph d="M60 296 267 436 255 339 138 250 234 161 222 63 49 204Z" glyph-name="guilsinglleft" horiz-adv-x="305" unicode="&#8249;" /><glyph d="M75 421 282 561 270 464 153 375 249 286 237 188 64 329Z" glyph-name="guilsinglleft.cap" horiz-adv-x="305" /><glyph d="M244 204 37 63 49 161 167 250 70 339 82 436 255 296Z" glyph-name="guilsinglright" horiz-adv-x="305" unicode="&#8250;" /><glyph d="M259 329 52 188 64 286 182 375 85 464 97 561 270 421Z" glyph-name="guilsinglright.cap" horiz-adv-x="305" /><glyph d="M255 486Q284 500 314.5 506.5Q345 513 374 513Q467 513 507.5 470.5Q548 428 538 352L507 94L596 84L586 0H393L436 354Q440 389 418.5 403.5Q397 418 362 418Q324 418 294.5 411Q265 404 244 394L207 94L296 84L286 0H5L15 84L106 94L174 656L86 666L96 750H287Z" glyph-name="h" horiz-adv-x="641" unicode="h" /><glyph d="M272 627H362L351 538H261L255 486Q284 500 314.5 506.5Q345 513 374 513Q467 513 507.5 470.5Q548 428 538 352L507 94L596 84L586 0H393L436 354Q440 389 418.5 403.5Q397 418 362 418Q324 418 294.5 411Q265 404 244 394L207 94L296 84L286 0H5L15 84L106 94L160 538H71L82 627H171L174 656L86 666L96 750H287Z" glyph-name="hbar" horiz-adv-x="641" unicode="&#295;" /><glyph d="M349 825 259 930 145 825H69L215 1000H321L425 825ZM255 486Q284 500 314.5 506.5Q345 513 374 513Q467 513 507.5 470.5Q548 428 538 352L507 94L596 84L586 0H393L436 354Q440 389 418.5 403.5Q397 418 362 418Q324 418 294.5 411Q265 404 244 394L207 94L296 84L286 0H5L15 84L106 94L174 656L86 666L96 750H287Z" glyph-name="hcircumflex" horiz-adv-x="641" unicode="&#293;" /><glyph d="M358 575 459 750H580L434 575ZM181 575 282 750H404L258 575Z" glyph-name="hungarumlaut" horiz-adv-x="540" unicode="&#733;" /><glyph d="M388 825 489 1000H610L464 825ZM211 825 312 1000H434L288 825Z" glyph-name="hungarumlaut.cap" horiz-adv-x="540" /><glyph d="M324 292H54L66 390H336Z" glyph-name="hyphen" horiz-adv-x="370" unicode="-" /><glyph d="M328 327H58L70 425H340Z" glyph-name="hyphen.cap" horiz-adv-x="370" /><glyph d="M182 727H302L287 607H167ZM215 94 304 84 294 0H13L23 84L114 94L152 406L63 416L73 500H264Z" glyph-name="i" horiz-adv-x="360" unicode="i" /><glyph d="M184 575 285 750H406L260 575ZM215 94 304 84 294 0H13L23 84L114 94L152 406L63 416L73 500H264Z" glyph-name="iacute" horiz-adv-x="360" unicode="&#237;" /><glyph d="M220 562Q145 562 105.5 609Q66 656 75 750H152Q147 696 165 672Q183 648 230 648Q277 648 301 671Q325 694 333 750H411Q397 653 346 607.5Q295 562 220 562ZM215 94 304 84 294 0H13L23 84L114 94L152 406L63 416L73 500H264Z" glyph-name="ibreve" horiz-adv-x="360" unicode="&#301;" /><glyph d="M324 575 234 680 120 575H44L190 750H296L400 575ZM215 94 304 84 294 0H13L23 84L114 94L152 406L63 416L73 500H264Z" glyph-name="icircumflex" horiz-adv-x="360" unicode="&#238;" /><glyph d="M290 727H410L395 607H275ZM70 727H190L175 607H55ZM215 94 304 84 294 0H13L23 84L114 94L152 406L63 416L73 500H264Z" glyph-name="idieresis" horiz-adv-x="360" unicode="&#239;" /><glyph d="M182 727H302L287 607H167ZM215 94 304 84 294 0H13L23 84L114 94L152 406L63 416L73 500H264Z" glyph-name="idotaccent" horiz-adv-x="360" /><glyph d="M183 575 79 750H200L259 575ZM215 94 304 84 294 0H13L23 84L114 94L152 406L63 416L73 500H264Z" glyph-name="igrave" horiz-adv-x="360" unicode="&#236;" /><glyph d="M538 727H658L643 607H523ZM192 727H312L297 607H177ZM225 94 314 84 304 0H23L33 84L124 94L162 406L73 416L83 500H274ZM549 -88Q544 -129 520.5 -160Q497 -191 462.5 -212.5Q428 -234 387.5 -246Q347 -258 309 -260L320 -168Q341 -165 363 -159.5Q385 -154 403 -143.5Q421 -133 433.5 -117Q446 -101 449 -79L507 406L419 416L429 500H620Z" glyph-name="ij" horiz-adv-x="684" unicode="&#307;" /><glyph d="M84 575 95 666H369L358 575ZM215 94 304 84 294 0H13L23 84L114 94L152 406L63 416L73 500H264Z" glyph-name="imacron" horiz-adv-x="360" unicode="&#299;" /><glyph d="M129 677Q127 664 139.5 659.5Q152 655 181 652Q235 647 254.5 630Q274 613 269 575Q264 541 237 517.5Q210 494 149 494Q140 494 128 495Q116 496 104 498Q92 500 81.5 502.5Q71 505 64 508L70 554Q85 549 107.5 544.5Q130 540 155 540Q188 540 202.5 548.5Q217 557 219 574Q221 589 210.5 596Q200 603 170 606Q116 611 96 625.5Q76 640 81 677Q86 712 112.5 734Q139 756 196 756Q214 756 236 753Q258 750 277 742L271 696Q254 702 233 706Q212 710 189 710Q157 710 144 702Q131 694 129 677ZM405 530 357 658 339 500H290L321 750H376L432 594L526 750H580L549 500H501L523 658L443 530Z" glyph-name="infinity" horiz-adv-x="575" unicode="&#8734;" /><glyph d="M234 650 167 100H707L774 650ZM141 750H891L800 0H50Z" glyph-name="integral" horiz-adv-x="910" unicode="&#8747;" /><glyph d="M182 727H302L287 607H167ZM215 94 304 84 294 0Q270 0 246.5 -8Q223 -16 203 -30Q183 -44 169.5 -63.5Q156 -83 153 -106Q151 -127 164 -135Q177 -143 192 -143Q207 -143 221 -141Q235 -139 246 -136Q258 -132 269 -128L258 -213Q250 -218 226 -225Q202 -232 161 -232Q138 -232 118 -225.5Q98 -219 83.5 -206Q69 -193 62 -173.5Q55 -154 58 -128Q62 -94 81.5 -61Q101 -28 134 0H13L23 84L114 94L152 406L63 416L73 500H264Z" glyph-name="iogonek" horiz-adv-x="360" unicode="&#303;" /><glyph d="M378 624Q361 638 344 644.5Q327 651 306 651Q287 651 271.5 641Q256 631 239 619Q222 607 202 597Q182 587 154 587Q128 587 108 599Q88 611 77 623L87 701Q104 687 121 680.5Q138 674 159 674Q178 674 193.5 684Q209 694 225.5 706Q242 718 262 728Q282 738 310 738Q336 738 356 726Q376 714 387 702ZM215 94 304 84 294 0H13L23 84L114 94L152 406L63 416L73 500H264Z" glyph-name="itilde" horiz-adv-x="360" unicode="&#297;" /><glyph d="M179 727H299L284 607H164ZM190 -88Q185 -129 161.5 -160Q138 -191 103.5 -212.5Q69 -234 28.5 -246Q-12 -258 -50 -260L-39 -168Q-18 -165 4 -159.5Q26 -154 44 -143.5Q62 -133 74.5 -117Q87 -101 90 -79L148 406L60 416L70 500H261Z" glyph-name="j" horiz-adv-x="325" unicode="j" /><glyph d="M321 575 231 680 117 575H41L187 750H293L397 575ZM190 -88Q185 -129 161.5 -160Q138 -191 103.5 -212.5Q69 -234 28.5 -246Q-12 -258 -50 -260L-39 -168Q-18 -165 4 -159.5Q26 -154 44 -143.5Q62 -133 74.5 -117Q87 -101 90 -79L148 406L60 416L70 500H261Z" glyph-name="jcircumflex" horiz-adv-x="325" unicode="&#309;" /><glyph d="M15 84 106 94 174 656 86 666 96 750H287L232 300L373 409L313 416L323 500H619L609 416L507 405L362 293Q376 283 390 266Q404 249 416 224L456 139Q473 105 492 94Q511 83 538 83Q560 83 572 85.5Q584 88 599 91L588 -4Q574 -8 556 -10.5Q538 -13 523 -13Q489 -13 464 -7Q439 -1 418.5 14Q398 29 381 54Q364 79 346 116L312 188Q300 214 279 212.5Q258 211 226 188L218 182L207 94L296 84L286 0H5Z" glyph-name="k" horiz-adv-x="635" unicode="k" /><glyph d="M15 84 106 94 174 656 86 666 96 750H287L232 300L373 409L313 416L323 500H619L609 416L507 405L362 293Q376 283 390 266Q404 249 416 224L456 139Q473 105 492 94Q511 83 538 83Q560 83 572 85.5Q584 88 599 91L588 -4Q574 -8 556 -10.5Q538 -13 523 -13Q489 -13 464 -7Q439 -1 418.5 14Q398 29 381 54Q364 79 346 116L312 188Q300 214 279 212.5Q258 211 226 188L218 182L207 94L296 84L286 0H5ZM284 -250H217L262 -75H376Z" glyph-name="kcommaaccent" horiz-adv-x="635" unicode="&#311;" /><glyph d="M556 83Q578 83 590 85.5Q602 88 617 91L606 -4Q592 -8 574 -10.5Q556 -13 541 -13Q507 -13 482 -7Q457 -1 436.5 14Q416 29 399 54Q382 79 364 116L330 188Q308 235 251 193L224 172L214 95L302 84L293 0H15L25 84L116 94L153 405L66 416L75 500H353L343 416L252 406L238 290L397 412L364 416L375 500H639L629 416L525 404L381 293Q411 271 434 224L474 139Q491 105 510 94Q529 83 556 83Z" glyph-name="kgreenlandic" horiz-adv-x="655" unicode="&#312;" /><glyph d="M215 94 304 84 294 0H13L23 84L114 94L182 656L94 666L104 750H295Z" glyph-name="l" horiz-adv-x="360" unicode="l" /><glyph d="M214 825 315 1000H436L290 825ZM215 94 304 84 294 0H13L23 84L114 94L182 656L94 666L104 750H295Z" glyph-name="lacute" horiz-adv-x="360" unicode="&#314;" /><glyph d="M451 1000 305 825H199L95 1000H171L260 895L375 1000ZM215 94 304 84 294 0H13L23 84L114 94L182 656L94 666L104 750H295Z" glyph-name="lcaron" horiz-adv-x="360" unicode="&#318;" /><glyph d="M112 -250H45L90 -75H204ZM215 94 304 84 294 0H13L23 84L114 94L182 656L94 666L104 750H295Z" glyph-name="lcommaaccent" horiz-adv-x="360" unicode="&#316;" /><glyph d="M336 449H456L441 329H321ZM215 94 304 84 294 0H13L23 84L114 94L182 656L94 666L104 750H295Z" glyph-name="ldot" horiz-adv-x="390" unicode="&#320;" /><glyph d="M298 120 50 300 60 382 352 562 339 459 170 341 311 223Z" glyph-name="less" horiz-adv-x="365" unicode="&lt;" /><glyph d="M67 402 623 763 608 637 278 436 255 424H820L808 326H244L264 314L544 113L529 -13L61 348Z" glyph-name="lessequal" horiz-adv-x="860" unicode="&#8804;" /><glyph d="M50 0 110 500H610L550 0Z" glyph-name="logicalnot" horiz-adv-x="660" unicode="&#172;" /><glyph d="M241 557 319 626 479 444 683 626 743 557 539 375 699 193 622 124 462 306 258 124 197 193 401 375ZM234 650 167 100H707L774 650ZM141 750H891L800 0H50Z" glyph-name="lozenge" horiz-adv-x="910" unicode="&#9674;" /><glyph d="M246 352 215 94 304 84 294 0H13L23 84L115 94L139 295L43 244L54 338L150 389L182 656L94 666L104 750H295L258 446L365 503L354 409Z" glyph-name="lslash" horiz-adv-x="360" unicode="&#322;" /><glyph d="M231 472Q264 492 301.5 502.5Q339 513 371 513Q422 513 455 500Q488 487 507 463Q541 486 583.5 499.5Q626 513 661 513Q755 513 792 470Q829 427 820 352L789 94L878 84L868 0H675L717 345Q726 418 649 418Q614 418 585 410.5Q556 403 532 392Q533 383 532.5 373Q532 363 530 352L499 94L588 84L578 0H385L427 345Q436 418 359 418Q324 418 295.5 411Q267 404 246 394L209 94L298 84L288 0H5L15 84L106 94L144 406L55 416L65 500H224Z" glyph-name="m" horiz-adv-x="923" unicode="m" /><glyph d="M182 575 193 666H467L456 575Z" glyph-name="macron" horiz-adv-x="602" unicode="&#175;" /><glyph d="M212 825 223 916H497L486 825Z" glyph-name="macron.cap" horiz-adv-x="602" /><glyph d="M76 390H476L464 292H64Z" glyph-name="minus" horiz-adv-x="520" unicode="&#8722;" /><glyph d="M266 -13Q221 -13 186 -2L156 -250H53L132 406L44 416L54 500H247L204 146Q200 111 221 96.5Q242 82 277 82Q314 82 346 94.5Q378 107 398 123L432 406L344 416L354 500H547L498 94L587 84L577 0H418L410 37Q371 11 333 -1Q295 -13 266 -13Z" glyph-name="mu" horiz-adv-x="633" unicode="&#181;" /><glyph d="M81 234 201 341 107 448 185 517 278 410 399 517 459 448 339 341 433 234 356 165 262 272 142 165Z" glyph-name="multiply" horiz-adv-x="520" unicode="&#215;" /><glyph d="M231 472Q264 492 302 502.5Q340 513 376 513Q469 513 509.5 470.5Q550 428 540 352L509 94L598 84L588 0H395L438 354Q442 389 420.5 403.5Q399 418 364 418Q326 418 296.5 411Q267 404 246 394L209 94L298 84L288 0H5L15 84L106 94L144 406L55 416L65 500H224Z" glyph-name="n" horiz-adv-x="643" unicode="n" /><glyph d="M327 575 428 750H549L403 575ZM231 472Q264 492 302 502.5Q340 513 376 513Q469 513 509.5 470.5Q550 428 540 352L509 94L598 84L588 0H395L438 354Q442 389 420.5 403.5Q399 418 364 418Q326 418 296.5 411Q267 404 246 394L209 94L298 84L288 0H5L15 84L106 94L144 406L55 416L65 500H224Z" glyph-name="nacute" horiz-adv-x="643" unicode="&#324;" /><glyph d="M565 750 419 575H313L209 750H285L374 645L489 750ZM231 472Q264 492 302 502.5Q340 513 376 513Q469 513 509.5 470.5Q550 428 540 352L509 94L598 84L588 0H395L438 354Q442 389 420.5 403.5Q399 418 364 418Q326 418 296.5 411Q267 404 246 394L209 94L298 84L288 0H5L15 84L106 94L144 406L55 416L65 500H224Z" glyph-name="ncaron" horiz-adv-x="643" unicode="&#328;" /><glyph d="M257 -250H190L235 -75H349ZM231 472Q264 492 302 502.5Q340 513 376 513Q469 513 509.5 470.5Q550 428 540 352L509 94L598 84L588 0H395L438 354Q442 389 420.5 403.5Q399 418 364 418Q326 418 296.5 411Q267 404 246 394L209 94L298 84L288 0H5L15 84L106 94L144 406L55 416L65 500H224Z" glyph-name="ncommaaccent" horiz-adv-x="643" unicode="&#326;" /><glyph d="M464 520Q467 545 465 571Q463 597 450.5 618.5Q438 640 412.5 654Q387 668 343 668Q301 668 274.5 652.5Q248 637 231.5 614.5Q215 592 208 566.5Q201 541 198 520Q195 499 195.5 473Q196 447 206 424.5Q216 402 239.5 387Q263 372 307 372Q351 372 380 386.5Q409 401 426.5 423Q444 445 452.5 471Q461 497 464 520ZM79 205H164V89Q184 87 204 85.5Q224 84 247 84Q296 84 330.5 104.5Q365 125 388 159.5Q411 194 425.5 239.5Q440 285 450 336Q424 311 385 294Q346 277 295 277Q217 277 174.5 301Q132 325 113 361Q94 397 92.5 439.5Q91 482 96 520Q100 558 113.5 600.5Q127 643 155.5 679Q184 715 232 739Q280 763 354 763Q435 763 480.5 738Q526 713 546 667Q566 621 566 556.5Q566 492 557 414Q546 324 526 246Q506 168 469.5 110.5Q433 53 376.5 20Q320 -13 235 -13Q178 -13 133 -5.5Q88 2 56 16Z" glyph-name="nine" horiz-adv-x="600" unicode="9" /><glyph d="M223 327Q140 327 134 283Q132 261 147 251Q162 241 204 241Q236 241 261.5 251.5Q287 262 300 278Q288 327 223 327ZM193 147Q102 147 64 180.5Q26 214 34 283Q52 421 234 421Q328 421 372 369Q416 317 403 204Q389 91 332 39.5Q275 -12 181 -12Q140 -12 98 -6.5Q56 -1 23 12L39 141H126L125 88Q138 85 153.5 83Q169 81 192 81Q230 81 255.5 102Q281 123 294 168Q274 158 249 152.5Q224 147 193 147Z" glyph-name="nine.dnom" horiz-adv-x="468" /><glyph d="M295 668Q212 668 206 624Q204 602 219 592Q234 582 276 582Q308 582 333.5 592.5Q359 603 372 619Q360 668 295 668ZM264 488Q173 488 135.5 521.5Q98 555 106 624Q122 762 306 762Q400 762 444 710.5Q488 659 474 545Q460 432 403.5 380.5Q347 329 253 329Q212 329 170 334.5Q128 340 95 353L111 482H198L197 429Q210 426 225.5 424Q241 422 264 422Q302 422 327.5 443Q353 464 366 509Q345 499 320 493.5Q295 488 264 488Z" glyph-name="nine.numr" horiz-adv-x="468" /><glyph d="M441 270Q444 295 442 321Q440 347 427.5 368.5Q415 390 389.5 404Q364 418 320 418Q278 418 251.5 402.5Q225 387 208.5 364.5Q192 342 185 316.5Q178 291 175 270Q173 249 173 223Q173 197 183 174.5Q193 152 216.5 137Q240 122 284 122Q328 122 357 136.5Q386 151 404 173Q422 195 430 221Q438 247 441 270ZM46 -135 53 -75H138V-160Q178 -166 224 -166Q273 -166 307.5 -145.5Q342 -125 365.5 -90.5Q389 -56 403.5 -10.5Q418 35 428 86Q402 61 363 44Q324 27 273 27Q221 27 185 38Q149 49 126 67.5Q103 86 90.5 110.5Q78 135 73 162Q68 189 69 217Q70 245 73 270Q78 308 91 350.5Q104 393 133 429Q162 465 210 489Q258 513 332 513Q413 513 458.5 488Q504 463 524 417Q544 371 544 306.5Q544 242 534 164Q523 74 503 -4Q483 -82 446.5 -139.5Q410 -197 353.5 -230Q297 -263 212 -263Q155 -263 110.5 -255.5Q66 -248 34 -234Z" glyph-name="nine.onum" horiz-adv-x="609" /><glyph d="M461 520Q464 545 462 571Q460 597 447.5 618.5Q435 640 409.5 654Q384 668 340 668Q298 668 271.5 652.5Q245 637 228.5 614.5Q212 592 205 566.5Q198 541 195 520Q192 499 192.5 473Q193 447 203 424.5Q213 402 236.5 387Q260 372 304 372Q348 372 377 386.5Q406 401 423.5 423Q441 445 449.5 471Q458 497 461 520ZM76 205H161V89Q181 87 201 85.5Q221 84 244 84Q293 84 327.5 104.5Q362 125 385 159.5Q408 194 422.5 239.5Q437 285 447 336Q421 311 382 294Q343 277 292 277Q214 277 171.5 301Q129 325 110 361Q91 397 89.5 439.5Q88 482 93 520Q97 558 110.5 600.5Q124 643 152.5 679Q181 715 229 739Q277 763 351 763Q432 763 477.5 738Q523 713 543 667Q563 621 563 556.5Q563 492 554 414Q543 324 523 246Q503 168 466.5 110.5Q430 53 373.5 20Q317 -13 232 -13Q175 -13 130 -5.5Q85 2 53 16Z" glyph-name="nine.pnum" horiz-adv-x="604" /><glyph d="M301 418Q183 418 174 351Q170 316 192.5 300Q215 284 275 284Q323 284 359.5 300.5Q396 317 413 342Q405 383 377.5 400.5Q350 418 301 418ZM264 189Q155 189 108 229Q61 269 71 351Q81 433 142.5 473Q204 513 313 513Q428 513 481.5 450Q535 387 519 250Q502 112 433.5 49.5Q365 -13 250 -13Q199 -13 148.5 -7Q98 -1 60 13L81 183H166V92Q183 88 203.5 85Q224 82 261 82Q320 82 358.5 115.5Q397 149 411 227Q384 209 348 199Q312 189 264 189Z" glyph-name="nine.sc" horiz-adv-x="575" /><glyph d="M50 0 141 750H891L800 0Z" glyph-name="notequal" horiz-adv-x="910" unicode="&#8800;" /><glyph d="M522 624Q505 638 488 644.5Q471 651 450 651Q431 651 415.5 641Q400 631 383 619Q366 607 346 597Q326 587 298 587Q272 587 252 599Q232 611 221 623L231 701Q248 687 265 680.5Q282 674 303 674Q322 674 337.5 684Q353 694 369.5 706Q386 718 406 728Q426 738 454 738Q480 738 500 726Q520 714 531 702ZM231 472Q264 492 302 502.5Q340 513 376 513Q469 513 509.5 470.5Q550 428 540 352L509 94L598 84L588 0H395L438 354Q442 389 420.5 403.5Q399 418 364 418Q326 418 296.5 411Q267 404 246 394L209 94L298 84L288 0H5L15 84L106 94L144 406L55 416L65 500H224Z" glyph-name="ntilde" horiz-adv-x="643" unicode="&#241;" /><glyph d="M251 465H351L387 536H287ZM301 366H202L142 249H39L99 366H23L64 465H149L185 536H108L149 635H235L292 750H395L337 635H438L495 750H598L540 635H620L579 536H490L454 465H535L494 366H405L345 249H243Z" glyph-name="numbersign" horiz-adv-x="585" unicode="#" /><glyph d="M221 215H321L357 286H257ZM271 116H172L112 -1H9L69 116H-7L34 215H119L155 286H78L119 385H205L262 500H365L307 385H408L465 500H568L510 385H590L549 286H460L424 215H505L464 116H375L315 -1H213Z" glyph-name="numbersign.onum" horiz-adv-x="585" /><glyph d="M383 250Q387 286 387.5 316.5Q388 347 379 369.5Q370 392 348.5 405Q327 418 288 418Q248 418 223.5 405Q199 392 185 369.5Q171 347 164 316.5Q157 286 153 250Q148 214 147.5 183.5Q147 153 155.5 130.5Q164 108 185.5 95Q207 82 247 82Q286 82 310.5 95Q335 108 349.5 130.5Q364 153 371 183.5Q378 214 383 250ZM485 250Q478 191 463.5 143Q449 95 421.5 60Q394 25 349 6Q304 -13 236 -13Q168 -13 128 6Q88 25 68.5 60Q49 95 46.5 143Q44 191 51 250Q58 308 72.5 356.5Q87 405 115 440Q143 475 187.5 494Q232 513 300 513Q368 513 408 494Q448 475 467.5 440Q487 405 489.5 356.5Q492 308 485 250Z" glyph-name="o" horiz-adv-x="536" unicode="o" /><glyph d="M269 575 370 750H491L345 575ZM383 250Q387 286 387.5 316.5Q388 347 379 369.5Q370 392 348.5 405Q327 418 288 418Q248 418 223.5 405Q199 392 185 369.5Q171 347 164 316.5Q157 286 153 250Q148 214 147.5 183.5Q147 153 155.5 130.5Q164 108 185.5 95Q207 82 247 82Q286 82 310.5 95Q335 108 349.5 130.5Q364 153 371 183.5Q378 214 383 250ZM485 250Q478 191 463.5 143Q449 95 421.5 60Q394 25 349 6Q304 -13 236 -13Q168 -13 128 6Q88 25 68.5 60Q49 95 46.5 143Q44 191 51 250Q58 308 72.5 356.5Q87 405 115 440Q143 475 187.5 494Q232 513 300 513Q368 513 408 494Q448 475 467.5 440Q487 405 489.5 356.5Q492 308 485 250Z" glyph-name="oacute" horiz-adv-x="536" unicode="&#243;" /><glyph d="M304 562Q229 562 189.5 609Q150 656 159 750H236Q231 696 249 672Q267 648 314 648Q361 648 385 671Q409 694 417 750H495Q481 653 430 607.5Q379 562 304 562ZM383 250Q387 286 387.5 316.5Q388 347 379 369.5Q370 392 348.5 405Q327 418 288 418Q248 418 223.5 405Q199 392 185 369.5Q171 347 164 316.5Q157 286 153 250Q148 214 147.5 183.5Q147 153 155.5 130.5Q164 108 185.5 95Q207 82 247 82Q286 82 310.5 95Q335 108 349.5 130.5Q364 153 371 183.5Q378 214 383 250ZM485 250Q478 191 463.5 143Q449 95 421.5 60Q394 25 349 6Q304 -13 236 -13Q168 -13 128 6Q88 25 68.5 60Q49 95 46.5 143Q44 191 51 250Q58 308 72.5 356.5Q87 405 115 440Q143 475 187.5 494Q232 513 300 513Q368 513 408 494Q448 475 467.5 440Q487 405 489.5 356.5Q492 308 485 250Z" glyph-name="obreve" horiz-adv-x="536" unicode="&#335;" /><glyph d="M410 575 320 680 206 575H130L276 750H382L486 575ZM383 250Q387 286 387.5 316.5Q388 347 379 369.5Q370 392 348.5 405Q327 418 288 418Q248 418 223.5 405Q199 392 185 369.5Q171 347 164 316.5Q157 286 153 250Q148 214 147.5 183.5Q147 153 155.5 130.5Q164 108 185.5 95Q207 82 247 82Q286 82 310.5 95Q335 108 349.5 130.5Q364 153 371 183.5Q378 214 383 250ZM485 250Q478 191 463.5 143Q449 95 421.5 60Q394 25 349 6Q304 -13 236 -13Q168 -13 128 6Q88 25 68.5 60Q49 95 46.5 143Q44 191 51 250Q58 308 72.5 356.5Q87 405 115 440Q143 475 187.5 494Q232 513 300 513Q368 513 408 494Q448 475 467.5 440Q487 405 489.5 356.5Q492 308 485 250Z" glyph-name="ocircumflex" horiz-adv-x="536" unicode="&#244;" /><glyph d="M376 727H496L481 607H361ZM156 727H276L261 607H141ZM383 250Q387 286 387.5 316.5Q388 347 379 369.5Q370 392 348.5 405Q327 418 288 418Q248 418 223.5 405Q199 392 185 369.5Q171 347 164 316.5Q157 286 153 250Q148 214 147.5 183.5Q147 153 155.5 130.5Q164 108 185.5 95Q207 82 247 82Q286 82 310.5 95Q335 108 349.5 130.5Q364 153 371 183.5Q378 214 383 250ZM485 250Q478 191 463.5 143Q449 95 421.5 60Q394 25 349 6Q304 -13 236 -13Q168 -13 128 6Q88 25 68.5 60Q49 95 46.5 143Q44 191 51 250Q58 308 72.5 356.5Q87 405 115 440Q143 475 187.5 494Q232 513 300 513Q368 513 408 494Q448 475 467.5 440Q487 405 489.5 356.5Q492 308 485 250Z" glyph-name="odieresis" horiz-adv-x="536" unicode="&#246;" /><glyph d="M649 418Q613 418 586 407Q559 396 540.5 377Q522 358 511 332.5Q500 307 494 277L648 291Q696 296 714.5 310.5Q733 325 736 351Q738 364 735.5 376Q733 388 723.5 397.5Q714 407 696 412.5Q678 418 649 418ZM661 513Q713 513 749 500.5Q785 488 807 466Q829 444 836.5 415Q844 386 840 352Q837 322 825.5 296Q814 270 790 250.5Q766 231 727.5 218.5Q689 206 632 202L488 192Q491 144 518 113Q545 82 608 82Q656 82 696 90Q736 98 785 118L773 21Q722 -1 677.5 -7Q633 -13 597 -13Q537 -13 494 5.5Q451 24 425 59Q397 24 352.5 5.5Q308 -13 240 -13Q172 -13 132 6Q92 25 72.5 60Q53 95 50.5 143Q48 191 55 250Q62 308 76.5 356.5Q91 405 119 440Q147 475 191.5 494Q236 513 304 513Q372 513 411.5 494.5Q451 476 471 441Q506 476 553.5 494.5Q601 513 661 513ZM387 250Q391 286 391.5 316.5Q392 347 383 369.5Q374 392 352.5 405Q331 418 292 418Q252 418 227.5 405Q203 392 189 369.5Q175 347 168 316.5Q161 286 157 250Q152 214 151.5 183.5Q151 153 159.5 130.5Q168 108 189.5 95Q211 82 251 82Q290 82 314.5 95Q339 108 353.5 130.5Q368 153 375 183.5Q382 214 387 250Z" glyph-name="oe" horiz-adv-x="887" unicode="&#339;" /><glyph d="M482 0Q458 0 434.5 -8Q411 -16 391 -30Q371 -44 357.5 -63.5Q344 -83 341 -106Q339 -127 352 -135Q365 -143 380 -143Q395 -143 409 -141Q423 -139 434 -136Q446 -132 457 -128L446 -213Q438 -218 414 -225Q390 -232 349 -232Q326 -232 306 -225.5Q286 -219 271.5 -206Q257 -193 250 -173.5Q243 -154 246 -128Q250 -95 269.5 -61.5Q289 -28 321 -0.5Q353 27 396.5 47Q440 67 491 74Z" glyph-name="ogonek" horiz-adv-x="602" unicode="&#731;" /></font>
</defs>
</svg>
