<?xml version="1.0" standalone="no"?><!DOCTYPE svg PUBLIC "-//W3C//DTD SVG 1.1//EN" "http://www.w3.org/Graphics/SVG/1.1/DTD/svg11.dtd" ><svg version="1.1" xmlns="http://www.w3.org/2000/svg"><defs><font horiz-adv-x="0" id="font"><font-face ascent="750" bbox="-80 -270 1322 995" cap-height="750" descent="-250" font-family="Apex New Truetype" font-stretch="normal" font-style="normal" font-weight="600" units-per-em="1000" x-height="500" /><missing-glyph d="M247 293V535H403V293ZM325 47Q244 47 175 30.5Q106 14 50 -10V156Q106 179 175 193.5Q244 208 325 208Q406 208 475 193.5Q544 179 600 156V-10Q544 14 475 30.5Q406 47 325 47ZM515 760Q556 760 583 733Q610 706 610 665Q610 625 583 597.5Q556 570 515 570Q475 570 447.5 597.5Q420 625 420 665Q420 706 447.5 733Q475 760 515 760ZM135 760Q175 760 202.5 733Q230 706 230 665Q230 625 202.5 597.5Q175 570 135 570Q94 570 67 597.5Q40 625 40 665Q40 706 67 733Q94 760 135 760Z" horiz-adv-x="649" /><glyph glyph-name=".null" horiz-adv-x="0" /><glyph d="M25 0 290 760H340L605 0H528L459 210H171L102 0ZM190 269H439L315 646Z" glyph-name="A" horiz-adv-x="630" unicode="A" /><glyph d="M518 422H880V359H529L577 63H915V0H519L484 210H197L96 0H20L396 750H915V687H475ZM226 269H475L412 655Z" glyph-name="AE" horiz-adv-x="975" unicode="&#198;" /><glyph d="M518 422H880V359H529L577 63H915V0H519L484 210H197L96 0H20L396 750H915V687H475ZM226 269H475L412 655ZM440 800 490 900H580L490 800Z" glyph-name="AEacute" horiz-adv-x="975" unicode="&#508;" /><glyph d="M518 422H880V359H529L577 63H915V0H519L484 210H197L96 0H20L396 750H915V687H475ZM226 269H475L412 655ZM350 880H624V820H350Z" glyph-name="AEmacron" horiz-adv-x="975" unicode="&#482;" /><glyph d="M25 0 290 760H340L605 0H528L459 210H171L102 0ZM190 269H439L315 646ZM290 800 340 900H430L340 800Z" glyph-name="Aacute" horiz-adv-x="630" unicode="&#193;" /><glyph d="M25 0 290 760H340L605 0H528L459 210H171L102 0ZM190 269H439L315 646ZM315 790Q174 790 170 900H221Q223 869 247.5 857Q272 845 315 845Q358 845 382.5 857Q407 869 409 900H460Q456 790 315 790Z" glyph-name="Abreve" horiz-adv-x="630" unicode="&#258;" /><glyph d="M25 0 290 760H340L605 0H528L459 210H171L102 0ZM190 269H439L315 646ZM216 900 315 844 414 900H470L355 800H275L160 900Z" glyph-name="Acaron" horiz-adv-x="630" unicode="&#461;" /><glyph d="M25 0 290 760H340L605 0H528L459 210H171L102 0ZM190 269H439L315 646ZM414 800 315 856 216 800H160L275 900H355L470 800Z" glyph-name="Acircumflex" horiz-adv-x="630" unicode="&#194;" /><glyph d="M25 0 290 760H340L605 0H528L459 210H171L102 0ZM190 269H439L315 646ZM170 850Q170 871 184.5 885.5Q199 900 220 900Q241 900 255.5 885.5Q270 871 270 850Q270 829 255.5 814.5Q241 800 220 800Q199 800 184.5 814.5Q170 829 170 850ZM360 850Q360 871 374.5 885.5Q389 900 410 900Q431 900 445.5 885.5Q460 871 460 850Q460 829 445.5 814.5Q431 800 410 800Q389 800 374.5 814.5Q360 829 360 850Z" glyph-name="Adieresis" horiz-adv-x="630" unicode="&#196;" /><glyph d="M25 0 290 760H340L605 0H528L459 210H171L102 0ZM190 269H439L315 646ZM178 995H452V935H178ZM170 850Q170 871 184.5 885.5Q199 900 220 900Q241 900 255.5 885.5Q270 871 270 850Q270 829 255.5 814.5Q241 800 220 800Q199 800 184.5 814.5Q170 829 170 850ZM360 850Q360 871 374.5 885.5Q389 900 410 900Q431 900 445.5 885.5Q460 871 460 850Q460 829 445.5 814.5Q431 800 410 800Q389 800 374.5 814.5Q360 829 360 850Z" glyph-name="Adieresismacron" horiz-adv-x="630" unicode="&#478;" /><glyph d="M25 0 290 760H340L605 0H528L459 210H171L102 0ZM190 269H439L315 646ZM265 850Q265 871 279.5 885.5Q294 900 315 900Q336 900 350.5 885.5Q365 871 365 850Q365 829 350.5 814.5Q336 800 315 800Q294 800 279.5 814.5Q265 829 265 850Z" glyph-name="Adotabove" horiz-adv-x="630" unicode="&#57345;" /><glyph d="M25 0 290 760H340L605 0H528L459 210H171L102 0ZM190 269H439L315 646ZM350 800 260 900H350L400 800ZM230 800 140 900H230L280 800Z" glyph-name="Adoublegrave" horiz-adv-x="630" unicode="&#57344;" /><glyph d="M25 0 290 760H340L605 0H528L459 210H171L102 0ZM190 269H439L315 646ZM290 800 200 900H290L340 800Z" glyph-name="Agrave" horiz-adv-x="630" unicode="&#192;" /><glyph d="M25 0 290 760H340L605 0H528L459 210H171L102 0ZM190 269H439L315 646ZM315 910Q456 910 460 800H409Q407 831 382.5 843Q358 855 315 855Q272 855 247.5 843Q223 831 221 800H170Q174 910 315 910Z" glyph-name="Ainvertedbreve" horiz-adv-x="630" unicode="&#514;" /><glyph d="M25 0 290 760H340L605 0H528L459 210H171L102 0ZM190 269H439L315 646ZM178 880H452V820H178Z" glyph-name="Amacron" horiz-adv-x="630" unicode="&#256;" /><glyph d="M25 0 290 760H340L605 0H528L315 646L102 0Z" glyph-name="Anocross" horiz-adv-x="630" unicode="&#57346;" /><glyph d="M25 0 290 760H340L605 0Q556 -27 527.5 -65Q499 -103 499 -142Q499 -165 511.5 -182Q524 -199 553 -199Q570 -199 584.5 -196.5Q599 -194 610 -191V-239Q597 -244 579 -247Q561 -250 539 -250Q494 -250 466 -225Q438 -200 438 -155Q438 -110 460.5 -70Q483 -30 527 1L459 210H171L102 0ZM190 269H439L315 646Z" glyph-name="Aogonek" horiz-adv-x="630" unicode="&#260;" /><glyph d="M25 0 290 760H340L605 0H528L459 210H171L102 0ZM190 269H439L315 646ZM315 921Q334 921 351 917.5Q368 914 381 906Q394 898 401.5 884.5Q409 871 409 850Q409 829 401.5 815.5Q394 802 381 794Q368 786 351 782.5Q334 779 315 779Q296 779 279 782.5Q262 786 249 794Q236 802 228.5 815.5Q221 829 221 850Q221 871 228.5 884.5Q236 898 249 906Q262 914 279 917.5Q296 921 315 921ZM315 828Q359 828 359 850Q359 872 315 872Q271 872 271 850Q271 828 315 828Z" glyph-name="Aring" horiz-adv-x="630" unicode="&#197;" /><glyph d="M25 0 290 760H340L605 0H528L459 210H171L102 0ZM190 269H439L315 646ZM221 850Q221 865 224.5 876Q228 887 235 897L289 975H348L303 921H315Q334 921 351 917.5Q368 914 381 905.5Q394 897 401.5 883.5Q409 870 409 850Q409 829 401.5 815.5Q394 802 381 794Q368 786 351 782.5Q334 779 315 779Q296 779 279 782.5Q262 786 249 794Q236 802 228.5 815.5Q221 829 221 850ZM315 828Q359 828 359 850Q359 872 315 872Q271 872 271 850Q271 828 315 828Z" glyph-name="Aringacute" horiz-adv-x="630" unicode="&#506;" /><glyph d="M25 0 290 760H340L605 0H528L459 210H171L102 0ZM190 269H439L315 646ZM391 849Q408 849 417.5 854Q427 859 432 867Q437 875 438.5 883.5Q440 892 440 900H496Q500 847 470.5 818.5Q441 790 387 790Q360 790 340.5 799.5Q321 809 304.5 820.5Q288 832 273 841.5Q258 851 239 851Q222 851 212.5 846Q203 841 198 833Q193 825 191.5 816Q190 807 190 800H134Q130 853 159.5 881.5Q189 910 243 910Q270 910 289.5 900.5Q309 891 325.5 879.5Q342 868 357 858.5Q372 849 391 849Z" glyph-name="Atilde" horiz-adv-x="630" unicode="&#195;" /><glyph d="M75 750H312Q378 750 422.5 734.5Q467 719 494 692Q521 665 533 629Q545 593 545 552Q545 503 520.5 460Q496 417 447 396Q479 387 502.5 368.5Q526 350 541 325Q556 300 563 270.5Q570 241 570 211Q570 167 557 128.5Q544 90 514.5 61.5Q485 33 437 16.5Q389 0 319 0H75ZM143 63H328Q381 63 414 76Q447 89 465 110Q483 131 489.5 157.5Q496 184 496 211Q496 287 459 323Q422 359 330 359H143ZM471 552Q471 577 465.5 601Q460 625 444 644Q428 663 399 675Q370 687 322 687H143V422H330Q372 422 399.5 433.5Q427 445 443 463Q459 481 465 504.5Q471 528 471 552Z" glyph-name="B" horiz-adv-x="615" unicode="B" /><glyph d="M60 375Q60 455 74.5 525Q89 595 123.5 647.5Q158 700 214.5 730Q271 760 355 760Q424 760 471.5 749.5Q519 739 550 725V658Q524 668 501 675.5Q478 683 455 688Q432 693 407.5 695Q383 697 355 697Q293 697 250.5 672Q208 647 182 603.5Q156 560 144 501.5Q132 443 132 375Q132 307 144 248.5Q156 190 182 146.5Q208 103 250.5 78Q293 53 355 53Q383 53 407.5 55Q432 57 455 62Q478 67 501 74Q524 81 550 92V25Q519 11 471.5 0.5Q424 -10 355 -10Q271 -10 214.5 20Q158 50 123.5 102.5Q89 155 74.5 225Q60 295 60 375Z" glyph-name="C" horiz-adv-x="610" unicode="C" /><glyph d="M60 375Q60 455 74.5 525Q89 595 123.5 647.5Q158 700 214.5 730Q271 760 355 760Q424 760 471.5 749.5Q519 739 550 725V658Q524 668 501 675.5Q478 683 455 688Q432 693 407.5 695Q383 697 355 697Q293 697 250.5 672Q208 647 182 603.5Q156 560 144 501.5Q132 443 132 375Q132 307 144 248.5Q156 190 182 146.5Q208 103 250.5 78Q293 53 355 53Q383 53 407.5 55Q432 57 455 62Q478 67 501 74Q524 81 550 92V25Q519 11 471.5 0.5Q424 -10 355 -10Q271 -10 214.5 20Q158 50 123.5 102.5Q89 155 74.5 225Q60 295 60 375ZM330 800 380 900H470L380 800Z" glyph-name="Cacute" horiz-adv-x="610" unicode="&#262;" /><glyph d="M60 375Q60 455 74.5 525Q89 595 123.5 647.5Q158 700 214.5 730Q271 760 355 760Q424 760 471.5 749.5Q519 739 550 725V658Q524 668 501 675.5Q478 683 455 688Q432 693 407.5 695Q383 697 355 697Q293 697 250.5 672Q208 647 182 603.5Q156 560 144 501.5Q132 443 132 375Q132 307 144 248.5Q156 190 182 146.5Q208 103 250.5 78Q293 53 355 53Q383 53 407.5 55Q432 57 455 62Q478 67 501 74Q524 81 550 92V25Q519 11 471.5 0.5Q424 -10 355 -10Q271 -10 214.5 20Q158 50 123.5 102.5Q89 155 74.5 225Q60 295 60 375ZM256 900 355 844 454 900H510L395 800H315L200 900Z" glyph-name="Ccaron" horiz-adv-x="610" unicode="&#268;" /><glyph d="M60 375Q60 455 74.5 525Q89 595 123.5 647.5Q158 700 214.5 730Q271 760 355 760Q424 760 471.5 749.5Q519 739 550 725V658Q524 668 501 675.5Q478 683 455 688Q432 693 407.5 695Q383 697 355 697Q293 697 250.5 672Q208 647 182 603.5Q156 560 144 501.5Q132 443 132 375Q132 307 144 248.5Q156 190 182 146.5Q208 103 250.5 78Q293 53 355 53Q383 53 407.5 55Q432 57 455 62Q478 67 501 74Q524 81 550 92V25Q521 12 478.5 2.5Q436 -7 376 -9L380 -64Q395 -68 411.5 -75Q428 -82 442.5 -93Q457 -104 466 -121Q475 -138 475 -161Q475 -202 446 -226Q417 -250 364 -250Q323 -250 300.5 -243.5Q278 -237 270 -232V-186Q281 -190 293 -193Q304 -195 317.5 -197Q331 -199 347 -199Q378 -199 396 -190.5Q414 -182 414 -163Q414 -147 406.5 -136Q399 -125 387 -117.5Q375 -110 359 -106Q343 -102 325 -100L334 -9Q256 -5 203.5 26.5Q151 58 119 109.5Q87 161 73.5 229.5Q60 298 60 375Z" glyph-name="Ccedilla" horiz-adv-x="610" unicode="&#199;" /><glyph d="M60 375Q60 455 74.5 525Q89 595 123.5 647.5Q158 700 214.5 730Q271 760 355 760Q424 760 471.5 749.5Q519 739 550 725V658Q524 668 501 675.5Q478 683 455 688Q432 693 407.5 695Q383 697 355 697Q293 697 250.5 672Q208 647 182 603.5Q156 560 144 501.5Q132 443 132 375Q132 307 144 248.5Q156 190 182 146.5Q208 103 250.5 78Q293 53 355 53Q383 53 407.5 55Q432 57 455 62Q478 67 501 74Q524 81 550 92V25Q519 11 471.5 0.5Q424 -10 355 -10Q271 -10 214.5 20Q158 50 123.5 102.5Q89 155 74.5 225Q60 295 60 375ZM454 800 355 856 256 800H200L315 900H395L510 800Z" glyph-name="Ccircumflex" horiz-adv-x="610" unicode="&#264;" /><glyph d="M60 375Q60 455 74.5 525Q89 595 123.5 647.5Q158 700 214.5 730Q271 760 355 760Q424 760 471.5 749.5Q519 739 550 725V658Q524 668 501 675.5Q478 683 455 688Q432 693 407.5 695Q383 697 355 697Q293 697 250.5 672Q208 647 182 603.5Q156 560 144 501.5Q132 443 132 375Q132 307 144 248.5Q156 190 182 146.5Q208 103 250.5 78Q293 53 355 53Q383 53 407.5 55Q432 57 455 62Q478 67 501 74Q524 81 550 92V25Q519 11 471.5 0.5Q424 -10 355 -10Q271 -10 214.5 20Q158 50 123.5 102.5Q89 155 74.5 225Q60 295 60 375ZM305 850Q305 871 319.5 885.5Q334 900 355 900Q376 900 390.5 885.5Q405 871 405 850Q405 829 390.5 814.5Q376 800 355 800Q334 800 319.5 814.5Q305 829 305 850Z" glyph-name="Cdotaccent" horiz-adv-x="610" unicode="&#266;" /><glyph d="M75 0V750H279Q371 750 432 721.5Q493 693 529 642.5Q565 592 580 523.5Q595 455 595 375Q595 295 580 226.5Q565 158 529 107.5Q493 57 432 28.5Q371 0 279 0ZM143 63H283Q350 63 396 86.5Q442 110 470.5 151.5Q499 193 511 250Q523 307 523 375Q523 442 511 499.5Q499 557 470.5 598.5Q442 640 396 663.5Q350 687 283 687H143Z" glyph-name="D" horiz-adv-x="655" unicode="D" /><glyph d="M75 0V750H279Q371 750 432 721.5Q493 693 529 642.5Q565 592 580 523.5Q595 455 595 375Q595 295 580 226.5Q565 158 529 107.5Q493 57 432 28.5Q371 0 279 0ZM143 63H283Q350 63 396 86.5Q442 110 470.5 151.5Q499 193 511 250Q523 307 523 375Q523 442 511 499.5Q499 557 470.5 598.5Q442 640 396 663.5Q350 687 283 687H143ZM201 900 300 844 399 900H455L340 800H260L145 900Z" glyph-name="Dcaron" horiz-adv-x="655" unicode="&#270;" /><glyph d="M75 0V750H279Q371 750 432 721.5Q493 693 529 642.5Q565 592 580 523.5Q595 455 595 375Q595 295 580 226.5Q565 158 529 107.5Q493 57 432 28.5Q371 0 279 0ZM143 63H283Q350 63 396 86.5Q442 110 470.5 151.5Q499 193 511 250Q523 307 523 375Q523 442 511 499.5Q499 557 470.5 598.5Q442 640 396 663.5Q350 687 283 687H143ZM255 -50Q326 -58 363 -87Q400 -116 400 -161Q400 -202 371 -226Q342 -250 289 -250Q248 -250 225.5 -243.5Q203 -237 195 -232V-186Q206 -190 218 -193Q229 -195 242.5 -197Q256 -199 272 -199Q303 -199 321 -190.5Q339 -182 339 -163Q339 -147 331.5 -135Q324 -123 312 -115Q300 -107 284 -102Q268 -97 250 -95Z" glyph-name="Dcedilla" horiz-adv-x="655" unicode="&#7696;" /><glyph d="M15 415H105V750H309Q401 750 462 721.5Q523 693 559 642.5Q595 592 610 523.5Q625 455 625 375Q625 295 610 226.5Q595 158 559 107.5Q523 57 462 28.5Q401 0 309 0H105V362H15ZM173 415H356V362H173V63H313Q380 63 426 86.5Q472 110 500.5 151.5Q529 193 541 250Q553 307 553 375Q553 442 541 499.5Q529 557 500.5 598.5Q472 640 426 663.5Q380 687 313 687H173Z" glyph-name="Dcroat" horiz-adv-x="685" unicode="&#272;" /><glyph d="M75 0V750H279Q371 750 432 721.5Q493 693 529 642.5Q565 592 580 523.5Q595 455 595 375Q595 295 580 226.5Q565 158 529 107.5Q493 57 432 28.5Q371 0 279 0ZM143 63H283Q350 63 396 86.5Q442 110 470.5 151.5Q499 193 511 250Q523 307 523 375Q523 442 511 499.5Q499 557 470.5 598.5Q442 640 396 663.5Q350 687 283 687H143ZM250 -150Q250 -129 264.5 -114.5Q279 -100 300 -100Q321 -100 335.5 -114.5Q350 -129 350 -150Q350 -171 335.5 -185.5Q321 -200 300 -200Q279 -200 264.5 -185.5Q250 -171 250 -150Z" glyph-name="Ddotbelow" horiz-adv-x="655" unicode="&#7692;" /><glyph d="M20 43 314 760H386L680 43V0H20ZM604 61 350 686 96 61Z" glyph-name="Delta" horiz-adv-x="700" unicode="&#8710;" /><glyph d="M475 359H143V63H510V0H75V750H510V687H143V422H475Z" glyph-name="E" horiz-adv-x="570" unicode="E" /><glyph d="M475 359H143V63H510V0H75V750H510V687H143V422H475ZM275 800 325 900H415L325 800Z" glyph-name="Eacute" horiz-adv-x="570" unicode="&#201;" /><glyph d="M475 359H143V63H510V0H75V750H510V687H143V422H475ZM275 800 325 900H415L325 800ZM250 -150Q250 -129 264.5 -114.5Q279 -100 300 -100Q321 -100 335.5 -114.5Q350 -129 350 -150Q350 -171 335.5 -185.5Q321 -200 300 -200Q279 -200 264.5 -185.5Q250 -171 250 -150Z" glyph-name="Eacutedotbelow" horiz-adv-x="570" unicode="&#57348;" /><glyph d="M475 359H143V63H510V0H75V750H510V687H143V422H475ZM300 790Q159 790 155 900H206Q208 869 232.5 857Q257 845 300 845Q343 845 367.5 857Q392 869 394 900H445Q441 790 300 790Z" glyph-name="Ebreve" horiz-adv-x="570" unicode="&#276;" /><glyph d="M475 359H143V63H510V0H75V750H510V687H143V422H475ZM201 900 300 844 399 900H455L340 800H260L145 900Z" glyph-name="Ecaron" horiz-adv-x="570" unicode="&#282;" /><glyph d="M475 359H143V63H510V0H75V750H510V687H143V422H475ZM399 800 300 856 201 800H145L260 900H340L455 800Z" glyph-name="Ecircumflex" horiz-adv-x="570" unicode="&#202;" /><glyph d="M475 359H143V63H510V0H75V750H510V687H143V422H475ZM155 850Q155 871 169.5 885.5Q184 900 205 900Q226 900 240.5 885.5Q255 871 255 850Q255 829 240.5 814.5Q226 800 205 800Q184 800 169.5 814.5Q155 829 155 850ZM345 850Q345 871 359.5 885.5Q374 900 395 900Q416 900 430.5 885.5Q445 871 445 850Q445 829 430.5 814.5Q416 800 395 800Q374 800 359.5 814.5Q345 829 345 850Z" glyph-name="Edieresis" horiz-adv-x="570" unicode="&#203;" /><glyph d="M475 359H143V63H510V0H75V750H510V687H143V422H475ZM250 850Q250 871 264.5 885.5Q279 900 300 900Q321 900 335.5 885.5Q350 871 350 850Q350 829 335.5 814.5Q321 800 300 800Q279 800 264.5 814.5Q250 829 250 850Z" glyph-name="Edotaccent" horiz-adv-x="570" unicode="&#278;" /><glyph d="M475 359H143V63H510V0H75V750H510V687H143V422H475ZM335 800 245 900H335L385 800ZM215 800 125 900H215L265 800Z" glyph-name="Edoublegrave" horiz-adv-x="570" unicode="&#57347;" /><glyph d="M475 359H143V63H510V0H75V750H510V687H143V422H475ZM275 800 185 900H275L325 800Z" glyph-name="Egrave" horiz-adv-x="570" unicode="&#200;" /><glyph d="M475 359H143V63H510V0H75V750H510V687H143V422H475ZM275 800 185 900H275L325 800ZM250 -150Q250 -129 264.5 -114.5Q279 -100 300 -100Q321 -100 335.5 -114.5Q350 -129 350 -150Q350 -171 335.5 -185.5Q321 -200 300 -200Q279 -200 264.5 -185.5Q250 -171 250 -150Z" glyph-name="Egravedotbelow" horiz-adv-x="570" unicode="&#57349;" /><glyph d="M475 359H143V63H510V0H75V750H510V687H143V422H475ZM300 910Q441 910 445 800H394Q392 831 367.5 843Q343 855 300 855Q257 855 232.5 843Q208 831 206 800H155Q159 910 300 910Z" glyph-name="Einvertedbreve" horiz-adv-x="570" unicode="&#518;" /><glyph d="M475 359H143V63H510V0H75V750H510V687H143V422H475ZM163 880H437V820H163Z" glyph-name="Emacron" horiz-adv-x="570" unicode="&#274;" /><glyph d="M401 -201Q423 -198 446 -190.5Q469 -183 487.5 -169.5Q506 -156 517.5 -136Q529 -116 529 -87V22L141 611L143 0H75V750H126L529 139L527 750H595V-96Q595 -135 577.5 -165Q560 -195 532 -215.5Q504 -236 469.5 -247Q435 -258 401 -260Z" glyph-name="Eng" horiz-adv-x="670" unicode="&#330;" /><glyph d="M475 359H143V63H510V0Q461 -27 432.5 -65Q404 -103 404 -142Q404 -165 416.5 -182Q429 -199 458 -199Q475 -199 489.5 -196.5Q504 -194 515 -191V-239Q502 -244 484 -247Q466 -250 444 -250Q399 -250 371 -225Q343 -200 343 -155Q343 -111 365 -71.5Q387 -32 430 0H75V750H510V687H143V422H475Z" glyph-name="Eogonek" horiz-adv-x="570" unicode="&#280;" /><glyph d="M15 415H105V750H309Q401 750 462 721.5Q523 693 559 642.5Q595 592 610 523.5Q625 455 625 375Q625 295 610 226.5Q595 158 559 107.5Q523 57 462 28.5Q401 0 309 0H105V362H15ZM173 415H356V362H173V63H313Q380 63 426 86.5Q472 110 500.5 151.5Q529 193 541 250Q553 307 553 375Q553 442 541 499.5Q529 557 500.5 598.5Q472 640 426 663.5Q380 687 313 687H173Z" glyph-name="Eth" horiz-adv-x="685" unicode="&#208;" /><glyph d="M80 312Q80 322 80 331Q80 340 81 350H20V416H89Q98 464 117 504Q136 544 167.5 573Q199 602 242.5 618.5Q286 635 345 635Q399 635 442 627Q485 619 517 605V541Q497 548 477.5 554Q458 560 438 564Q418 568 395 570Q372 572 345 572Q305 572 274.5 560.5Q244 549 222 528Q200 507 185.5 478.5Q171 450 163 416H413L390 350H153Q152 340 152 331Q152 322 152 312Q152 302 152 292.5Q152 283 153 274H364L341 208H163Q171 174 185.5 145.5Q200 117 222 96.5Q244 76 274.5 64.5Q305 53 345 53Q372 53 395 55Q418 57 438 60.5Q458 64 477.5 70Q497 76 517 84V20Q485 6 442 -2Q399 -10 345 -10Q286 -10 242.5 6Q199 22 167.5 51Q136 80 117 120Q98 160 89 208H20V274H81Q80 283 80 292.5Q80 302 80 312Z" glyph-name="Euro" horiz-adv-x="567" unicode="&#8364;" /><glyph d="M45 418V484H109Q114 548 129 599Q144 650 173 686Q202 722 247.5 741Q293 760 360 760Q397 760 441.5 753Q486 746 519 732V672Q490 682 452 690Q414 698 360 698Q313 698 280.5 683Q248 668 227 640Q206 612 194.5 572.5Q183 533 179 484H458L435 418H175V332H405L382 266H179Q183 217 194.5 177.5Q206 138 227 110Q248 82 280.5 67Q313 52 360 52Q414 52 452 60Q490 68 519 78V18Q486 4 441.5 -3Q397 -10 360 -10Q293 -10 247.5 9Q202 28 173 63.5Q144 99 129 150Q114 201 109 266H45V332H105V418Z" glyph-name="Euro.LP" horiz-adv-x="570" unicode="&#57749;" /><glyph d="M98 349Q119 423 173.5 466.5Q228 510 326 510Q363 510 405 504.5Q447 499 480 485V425Q451 435 415 441.5Q379 448 325 448Q262 448 225.5 420Q189 392 172 349H398L375 283H157Q156 278 155.5 268Q155 258 155 250Q155 242 155.5 232Q156 222 157 217H352L329 151H172Q189 108 225.5 80Q262 52 325 52Q379 52 415 58.5Q451 65 480 75V15Q447 1 405 -4.5Q363 -10 326 -10Q228 -10 173.5 33.5Q119 77 98 151H25V217H86L85 250L86 283H25V349Z" glyph-name="Euro.OP" horiz-adv-x="530" unicode="&#57789;" /><glyph d="M246 -197Q270 -197 299.5 -194Q329 -191 360 -182Q391 -173 419.5 -156Q448 -139 471 -110.5Q494 -82 507.5 -40.5Q521 1 521 60Q521 144 491 190Q461 236 415 257.5Q369 279 314.5 283Q260 287 211 287H157V343L453 689L45 687V750H541V695L242 348Q300 348 362.5 337Q425 326 476.5 294.5Q528 263 561.5 206.5Q595 150 595 60Q595 -10 578 -61Q561 -112 532.5 -147.5Q504 -183 467.5 -205Q431 -227 392 -239Q353 -251 315 -255.5Q277 -260 245 -260Q219 -260 189.5 -256.5Q160 -253 131.5 -247.5Q103 -242 78 -235Q53 -228 35 -220V-155Q53 -161 73.5 -168.5Q94 -176 119.5 -182Q145 -188 176 -192.5Q207 -197 246 -197Z" glyph-name="Ezh" horiz-adv-x="640" unicode="&#439;" /><glyph d="M246 -197Q270 -197 299.5 -194Q329 -191 360 -182Q391 -173 419.5 -156Q448 -139 471 -110.5Q494 -82 507.5 -40.5Q521 1 521 60Q521 144 491 190Q461 236 415 257.5Q369 279 314.5 283Q260 287 211 287H157V343L453 689L45 687V750H541V695L242 348Q300 348 362.5 337Q425 326 476.5 294.5Q528 263 561.5 206.5Q595 150 595 60Q595 -10 578 -61Q561 -112 532.5 -147.5Q504 -183 467.5 -205Q431 -227 392 -239Q353 -251 315 -255.5Q277 -260 245 -260Q219 -260 189.5 -256.5Q160 -253 131.5 -247.5Q103 -242 78 -235Q53 -228 35 -220V-155Q53 -161 73.5 -168.5Q94 -176 119.5 -182Q145 -188 176 -192.5Q207 -197 246 -197ZM191 900 290 844 389 900H445L330 800H250L135 900Z" glyph-name="Ezhcaron" horiz-adv-x="640" unicode="&#494;" /><glyph d="M465 359H143V0H75V750H500V687H143V422H465Z" glyph-name="F" horiz-adv-x="550" unicode="F" /><glyph d="M355 -10Q271 -10 214.5 20Q158 50 123.5 102.5Q89 155 74.5 225Q60 295 60 375Q60 455 74.5 525Q89 595 123.5 647.5Q158 700 214.5 730Q271 760 355 760Q433 760 483.5 747Q534 734 565 718V650Q536 662 511 671Q486 680 461.5 685.5Q437 691 411 694Q385 697 355 697Q293 697 250.5 672Q208 647 182 603.5Q156 560 144 501.5Q132 443 132 375Q132 307 144 248.5Q156 190 182 146.5Q208 103 250.5 78Q293 53 355 53Q376 53 399 54Q422 55 444 57.5Q466 60 485 64.5Q504 69 517 75V331H360V394H585V31Q547 13 490.5 1.5Q434 -10 355 -10Z" glyph-name="G" horiz-adv-x="660" unicode="G" /><glyph d="M355 -10Q271 -10 214.5 20Q158 50 123.5 102.5Q89 155 74.5 225Q60 295 60 375Q60 455 74.5 525Q89 595 123.5 647.5Q158 700 214.5 730Q271 760 355 760Q433 760 483.5 747Q534 734 565 718V650Q536 662 511 671Q486 680 461.5 685.5Q437 691 411 694Q385 697 355 697Q293 697 250.5 672Q208 647 182 603.5Q156 560 144 501.5Q132 443 132 375Q132 307 144 248.5Q156 190 182 146.5Q208 103 250.5 78Q293 53 355 53Q376 53 399 54Q422 55 444 57.5Q466 60 485 64.5Q504 69 517 75V331H360V394H585V31Q547 13 490.5 1.5Q434 -10 355 -10ZM330 800 380 900H470L380 800Z" glyph-name="Gacute" horiz-adv-x="660" unicode="&#500;" /><glyph d="M355 -10Q271 -10 214.5 20Q158 50 123.5 102.5Q89 155 74.5 225Q60 295 60 375Q60 455 74.5 525Q89 595 123.5 647.5Q158 700 214.5 730Q271 760 355 760Q433 760 483.5 747Q534 734 565 718V650Q536 662 511 671Q486 680 461.5 685.5Q437 691 411 694Q385 697 355 697Q293 697 250.5 672Q208 647 182 603.5Q156 560 144 501.5Q132 443 132 375Q132 307 144 248.5Q156 190 182 146.5Q208 103 250.5 78Q293 53 355 53Q376 53 399 54Q422 55 444 57.5Q466 60 485 64.5Q504 69 517 75V331H360V394H585V31Q547 13 490.5 1.5Q434 -10 355 -10ZM355 790Q214 790 210 900H261Q263 869 287.5 857Q312 845 355 845Q398 845 422.5 857Q447 869 449 900H500Q496 790 355 790Z" glyph-name="Gbreve" horiz-adv-x="660" unicode="&#286;" /><glyph d="M355 -10Q271 -10 214.5 20Q158 50 123.5 102.5Q89 155 74.5 225Q60 295 60 375Q60 455 74.5 525Q89 595 123.5 647.5Q158 700 214.5 730Q271 760 355 760Q433 760 483.5 747Q534 734 565 718V650Q536 662 511 671Q486 680 461.5 685.5Q437 691 411 694Q385 697 355 697Q293 697 250.5 672Q208 647 182 603.5Q156 560 144 501.5Q132 443 132 375Q132 307 144 248.5Q156 190 182 146.5Q208 103 250.5 78Q293 53 355 53Q376 53 399 54Q422 55 444 57.5Q466 60 485 64.5Q504 69 517 75V331H360V394H585V31Q547 13 490.5 1.5Q434 -10 355 -10ZM256 900 355 844 454 900H510L395 800H315L200 900Z" glyph-name="Gcaron" horiz-adv-x="660" unicode="&#486;" /><glyph d="M355 -10Q271 -10 214.5 20Q158 50 123.5 102.5Q89 155 74.5 225Q60 295 60 375Q60 455 74.5 525Q89 595 123.5 647.5Q158 700 214.5 730Q271 760 355 760Q433 760 483.5 747Q534 734 565 718V650Q536 662 511 671Q486 680 461.5 685.5Q437 691 411 694Q385 697 355 697Q293 697 250.5 672Q208 647 182 603.5Q156 560 144 501.5Q132 443 132 375Q132 307 144 248.5Q156 190 182 146.5Q208 103 250.5 78Q293 53 355 53Q376 53 399 54Q422 55 444 57.5Q466 60 485 64.5Q504 69 517 75V331H360V394H585V31Q547 13 490.5 1.5Q434 -10 355 -10ZM454 800 355 856 256 800H200L315 900H395L510 800Z" glyph-name="Gcircumflex" horiz-adv-x="660" unicode="&#284;" /><glyph d="M355 -10Q271 -10 214.5 20Q158 50 123.5 102.5Q89 155 74.5 225Q60 295 60 375Q60 455 74.5 525Q89 595 123.5 647.5Q158 700 214.5 730Q271 760 355 760Q433 760 483.5 747Q534 734 565 718V650Q536 662 511 671Q486 680 461.5 685.5Q437 691 411 694Q385 697 355 697Q293 697 250.5 672Q208 647 182 603.5Q156 560 144 501.5Q132 443 132 375Q132 307 144 248.5Q156 190 182 146.5Q208 103 250.5 78Q293 53 355 53Q376 53 399 54Q422 55 444 57.5Q466 60 485 64.5Q504 69 517 75V331H360V394H585V31Q547 13 490.5 1.5Q434 -10 355 -10ZM408 -50 340 -250H290L316 -50Z" glyph-name="Gcommaaccent" horiz-adv-x="660" unicode="&#290;" /><glyph d="M355 -10Q271 -10 214.5 20Q158 50 123.5 102.5Q89 155 74.5 225Q60 295 60 375Q60 455 74.5 525Q89 595 123.5 647.5Q158 700 214.5 730Q271 760 355 760Q433 760 483.5 747Q534 734 565 718V650Q536 662 511 671Q486 680 461.5 685.5Q437 691 411 694Q385 697 355 697Q293 697 250.5 672Q208 647 182 603.5Q156 560 144 501.5Q132 443 132 375Q132 307 144 248.5Q156 190 182 146.5Q208 103 250.5 78Q293 53 355 53Q376 53 399 54Q422 55 444 57.5Q466 60 485 64.5Q504 69 517 75V331H360V394H585V31Q547 13 490.5 1.5Q434 -10 355 -10ZM425 900 400 800H310L375 900Z" glyph-name="Gcommaturnedabove" horiz-adv-x="660" unicode="&#57351;" /><glyph d="M355 -10Q271 -10 214.5 20Q158 50 123.5 102.5Q89 155 74.5 225Q60 295 60 375Q60 455 74.5 525Q89 595 123.5 647.5Q158 700 214.5 730Q271 760 355 760Q433 760 483.5 747Q534 734 565 718V650Q536 662 511 671Q486 680 461.5 685.5Q437 691 411 694Q385 697 355 697Q293 697 250.5 672Q208 647 182 603.5Q156 560 144 501.5Q132 443 132 375Q132 307 144 248.5Q156 190 182 146.5Q208 103 250.5 78Q293 53 355 53Q376 53 399 54Q422 55 444 57.5Q466 60 485 64.5Q504 69 517 75V331H360V394H585V31Q547 13 490.5 1.5Q434 -10 355 -10ZM305 850Q305 871 319.5 885.5Q334 900 355 900Q376 900 390.5 885.5Q405 871 405 850Q405 829 390.5 814.5Q376 800 355 800Q334 800 319.5 814.5Q305 829 305 850Z" glyph-name="Gdotaccent" horiz-adv-x="660" unicode="&#288;" /><glyph d="M355 -10Q271 -10 214.5 20Q158 50 123.5 102.5Q89 155 74.5 225Q60 295 60 375Q60 455 74.5 525Q89 595 123.5 647.5Q158 700 214.5 730Q271 760 355 760Q433 760 483.5 747Q534 734 565 718V650Q536 662 511 671Q486 680 461.5 685.5Q437 691 411 694Q385 697 355 697Q293 697 250.5 672Q208 647 182 603.5Q156 560 144 501.5Q132 443 132 375Q132 307 144 248.5Q156 190 182 146.5Q208 103 250.5 78Q293 53 355 53Q376 53 399 54Q422 55 444 57.5Q466 60 485 64.5Q504 69 517 75V180H390V240H517V331H360V394H585V240H665V180H585V31Q547 13 490.5 1.5Q434 -10 355 -10Z" glyph-name="Gstroke" horiz-adv-x="680" unicode="&#484;" /><glyph d="M355 -10Q271 -10 214.5 20Q158 50 123.5 102.5Q89 155 74.5 225Q60 295 60 375Q60 455 74.5 525Q89 595 123.5 647.5Q158 700 214.5 730Q271 760 355 760Q433 760 483.5 747Q534 734 565 718V650Q536 662 511 671Q486 680 461.5 685.5Q437 691 411 694Q385 697 355 697Q293 697 250.5 672Q208 647 182 603.5Q156 560 144 501.5Q132 443 132 375Q132 307 144 248.5Q156 190 182 146.5Q208 103 250.5 78Q293 53 355 53Q376 53 399 54Q422 55 444 57.5Q466 60 485 64.5Q504 69 517 75V331H360V394H585V31Q547 13 490.5 1.5Q434 -10 355 -10ZM406 849Q423 849 432.5 854Q442 859 447 867Q452 875 453.5 883.5Q455 892 455 900H511Q515 847 485.5 818.5Q456 790 402 790Q375 790 355.5 799.5Q336 809 319.5 820.5Q303 832 288 841.5Q273 851 254 851Q237 851 227.5 846Q218 841 213 833Q208 825 206.5 816Q205 807 205 800H149Q145 853 174.5 881.5Q204 910 258 910Q285 910 304.5 900.5Q324 891 340.5 879.5Q357 868 372 858.5Q387 849 406 849Z" glyph-name="Gtilde" horiz-adv-x="660" unicode="&#57350;" /><glyph d="M517 0V359H143V0H75V750H143V422H517V750H585V0Z" glyph-name="H" horiz-adv-x="660" unicode="H" /><glyph d="M517 0V359H143V0H75V750H143V606H517V750H585V0ZM517 422V543H143V422Z" glyph-name="Hbar" horiz-adv-x="660" unicode="&#294;" /><glyph d="M517 0V359H143V0H75V750H143V422H517V750H585V0ZM231 900 330 844 429 900H485L370 800H290L175 900Z" glyph-name="Hcaron" horiz-adv-x="660" unicode="&#57352;" /><glyph d="M517 0V359H143V0H75V750H143V422H517V750H585V0ZM429 800 330 856 231 800H175L290 900H370L485 800Z" glyph-name="Hcircumflex" horiz-adv-x="660" unicode="&#292;" /><glyph d="M517 0V359H143V0H75V750H143V422H517V750H585V0ZM280 -150Q280 -129 294.5 -114.5Q309 -100 330 -100Q351 -100 365.5 -114.5Q380 -129 380 -150Q380 -171 365.5 -185.5Q351 -200 330 -200Q309 -200 294.5 -185.5Q280 -171 280 -150Z" glyph-name="Hdotbelow" horiz-adv-x="660" unicode="&#7716;" /><glyph d="M517 0V359H143V0H75V750H143V422H517V750H585V0ZM467 -180H193V-120H467Z" glyph-name="Hmacronbelow" horiz-adv-x="660" unicode="&#57353;" /><glyph d="M95 0V750H165V0Z" glyph-name="I" horiz-adv-x="260" unicode="I" /><glyph d="M95 0V750H165V0ZM295 61Q313 56 327.5 54.5Q342 53 365 53Q414 53 444 71Q474 89 474 138V750H544V140Q544 68 501.5 29Q459 -10 365 -10Q349 -10 329.5 -8.5Q310 -7 295 -3Z" glyph-name="IJ" horiz-adv-x="639" unicode="&#306;" /><glyph d="M95 0V750H165V0ZM105 800 155 900H245L155 800Z" glyph-name="Iacute" horiz-adv-x="260" unicode="&#205;" /><glyph d="M95 0V750H165V0ZM130 790Q-11 790 -15 900H36Q38 869 62.5 857Q87 845 130 845Q173 845 197.5 857Q222 869 224 900H275Q271 790 130 790Z" glyph-name="Ibreve" horiz-adv-x="260" unicode="&#300;" /><glyph d="M95 0V750H165V0ZM31 900 130 844 229 900H285L170 800H90L-25 900Z" glyph-name="Icaron" horiz-adv-x="260" unicode="&#463;" /><glyph d="M95 0V750H165V0ZM229 800 130 856 31 800H-25L90 900H170L285 800Z" glyph-name="Icircumflex" horiz-adv-x="260" unicode="&#206;" /><glyph d="M95 0V750H165V0ZM5 850Q5 871 19.5 885.5Q34 900 55 900Q76 900 90.5 885.5Q105 871 105 850Q105 829 90.5 814.5Q76 800 55 800Q34 800 19.5 814.5Q5 829 5 850ZM155 850Q155 871 169.5 885.5Q184 900 205 900Q226 900 240.5 885.5Q255 871 255 850Q255 829 240.5 814.5Q226 800 205 800Q184 800 169.5 814.5Q155 829 155 850Z" glyph-name="Idieresis" horiz-adv-x="260" unicode="&#207;" /><glyph d="M95 0V750H165V0ZM80 850Q80 871 94.5 885.5Q109 900 130 900Q151 900 165.5 885.5Q180 871 180 850Q180 829 165.5 814.5Q151 800 130 800Q109 800 94.5 814.5Q80 829 80 850Z" glyph-name="Idotaccent" horiz-adv-x="260" unicode="&#304;" /><glyph d="M95 0V750H165V0ZM80 -150Q80 -129 94.5 -114.5Q109 -100 130 -100Q151 -100 165.5 -114.5Q180 -129 180 -150Q180 -171 165.5 -185.5Q151 -200 130 -200Q109 -200 94.5 -185.5Q80 -171 80 -150Z" glyph-name="Idotbelow" horiz-adv-x="260" unicode="&#7882;" /><glyph d="M95 0V750H165V0ZM165 800 75 900H165L215 800ZM45 800 -45 900H45L95 800Z" glyph-name="Idoublegrave" horiz-adv-x="260" unicode="&#57355;" /><glyph d="M95 0V750H165V0ZM105 800 15 900H105L155 800Z" glyph-name="Igrave" horiz-adv-x="260" unicode="&#204;" /><glyph d="M95 0V750H165V0ZM130 910Q271 910 275 800H224Q222 831 197.5 843Q173 855 130 855Q87 855 62.5 843Q38 831 36 800H-15Q-11 910 130 910Z" glyph-name="Iinvertedbreve" horiz-adv-x="260" unicode="&#522;" /><glyph d="M95 0V750H165V0ZM-7 880H267V820H-7Z" glyph-name="Imacron" horiz-adv-x="260" unicode="&#57354;" /><glyph d="M165 0Q116 -35 97.5 -69Q79 -103 79 -142Q79 -165 91.5 -182Q104 -199 133 -199Q150 -199 164.5 -196.5Q179 -194 190 -191V-239Q177 -244 159 -247Q141 -250 119 -250Q74 -250 46 -225Q18 -200 18 -155Q18 -110 35 -71Q52 -32 95 1V750H165V0Z" glyph-name="Iogonek" horiz-adv-x="260" unicode="&#302;" /><glyph d="M95 0V750H165V0ZM206 849Q223 849 232.5 854Q242 859 247 867Q252 875 253.5 883.5Q255 892 255 900H311Q315 847 285.5 818.5Q256 790 202 790Q175 790 155.5 799.5Q136 809 119.5 820.5Q103 832 88 841.5Q73 851 54 851Q37 851 27.5 846Q18 841 13 833Q8 825 6.5 816Q5 807 5 800H-51Q-55 853 -25.5 881.5Q4 910 58 910Q85 910 104.5 900.5Q124 891 140.5 879.5Q157 868 172 858.5Q187 849 206 849Z" glyph-name="Itilde" horiz-adv-x="260" unicode="&#296;" /><glyph d="M35 61Q53 56 67.5 54.5Q82 53 105 53Q154 53 184 71Q214 89 214 138V750H284V140Q284 68 241.5 29Q199 -10 105 -10Q89 -10 69.5 -8.5Q50 -7 35 -3Z" glyph-name="J" horiz-adv-x="379" unicode="J" /><glyph d="M35 61Q53 56 67.5 54.5Q82 53 105 53Q154 53 184 71Q214 89 214 138V750H284V140Q284 68 241.5 29Q199 -10 105 -10Q89 -10 69.5 -8.5Q50 -7 35 -3ZM150 900 249 844 348 900H404L289 800H209L94 900Z" glyph-name="Jcaron" horiz-adv-x="379" unicode="&#57356;" /><glyph d="M35 61Q53 56 67.5 54.5Q82 53 105 53Q154 53 184 71Q214 89 214 138V750H284V140Q284 68 241.5 29Q199 -10 105 -10Q89 -10 69.5 -8.5Q50 -7 35 -3ZM348 800 249 856 150 800H94L209 900H289L404 800Z" glyph-name="Jcircumflex" horiz-adv-x="379" unicode="&#308;" /><glyph d="M208 363 143 288V0H75V750H143V376L456 750H544L252 414L574 0H485Z" glyph-name="K" horiz-adv-x="595" unicode="K" /><glyph d="M143 288V0H75V750H143V376L456 750H544L252 414L574 0H485L208 363ZM191 900 290 844 389 900H445L330 800H250L135 900Z" glyph-name="Kcaron" horiz-adv-x="595" unicode="&#488;" /><glyph d="M143 288V0H75V750H143V376L456 750H544L252 414L574 0H485L208 363ZM265 -50Q336 -58 373 -87Q410 -116 410 -161Q410 -202 381 -226Q352 -250 299 -250Q258 -250 235.5 -243.5Q213 -237 205 -232V-186Q216 -190 228 -193Q239 -195 252.5 -197Q266 -199 282 -199Q313 -199 331 -190.5Q349 -182 349 -163Q349 -147 341.5 -135Q334 -123 322 -115Q310 -107 294 -102Q278 -97 260 -95Z" glyph-name="Kcedilla" horiz-adv-x="595" unicode="&#57357;" /><glyph d="M143 288V0H75V750H143V376L456 750H544L252 414L574 0H485L208 363ZM353 -50 285 -250H235L261 -50Z" glyph-name="Kcommaaccent" horiz-adv-x="595" unicode="&#310;" /><glyph d="M75 750H143V389Q168 403 195 428.5Q222 454 245 496Q267 538 293.5 584Q320 630 353.5 667.5Q387 705 429 728.5Q471 752 524 750V681Q482 682 451 662.5Q420 643 395.5 611.5Q371 580 349.5 539.5Q328 499 305 458Q296 442 285 428Q274 414 262 401L574 0H485L211 359Q191 344 175.5 334Q160 324 143 316V0H75Z" glyph-name="Khook" horiz-adv-x="593" unicode="&#408;" /><glyph d="M143 63H490V0H75V750H143Z" glyph-name="L" horiz-adv-x="530" unicode="L" /><glyph d="M143 63H490V0H75V750H143ZM84 800 134 900H224L134 800Z" glyph-name="Lacute" horiz-adv-x="530" unicode="&#313;" /><glyph d="M143 63H490V0H75V750H143ZM317 750 269 550H223L239 750Z" glyph-name="Lcaron" horiz-adv-x="530" unicode="&#317;" /><glyph d="M143 63H490V0H75V750H143ZM245 -50Q316 -58 353 -87Q390 -116 390 -161Q390 -202 361 -226Q332 -250 279 -250Q238 -250 215.5 -243.5Q193 -237 185 -232V-186Q196 -190 208 -193Q219 -195 232.5 -197Q246 -199 262 -199Q293 -199 311 -190.5Q329 -182 329 -163Q329 -147 321.5 -135Q314 -123 302 -115Q290 -107 274 -102Q258 -97 240 -95Z" glyph-name="Lcedilla" horiz-adv-x="530" unicode="&#57358;" /><glyph d="M143 63H490V0H75V750H143ZM338 -50 270 -250H220L246 -50Z" glyph-name="Lcommaaccent" horiz-adv-x="530" unicode="&#315;" /><glyph d="M143 63H490V0H75V750H143ZM324 375Q324 396 338.5 410.5Q353 425 374 425Q395 425 409.5 410.5Q424 396 424 375Q424 354 409.5 339.5Q395 325 374 325Q353 325 338.5 339.5Q324 354 324 375Z" glyph-name="Ldot" horiz-adv-x="530" unicode="&#319;" /><glyph d="M143 63H490V0H75V750H143ZM235 -150Q235 -129 249.5 -114.5Q264 -100 285 -100Q306 -100 320.5 -114.5Q335 -129 335 -150Q335 -171 320.5 -185.5Q306 -200 285 -200Q264 -200 249.5 -185.5Q235 -171 235 -150Z" glyph-name="Ldotbelow" horiz-adv-x="530" unicode="&#7734;" /><glyph d="M143 63H490V0H75V750H143ZM-28 880H246V820H-28ZM235 -150Q235 -129 249.5 -114.5Q264 -100 285 -100Q306 -100 320.5 -114.5Q335 -129 335 -150Q335 -171 320.5 -185.5Q306 -200 285 -200Q264 -200 249.5 -185.5Q235 -171 235 -150Z" glyph-name="Ldotbelowmacron" horiz-adv-x="530" unicode="&#7736;" /><glyph d="M171 383 380 510V449L171 322V63H518V0H103V280L5 221V282L103 341V750H171Z" glyph-name="Lslash" horiz-adv-x="560" unicode="&#321;" /><glyph d="M448 115H392L139 661L143 0H75V750H167L420 198L673 750H765V0H697L701 661Z" glyph-name="M" horiz-adv-x="840" unicode="M" /><glyph d="M448 115H392L139 661L143 0H75V750H167L420 198L673 750H765V0H697L701 661ZM385 -50Q456 -58 493 -87Q530 -116 530 -161Q530 -202 501 -226Q472 -250 419 -250Q378 -250 355.5 -243.5Q333 -237 325 -232V-186Q336 -190 348 -193Q359 -195 372.5 -197Q386 -199 402 -199Q433 -199 451 -190.5Q469 -182 469 -163Q469 -147 461.5 -135Q454 -123 442 -115Q430 -107 414 -102Q398 -97 380 -95Z" glyph-name="Mcedilla" horiz-adv-x="840" unicode="&#57360;" /><glyph d="M448 115H392L139 661L143 0H75V750H167L420 198L673 750H765V0H697L701 661ZM370 -150Q370 -129 384.5 -114.5Q399 -100 420 -100Q441 -100 455.5 -114.5Q470 -129 470 -150Q470 -171 455.5 -185.5Q441 -200 420 -200Q399 -200 384.5 -185.5Q370 -171 370 -150Z" glyph-name="Mdotbelow" horiz-adv-x="840" unicode="&#7746;" /><glyph d="M448 115H392L139 661L143 0H75V750H167L420 198L673 750H765V0H697L701 661ZM283 880H557V820H283Z" glyph-name="Mmacron" horiz-adv-x="840" unicode="&#57359;" /><glyph d="M544 0 141 611 143 0H75V750H126L529 139L527 750H595V0Z" glyph-name="N" horiz-adv-x="670" unicode="N" /><glyph d="M544 0 141 611 143 0H75V750H126L529 139L527 750H595V0ZM310 800 360 900H450L360 800Z" glyph-name="Nacute" horiz-adv-x="670" unicode="&#323;" /><glyph d="M544 0 141 611 143 0H75V750H126L529 139L527 750H595V0ZM236 900 335 844 434 900H490L375 800H295L180 900Z" glyph-name="Ncaron" horiz-adv-x="670" unicode="&#327;" /><glyph d="M544 0 141 611 143 0H75V750H126L529 139L527 750H595V0ZM300 -50Q371 -58 408 -87Q445 -116 445 -161Q445 -202 416 -226Q387 -250 334 -250Q293 -250 270.5 -243.5Q248 -237 240 -232V-186Q251 -190 263 -193Q274 -195 287.5 -197Q301 -199 317 -199Q348 -199 366 -190.5Q384 -182 384 -163Q384 -147 376.5 -135Q369 -123 357 -115Q345 -107 329 -102Q313 -97 295 -95Z" glyph-name="Ncedilla" horiz-adv-x="670" unicode="&#57364;" /><glyph d="M544 0 141 611 143 0H75V750H126L529 139L527 750H595V0ZM388 -50 320 -250H270L296 -50Z" glyph-name="Ncommaaccent" horiz-adv-x="670" unicode="&#325;" /><glyph d="M595 0H544L141 611L143 0H75V750H126L529 139L527 750H595V63H663V-125H595Z" glyph-name="Ndescender" horiz-adv-x="670" unicode="&#57365;" /><glyph d="M544 0 141 611 143 0H75V750H126L529 139L527 750H595V0ZM190 850Q190 871 204.5 885.5Q219 900 240 900Q261 900 275.5 885.5Q290 871 290 850Q290 829 275.5 814.5Q261 800 240 800Q219 800 204.5 814.5Q190 829 190 850ZM380 850Q380 871 394.5 885.5Q409 900 430 900Q451 900 465.5 885.5Q480 871 480 850Q480 829 465.5 814.5Q451 800 430 800Q409 800 394.5 814.5Q380 829 380 850Z" glyph-name="Ndieresis" horiz-adv-x="670" unicode="&#57362;" /><glyph d="M544 0 141 611 143 0H75V750H126L529 139L527 750H595V0ZM285 850Q285 871 299.5 885.5Q314 900 335 900Q356 900 370.5 885.5Q385 871 385 850Q385 829 370.5 814.5Q356 800 335 800Q314 800 299.5 814.5Q285 829 285 850Z" glyph-name="Ndotaccent" horiz-adv-x="670" unicode="&#7748;" /><glyph d="M544 0 141 611 143 0H75V750H126L529 139L527 750H595V0ZM285 -150Q285 -129 299.5 -114.5Q314 -100 335 -100Q356 -100 370.5 -114.5Q385 -129 385 -150Q385 -171 370.5 -185.5Q356 -200 335 -200Q314 -200 299.5 -185.5Q285 -171 285 -150Z" glyph-name="Ndotbelow" horiz-adv-x="670" unicode="&#7750;" /><glyph d="M544 0 141 611 143 0H75V750H126L529 139L527 750H595V0ZM310 800 220 900H310L360 800Z" glyph-name="Ngrave" horiz-adv-x="670" unicode="&#57361;" /><glyph d="M544 0 141 611 143 0H75V750H126L529 139L527 750H595V0ZM198 880H472V820H198Z" glyph-name="Nmacron" horiz-adv-x="670" unicode="&#57363;" /><glyph d="M544 0 141 611 143 0H75V750H126L529 139L527 750H595V0ZM411 849Q428 849 437.5 854Q447 859 452 867Q457 875 458.5 883.5Q460 892 460 900H516Q520 847 490.5 818.5Q461 790 407 790Q380 790 360.5 799.5Q341 809 324.5 820.5Q308 832 293 841.5Q278 851 259 851Q242 851 232.5 846Q223 841 218 833Q213 825 211.5 816Q210 807 210 800H154Q150 853 179.5 881.5Q209 910 263 910Q290 910 309.5 900.5Q329 891 345.5 879.5Q362 868 377 858.5Q392 849 411 849Z" glyph-name="Ntilde" horiz-adv-x="670" unicode="&#209;" /><glyph d="M340 53Q408 53 449 78Q490 103 512 146.5Q534 190 541 248.5Q548 307 548 375Q548 442 541 501Q534 560 512 603.5Q490 647 449 672Q408 697 340 697Q272 697 231 672Q190 647 168 603.5Q146 560 139 501Q132 442 132 375Q132 307 139 248.5Q146 190 168 146.5Q190 103 231 78Q272 53 340 53ZM340 -10Q248 -10 193 22.5Q138 55 108.5 109Q79 163 69.5 232Q60 301 60 375Q60 448 69.5 517.5Q79 587 108.5 641Q138 695 193 727.5Q248 760 340 760Q432 760 487 727.5Q542 695 571.5 641Q601 587 610.5 517.5Q620 448 620 375Q620 301 610.5 232Q601 163 571.5 109Q542 55 487 22.5Q432 -10 340 -10Z" glyph-name="O" horiz-adv-x="680" unicode="O" /><glyph d="M795 359H505V63H830V0H376Q284 0 223 28.5Q162 57 126 107.5Q90 158 75 226.5Q60 295 60 375Q60 455 75 523.5Q90 592 126 642.5Q162 693 223 721.5Q284 750 376 750H830V687H505V422H795ZM437 687H372Q304 687 258.5 663.5Q213 640 184.5 598.5Q156 557 144 499.5Q132 442 132 375Q132 307 144 250Q156 193 184.5 151.5Q213 110 258.5 86.5Q304 63 372 63H437Z" glyph-name="OE" horiz-adv-x="890" unicode="&#338;" /><glyph d="M340 53Q408 53 449 78Q490 103 512 146.5Q534 190 541 248.5Q548 307 548 375Q548 442 541 501Q534 560 512 603.5Q490 647 449 672Q408 697 340 697Q272 697 231 672Q190 647 168 603.5Q146 560 139 501Q132 442 132 375Q132 307 139 248.5Q146 190 168 146.5Q190 103 231 78Q272 53 340 53ZM340 -10Q248 -10 193 22.5Q138 55 108.5 109Q79 163 69.5 232Q60 301 60 375Q60 448 69.5 517.5Q79 587 108.5 641Q138 695 193 727.5Q248 760 340 760Q432 760 487 727.5Q542 695 571.5 641Q601 587 610.5 517.5Q620 448 620 375Q620 301 610.5 232Q601 163 571.5 109Q542 55 487 22.5Q432 -10 340 -10ZM315 800 365 900H455L365 800Z" glyph-name="Oacute" horiz-adv-x="680" unicode="&#211;" /><glyph d="M340 53Q408 53 449 78Q490 103 512 146.5Q534 190 541 248.5Q548 307 548 375Q548 442 541 501Q534 560 512 603.5Q490 647 449 672Q408 697 340 697Q272 697 231 672Q190 647 168 603.5Q146 560 139 501Q132 442 132 375Q132 307 139 248.5Q146 190 168 146.5Q190 103 231 78Q272 53 340 53ZM340 -10Q248 -10 193 22.5Q138 55 108.5 109Q79 163 69.5 232Q60 301 60 375Q60 448 69.5 517.5Q79 587 108.5 641Q138 695 193 727.5Q248 760 340 760Q432 760 487 727.5Q542 695 571.5 641Q601 587 610.5 517.5Q620 448 620 375Q620 301 610.5 232Q601 163 571.5 109Q542 55 487 22.5Q432 -10 340 -10ZM340 790Q199 790 195 900H246Q248 869 272.5 857Q297 845 340 845Q383 845 407.5 857Q432 869 434 900H485Q481 790 340 790Z" glyph-name="Obreve" horiz-adv-x="680" unicode="&#334;" /><glyph d="M340 53Q408 53 449 78Q490 103 512 146.5Q534 190 541 248.5Q548 307 548 375Q548 442 541 501Q534 560 512 603.5Q490 647 449 672Q408 697 340 697Q272 697 231 672Q190 647 168 603.5Q146 560 139 501Q132 442 132 375Q132 307 139 248.5Q146 190 168 146.5Q190 103 231 78Q272 53 340 53ZM340 -10Q248 -10 193 22.5Q138 55 108.5 109Q79 163 69.5 232Q60 301 60 375Q60 448 69.5 517.5Q79 587 108.5 641Q138 695 193 727.5Q248 760 340 760Q432 760 487 727.5Q542 695 571.5 641Q601 587 610.5 517.5Q620 448 620 375Q620 301 610.5 232Q601 163 571.5 109Q542 55 487 22.5Q432 -10 340 -10ZM241 900 340 844 439 900H495L380 800H300L185 900Z" glyph-name="Ocaron" horiz-adv-x="680" unicode="&#465;" /><glyph d="M340 53Q408 53 449 78Q490 103 512 146.5Q534 190 541 248.5Q548 307 548 375Q548 442 541 501Q534 560 512 603.5Q490 647 449 672Q408 697 340 697Q272 697 231 672Q190 647 168 603.5Q146 560 139 501Q132 442 132 375Q132 307 139 248.5Q146 190 168 146.5Q190 103 231 78Q272 53 340 53ZM340 -10Q248 -10 193 22.5Q138 55 108.5 109Q79 163 69.5 232Q60 301 60 375Q60 448 69.5 517.5Q79 587 108.5 641Q138 695 193 727.5Q248 760 340 760Q432 760 487 727.5Q542 695 571.5 641Q601 587 610.5 517.5Q620 448 620 375Q620 301 610.5 232Q601 163 571.5 109Q542 55 487 22.5Q432 -10 340 -10ZM297 -50Q368 -58 405 -87Q442 -116 442 -161Q442 -202 413 -226Q384 -250 331 -250Q290 -250 267.5 -243.5Q245 -237 237 -232V-186Q248 -190 260 -193Q271 -195 284.5 -197Q298 -199 314 -199Q345 -199 363 -190.5Q381 -182 381 -163Q381 -147 373.5 -135Q366 -123 354 -115Q342 -107 326 -102Q310 -97 292 -95Z" glyph-name="Ocedilla" horiz-adv-x="680" unicode="&#57371;" /><glyph d="M340 53Q408 53 449 78Q490 103 512 146.5Q534 190 541 248.5Q548 307 548 375Q548 442 541 501Q534 560 512 603.5Q490 647 449 672Q408 697 340 697Q272 697 231 672Q190 647 168 603.5Q146 560 139 501Q132 442 132 375Q132 307 139 248.5Q146 190 168 146.5Q190 103 231 78Q272 53 340 53ZM340 -10Q248 -10 193 22.5Q138 55 108.5 109Q79 163 69.5 232Q60 301 60 375Q60 448 69.5 517.5Q79 587 108.5 641Q138 695 193 727.5Q248 760 340 760Q432 760 487 727.5Q542 695 571.5 641Q601 587 610.5 517.5Q620 448 620 375Q620 301 610.5 232Q601 163 571.5 109Q542 55 487 22.5Q432 -10 340 -10ZM439 800 340 856 241 800H185L300 900H380L495 800Z" glyph-name="Ocircumflex" horiz-adv-x="680" unicode="&#212;" /><glyph d="M340 53Q408 53 449 78Q490 103 512 146.5Q534 190 541 248.5Q548 307 548 375Q548 442 541 501Q534 560 512 603.5Q490 647 449 672Q408 697 340 697Q272 697 231 672Q190 647 168 603.5Q146 560 139 501Q132 442 132 375Q132 307 139 248.5Q146 190 168 146.5Q190 103 231 78Q272 53 340 53ZM340 -10Q248 -10 193 22.5Q138 55 108.5 109Q79 163 69.5 232Q60 301 60 375Q60 448 69.5 517.5Q79 587 108.5 641Q138 695 193 727.5Q248 760 340 760Q432 760 487 727.5Q542 695 571.5 641Q601 587 610.5 517.5Q620 448 620 375Q620 301 610.5 232Q601 163 571.5 109Q542 55 487 22.5Q432 -10 340 -10ZM410 900 385 800H295L360 900Z" glyph-name="Ocommaturnedabove" horiz-adv-x="680" unicode="&#57367;" /><glyph d="M340 53Q408 53 449 78Q490 103 512 146.5Q534 190 541 248.5Q548 307 548 375Q548 442 541 501Q534 560 512 603.5Q490 647 449 672Q408 697 340 697Q272 697 231 672Q190 647 168 603.5Q146 560 139 501Q132 442 132 375Q132 307 139 248.5Q146 190 168 146.5Q190 103 231 78Q272 53 340 53ZM340 -10Q248 -10 193 22.5Q138 55 108.5 109Q79 163 69.5 232Q60 301 60 375Q60 448 69.5 517.5Q79 587 108.5 641Q138 695 193 727.5Q248 760 340 760Q432 760 487 727.5Q542 695 571.5 641Q601 587 610.5 517.5Q620 448 620 375Q620 301 610.5 232Q601 163 571.5 109Q542 55 487 22.5Q432 -10 340 -10ZM195 850Q195 871 209.5 885.5Q224 900 245 900Q266 900 280.5 885.5Q295 871 295 850Q295 829 280.5 814.5Q266 800 245 800Q224 800 209.5 814.5Q195 829 195 850ZM385 850Q385 871 399.5 885.5Q414 900 435 900Q456 900 470.5 885.5Q485 871 485 850Q485 829 470.5 814.5Q456 800 435 800Q414 800 399.5 814.5Q385 829 385 850Z" glyph-name="Odieresis" horiz-adv-x="680" unicode="&#214;" /><glyph d="M340 53Q408 53 449 78Q490 103 512 146.5Q534 190 541 248.5Q548 307 548 375Q548 442 541 501Q534 560 512 603.5Q490 647 449 672Q408 697 340 697Q272 697 231 672Q190 647 168 603.5Q146 560 139 501Q132 442 132 375Q132 307 139 248.5Q146 190 168 146.5Q190 103 231 78Q272 53 340 53ZM340 -10Q248 -10 193 22.5Q138 55 108.5 109Q79 163 69.5 232Q60 301 60 375Q60 448 69.5 517.5Q79 587 108.5 641Q138 695 193 727.5Q248 760 340 760Q432 760 487 727.5Q542 695 571.5 641Q601 587 610.5 517.5Q620 448 620 375Q620 301 610.5 232Q601 163 571.5 109Q542 55 487 22.5Q432 -10 340 -10ZM290 850Q290 871 304.5 885.5Q319 900 340 900Q361 900 375.5 885.5Q390 871 390 850Q390 829 375.5 814.5Q361 800 340 800Q319 800 304.5 814.5Q290 829 290 850Z" glyph-name="Odotabove" horiz-adv-x="680" unicode="&#57369;" /><glyph d="M340 53Q408 53 449 78Q490 103 512 146.5Q534 190 541 248.5Q548 307 548 375Q548 442 541 501Q534 560 512 603.5Q490 647 449 672Q408 697 340 697Q272 697 231 672Q190 647 168 603.5Q146 560 139 501Q132 442 132 375Q132 307 139 248.5Q146 190 168 146.5Q190 103 231 78Q272 53 340 53ZM340 -10Q248 -10 193 22.5Q138 55 108.5 109Q79 163 69.5 232Q60 301 60 375Q60 448 69.5 517.5Q79 587 108.5 641Q138 695 193 727.5Q248 760 340 760Q432 760 487 727.5Q542 695 571.5 641Q601 587 610.5 517.5Q620 448 620 375Q620 301 610.5 232Q601 163 571.5 109Q542 55 487 22.5Q432 -10 340 -10ZM203 995H477V935H203ZM290 850Q290 871 304.5 885.5Q319 900 340 900Q361 900 375.5 885.5Q390 871 390 850Q390 829 375.5 814.5Q361 800 340 800Q319 800 304.5 814.5Q290 829 290 850Z" glyph-name="Odotabovemacron" horiz-adv-x="680" unicode="&#57370;" /><glyph d="M340 53Q408 53 449 78Q490 103 512 146.5Q534 190 541 248.5Q548 307 548 375Q548 442 541 501Q534 560 512 603.5Q490 647 449 672Q408 697 340 697Q272 697 231 672Q190 647 168 603.5Q146 560 139 501Q132 442 132 375Q132 307 139 248.5Q146 190 168 146.5Q190 103 231 78Q272 53 340 53ZM340 -10Q248 -10 193 22.5Q138 55 108.5 109Q79 163 69.5 232Q60 301 60 375Q60 448 69.5 517.5Q79 587 108.5 641Q138 695 193 727.5Q248 760 340 760Q432 760 487 727.5Q542 695 571.5 641Q601 587 610.5 517.5Q620 448 620 375Q620 301 610.5 232Q601 163 571.5 109Q542 55 487 22.5Q432 -10 340 -10ZM290 -150Q290 -129 304.5 -114.5Q319 -100 340 -100Q361 -100 375.5 -114.5Q390 -129 390 -150Q390 -171 375.5 -185.5Q361 -200 340 -200Q319 -200 304.5 -185.5Q290 -171 290 -150Z" glyph-name="Odotbelow" horiz-adv-x="680" unicode="&#7884;" /><glyph d="M340 53Q408 53 449 78Q490 103 512 146.5Q534 190 541 248.5Q548 307 548 375Q548 442 541 501Q534 560 512 603.5Q490 647 449 672Q408 697 340 697Q272 697 231 672Q190 647 168 603.5Q146 560 139 501Q132 442 132 375Q132 307 139 248.5Q146 190 168 146.5Q190 103 231 78Q272 53 340 53ZM340 -10Q248 -10 193 22.5Q138 55 108.5 109Q79 163 69.5 232Q60 301 60 375Q60 448 69.5 517.5Q79 587 108.5 641Q138 695 193 727.5Q248 760 340 760Q432 760 487 727.5Q542 695 571.5 641Q601 587 610.5 517.5Q620 448 620 375Q620 301 610.5 232Q601 163 571.5 109Q542 55 487 22.5Q432 -10 340 -10ZM375 800 285 900H375L425 800ZM255 800 165 900H255L305 800Z" glyph-name="Odoublegrave" horiz-adv-x="680" unicode="&#57366;" /><glyph d="M340 53Q408 53 449 78Q490 103 512 146.5Q534 190 541 248.5Q548 307 548 375Q548 442 541 501Q534 560 512 603.5Q490 647 449 672Q408 697 340 697Q272 697 231 672Q190 647 168 603.5Q146 560 139 501Q132 442 132 375Q132 307 139 248.5Q146 190 168 146.5Q190 103 231 78Q272 53 340 53ZM340 -10Q248 -10 193 22.5Q138 55 108.5 109Q79 163 69.5 232Q60 301 60 375Q60 448 69.5 517.5Q79 587 108.5 641Q138 695 193 727.5Q248 760 340 760Q432 760 487 727.5Q542 695 571.5 641Q601 587 610.5 517.5Q620 448 620 375Q620 301 610.5 232Q601 163 571.5 109Q542 55 487 22.5Q432 -10 340 -10ZM315 800 225 900H315L365 800Z" glyph-name="Ograve" horiz-adv-x="680" unicode="&#210;" /><glyph d="M340 53Q408 53 449 78Q490 103 512 146.5Q534 190 541 248.5Q548 307 548 375Q548 442 541 501Q534 560 512 603.5Q490 647 449 672Q408 697 340 697Q272 697 231 672Q190 647 168 603.5Q146 560 139 501Q132 442 132 375Q132 307 139 248.5Q146 190 168 146.5Q190 103 231 78Q272 53 340 53ZM340 -10Q248 -10 193 22.5Q138 55 108.5 109Q79 163 69.5 232Q60 301 60 375Q60 448 69.5 517.5Q79 587 108.5 641Q138 695 193 727.5Q248 760 340 760Q432 760 487 727.5Q542 695 571.5 641Q601 587 610.5 517.5Q620 448 620 375Q620 301 610.5 232Q601 163 571.5 109Q542 55 487 22.5Q432 -10 340 -10ZM255 800 305 900H395L305 800ZM375 800 425 900H515L425 800Z" glyph-name="Ohungarumlaut" horiz-adv-x="680" unicode="&#336;" /><glyph d="M340 53Q408 53 449 78Q490 103 512 146.5Q534 190 541 248.5Q548 307 548 375Q548 442 541 501Q534 560 512 603.5Q490 647 449 672Q408 697 340 697Q272 697 231 672Q190 647 168 603.5Q146 560 139 501Q132 442 132 375Q132 307 139 248.5Q146 190 168 146.5Q190 103 231 78Q272 53 340 53ZM340 -10Q248 -10 193 22.5Q138 55 108.5 109Q79 163 69.5 232Q60 301 60 375Q60 448 69.5 517.5Q79 587 108.5 641Q138 695 193 727.5Q248 760 340 760Q432 760 487 727.5Q542 695 571.5 641Q601 587 610.5 517.5Q620 448 620 375Q620 301 610.5 232Q601 163 571.5 109Q542 55 487 22.5Q432 -10 340 -10ZM340 910Q481 910 485 800H434Q432 831 407.5 843Q383 855 340 855Q297 855 272.5 843Q248 831 246 800H195Q199 910 340 910Z" glyph-name="Oinvertedbreve" horiz-adv-x="680" unicode="&#526;" /><glyph d="M340 53Q408 53 449 78Q490 103 512 146.5Q534 190 541 248.5Q548 307 548 375Q548 442 541 501Q534 560 512 603.5Q490 647 449 672Q408 697 340 697Q272 697 231 672Q190 647 168 603.5Q146 560 139 501Q132 442 132 375Q132 307 139 248.5Q146 190 168 146.5Q190 103 231 78Q272 53 340 53ZM340 -10Q248 -10 193 22.5Q138 55 108.5 109Q79 163 69.5 232Q60 301 60 375Q60 448 69.5 517.5Q79 587 108.5 641Q138 695 193 727.5Q248 760 340 760Q432 760 487 727.5Q542 695 571.5 641Q601 587 610.5 517.5Q620 448 620 375Q620 301 610.5 232Q601 163 571.5 109Q542 55 487 22.5Q432 -10 340 -10ZM203 880H477V820H203Z" glyph-name="Omacron" horiz-adv-x="680" unicode="&#332;" /><glyph d="M620 375Q620 311 613 250.5Q606 190 585.5 139.5Q565 89 527.5 52Q490 15 428 0Q379 -27 350.5 -65Q322 -103 322 -142Q322 -165 334.5 -182Q347 -199 376 -199Q393 -199 407.5 -196.5Q422 -194 433 -191V-239Q420 -244 402 -247Q384 -250 362 -250Q317 -250 289 -225Q261 -200 261 -155Q261 -115 280 -77.5Q299 -40 336 -10Q245 -9 190.5 23.5Q136 56 107 110Q78 164 69 233Q60 302 60 375Q60 448 69.5 517.5Q79 587 108.5 641Q138 695 193 727.5Q248 760 340 760Q432 760 487 727.5Q542 695 571.5 641Q601 587 610.5 517.5Q620 448 620 375ZM340 53Q408 53 449 78Q490 103 512 146.5Q534 190 541 248.5Q548 307 548 375Q548 442 541 501Q534 560 512 603.5Q490 647 449 672Q408 697 340 697Q272 697 231 672Q190 647 168 603.5Q146 560 139 501Q132 442 132 375Q132 307 139 248.5Q146 190 168 146.5Q190 103 231 78Q272 53 340 53Z" glyph-name="Oogonek" horiz-adv-x="680" unicode="&#490;" /><glyph d="M620 375Q620 311 613 250.5Q606 190 585.5 139.5Q565 89 527.5 52Q490 15 428 0Q379 -27 350.5 -65Q322 -103 322 -142Q322 -165 334.5 -182Q347 -199 376 -199Q393 -199 407.5 -196.5Q422 -194 433 -191V-239Q420 -244 402 -247Q384 -250 362 -250Q317 -250 289 -225Q261 -200 261 -155Q261 -115 280 -77.5Q299 -40 336 -10Q245 -9 190.5 23.5Q136 56 107 110Q78 164 69 233Q60 302 60 375Q60 448 69.5 517.5Q79 587 108.5 641Q138 695 193 727.5Q248 760 340 760Q432 760 487 727.5Q542 695 571.5 641Q601 587 610.5 517.5Q620 448 620 375ZM340 53Q408 53 449 78Q490 103 512 146.5Q534 190 541 248.5Q548 307 548 375Q548 442 541 501Q534 560 512 603.5Q490 647 449 672Q408 697 340 697Q272 697 231 672Q190 647 168 603.5Q146 560 139 501Q132 442 132 375Q132 307 139 248.5Q146 190 168 146.5Q190 103 231 78Q272 53 340 53ZM203 880H477V820H203Z" glyph-name="Oogonekmacron" horiz-adv-x="680" unicode="&#492;" /><glyph d="M340 -10Q282 -10 240 3Q198 16 167 39L143 0H80L128 78Q107 106 93.5 140Q80 174 72.5 212Q65 250 62.5 291.5Q60 333 60 375Q60 448 69.5 517.5Q79 587 108.5 641Q138 695 193 727.5Q248 760 340 760Q397 760 439.5 746.5Q482 733 513 710L537 750H600L552 671Q573 644 586 610Q599 576 606.5 537.5Q614 499 617 458Q620 417 620 375Q620 301 610.5 232Q601 163 571.5 109Q542 55 487 22.5Q432 -10 340 -10ZM340 53Q408 53 449 78Q490 103 512 146.5Q534 190 541 248.5Q548 307 548 375Q548 443 541 501.5Q534 560 511 604L203 98Q226 76 259.5 64.5Q293 53 340 53ZM132 375Q132 306 138.5 247.5Q145 189 168 145L477 651Q454 673 420.5 685Q387 697 340 697Q272 697 231 672Q190 647 168 603.5Q146 560 139 501Q132 442 132 375Z" glyph-name="Oslash" horiz-adv-x="660" unicode="&#216;" /><glyph d="M340 -10Q282 -10 240 3Q198 16 167 39L143 0H80L128 78Q107 106 93.5 140Q80 174 72.5 212Q65 250 62.5 291.5Q60 333 60 375Q60 448 69.5 517.5Q79 587 108.5 641Q138 695 193 727.5Q248 760 340 760Q397 760 439.5 746.5Q482 733 513 710L537 750H600L552 671Q573 644 586 610Q599 576 606.5 537.5Q614 499 617 458Q620 417 620 375Q620 301 610.5 232Q601 163 571.5 109Q542 55 487 22.5Q432 -10 340 -10ZM340 53Q408 53 449 78Q490 103 512 146.5Q534 190 541 248.5Q548 307 548 375Q548 443 541 501.5Q534 560 511 604L203 98Q226 76 259.5 64.5Q293 53 340 53ZM132 375Q132 306 138.5 247.5Q145 189 168 145L477 651Q454 673 420.5 685Q387 697 340 697Q272 697 231 672Q190 647 168 603.5Q146 560 139 501Q132 442 132 375ZM315 800 365 900H465L365 800Z" glyph-name="Oslashacute" horiz-adv-x="660" unicode="&#510;" /><glyph d="M340 53Q408 53 449 78Q490 103 512 146.5Q534 190 541 248.5Q548 307 548 375Q548 442 541 501Q534 560 512 603.5Q490 647 449 672Q408 697 340 697Q272 697 231 672Q190 647 168 603.5Q146 560 139 501Q132 442 132 375Q132 307 139 248.5Q146 190 168 146.5Q190 103 231 78Q272 53 340 53ZM340 -10Q248 -10 193 22.5Q138 55 108.5 109Q79 163 69.5 232Q60 301 60 375Q60 448 69.5 517.5Q79 587 108.5 641Q138 695 193 727.5Q248 760 340 760Q432 760 487 727.5Q542 695 571.5 641Q601 587 610.5 517.5Q620 448 620 375Q620 301 610.5 232Q601 163 571.5 109Q542 55 487 22.5Q432 -10 340 -10ZM416 849Q433 849 442.5 854Q452 859 457 867Q462 875 463.5 883.5Q465 892 465 900H521Q525 847 495.5 818.5Q466 790 412 790Q385 790 365.5 799.5Q346 809 329.5 820.5Q313 832 298 841.5Q283 851 264 851Q247 851 237.5 846Q228 841 223 833Q218 825 216.5 816Q215 807 215 800H159Q155 853 184.5 881.5Q214 910 268 910Q295 910 314.5 900.5Q334 891 350.5 879.5Q367 868 382 858.5Q397 849 416 849Z" glyph-name="Otilde" horiz-adv-x="680" unicode="&#213;" /><glyph d="M340 53Q408 53 449 78Q490 103 512 146.5Q534 190 541 248.5Q548 307 548 375Q548 442 541 501Q534 560 512 603.5Q490 647 449 672Q408 697 340 697Q272 697 231 672Q190 647 168 603.5Q146 560 139 501Q132 442 132 375Q132 307 139 248.5Q146 190 168 146.5Q190 103 231 78Q272 53 340 53ZM340 -10Q248 -10 193 22.5Q138 55 108.5 109Q79 163 69.5 232Q60 301 60 375Q60 448 69.5 517.5Q79 587 108.5 641Q138 695 193 727.5Q248 760 340 760Q432 760 487 727.5Q542 695 571.5 641Q601 587 610.5 517.5Q620 448 620 375Q620 301 610.5 232Q601 163 571.5 109Q542 55 487 22.5Q432 -10 340 -10ZM416 849Q433 849 442.5 854Q452 859 457 867Q462 875 463.5 883.5Q465 892 465 900H521Q525 847 495.5 818.5Q466 790 412 790Q385 790 365.5 799.5Q346 809 329.5 820.5Q313 832 298 841.5Q283 851 264 851Q247 851 237.5 846Q228 841 223 833Q218 825 216.5 816Q215 807 215 800H159Q155 853 184.5 881.5Q214 910 268 910Q295 910 314.5 900.5Q334 891 350.5 879.5Q367 868 382 858.5Q397 849 416 849ZM203 995H477V935H203Z" glyph-name="Otildemacron" horiz-adv-x="680" unicode="&#57368;" /><glyph d="M340 53Q408 53 449 78Q490 103 512 146.5Q534 190 541 248.5Q548 307 548 375Q548 442 541 501Q534 560 512 603.5Q490 647 449 672Q408 697 340 697Q272 697 231 672Q190 647 168 603.5Q146 560 139 501Q132 442 132 375Q132 307 139 248.5Q146 190 168 146.5Q190 103 231 78Q272 53 340 53ZM340 -10Q248 -10 193 22.5Q138 55 108.5 109Q79 163 69.5 232Q60 301 60 375Q60 448 69.5 517.5Q79 587 108.5 641Q138 695 193 727.5Q248 760 340 760Q432 760 487 727.5Q542 695 571.5 641Q601 587 610.5 517.5Q620 448 620 375Q620 301 610.5 232Q601 163 571.5 109Q542 55 487 22.5Q432 -10 340 -10ZM370 -50V-250H310V-50Z" glyph-name="Ounderlineaccent" horiz-adv-x="680" unicode="&#57372;" /><glyph d="M143 0H75V750H304Q374 750 422 731.5Q470 713 499.5 681.5Q529 650 542 609.5Q555 569 555 525Q555 481 542 440.5Q529 400 499.5 368.5Q470 337 422 318.5Q374 300 304 300H143ZM143 363H313Q366 363 399 378Q432 393 450 417Q468 441 474.5 469.5Q481 498 481 525Q481 552 474.5 580.5Q468 609 450 633Q432 657 399 672Q366 687 313 687H143Z" glyph-name="P" horiz-adv-x="590" unicode="P" /><glyph d="M143 0H75V750H304Q374 750 422 731.5Q470 713 499.5 681.5Q529 650 542 609.5Q555 569 555 525Q555 481 542 440.5Q529 400 499.5 368.5Q470 337 422 318.5Q374 300 304 300H143ZM143 363H313Q366 363 399 378Q432 393 450 417Q468 441 474.5 469.5Q481 498 481 525Q481 552 474.5 580.5Q468 609 450 633Q432 657 399 672Q366 687 313 687H143ZM158 880H432V820H158Z" glyph-name="Pmacron" horiz-adv-x="590" unicode="&#57374;" /><glyph d="M423 6 710 -52V-124L248 0Q186 16 149 52.5Q112 89 92.5 139Q73 189 66.5 249.5Q60 310 60 375Q60 455 70 525.5Q80 596 110 648Q140 700 195 730Q250 760 340 760Q431 760 486 730Q541 700 571 648Q601 596 610.5 525.5Q620 455 620 375Q620 305 614 243.5Q608 182 587.5 134Q567 86 528 53Q489 20 423 7ZM340 53Q408 53 449 78Q490 103 512 146.5Q534 190 541 248.5Q548 307 548 375Q548 442 541 501Q534 560 512 603.5Q490 647 449 672Q408 697 340 697Q272 697 231 672Q190 647 168 603.5Q146 560 139 501Q132 442 132 375Q132 307 139 248.5Q146 190 168 146.5Q190 103 231 78Q272 53 340 53Z" glyph-name="Q" horiz-adv-x="680" unicode="Q" /><glyph d="M143 0H75V750H310Q380 750 427 735Q474 720 502.5 692.5Q531 665 543 626Q555 587 555 539Q555 464 524.5 412Q494 360 417 340L596 0H517L349 329Q341 328 332.5 328Q324 328 316 328H143ZM143 391H328Q378 391 408 403Q438 415 454.5 435Q471 455 476 482Q481 509 481 539Q481 569 476 596Q471 623 454.5 643Q438 663 408 675Q378 687 328 687H143Z" glyph-name="R" horiz-adv-x="621" unicode="R" /><glyph d="M143 0H75V750H310Q380 750 427 735Q474 720 502.5 692.5Q531 665 543 626Q555 587 555 539Q555 464 524.5 412Q494 360 417 340L596 0H517L349 329Q341 328 332.5 328Q324 328 316 328H143ZM143 391H328Q378 391 408 403Q438 415 454.5 435Q471 455 476 482Q481 509 481 539Q481 569 476 596Q471 623 454.5 643Q438 663 408 675Q378 687 328 687H143ZM265 800 315 900H405L315 800Z" glyph-name="Racute" horiz-adv-x="621" unicode="&#340;" /><glyph d="M143 0H75V750H310Q380 750 427 735Q474 720 502.5 692.5Q531 665 543 626Q555 587 555 539Q555 464 524.5 412Q494 360 417 340L596 0H517L349 329Q341 328 332.5 328Q324 328 316 328H143ZM143 391H328Q378 391 408 403Q438 415 454.5 435Q471 455 476 482Q481 509 481 539Q481 569 476 596Q471 623 454.5 643Q438 663 408 675Q378 687 328 687H143ZM191 900 290 844 389 900H445L330 800H250L135 900Z" glyph-name="Rcaron" horiz-adv-x="621" unicode="&#344;" /><glyph d="M143 0H75V750H310Q380 750 427 735Q474 720 502.5 692.5Q531 665 543 626Q555 587 555 539Q555 464 524.5 412Q494 360 417 340L596 0H517L349 329Q341 328 332.5 328Q324 328 316 328H143ZM143 391H328Q378 391 408 403Q438 415 454.5 435Q471 455 476 482Q481 509 481 539Q481 569 476 596Q471 623 454.5 643Q438 663 408 675Q378 687 328 687H143ZM275 -50Q346 -58 383 -87Q420 -116 420 -161Q420 -202 391 -226Q362 -250 309 -250Q268 -250 245.5 -243.5Q223 -237 215 -232V-186Q226 -190 238 -193Q249 -195 262.5 -197Q276 -199 292 -199Q323 -199 341 -190.5Q359 -182 359 -163Q359 -147 351.5 -135Q344 -123 332 -115Q320 -107 304 -102Q288 -97 270 -95Z" glyph-name="Rcedilla" horiz-adv-x="621" unicode="&#57376;" /><glyph d="M143 0H75V750H310Q380 750 427 735Q474 720 502.5 692.5Q531 665 543 626Q555 587 555 539Q555 464 524.5 412Q494 360 417 340L596 0H517L349 329Q341 328 332.5 328Q324 328 316 328H143ZM143 391H328Q378 391 408 403Q438 415 454.5 435Q471 455 476 482Q481 509 481 539Q481 569 476 596Q471 623 454.5 643Q438 663 408 675Q378 687 328 687H143ZM363 -50 295 -250H245L271 -50Z" glyph-name="Rcommaaccent" horiz-adv-x="621" unicode="&#342;" /><glyph d="M143 0H75V750H310Q380 750 427 735Q474 720 502.5 692.5Q531 665 543 626Q555 587 555 539Q555 464 524.5 412Q494 360 417 340L596 0H517L349 329Q341 328 332.5 328Q324 328 316 328H143ZM143 391H328Q378 391 408 403Q438 415 454.5 435Q471 455 476 482Q481 509 481 539Q481 569 476 596Q471 623 454.5 643Q438 663 408 675Q378 687 328 687H143ZM259 -150Q259 -129 273.5 -114.5Q288 -100 309 -100Q330 -100 344.5 -114.5Q359 -129 359 -150Q359 -171 344.5 -185.5Q330 -200 309 -200Q288 -200 273.5 -185.5Q259 -171 259 -150Z" glyph-name="Rdotbelow" horiz-adv-x="621" unicode="&#7770;" /><glyph d="M143 0H75V750H310Q380 750 427 735Q474 720 502.5 692.5Q531 665 543 626Q555 587 555 539Q555 464 524.5 412Q494 360 417 340L596 0H517L349 329Q341 328 332.5 328Q324 328 316 328H143ZM143 391H328Q378 391 408 403Q438 415 454.5 435Q471 455 476 482Q481 509 481 539Q481 569 476 596Q471 623 454.5 643Q438 663 408 675Q378 687 328 687H143ZM153 880H427V820H153ZM259 -150Q259 -129 273.5 -114.5Q288 -100 309 -100Q330 -100 344.5 -114.5Q359 -129 359 -150Q359 -171 344.5 -185.5Q330 -200 309 -200Q288 -200 273.5 -185.5Q259 -171 259 -150Z" glyph-name="Rdotbelowmacron" horiz-adv-x="621" unicode="&#7772;" /><glyph d="M143 0H75V750H310Q380 750 427 735Q474 720 502.5 692.5Q531 665 543 626Q555 587 555 539Q555 464 524.5 412Q494 360 417 340L596 0H517L349 329Q341 328 332.5 328Q324 328 316 328H143ZM143 391H328Q378 391 408 403Q438 415 454.5 435Q471 455 476 482Q481 509 481 539Q481 569 476 596Q471 623 454.5 643Q438 663 408 675Q378 687 328 687H143ZM325 800 235 900H325L375 800ZM205 800 115 900H205L255 800Z" glyph-name="Rdoublegrave" horiz-adv-x="621" unicode="&#57375;" /><glyph d="M143 0H75V750H310Q380 750 427 735Q474 720 502.5 692.5Q531 665 543 626Q555 587 555 539Q555 464 524.5 412Q494 360 417 340L596 0H517L349 329Q341 328 332.5 328Q324 328 316 328H143ZM143 391H328Q378 391 408 403Q438 415 454.5 435Q471 455 476 482Q481 509 481 539Q481 569 476 596Q471 623 454.5 643Q438 663 408 675Q378 687 328 687H143ZM290 910Q431 910 435 800H384Q382 831 357.5 843Q333 855 290 855Q247 855 222.5 843Q198 831 196 800H145Q149 910 290 910Z" glyph-name="Rinvertedbreve" horiz-adv-x="621" unicode="&#530;" /><glyph d="M305 697Q249 697 214 685Q179 673 158.5 653Q138 633 130.5 606.5Q123 580 123 550Q123 510 134.5 486.5Q146 463 168.5 449.5Q191 436 225 430Q259 424 303 418Q358 411 402 399Q446 387 477 365Q508 343 524.5 307Q541 271 541 216Q541 178 529 138Q517 98 486 65Q455 32 401.5 11Q348 -10 264 -10Q238 -10 208.5 -6.5Q179 -3 150.5 2.5Q122 8 97 15Q72 22 54 30V95Q72 89 92.5 81.5Q113 74 138.5 68Q164 62 195 57.5Q226 53 265 53Q323 53 362.5 66Q402 79 425 101Q448 123 458 152.5Q468 182 468 216Q468 256 459 281.5Q450 307 430 322.5Q410 338 378 346Q346 354 299 360Q233 368 186 381Q139 394 110 415.5Q81 437 67.5 470Q54 503 54 551Q54 584 64 620.5Q74 657 101.5 688Q129 719 178 739.5Q227 760 306 760Q375 760 422.5 749.5Q470 739 501 725V658Q450 680 405 688.5Q360 697 305 697Z" glyph-name="S" horiz-adv-x="595" unicode="S" /><glyph d="M305 697Q249 697 214 685Q179 673 158.5 653Q138 633 130.5 606.5Q123 580 123 550Q123 510 134.5 486.5Q146 463 168.5 449.5Q191 436 225 430Q259 424 303 418Q358 411 402 399Q446 387 477 365Q508 343 524.5 307Q541 271 541 216Q541 178 529 138Q517 98 486 65Q455 32 401.5 11Q348 -10 264 -10Q238 -10 208.5 -6.5Q179 -3 150.5 2.5Q122 8 97 15Q72 22 54 30V95Q72 89 92.5 81.5Q113 74 138.5 68Q164 62 195 57.5Q226 53 265 53Q323 53 362.5 66Q402 79 425 101Q448 123 458 152.5Q468 182 468 216Q468 256 459 281.5Q450 307 430 322.5Q410 338 378 346Q346 354 299 360Q233 368 186 381Q139 394 110 415.5Q81 437 67.5 470Q54 503 54 551Q54 584 64 620.5Q74 657 101.5 688Q129 719 178 739.5Q227 760 306 760Q375 760 422.5 749.5Q470 739 501 725V658Q450 680 405 688.5Q360 697 305 697ZM281 800 331 900H421L331 800Z" glyph-name="Sacute" horiz-adv-x="595" unicode="&#346;" /><glyph d="M305 697Q249 697 214 685Q179 673 158.5 653Q138 633 130.5 606.5Q123 580 123 550Q123 510 134.5 486.5Q146 463 168.5 449.5Q191 436 225 430Q259 424 303 418Q358 411 402 399Q446 387 477 365Q508 343 524.5 307Q541 271 541 216Q541 178 529 138Q517 98 486 65Q455 32 401.5 11Q348 -10 264 -10Q238 -10 208.5 -6.5Q179 -3 150.5 2.5Q122 8 97 15Q72 22 54 30V95Q72 89 92.5 81.5Q113 74 138.5 68Q164 62 195 57.5Q226 53 265 53Q323 53 362.5 66Q402 79 425 101Q448 123 458 152.5Q468 182 468 216Q468 256 459 281.5Q450 307 430 322.5Q410 338 378 346Q346 354 299 360Q233 368 186 381Q139 394 110 415.5Q81 437 67.5 470Q54 503 54 551Q54 584 64 620.5Q74 657 101.5 688Q129 719 178 739.5Q227 760 306 760Q375 760 422.5 749.5Q470 739 501 725V658Q450 680 405 688.5Q360 697 305 697ZM207 900 306 844 405 900H461L346 800H266L151 900Z" glyph-name="Scaron" horiz-adv-x="595" unicode="&#352;" /><glyph d="M305 697Q249 697 214 685Q179 673 158.5 653Q138 633 130.5 606.5Q123 580 123 550Q123 510 134.5 486.5Q146 463 168.5 449.5Q191 436 225 430Q259 424 303 418Q358 411 402 399Q446 387 477 365Q508 343 524.5 307Q541 271 541 216Q541 180 530.5 142Q520 104 493 72.5Q466 41 419 18.5Q372 -4 300 -8L305 -64Q320 -68 336.5 -75Q353 -82 367.5 -93Q382 -104 391 -121Q400 -138 400 -161Q400 -202 371 -226Q342 -250 289 -250Q248 -250 225.5 -243.5Q203 -237 195 -232V-186Q206 -190 218 -193Q229 -195 242.5 -197Q256 -199 272 -199Q303 -199 321 -190.5Q339 -182 339 -163Q339 -147 331.5 -136Q324 -125 312 -117.5Q300 -110 284 -106Q268 -102 250 -100L259 -10Q233 -10 204.5 -6.5Q176 -3 148 2.5Q120 8 95.5 15Q71 22 54 30V95Q72 89 92.5 81.5Q113 74 138.5 68Q164 62 195 57.5Q226 53 265 53Q323 53 362.5 66Q402 79 425 101Q448 123 458 152.5Q468 182 468 216Q468 256 459 281.5Q450 307 430 322.5Q410 338 378 346Q346 354 299 360Q233 368 186 381Q139 394 110 415.5Q81 437 67.5 470Q54 503 54 551Q54 584 64 620.5Q74 657 101.5 688Q129 719 178 739.5Q227 760 306 760Q375 760 422.5 749.5Q470 739 501 725V658Q450 680 405 688.5Q360 697 305 697Z" glyph-name="Scedilla" horiz-adv-x="595" unicode="&#350;" /><glyph d="M60 422H551Q547 481 533 531.5Q519 582 492.5 618.5Q466 655 426 676Q386 697 330 697Q302 697 276 694.5Q250 692 223 685.5Q196 679 166 667.5Q136 656 100 638V706Q155 735 208 747.5Q261 760 330 760Q414 760 470.5 730Q527 700 561.5 647.5Q596 595 610.5 525Q625 455 625 375Q625 295 610.5 225Q596 155 561.5 102.5Q527 50 470.5 20Q414 -10 330 -10Q242 -10 188.5 22.5Q135 55 106.5 109Q78 163 69 232Q60 301 60 375ZM330 53Q390 53 431.5 76.5Q473 100 499.5 141Q526 182 538.5 238Q551 294 553 359H134Q134 294 141.5 238.5Q149 183 170 141.5Q191 100 229.5 76.5Q268 53 330 53Z" glyph-name="Schwa" horiz-adv-x="685" unicode="&#399;" /><glyph d="M305 697Q249 697 214 685Q179 673 158.5 653Q138 633 130.5 606.5Q123 580 123 550Q123 510 134.5 486.5Q146 463 168.5 449.5Q191 436 225 430Q259 424 303 418Q358 411 402 399Q446 387 477 365Q508 343 524.5 307Q541 271 541 216Q541 178 529 138Q517 98 486 65Q455 32 401.5 11Q348 -10 264 -10Q238 -10 208.5 -6.5Q179 -3 150.5 2.5Q122 8 97 15Q72 22 54 30V95Q72 89 92.5 81.5Q113 74 138.5 68Q164 62 195 57.5Q226 53 265 53Q323 53 362.5 66Q402 79 425 101Q448 123 458 152.5Q468 182 468 216Q468 256 459 281.5Q450 307 430 322.5Q410 338 378 346Q346 354 299 360Q233 368 186 381Q139 394 110 415.5Q81 437 67.5 470Q54 503 54 551Q54 584 64 620.5Q74 657 101.5 688Q129 719 178 739.5Q227 760 306 760Q375 760 422.5 749.5Q470 739 501 725V658Q450 680 405 688.5Q360 697 305 697ZM405 800 306 856 207 800H151L266 900H346L461 800Z" glyph-name="Scircumflex" horiz-adv-x="595" unicode="&#348;" /><glyph d="M305 697Q249 697 214 685Q179 673 158.5 653Q138 633 130.5 606.5Q123 580 123 550Q123 510 134.5 486.5Q146 463 168.5 449.5Q191 436 225 430Q259 424 303 418Q358 411 402 399Q446 387 477 365Q508 343 524.5 307Q541 271 541 216Q541 178 529 138Q517 98 486 65Q455 32 401.5 11Q348 -10 264 -10Q238 -10 208.5 -6.5Q179 -3 150.5 2.5Q122 8 97 15Q72 22 54 30V95Q72 89 92.5 81.5Q113 74 138.5 68Q164 62 195 57.5Q226 53 265 53Q323 53 362.5 66Q402 79 425 101Q448 123 458 152.5Q468 182 468 216Q468 256 459 281.5Q450 307 430 322.5Q410 338 378 346Q346 354 299 360Q233 368 186 381Q139 394 110 415.5Q81 437 67.5 470Q54 503 54 551Q54 584 64 620.5Q74 657 101.5 688Q129 719 178 739.5Q227 760 306 760Q375 760 422.5 749.5Q470 739 501 725V658Q450 680 405 688.5Q360 697 305 697ZM323 -50 255 -250H205L231 -50Z" glyph-name="Scommaaccent" horiz-adv-x="595" unicode="&#536;" /><glyph d="M305 697Q249 697 214 685Q179 673 158.5 653Q138 633 130.5 606.5Q123 580 123 550Q123 510 134.5 486.5Q146 463 168.5 449.5Q191 436 225 430Q259 424 303 418Q358 411 402 399Q446 387 477 365Q508 343 524.5 307Q541 271 541 216Q541 178 529 138Q517 98 486 65Q455 32 401.5 11Q348 -10 264 -10Q238 -10 208.5 -6.5Q179 -3 150.5 2.5Q122 8 97 15Q72 22 54 30V95Q72 89 92.5 81.5Q113 74 138.5 68Q164 62 195 57.5Q226 53 265 53Q323 53 362.5 66Q402 79 425 101Q448 123 458 152.5Q468 182 468 216Q468 256 459 281.5Q450 307 430 322.5Q410 338 378 346Q346 354 299 360Q233 368 186 381Q139 394 110 415.5Q81 437 67.5 470Q54 503 54 551Q54 584 64 620.5Q74 657 101.5 688Q129 719 178 739.5Q227 760 306 760Q375 760 422.5 749.5Q470 739 501 725V658Q450 680 405 688.5Q360 697 305 697ZM224 -150Q224 -129 238.5 -114.5Q253 -100 274 -100Q295 -100 309.5 -114.5Q324 -129 324 -150Q324 -171 309.5 -185.5Q295 -200 274 -200Q253 -200 238.5 -185.5Q224 -171 224 -150Z" glyph-name="Sdotbelow" horiz-adv-x="595" unicode="&#7778;" /><glyph d="M314 687V0H246V687H39V750H521V687Z" glyph-name="T" horiz-adv-x="560" unicode="T" /><glyph d="M314 0H246V360H121V421H246V687H39V750H521V687H314V421H439V360H314Z" glyph-name="Tbar" horiz-adv-x="560" unicode="&#358;" /><glyph d="M314 687V0H246V687H39V750H521V687ZM181 900 280 844 379 900H435L320 800H240L125 900Z" glyph-name="Tcaron" horiz-adv-x="560" unicode="&#356;" /><glyph d="M314 687V0H246V687H39V750H521V687ZM245 -50Q316 -58 353 -87Q390 -116 390 -161Q390 -202 361 -226Q332 -250 279 -250Q238 -250 215.5 -243.5Q193 -237 185 -232V-186Q196 -190 208 -193Q219 -195 232.5 -197Q246 -199 262 -199Q293 -199 311 -190.5Q329 -182 329 -163Q329 -147 321.5 -135Q314 -123 302 -115Q290 -107 274 -102Q258 -97 240 -95Z" glyph-name="Tcedilla" horiz-adv-x="560" unicode="&#57377;" /><glyph d="M314 687V0H246V687H39V750H521V687ZM328 -50 260 -250H210L236 -50Z" glyph-name="Tcommaaccent" horiz-adv-x="560" unicode="&#354;" /><glyph d="M314 687V0H246V687H39V750H521V687ZM230 -150Q230 -129 244.5 -114.5Q259 -100 280 -100Q301 -100 315.5 -114.5Q330 -129 330 -150Q330 -171 315.5 -185.5Q301 -200 280 -200Q259 -200 244.5 -185.5Q230 -171 230 -150Z" glyph-name="Tdotbelow" horiz-adv-x="560" unicode="&#7788;" /><glyph d="M143 0H75V750H143V600H304Q374 600 422 581.5Q470 563 499.5 531.5Q529 500 542 459.5Q555 419 555 375Q555 331 542 290.5Q529 250 499.5 218.5Q470 187 422 168.5Q374 150 304 150H143ZM143 213H313Q366 213 399 228Q432 243 450 267Q468 291 474.5 319.5Q481 348 481 375Q481 402 474.5 430.5Q468 459 450 483Q432 507 399 522Q366 537 313 537H143Z" glyph-name="Thorn" horiz-adv-x="570" unicode="&#222;" /><glyph d="M335 53Q360 53 394 58Q428 63 458.5 82Q489 101 510.5 139.5Q532 178 532 246V750H600V235Q600 182 586.5 143Q573 104 551 77Q529 50 501 33Q473 16 443.5 6.5Q414 -3 385.5 -6.5Q357 -10 335 -10Q301 -10 255.5 -1.5Q210 7 168.5 33Q127 59 98.5 107Q70 155 70 235V750H138V246Q138 178 159.5 139.5Q181 101 211.5 82Q242 63 276 58Q310 53 335 53Z" glyph-name="U" horiz-adv-x="670" unicode="U" /><glyph d="M335 53Q360 53 394 58Q428 63 458.5 82Q489 101 510.5 139.5Q532 178 532 246V750H600V235Q600 182 586.5 143Q573 104 551 77Q529 50 501 33Q473 16 443.5 6.5Q414 -3 385.5 -6.5Q357 -10 335 -10Q301 -10 255.5 -1.5Q210 7 168.5 33Q127 59 98.5 107Q70 155 70 235V750H138V246Q138 178 159.5 139.5Q181 101 211.5 82Q242 63 276 58Q310 53 335 53ZM310 800 360 900H450L360 800Z" glyph-name="Uacute" horiz-adv-x="670" unicode="&#218;" /><glyph d="M335 53Q360 53 394 58Q428 63 458.5 82Q489 101 510.5 139.5Q532 178 532 246V750H600V235Q600 182 586.5 143Q573 104 551 77Q529 50 501 33Q473 16 443.5 6.5Q414 -3 385.5 -6.5Q357 -10 335 -10Q301 -10 255.5 -1.5Q210 7 168.5 33Q127 59 98.5 107Q70 155 70 235V750H138V246Q138 178 159.5 139.5Q181 101 211.5 82Q242 63 276 58Q310 53 335 53ZM335 790Q194 790 190 900H241Q243 869 267.5 857Q292 845 335 845Q378 845 402.5 857Q427 869 429 900H480Q476 790 335 790Z" glyph-name="Ubreve" horiz-adv-x="670" unicode="&#364;" /><glyph d="M335 53Q360 53 394 58Q428 63 458.5 82Q489 101 510.5 139.5Q532 178 532 246V750H600V235Q600 182 586.5 143Q573 104 551 77Q529 50 501 33Q473 16 443.5 6.5Q414 -3 385.5 -6.5Q357 -10 335 -10Q301 -10 255.5 -1.5Q210 7 168.5 33Q127 59 98.5 107Q70 155 70 235V750H138V246Q138 178 159.5 139.5Q181 101 211.5 82Q242 63 276 58Q310 53 335 53ZM236 900 335 844 434 900H490L375 800H295L180 900Z" glyph-name="Ucaron" horiz-adv-x="670" unicode="&#467;" /><glyph d="M335 53Q360 53 394 58Q428 63 458.5 82Q489 101 510.5 139.5Q532 178 532 246V750H600V235Q600 182 586.5 143Q573 104 551 77Q529 50 501 33Q473 16 443.5 6.5Q414 -3 385.5 -6.5Q357 -10 335 -10Q301 -10 255.5 -1.5Q210 7 168.5 33Q127 59 98.5 107Q70 155 70 235V750H138V246Q138 178 159.5 139.5Q181 101 211.5 82Q242 63 276 58Q310 53 335 53ZM434 800 335 856 236 800H180L295 900H375L490 800Z" glyph-name="Ucircumflex" horiz-adv-x="670" unicode="&#219;" /><glyph d="M335 53Q360 53 394 58Q428 63 458.5 82Q489 101 510.5 139.5Q532 178 532 246V750H600V235Q600 182 586.5 143Q573 104 551 77Q529 50 501 33Q473 16 443.5 6.5Q414 -3 385.5 -6.5Q357 -10 335 -10Q301 -10 255.5 -1.5Q210 7 168.5 33Q127 59 98.5 107Q70 155 70 235V750H138V246Q138 178 159.5 139.5Q181 101 211.5 82Q242 63 276 58Q310 53 335 53ZM190 850Q190 871 204.5 885.5Q219 900 240 900Q261 900 275.5 885.5Q290 871 290 850Q290 829 275.5 814.5Q261 800 240 800Q219 800 204.5 814.5Q190 829 190 850ZM380 850Q380 871 394.5 885.5Q409 900 430 900Q451 900 465.5 885.5Q480 871 480 850Q480 829 465.5 814.5Q451 800 430 800Q409 800 394.5 814.5Q380 829 380 850Z" glyph-name="Udieresis" horiz-adv-x="670" unicode="&#220;" /><glyph d="M335 53Q360 53 394 58Q428 63 458.5 82Q489 101 510.5 139.5Q532 178 532 246V750H600V235Q600 182 586.5 143Q573 104 551 77Q529 50 501 33Q473 16 443.5 6.5Q414 -3 385.5 -6.5Q357 -10 335 -10Q301 -10 255.5 -1.5Q210 7 168.5 33Q127 59 98.5 107Q70 155 70 235V750H138V246Q138 178 159.5 139.5Q181 101 211.5 82Q242 63 276 58Q310 53 335 53ZM285 -150Q285 -129 299.5 -114.5Q314 -100 335 -100Q356 -100 370.5 -114.5Q385 -129 385 -150Q385 -171 370.5 -185.5Q356 -200 335 -200Q314 -200 299.5 -185.5Q285 -171 285 -150Z" glyph-name="Udotbelow" horiz-adv-x="670" unicode="&#7908;" /><glyph d="M335 53Q360 53 394 58Q428 63 458.5 82Q489 101 510.5 139.5Q532 178 532 246V750H600V235Q600 182 586.5 143Q573 104 551 77Q529 50 501 33Q473 16 443.5 6.5Q414 -3 385.5 -6.5Q357 -10 335 -10Q301 -10 255.5 -1.5Q210 7 168.5 33Q127 59 98.5 107Q70 155 70 235V750H138V246Q138 178 159.5 139.5Q181 101 211.5 82Q242 63 276 58Q310 53 335 53ZM370 800 280 900H370L420 800ZM250 800 160 900H250L300 800Z" glyph-name="Udoublegrave" horiz-adv-x="670" unicode="&#57378;" /><glyph d="M335 53Q360 53 394 58Q428 63 458.5 82Q489 101 510.5 139.5Q532 178 532 246V750H600V235Q600 182 586.5 143Q573 104 551 77Q529 50 501 33Q473 16 443.5 6.5Q414 -3 385.5 -6.5Q357 -10 335 -10Q301 -10 255.5 -1.5Q210 7 168.5 33Q127 59 98.5 107Q70 155 70 235V750H138V246Q138 178 159.5 139.5Q181 101 211.5 82Q242 63 276 58Q310 53 335 53ZM310 800 220 900H310L360 800Z" glyph-name="Ugrave" horiz-adv-x="670" unicode="&#217;" /><glyph d="M335 53Q360 53 394 58Q428 63 458.5 82Q489 101 510.5 139.5Q532 178 532 246V750H600V235Q600 182 586.5 143Q573 104 551 77Q529 50 501 33Q473 16 443.5 6.5Q414 -3 385.5 -6.5Q357 -10 335 -10Q301 -10 255.5 -1.5Q210 7 168.5 33Q127 59 98.5 107Q70 155 70 235V750H138V246Q138 178 159.5 139.5Q181 101 211.5 82Q242 63 276 58Q310 53 335 53ZM250 800 300 900H390L300 800ZM370 800 420 900H510L420 800Z" glyph-name="Uhungarumlaut" horiz-adv-x="670" unicode="&#368;" /><glyph d="M335 53Q360 53 394 58Q428 63 458.5 82Q489 101 510.5 139.5Q532 178 532 246V750H600V235Q600 182 586.5 143Q573 104 551 77Q529 50 501 33Q473 16 443.5 6.5Q414 -3 385.5 -6.5Q357 -10 335 -10Q301 -10 255.5 -1.5Q210 7 168.5 33Q127 59 98.5 107Q70 155 70 235V750H138V246Q138 178 159.5 139.5Q181 101 211.5 82Q242 63 276 58Q310 53 335 53ZM335 910Q476 910 480 800H429Q427 831 402.5 843Q378 855 335 855Q292 855 267.5 843Q243 831 241 800H190Q194 910 335 910Z" glyph-name="Uinvertedbreve" horiz-adv-x="670" unicode="&#534;" /><glyph d="M335 53Q360 53 394 58Q428 63 458.5 82Q489 101 510.5 139.5Q532 178 532 246V750H600V235Q600 182 586.5 143Q573 104 551 77Q529 50 501 33Q473 16 443.5 6.5Q414 -3 385.5 -6.5Q357 -10 335 -10Q301 -10 255.5 -1.5Q210 7 168.5 33Q127 59 98.5 107Q70 155 70 235V750H138V246Q138 178 159.5 139.5Q181 101 211.5 82Q242 63 276 58Q310 53 335 53ZM198 880H472V820H198Z" glyph-name="Umacron" horiz-adv-x="670" unicode="&#362;" /><glyph d="M335 53Q360 53 394 58Q428 63 458.5 82Q489 101 510.5 139.5Q532 178 532 246V750H600V235Q600 182 586.5 143Q573 104 551 77Q529 50 501 33Q473 16 443.5 6.5Q414 -3 385.5 -6.5Q357 -10 335 -10Q301 -10 255.5 -1.5Q210 7 168.5 33Q127 59 98.5 107Q70 155 70 235V750H138V246Q138 178 159.5 139.5Q181 101 211.5 82Q242 63 276 58Q310 53 335 53ZM472 -180H198V-120H472Z" glyph-name="Umacronbelow" horiz-adv-x="670" unicode="&#57379;" /><glyph d="M335 53Q360 53 394 58Q428 63 458.5 82Q489 101 510.5 139.5Q532 178 532 246V750H600V235Q600 176 584 135Q568 94 542.5 66.5Q517 39 485 23Q453 7 421 0Q372 -27 343.5 -65Q315 -103 315 -142Q315 -165 327.5 -182Q340 -199 369 -199Q386 -199 400.5 -196.5Q415 -194 426 -191V-239Q413 -244 395 -247Q377 -250 355 -250Q310 -250 282 -225Q254 -200 254 -155Q254 -115 273 -77.5Q292 -40 329 -10Q294 -9 249.5 0Q205 9 165 35Q125 61 97.5 109Q70 157 70 235V750H138V246Q138 178 159.5 139.5Q181 101 211.5 82Q242 63 276 58Q310 53 335 53Z" glyph-name="Uogonek" horiz-adv-x="670" unicode="&#370;" /><glyph d="M335 53Q360 53 394 58Q428 63 458.5 82Q489 101 510.5 139.5Q532 178 532 246V750H600V235Q600 182 586.5 143Q573 104 551 77Q529 50 501 33Q473 16 443.5 6.5Q414 -3 385.5 -6.5Q357 -10 335 -10Q301 -10 255.5 -1.5Q210 7 168.5 33Q127 59 98.5 107Q70 155 70 235V750H138V246Q138 178 159.5 139.5Q181 101 211.5 82Q242 63 276 58Q310 53 335 53ZM335 921Q354 921 371 917.5Q388 914 401 906Q414 898 421.5 884.5Q429 871 429 850Q429 829 421.5 815.5Q414 802 401 794Q388 786 371 782.5Q354 779 335 779Q316 779 299 782.5Q282 786 269 794Q256 802 248.5 815.5Q241 829 241 850Q241 871 248.5 884.5Q256 898 269 906Q282 914 299 917.5Q316 921 335 921ZM335 828Q379 828 379 850Q379 872 335 872Q291 872 291 850Q291 828 335 828Z" glyph-name="Uring" horiz-adv-x="670" unicode="&#366;" /><glyph d="M335 53Q360 53 394 58Q428 63 458.5 82Q489 101 510.5 139.5Q532 178 532 246V750H600V235Q600 182 586.5 143Q573 104 551 77Q529 50 501 33Q473 16 443.5 6.5Q414 -3 385.5 -6.5Q357 -10 335 -10Q301 -10 255.5 -1.5Q210 7 168.5 33Q127 59 98.5 107Q70 155 70 235V750H138V246Q138 178 159.5 139.5Q181 101 211.5 82Q242 63 276 58Q310 53 335 53ZM411 849Q428 849 437.5 854Q447 859 452 867Q457 875 458.5 883.5Q460 892 460 900H516Q520 847 490.5 818.5Q461 790 407 790Q380 790 360.5 799.5Q341 809 324.5 820.5Q308 832 293 841.5Q278 851 259 851Q242 851 232.5 846Q223 841 218 833Q213 825 211.5 816Q210 807 210 800H154Q150 853 179.5 881.5Q209 910 263 910Q290 910 309.5 900.5Q329 891 345.5 879.5Q362 868 377 858.5Q392 849 411 849Z" glyph-name="Utilde" horiz-adv-x="670" unicode="&#360;" /><glyph d="M610 750 345 -10H295L30 750H107L320 104L533 750Z" glyph-name="V" horiz-adv-x="640" unicode="V" /><glyph d="M478 750 647 96 778 750H850L686 -10H613L440 660L267 -10H194L30 750H102L233 96L402 750Z" glyph-name="W" horiz-adv-x="880" unicode="W" /><glyph d="M478 750 647 96 778 750H850L686 -10H613L440 660L267 -10H194L30 750H102L233 96L402 750ZM415 800 465 900H555L465 800Z" glyph-name="Wacute" horiz-adv-x="880" unicode="&#7810;" /><glyph d="M478 750 647 96 778 750H850L686 -10H613L440 660L267 -10H194L30 750H102L233 96L402 750ZM539 800 440 856 341 800H285L400 900H480L595 800Z" glyph-name="Wcircumflex" horiz-adv-x="880" unicode="&#372;" /><glyph d="M478 750 647 96 778 750H850L686 -10H613L440 660L267 -10H194L30 750H102L233 96L402 750ZM295 850Q295 871 309.5 885.5Q324 900 345 900Q366 900 380.5 885.5Q395 871 395 850Q395 829 380.5 814.5Q366 800 345 800Q324 800 309.5 814.5Q295 829 295 850ZM485 850Q485 871 499.5 885.5Q514 900 535 900Q556 900 570.5 885.5Q585 871 585 850Q585 829 570.5 814.5Q556 800 535 800Q514 800 499.5 814.5Q485 829 485 850Z" glyph-name="Wdieresis" horiz-adv-x="880" unicode="&#7812;" /><glyph d="M478 750 647 96 778 750H850L686 -10H613L440 660L267 -10H194L30 750H102L233 96L402 750ZM415 800 325 900H415L465 800Z" glyph-name="Wgrave" horiz-adv-x="880" unicode="&#7808;" /><glyph d="M500 750H585L345 380L590 0H502L300 334L98 0H10L255 380L15 750H100L300 424Z" glyph-name="X" horiz-adv-x="630" unicode="X" /><glyph d="M369 310V0H301V310L30 750H105L335 365L565 750H640Z" glyph-name="Y" horiz-adv-x="670" unicode="Y" /><glyph d="M369 310V0H301V310L30 750H105L335 365L565 750H640ZM310 800 360 900H450L360 800Z" glyph-name="Yacute" horiz-adv-x="670" unicode="&#221;" /><glyph d="M369 310V0H301V310L30 750H105L335 365L565 750H640ZM434 800 335 856 236 800H180L295 900H375L490 800Z" glyph-name="Ycircumflex" horiz-adv-x="670" unicode="&#374;" /><glyph d="M369 310V0H301V310L30 750H105L335 365L565 750H640ZM190 850Q190 871 204.5 885.5Q219 900 240 900Q261 900 275.5 885.5Q290 871 290 850Q290 829 275.5 814.5Q261 800 240 800Q219 800 204.5 814.5Q190 829 190 850ZM380 850Q380 871 394.5 885.5Q409 900 430 900Q451 900 465.5 885.5Q480 871 480 850Q480 829 465.5 814.5Q451 800 430 800Q409 800 394.5 814.5Q380 829 380 850Z" glyph-name="Ydieresis" horiz-adv-x="670" unicode="&#376;" /><glyph d="M369 310V0H301V310L30 750H105L335 365L565 750H640ZM310 800 220 900H310L360 800Z" glyph-name="Ygrave" horiz-adv-x="670" unicode="&#7922;" /><glyph d="M369 310V0H301V310L30 750H105L335 365L565 750H640ZM198 880H472V820H198Z" glyph-name="Ymacron" horiz-adv-x="670" unicode="&#57380;" /><glyph d="M369 310V0H301V310L30 750H105L335 365L565 750H640ZM411 849Q428 849 437.5 854Q447 859 452 867Q457 875 458.5 883.5Q460 892 460 900H516Q520 847 490.5 818.5Q461 790 407 790Q380 790 360.5 799.5Q341 809 324.5 820.5Q308 832 293 841.5Q278 851 259 851Q242 851 232.5 846Q223 841 218 833Q213 825 211.5 816Q210 807 210 800H154Q150 853 179.5 881.5Q209 910 263 910Q290 910 309.5 900.5Q329 891 345.5 879.5Q362 868 377 858.5Q392 849 411 849Z" glyph-name="Ytilde" horiz-adv-x="670" unicode="&#7928;" /><glyph d="M40 0V46L467 689L60 687V750H555V704L128 61L570 63V0Z" glyph-name="Z" horiz-adv-x="610" unicode="Z" /><glyph d="M40 0V46L467 689L60 687V750H555V704L128 61L570 63V0ZM280 800 330 900H420L330 800Z" glyph-name="Zacute" horiz-adv-x="610" unicode="&#377;" /><glyph d="M40 0V46L467 689L60 687V750H555V704L128 61L570 63V0ZM206 900 305 844 404 900H460L345 800H265L150 900Z" glyph-name="Zcaron" horiz-adv-x="610" unicode="&#142;" /><glyph d="M40 0V46L467 689L60 687V750H555V704L128 61L570 63V0ZM255 850Q255 871 269.5 885.5Q284 900 305 900Q326 900 340.5 885.5Q355 871 355 850Q355 829 340.5 814.5Q326 800 305 800Q284 800 269.5 814.5Q255 829 255 850Z" glyph-name="Zdotaccent" horiz-adv-x="610" unicode="&#379;" /><glyph d="M360 343Q360 370 354.5 390Q349 410 335.5 423Q322 436 299 442Q276 448 241 448Q190 448 155 440.5Q120 433 91 423V483Q124 497 164.5 503.5Q205 510 241 510Q297 510 333.5 498Q370 486 391.5 463.5Q413 441 421.5 410Q430 379 430 342V0H391L376 40Q342 15 302.5 2.5Q263 -10 225 -10Q176 -10 142.5 3.5Q109 17 88.5 39Q68 61 59 90Q50 119 50 151Q50 183 59.5 210Q69 237 90 257.5Q111 278 145 291Q179 304 228 307L360 315ZM223 253Q169 248 145 221.5Q121 195 121 151Q121 134 124 116.5Q127 99 138 84.5Q149 70 170 61Q191 52 227 52Q268 52 298 62.5Q328 73 360 92V266Z" glyph-name="a" horiz-adv-x="495" unicode="a" /><glyph d="M470 0H431L416 41Q377 16 339 3Q301 -10 260 -10Q200 -10 160 10.5Q120 31 97 66Q74 101 64.5 148.5Q55 196 55 250Q55 304 64.5 351.5Q74 399 97 434Q120 469 160 489.5Q200 510 260 510Q300 510 340.5 497Q381 484 416 458L431 500H470ZM260 52Q309 52 340 60Q371 68 400 84V416Q371 432 340 440Q309 448 260 448Q215 448 188.5 431Q162 414 147.5 386Q133 358 129 322.5Q125 287 125 250Q125 213 129 177.5Q133 142 147.5 114Q162 86 188.5 69Q215 52 260 52Z" glyph-name="a.school" horiz-adv-x="535" unicode="&#57418;" /><glyph d="M427 0 381 120H148L103 0H30L240 510H290L500 0ZM168 172H361L265 427Z" glyph-name="a.small" horiz-adv-x="530" unicode="&#57452;" /><glyph d="M172 511Q172 530 162.5 540Q153 550 127 550Q102 550 81.5 545.5Q61 541 45 535V583Q60 590 82.5 594Q105 598 128 598Q159 598 178.5 591.5Q198 585 209 573Q220 561 224.5 544.5Q229 528 229 508V341H195L186 360Q171 348 151.5 341Q132 334 111 334Q87 334 70.5 341Q54 348 44 359.5Q34 371 29.5 385.5Q25 400 25 415Q25 455 48 474Q71 493 116 497L172 502ZM121 457Q98 455 89.5 444.5Q81 434 81 419Q81 405 89 393.5Q97 382 120 382Q137 382 149 386.5Q161 391 172 399V463Z" glyph-name="a.superior" horiz-adv-x="269" unicode="&#57657;" /><glyph d="M360 343Q360 370 354.5 390Q349 410 335.5 423Q322 436 299 442Q276 448 241 448Q190 448 155 440.5Q120 433 91 423V483Q124 497 164.5 503.5Q205 510 241 510Q297 510 333.5 498Q370 486 391.5 463.5Q413 441 421.5 410Q430 379 430 342V0H391L376 40Q342 15 302.5 2.5Q263 -10 225 -10Q176 -10 142.5 3.5Q109 17 88.5 39Q68 61 59 90Q50 119 50 151Q50 183 59.5 210Q69 237 90 257.5Q111 278 145 291Q179 304 228 307L360 315ZM223 253Q169 248 145 221.5Q121 195 121 151Q121 134 124 116.5Q127 99 138 84.5Q149 70 170 61Q191 52 227 52Q268 52 298 62.5Q328 73 360 92V266ZM216 550 266 750H346L266 550Z" glyph-name="aacute" horiz-adv-x="495" unicode="&#225;" /><glyph d="M470 0H431L416 41Q377 16 339 3Q301 -10 260 -10Q200 -10 160 10.5Q120 31 97 66Q74 101 64.5 148.5Q55 196 55 250Q55 304 64.5 351.5Q74 399 97 434Q120 469 160 489.5Q200 510 260 510Q300 510 340.5 497Q381 484 416 458L431 500H470ZM260 52Q309 52 340 60Q371 68 400 84V416Q371 432 340 440Q309 448 260 448Q215 448 188.5 431Q162 414 147.5 386Q133 358 129 322.5Q125 287 125 250Q125 213 129 177.5Q133 142 147.5 114Q162 86 188.5 69Q215 52 260 52ZM240 550 290 750H370L290 550Z" glyph-name="aacute.school" horiz-adv-x="535" unicode="&#57419;" /><glyph d="M427 0 381 120H148L103 0H30L240 510H290L500 0ZM168 172H361L265 427ZM240 550 290 750H370L290 550Z" glyph-name="aacute.small" horiz-adv-x="530" unicode="&#57478;" /><glyph d="M360 343Q360 370 354.5 390Q349 410 335.5 423Q322 436 299 442Q276 448 241 448Q190 448 155 440.5Q120 433 91 423V483Q124 497 164.5 503.5Q205 510 241 510Q297 510 333.5 498Q370 486 391.5 463.5Q413 441 421.5 410Q430 379 430 342V0H391L376 40Q342 15 302.5 2.5Q263 -10 225 -10Q176 -10 142.5 3.5Q109 17 88.5 39Q68 61 59 90Q50 119 50 151Q50 183 59.5 210Q69 237 90 257.5Q111 278 145 291Q179 304 228 307L360 315ZM223 253Q169 248 145 221.5Q121 195 121 151Q121 134 124 116.5Q127 99 138 84.5Q149 70 170 61Q191 52 227 52Q268 52 298 62.5Q328 73 360 92V266ZM241 550Q70 550 66 750H117Q118 716 123.5 690Q129 664 143 646Q157 628 181 619Q205 610 241 610Q277 610 301 619Q325 628 339 646Q353 664 358.5 690Q364 716 365 750H416Q412 550 241 550Z" glyph-name="abreve" horiz-adv-x="495" unicode="&#259;" /><glyph d="M470 0H431L416 41Q377 16 339 3Q301 -10 260 -10Q200 -10 160 10.5Q120 31 97 66Q74 101 64.5 148.5Q55 196 55 250Q55 304 64.5 351.5Q74 399 97 434Q120 469 160 489.5Q200 510 260 510Q300 510 340.5 497Q381 484 416 458L431 500H470ZM260 52Q309 52 340 60Q371 68 400 84V416Q371 432 340 440Q309 448 260 448Q215 448 188.5 431Q162 414 147.5 386Q133 358 129 322.5Q125 287 125 250Q125 213 129 177.5Q133 142 147.5 114Q162 86 188.5 69Q215 52 260 52ZM265 550Q94 550 90 750H141Q142 716 147.5 690Q153 664 167 646Q181 628 205 619Q229 610 265 610Q301 610 325 619Q349 628 363 646Q377 664 382.5 690Q388 716 389 750H440Q436 550 265 550Z" glyph-name="abreve.school" horiz-adv-x="535" unicode="&#57427;" /><glyph d="M427 0 381 120H148L103 0H30L240 510H290L500 0ZM168 172H361L265 427ZM265 550Q94 550 90 750H141Q142 716 147.5 690Q153 664 167 646Q181 628 205 619Q229 610 265 610Q301 610 325 619Q349 628 363 646Q377 664 382.5 690Q388 716 389 750H440Q436 550 265 550Z" glyph-name="abreve.small" horiz-adv-x="530" unicode="&#57486;" /><glyph d="M360 343Q360 370 354.5 390Q349 410 335.5 423Q322 436 299 442Q276 448 241 448Q190 448 155 440.5Q120 433 91 423V483Q124 497 164.5 503.5Q205 510 241 510Q297 510 333.5 498Q370 486 391.5 463.5Q413 441 421.5 410Q430 379 430 342V0H391L376 40Q342 15 302.5 2.5Q263 -10 225 -10Q176 -10 142.5 3.5Q109 17 88.5 39Q68 61 59 90Q50 119 50 151Q50 183 59.5 210Q69 237 90 257.5Q111 278 145 291Q179 304 228 307L360 315ZM223 253Q169 248 145 221.5Q121 195 121 151Q121 134 124 116.5Q127 99 138 84.5Q149 70 170 61Q191 52 227 52Q268 52 298 62.5Q328 73 360 92V266ZM426 750 281 550H201L56 750H111L241 609L371 750Z" glyph-name="acaron" horiz-adv-x="495" unicode="&#462;" /><glyph d="M470 0H431L416 41Q377 16 339 3Q301 -10 260 -10Q200 -10 160 10.5Q120 31 97 66Q74 101 64.5 148.5Q55 196 55 250Q55 304 64.5 351.5Q74 399 97 434Q120 469 160 489.5Q200 510 260 510Q300 510 340.5 497Q381 484 416 458L431 500H470ZM260 52Q309 52 340 60Q371 68 400 84V416Q371 432 340 440Q309 448 260 448Q215 448 188.5 431Q162 414 147.5 386Q133 358 129 322.5Q125 287 125 250Q125 213 129 177.5Q133 142 147.5 114Q162 86 188.5 69Q215 52 260 52ZM450 750 305 550H225L80 750H135L265 609L395 750Z" glyph-name="acaron.school" horiz-adv-x="535" unicode="&#57425;" /><glyph d="M427 0 381 120H148L103 0H30L240 510H290L500 0ZM168 172H361L265 427ZM450 750 305 550H225L80 750H135L265 609L395 750Z" glyph-name="acaron.small" horiz-adv-x="530" unicode="&#57484;" /><glyph d="M360 343Q360 370 354.5 390Q349 410 335.5 423Q322 436 299 442Q276 448 241 448Q190 448 155 440.5Q120 433 91 423V483Q124 497 164.5 503.5Q205 510 241 510Q297 510 333.5 498Q370 486 391.5 463.5Q413 441 421.5 410Q430 379 430 342V0H391L376 40Q342 15 302.5 2.5Q263 -10 225 -10Q176 -10 142.5 3.5Q109 17 88.5 39Q68 61 59 90Q50 119 50 151Q50 183 59.5 210Q69 237 90 257.5Q111 278 145 291Q179 304 228 307L360 315ZM223 253Q169 248 145 221.5Q121 195 121 151Q121 134 124 116.5Q127 99 138 84.5Q149 70 170 61Q191 52 227 52Q268 52 298 62.5Q328 73 360 92V266ZM371 550 241 691 111 550H56L201 750H281L426 550Z" glyph-name="acircumflex" horiz-adv-x="495" unicode="&#226;" /><glyph d="M470 0H431L416 41Q377 16 339 3Q301 -10 260 -10Q200 -10 160 10.5Q120 31 97 66Q74 101 64.5 148.5Q55 196 55 250Q55 304 64.5 351.5Q74 399 97 434Q120 469 160 489.5Q200 510 260 510Q300 510 340.5 497Q381 484 416 458L431 500H470ZM260 52Q309 52 340 60Q371 68 400 84V416Q371 432 340 440Q309 448 260 448Q215 448 188.5 431Q162 414 147.5 386Q133 358 129 322.5Q125 287 125 250Q125 213 129 177.5Q133 142 147.5 114Q162 86 188.5 69Q215 52 260 52ZM395 550 265 691 135 550H80L225 750H305L450 550Z" glyph-name="acircumflex.school" horiz-adv-x="535" unicode="&#57421;" /><glyph d="M427 0 381 120H148L103 0H30L240 510H290L500 0ZM168 172H361L265 427ZM395 550 265 691 135 550H80L225 750H305L450 550Z" glyph-name="acircumflex.small" horiz-adv-x="530" unicode="&#57480;" /><glyph d="M260 550 310 750H390L310 550Z" glyph-name="acute" horiz-adv-x="570" unicode="&#180;" /><glyph d="M260 800 310 900H400L310 800Z" glyph-name="acute.cap" horiz-adv-x="570" unicode="&#57703;" /><glyph d="M360 343Q360 370 354.5 390Q349 410 335.5 423Q322 436 299 442Q276 448 241 448Q190 448 155 440.5Q120 433 91 423V483Q124 497 164.5 503.5Q205 510 241 510Q297 510 333.5 498Q370 486 391.5 463.5Q413 441 421.5 410Q430 379 430 342V0H391L376 40Q342 15 302.5 2.5Q263 -10 225 -10Q176 -10 142.5 3.5Q109 17 88.5 39Q68 61 59 90Q50 119 50 151Q50 183 59.5 210Q69 237 90 257.5Q111 278 145 291Q179 304 228 307L360 315ZM223 253Q169 248 145 221.5Q121 195 121 151Q121 134 124 116.5Q127 99 138 84.5Q149 70 170 61Q191 52 227 52Q268 52 298 62.5Q328 73 360 92V266ZM96 650Q96 671 110.5 685.5Q125 700 146 700Q167 700 181.5 685.5Q196 671 196 650Q196 629 181.5 614.5Q167 600 146 600Q125 600 110.5 614.5Q96 629 96 650ZM286 650Q286 671 300.5 685.5Q315 700 336 700Q357 700 371.5 685.5Q386 671 386 650Q386 629 371.5 614.5Q357 600 336 600Q315 600 300.5 614.5Q286 629 286 650Z" glyph-name="adieresis" horiz-adv-x="495" unicode="&#228;" /><glyph d="M470 0H431L416 41Q377 16 339 3Q301 -10 260 -10Q200 -10 160 10.5Q120 31 97 66Q74 101 64.5 148.5Q55 196 55 250Q55 304 64.5 351.5Q74 399 97 434Q120 469 160 489.5Q200 510 260 510Q300 510 340.5 497Q381 484 416 458L431 500H470ZM260 52Q309 52 340 60Q371 68 400 84V416Q371 432 340 440Q309 448 260 448Q215 448 188.5 431Q162 414 147.5 386Q133 358 129 322.5Q125 287 125 250Q125 213 129 177.5Q133 142 147.5 114Q162 86 188.5 69Q215 52 260 52ZM120 650Q120 671 134.5 685.5Q149 700 170 700Q191 700 205.5 685.5Q220 671 220 650Q220 629 205.5 614.5Q191 600 170 600Q149 600 134.5 614.5Q120 629 120 650ZM310 650Q310 671 324.5 685.5Q339 700 360 700Q381 700 395.5 685.5Q410 671 410 650Q410 629 395.5 614.5Q381 600 360 600Q339 600 324.5 614.5Q310 629 310 650Z" glyph-name="adieresis.school" horiz-adv-x="535" unicode="&#57422;" /><glyph d="M427 0 381 120H148L103 0H30L240 510H290L500 0ZM168 172H361L265 427ZM120 650Q120 671 134.5 685.5Q149 700 170 700Q191 700 205.5 685.5Q220 671 220 650Q220 629 205.5 614.5Q191 600 170 600Q149 600 134.5 614.5Q120 629 120 650ZM310 650Q310 671 324.5 685.5Q339 700 360 700Q381 700 395.5 685.5Q410 671 410 650Q410 629 395.5 614.5Q381 600 360 600Q339 600 324.5 614.5Q310 629 310 650Z" glyph-name="adieresis.small" horiz-adv-x="530" unicode="&#57481;" /><glyph d="M360 343Q360 370 354.5 390Q349 410 335.5 423Q322 436 299 442Q276 448 241 448Q190 448 155 440.5Q120 433 91 423V483Q124 497 164.5 503.5Q205 510 241 510Q297 510 333.5 498Q370 486 391.5 463.5Q413 441 421.5 410Q430 379 430 342V0H391L376 40Q342 15 302.5 2.5Q263 -10 225 -10Q176 -10 142.5 3.5Q109 17 88.5 39Q68 61 59 90Q50 119 50 151Q50 183 59.5 210Q69 237 90 257.5Q111 278 145 291Q179 304 228 307L360 315ZM223 253Q169 248 145 221.5Q121 195 121 151Q121 134 124 116.5Q127 99 138 84.5Q149 70 170 61Q191 52 227 52Q268 52 298 62.5Q328 73 360 92V266ZM146 560Q123 560 107 576Q91 592 91 615Q91 638 107 654Q123 670 146 670Q169 670 185 654Q201 638 201 615Q201 592 185 576Q169 560 146 560ZM391 615Q391 592 375 576Q359 560 336 560Q313 560 297 576Q281 592 281 615Q281 638 297 654Q313 670 336 670Q359 670 375 654Q391 638 391 615ZM104 770H378V710H104Z" glyph-name="adieresismacron" horiz-adv-x="495" unicode="&#479;" /><glyph d="M470 0H431L416 41Q377 16 339 3Q301 -10 260 -10Q200 -10 160 10.5Q120 31 97 66Q74 101 64.5 148.5Q55 196 55 250Q55 304 64.5 351.5Q74 399 97 434Q120 469 160 489.5Q200 510 260 510Q300 510 340.5 497Q381 484 416 458L431 500H470ZM260 52Q309 52 340 60Q371 68 400 84V416Q371 432 340 440Q309 448 260 448Q215 448 188.5 431Q162 414 147.5 386Q133 358 129 322.5Q125 287 125 250Q125 213 129 177.5Q133 142 147.5 114Q162 86 188.5 69Q215 52 260 52ZM128 770H402V710H128ZM120 615Q120 636 134.5 650.5Q149 665 170 665Q191 665 205.5 650.5Q220 636 220 615Q220 594 205.5 579.5Q191 565 170 565Q149 565 134.5 579.5Q120 594 120 615ZM310 615Q310 636 324.5 650.5Q339 665 360 665Q381 665 395.5 650.5Q410 636 410 615Q410 594 395.5 579.5Q381 565 360 565Q339 565 324.5 579.5Q310 594 310 615Z" glyph-name="adieresismacron.school" horiz-adv-x="535" unicode="&#57432;" /><glyph d="M427 0 381 120H148L103 0H30L240 510H290L500 0ZM168 172H361L265 427ZM128 770H402V710H128ZM120 615Q120 636 134.5 650.5Q149 665 170 665Q191 665 205.5 650.5Q220 636 220 615Q220 594 205.5 579.5Q191 565 170 565Q149 565 134.5 579.5Q120 594 120 615ZM310 615Q310 636 324.5 650.5Q339 665 360 665Q381 665 395.5 650.5Q410 636 410 615Q410 594 395.5 579.5Q381 565 360 565Q339 565 324.5 579.5Q310 594 310 615Z" glyph-name="adieresismacron.small" horiz-adv-x="530" unicode="&#57491;" /><glyph d="M360 343Q360 370 354.5 390Q349 410 335.5 423Q322 436 299 442Q276 448 241 448Q190 448 155 440.5Q120 433 91 423V483Q124 497 164.5 503.5Q205 510 241 510Q297 510 333.5 498Q370 486 391.5 463.5Q413 441 421.5 410Q430 379 430 342V0H391L376 40Q342 15 302.5 2.5Q263 -10 225 -10Q176 -10 142.5 3.5Q109 17 88.5 39Q68 61 59 90Q50 119 50 151Q50 183 59.5 210Q69 237 90 257.5Q111 278 145 291Q179 304 228 307L360 315ZM223 253Q169 248 145 221.5Q121 195 121 151Q121 134 124 116.5Q127 99 138 84.5Q149 70 170 61Q191 52 227 52Q268 52 298 62.5Q328 73 360 92V266ZM191 650Q191 671 205.5 685.5Q220 700 241 700Q262 700 276.5 685.5Q291 671 291 650Q291 629 276.5 614.5Q262 600 241 600Q220 600 205.5 614.5Q191 629 191 650Z" glyph-name="adotabove" horiz-adv-x="495" unicode="&#57382;" /><glyph d="M470 0H431L416 41Q377 16 339 3Q301 -10 260 -10Q200 -10 160 10.5Q120 31 97 66Q74 101 64.5 148.5Q55 196 55 250Q55 304 64.5 351.5Q74 399 97 434Q120 469 160 489.5Q200 510 260 510Q300 510 340.5 497Q381 484 416 458L431 500H470ZM260 52Q309 52 340 60Q371 68 400 84V416Q371 432 340 440Q309 448 260 448Q215 448 188.5 431Q162 414 147.5 386Q133 358 129 322.5Q125 287 125 250Q125 213 129 177.5Q133 142 147.5 114Q162 86 188.5 69Q215 52 260 52ZM215 650Q215 671 229.5 685.5Q244 700 265 700Q286 700 300.5 685.5Q315 671 315 650Q315 629 300.5 614.5Q286 600 265 600Q244 600 229.5 614.5Q215 629 215 650Z" glyph-name="adotabove.school" horiz-adv-x="535" unicode="&#57430;" /><glyph d="M427 0 381 120H148L103 0H30L240 510H290L500 0ZM168 172H361L265 427ZM215 650Q215 671 229.5 685.5Q244 700 265 700Q286 700 300.5 685.5Q315 671 315 650Q315 629 300.5 614.5Q286 600 265 600Q244 600 229.5 614.5Q215 629 215 650Z" glyph-name="adotabove.small" horiz-adv-x="530" unicode="&#57489;" /><glyph d="M360 343Q360 370 354.5 390Q349 410 335.5 423Q322 436 299 442Q276 448 241 448Q190 448 155 440.5Q120 433 91 423V483Q124 497 164.5 503.5Q205 510 241 510Q297 510 333.5 498Q370 486 391.5 463.5Q413 441 421.5 410Q430 379 430 342V0H391L376 40Q342 15 302.5 2.5Q263 -10 225 -10Q176 -10 142.5 3.5Q109 17 88.5 39Q68 61 59 90Q50 119 50 151Q50 183 59.5 210Q69 237 90 257.5Q111 278 145 291Q179 304 228 307L360 315ZM223 253Q169 248 145 221.5Q121 195 121 151Q121 134 124 116.5Q127 99 138 84.5Q149 70 170 61Q191 52 227 52Q268 52 298 62.5Q328 73 360 92V266ZM146 550 46 750H146L196 550ZM286 550 186 750H286L336 550Z" glyph-name="adoublegrave" horiz-adv-x="495" unicode="&#57381;" /><glyph d="M470 0H431L416 41Q377 16 339 3Q301 -10 260 -10Q200 -10 160 10.5Q120 31 97 66Q74 101 64.5 148.5Q55 196 55 250Q55 304 64.5 351.5Q74 399 97 434Q120 469 160 489.5Q200 510 260 510Q300 510 340.5 497Q381 484 416 458L431 500H470ZM260 52Q309 52 340 60Q371 68 400 84V416Q371 432 340 440Q309 448 260 448Q215 448 188.5 431Q162 414 147.5 386Q133 358 129 322.5Q125 287 125 250Q125 213 129 177.5Q133 142 147.5 114Q162 86 188.5 69Q215 52 260 52ZM180 550 100 750H180L230 550ZM300 550 220 750H300L350 550Z" glyph-name="adoublegrave.school" horiz-adv-x="535" unicode="&#57429;" /><glyph d="M427 0 381 120H148L103 0H30L240 510H290L500 0ZM168 172H361L265 427ZM180 550 100 750H180L230 550ZM300 550 220 750H300L350 550Z" glyph-name="adoublegrave.small" horiz-adv-x="530" unicode="&#57488;" /><glyph d="M380 343Q380 398 350.5 423Q321 448 249 448Q197 448 158.5 440.5Q120 433 91 423V483Q124 497 168 503.5Q212 510 249 510Q321 510 363.5 491.5Q406 473 426 441Q450 473 489.5 491.5Q529 510 590 510Q654 510 691.5 489.5Q729 469 748.5 434Q768 399 774 351.5Q780 304 780 250V224H450V218Q451 185 457.5 155Q464 125 479 102Q494 79 521 65.5Q548 52 590 52Q644 52 681 58Q718 64 755 80V20Q713 1 670 -4.5Q627 -10 590 -10Q530 -10 490.5 8Q451 26 427 58L396 34Q362 9 319.5 -0.5Q277 -10 239 -10Q188 -10 152.5 1.5Q117 13 94 33.5Q71 54 60.5 81.5Q50 109 50 141Q50 170 58 195.5Q66 221 86.5 240Q107 259 142.5 270Q178 281 234 281H380ZM229 224Q197 224 176 218Q155 212 143 201Q131 190 126 174.5Q121 159 121 141Q121 124 126 108Q131 92 144.5 79.5Q158 67 181 59.5Q204 52 241 52Q283 52 321 64.5Q359 77 382 97L399 112Q383 160 380 223V224ZM590 448Q547 448 520.5 434Q494 420 479 397Q464 374 457.5 344Q451 314 450 281H710Q710 313 707 343Q704 373 692 396.5Q680 420 656 434Q632 448 590 448Z" glyph-name="ae" horiz-adv-x="835" unicode="&#230;" /><glyph d="M669 226H412L446 61H704V0H389L366 120H154L94 0H20L287 500H704V439H368L399 287H669ZM181 172H356L308 424Z" glyph-name="ae.small" horiz-adv-x="764" unicode="&#57494;" /><glyph d="M380 343Q380 398 350.5 423Q321 448 249 448Q197 448 158.5 440.5Q120 433 91 423V483Q124 497 168 503.5Q212 510 249 510Q321 510 363.5 491.5Q406 473 426 441Q450 473 489.5 491.5Q529 510 590 510Q654 510 691.5 489.5Q729 469 748.5 434Q768 399 774 351.5Q780 304 780 250V224H450V218Q451 185 457.5 155Q464 125 479 102Q494 79 521 65.5Q548 52 590 52Q644 52 681 58Q718 64 755 80V20Q713 1 670 -4.5Q627 -10 590 -10Q530 -10 490.5 8Q451 26 427 58L396 34Q362 9 319.5 -0.5Q277 -10 239 -10Q188 -10 152.5 1.5Q117 13 94 33.5Q71 54 60.5 81.5Q50 109 50 141Q50 170 58 195.5Q66 221 86.5 240Q107 259 142.5 270Q178 281 234 281H380ZM229 224Q197 224 176 218Q155 212 143 201Q131 190 126 174.5Q121 159 121 141Q121 124 126 108Q131 92 144.5 79.5Q158 67 181 59.5Q204 52 241 52Q283 52 321 64.5Q359 77 382 97L399 112Q383 160 380 223V224ZM590 448Q547 448 520.5 434Q494 420 479 397Q464 374 457.5 344Q451 314 450 281H710Q710 313 707 343Q704 373 692 396.5Q680 420 656 434Q632 448 590 448ZM395 550 445 750H545L445 550Z" glyph-name="aeacute" horiz-adv-x="835" unicode="&#509;" /><glyph d="M669 226H412L446 61H704V0H389L366 120H154L94 0H20L287 500H704V439H368L399 287H669ZM181 172H356L308 424ZM320 550 370 750H450L370 550Z" glyph-name="aeacute.small" horiz-adv-x="764" unicode="&#57495;" /><glyph d="M380 343Q380 398 350.5 423Q321 448 249 448Q197 448 158.5 440.5Q120 433 91 423V483Q124 497 168 503.5Q212 510 249 510Q321 510 363.5 491.5Q406 473 426 441Q450 473 489.5 491.5Q529 510 590 510Q654 510 691.5 489.5Q729 469 748.5 434Q768 399 774 351.5Q780 304 780 250V224H450V218Q451 185 457.5 155Q464 125 479 102Q494 79 521 65.5Q548 52 590 52Q644 52 681 58Q718 64 755 80V20Q713 1 670 -4.5Q627 -10 590 -10Q530 -10 490.5 8Q451 26 427 58L396 34Q362 9 319.5 -0.5Q277 -10 239 -10Q188 -10 152.5 1.5Q117 13 94 33.5Q71 54 60.5 81.5Q50 109 50 141Q50 170 58 195.5Q66 221 86.5 240Q107 259 142.5 270Q178 281 234 281H380ZM229 224Q197 224 176 218Q155 212 143 201Q131 190 126 174.5Q121 159 121 141Q121 124 126 108Q131 92 144.5 79.5Q158 67 181 59.5Q204 52 241 52Q283 52 321 64.5Q359 77 382 97L399 112Q383 160 380 223V224ZM590 448Q547 448 520.5 434Q494 420 479 397Q464 374 457.5 344Q451 314 450 281H710Q710 313 707 343Q704 373 692 396.5Q680 420 656 434Q632 448 590 448ZM283 680H557V620H283Z" glyph-name="aemacron" horiz-adv-x="835" unicode="&#483;" /><glyph d="M669 226H412L446 61H704V0H389L366 120H154L94 0H20L287 500H704V439H368L399 287H669ZM181 172H356L308 424ZM208 680H482V620H208Z" glyph-name="aemacron.small" horiz-adv-x="764" unicode="&#57496;" /><glyph d="M360 343Q360 370 354.5 390Q349 410 335.5 423Q322 436 299 442Q276 448 241 448Q190 448 155 440.5Q120 433 91 423V483Q124 497 164.5 503.5Q205 510 241 510Q297 510 333.5 498Q370 486 391.5 463.5Q413 441 421.5 410Q430 379 430 342V0H391L376 40Q342 15 302.5 2.5Q263 -10 225 -10Q176 -10 142.5 3.5Q109 17 88.5 39Q68 61 59 90Q50 119 50 151Q50 183 59.5 210Q69 237 90 257.5Q111 278 145 291Q179 304 228 307L360 315ZM223 253Q169 248 145 221.5Q121 195 121 151Q121 134 124 116.5Q127 99 138 84.5Q149 70 170 61Q191 52 227 52Q268 52 298 62.5Q328 73 360 92V266ZM216 550 136 750H216L266 550Z" glyph-name="agrave" horiz-adv-x="495" unicode="&#224;" /><glyph d="M470 0H431L416 41Q377 16 339 3Q301 -10 260 -10Q200 -10 160 10.5Q120 31 97 66Q74 101 64.5 148.5Q55 196 55 250Q55 304 64.5 351.5Q74 399 97 434Q120 469 160 489.5Q200 510 260 510Q300 510 340.5 497Q381 484 416 458L431 500H470ZM260 52Q309 52 340 60Q371 68 400 84V416Q371 432 340 440Q309 448 260 448Q215 448 188.5 431Q162 414 147.5 386Q133 358 129 322.5Q125 287 125 250Q125 213 129 177.5Q133 142 147.5 114Q162 86 188.5 69Q215 52 260 52ZM240 550 160 750H240L290 550Z" glyph-name="agrave.school" horiz-adv-x="535" unicode="&#57420;" /><glyph d="M427 0 381 120H148L103 0H30L240 510H290L500 0ZM168 172H361L265 427ZM240 550 160 750H240L290 550Z" glyph-name="agrave.small" horiz-adv-x="530" unicode="&#57479;" /><glyph d="M360 343Q360 370 354.5 390Q349 410 335.5 423Q322 436 299 442Q276 448 241 448Q190 448 155 440.5Q120 433 91 423V483Q124 497 164.5 503.5Q205 510 241 510Q297 510 333.5 498Q370 486 391.5 463.5Q413 441 421.5 410Q430 379 430 342V0H391L376 40Q342 15 302.5 2.5Q263 -10 225 -10Q176 -10 142.5 3.5Q109 17 88.5 39Q68 61 59 90Q50 119 50 151Q50 183 59.5 210Q69 237 90 257.5Q111 278 145 291Q179 304 228 307L360 315ZM223 253Q169 248 145 221.5Q121 195 121 151Q121 134 124 116.5Q127 99 138 84.5Q149 70 170 61Q191 52 227 52Q268 52 298 62.5Q328 73 360 92V266ZM241 750Q412 750 416 550H365Q364 584 358.5 610Q353 636 339 654Q325 672 301 681Q277 690 241 690Q205 690 181 681Q157 672 143 654Q129 636 123.5 610Q118 584 117 550H66Q70 750 241 750Z" glyph-name="ainvertedbreve" horiz-adv-x="495" unicode="&#515;" /><glyph d="M470 0H431L416 41Q377 16 339 3Q301 -10 260 -10Q200 -10 160 10.5Q120 31 97 66Q74 101 64.5 148.5Q55 196 55 250Q55 304 64.5 351.5Q74 399 97 434Q120 469 160 489.5Q200 510 260 510Q300 510 340.5 497Q381 484 416 458L431 500H470ZM260 52Q309 52 340 60Q371 68 400 84V416Q371 432 340 440Q309 448 260 448Q215 448 188.5 431Q162 414 147.5 386Q133 358 129 322.5Q125 287 125 250Q125 213 129 177.5Q133 142 147.5 114Q162 86 188.5 69Q215 52 260 52ZM265 750Q436 750 440 550H389Q388 584 382.5 610Q377 636 363 654Q349 672 325 681Q301 690 265 690Q229 690 205 681Q181 672 167 654Q153 636 147.5 610Q142 584 141 550H90Q94 750 265 750Z" glyph-name="ainvertedbreve.school" horiz-adv-x="535" unicode="&#57428;" /><glyph d="M427 0 381 120H148L103 0H30L240 510H290L500 0ZM168 172H361L265 427ZM265 750Q436 750 440 550H389Q388 584 382.5 610Q377 636 363 654Q349 672 325 681Q301 690 265 690Q229 690 205 681Q181 672 167 654Q153 636 147.5 610Q142 584 141 550H90Q94 750 265 750Z" glyph-name="ainvertedbreve.small" horiz-adv-x="530" unicode="&#57487;" /><glyph d="M250 -50Q321 -58 358 -87Q395 -116 395 -161Q395 -202 366 -226Q337 -250 284 -250Q243 -250 220.5 -243.5Q198 -237 190 -232V-186Q201 -190 213 -193Q224 -195 237.5 -197Q251 -199 267 -199Q298 -199 316 -190.5Q334 -182 334 -163Q334 -147 326.5 -135Q319 -123 307 -115Q295 -107 279 -102Q263 -97 245 -95Z" glyph-name="altcedilla" horiz-adv-x="570" unicode="&#57702;" /><glyph d="M360 343Q360 370 354.5 390Q349 410 335.5 423Q322 436 299 442Q276 448 241 448Q190 448 155 440.5Q120 433 91 423V483Q124 497 164.5 503.5Q205 510 241 510Q297 510 333.5 498Q370 486 391.5 463.5Q413 441 421.5 410Q430 379 430 342V0H391L376 40Q342 15 302.5 2.5Q263 -10 225 -10Q176 -10 142.5 3.5Q109 17 88.5 39Q68 61 59 90Q50 119 50 151Q50 183 59.5 210Q69 237 90 257.5Q111 278 145 291Q179 304 228 307L360 315ZM223 253Q169 248 145 221.5Q121 195 121 151Q121 134 124 116.5Q127 99 138 84.5Q149 70 170 61Q191 52 227 52Q268 52 298 62.5Q328 73 360 92V266ZM104 680H378V620H104Z" glyph-name="amacron" horiz-adv-x="495" unicode="&#257;" /><glyph d="M470 0H431L416 41Q377 16 339 3Q301 -10 260 -10Q200 -10 160 10.5Q120 31 97 66Q74 101 64.5 148.5Q55 196 55 250Q55 304 64.5 351.5Q74 399 97 434Q120 469 160 489.5Q200 510 260 510Q300 510 340.5 497Q381 484 416 458L431 500H470ZM260 52Q309 52 340 60Q371 68 400 84V416Q371 432 340 440Q309 448 260 448Q215 448 188.5 431Q162 414 147.5 386Q133 358 129 322.5Q125 287 125 250Q125 213 129 177.5Q133 142 147.5 114Q162 86 188.5 69Q215 52 260 52ZM128 680H402V620H128Z" glyph-name="amacron.school" horiz-adv-x="535" unicode="&#57426;" /><glyph d="M427 0 381 120H148L103 0H30L240 510H290L500 0ZM168 172H361L265 427ZM128 680H402V620H128Z" glyph-name="amacron.small" horiz-adv-x="530" unicode="&#57485;" /><glyph d="M141 592Q141 622 150 652Q159 682 179.5 706Q200 730 233 745Q266 760 315 760Q364 760 397 745Q430 730 450 706Q470 682 479 652Q488 622 488 592Q488 552 472.5 523Q457 494 431 471.5Q405 449 371 431.5Q337 414 300 397L274 385Q299 346 327 312Q368 262 411.5 223Q455 184 502 153Q556 212 585.5 300.5Q615 389 615 500H683Q683 377 650.5 280Q618 183 560 116Q596 96 632.5 78.5Q669 61 706 46L682 -10Q639 7 597 27Q555 47 514 71Q465 32 406.5 11Q348 -10 279 -10Q232 -10 189.5 0.5Q147 11 115 35.5Q83 60 64 100Q45 140 45 198Q45 246 56.5 280Q68 314 87 339Q106 364 131 381Q156 398 184 412Q164 454 152.5 498.5Q141 543 141 592ZM278 269Q243 311 215 356Q194 345 175.5 331.5Q157 318 143.5 300Q130 282 122.5 257Q115 232 115 198Q115 155 130 127.5Q145 100 168.5 83.5Q192 67 221 60.5Q250 54 279 54Q377 54 452 109Q405 141 362 179.5Q319 218 278 269ZM210 592Q210 551 219 513.5Q228 476 245 440L272 453Q300 466 326.5 479Q353 492 374 508Q395 524 407.5 544.5Q420 565 420 592Q420 612 415 631Q410 650 398 665Q386 680 365.5 689Q345 698 315 698Q285 698 264.5 689Q244 680 232 665Q220 650 215 631Q210 612 210 592Z" glyph-name="ampersand" horiz-adv-x="705" unicode="&amp;" /><glyph d="M403 590Q406 599 408 610.5Q410 622 410 638Q410 649 407 660Q404 671 395 679.5Q386 688 369.5 693Q353 698 325 698Q292 698 271 686.5Q250 675 238 657Q226 639 222 617Q218 595 218 575Q218 525 233 458.5Q248 392 281 324.5Q314 257 365.5 196.5Q417 136 490 99Q534 127 562 172.5Q590 218 590 285Q590 328 580.5 357Q571 386 554.5 404Q538 422 515 430Q492 438 465 438Q444 438 427.5 437Q411 436 397.5 434Q384 432 371.5 428.5Q359 425 345 421V481Q383 493 409 496.5Q435 500 465 500Q507 500 542.5 487.5Q578 475 604.5 448.5Q631 422 645.5 381.5Q660 341 660 285Q660 213 632.5 160.5Q605 108 560 71Q612 56 675 56V-10Q574 -10 489 27Q448 8 405 -1Q362 -10 320 -10Q260 -10 208.5 3Q157 16 119.5 44Q82 72 61 117Q40 162 40 225Q40 262 50.5 293Q61 324 79 349Q97 374 120.5 392.5Q144 411 170 423Q149 501 149 575Q149 605 157.5 638Q166 671 186.5 698Q207 725 241 742.5Q275 760 325 760Q370 760 399 750.5Q428 741 445 724.5Q462 708 468.5 685.5Q475 663 475 638Q475 626 472 613Q469 600 465 590ZM320 52Q343 52 367.5 55Q392 58 416 65Q335 118 278.5 196Q222 274 190 360Q158 343 134 311.5Q110 280 110 225Q110 179 125.5 146.5Q141 114 169 93Q197 72 235.5 62Q274 52 320 52Z" glyph-name="ampersand.alt" horiz-adv-x="705" unicode="&#57696;" /><glyph d="M223 500Q237 448 264.5 401Q292 354 327 312Q368 262 411.5 223Q455 184 502 153Q556 212 585.5 300.5Q615 389 615 500H683Q683 377 650.5 280Q618 183 560 116Q596 96 632.5 78.5Q669 61 706 46L682 -10Q639 7 597 27Q555 47 514 71Q465 32 406.5 11Q348 -10 279 -10Q232 -10 189.5 0.5Q147 11 115 35.5Q83 60 64 100Q45 140 45 198Q45 246 56.5 280Q68 314 87 339Q106 364 131 381Q156 398 184 412Q162 456 152 500ZM278 269Q243 311 215 356Q194 345 175.5 331.5Q157 318 143.5 300Q130 282 122.5 257Q115 232 115 198Q115 155 130 127.5Q145 100 168.5 83.5Q192 67 221 60.5Q250 54 279 54Q377 54 452 109Q405 141 362 179.5Q319 218 278 269Z" glyph-name="ampersand.small" horiz-adv-x="705" unicode="&#57697;" /><glyph d="M175 -206 40 305 175 816H250L118 305L250 -206Z" glyph-name="anglebracketleft" horiz-adv-x="280" unicode="&#12296;" /><glyph d="M175 -136 40 375 175 886H250L118 375L250 -136Z" glyph-name="anglebracketleft.cap" horiz-adv-x="280" unicode="&#57742;" /><glyph d="M105 816 240 305 105 -206H30L162 305L30 816Z" glyph-name="anglebracketright" horiz-adv-x="280" unicode="&#12297;" /><glyph d="M105 886 240 375 105 -136H30L162 375L30 886Z" glyph-name="anglebracketright.cap" horiz-adv-x="280" unicode="&#57743;" /><glyph d="M30 0 240 510H290L500 0H427L265 427L103 0Z" glyph-name="anocross.small" horiz-adv-x="530" unicode="&#57493;" /><glyph d="M360 343Q360 370 354.5 390Q349 410 335.5 423Q322 436 299 442Q276 448 241 448Q190 448 155 440.5Q120 433 91 423V483Q124 497 164.5 503.5Q205 510 241 510Q297 510 333.5 498Q370 486 391.5 463.5Q413 441 421.5 410Q430 379 430 342V0Q381 -27 352.5 -65Q324 -103 324 -142Q324 -165 336.5 -182Q349 -199 378 -199Q395 -199 409.5 -196.5Q424 -194 435 -191V-239Q422 -244 404 -247Q386 -250 364 -250Q319 -250 291 -225Q263 -200 263 -155Q263 -104 293.5 -57.5Q324 -11 383 21L376 40Q342 15 302.5 2.5Q263 -10 225 -10Q176 -10 142.5 3.5Q109 17 88.5 39Q68 61 59 90Q50 119 50 151Q50 183 59.5 210Q69 237 90 257.5Q111 278 145 291Q179 304 228 307L360 315ZM223 253Q169 248 145 221.5Q121 195 121 151Q121 134 124 116.5Q127 99 138 84.5Q149 70 170 61Q191 52 227 52Q268 52 298 62.5Q328 73 360 92V266Z" glyph-name="aogonek" horiz-adv-x="495" unicode="&#261;" /><glyph d="M470 0Q421 -27 392.5 -65Q364 -103 364 -142Q364 -165 376.5 -182Q389 -199 418 -199Q435 -199 449.5 -196.5Q464 -194 475 -191V-239Q462 -244 444 -247Q426 -250 404 -250Q359 -250 331 -225Q303 -200 303 -155Q303 -104 333.5 -57.5Q364 -11 423 21L416 41Q377 16 339 3Q301 -10 260 -10Q200 -10 160 10.5Q120 31 97 66Q74 101 64.5 148.5Q55 196 55 250Q55 304 64.5 351.5Q74 399 97 434Q120 469 160 489.5Q200 510 260 510Q300 510 340.5 497Q381 484 416 458L431 500H470ZM260 52Q309 52 340 60Q371 68 400 84V416Q371 432 340 440Q309 448 260 448Q215 448 188.5 431Q162 414 147.5 386Q133 358 129 322.5Q125 287 125 250Q125 213 129 177.5Q133 142 147.5 114Q162 86 188.5 69Q215 52 260 52Z" glyph-name="aogonek.school" horiz-adv-x="535" unicode="&#57433;" /><glyph d="M500 0Q451 -27 422.5 -65Q394 -103 394 -142Q394 -165 406.5 -182Q419 -199 448 -199Q465 -199 479.5 -196.5Q494 -194 505 -191V-239Q492 -244 474 -247Q456 -250 434 -250Q389 -250 361 -225Q333 -200 333 -155Q333 -110 356.5 -69.5Q380 -29 425 3L381 120H148L103 0H30L240 510H290ZM168 172H361L265 427Z" glyph-name="aogonek.small" horiz-adv-x="530" unicode="&#57492;" /><glyph d="M342 400Q361 400 377.5 404.5Q394 409 407.5 415Q421 421 430.5 428Q440 435 445 440V375Q432 363 405.5 352Q379 341 344 341Q306 341 281.5 352.5Q257 364 237 377.5Q217 391 197 402.5Q177 414 148 414Q129 414 112.5 409.5Q96 405 82.5 399Q69 393 59.5 386Q50 379 45 374V439Q58 451 84.5 462Q111 473 146 473Q184 473 208.5 461.5Q233 450 253 436.5Q273 423 293 411.5Q313 400 342 400ZM342 268Q361 268 377.5 272.5Q394 277 407.5 283Q421 289 430.5 296Q440 303 445 308V243Q432 231 405.5 220Q379 209 344 209Q306 209 281.5 220.5Q257 232 237 245.5Q217 259 197 270.5Q177 282 148 282Q129 282 112.5 277.5Q96 273 82.5 267Q69 261 59.5 254Q50 247 45 242V307Q58 319 84.5 330Q111 341 146 341Q184 341 208.5 329.5Q233 318 253 304.5Q273 291 293 279.5Q313 268 342 268Z" glyph-name="approxequal" horiz-adv-x="490" unicode="&#8776;" /><glyph d="M360 343Q360 370 354.5 390Q349 410 335.5 423Q322 436 299 442Q276 448 241 448Q190 448 155 440.5Q120 433 91 423V483Q124 497 164.5 503.5Q205 510 241 510Q297 510 333.5 498Q370 486 391.5 463.5Q413 441 421.5 410Q430 379 430 342V0H391L376 40Q342 15 302.5 2.5Q263 -10 225 -10Q176 -10 142.5 3.5Q109 17 88.5 39Q68 61 59 90Q50 119 50 151Q50 183 59.5 210Q69 237 90 257.5Q111 278 145 291Q179 304 228 307L360 315ZM223 253Q169 248 145 221.5Q121 195 121 151Q121 134 124 116.5Q127 99 138 84.5Q149 70 170 61Q191 52 227 52Q268 52 298 62.5Q328 73 360 92V266ZM241 702Q218 702 202.5 690Q187 678 187 650Q187 622 202.5 610Q218 598 241 598Q264 598 279.5 610Q295 622 295 650Q295 678 279.5 690Q264 702 241 702ZM241 549Q196 549 166.5 573.5Q137 598 137 650Q137 702 166.5 726.5Q196 751 241 751Q286 751 315.5 726.5Q345 702 345 650Q345 598 315.5 573.5Q286 549 241 549Z" glyph-name="aring" horiz-adv-x="495" unicode="&#229;" /><glyph d="M470 0H431L416 41Q377 16 339 3Q301 -10 260 -10Q200 -10 160 10.5Q120 31 97 66Q74 101 64.5 148.5Q55 196 55 250Q55 304 64.5 351.5Q74 399 97 434Q120 469 160 489.5Q200 510 260 510Q300 510 340.5 497Q381 484 416 458L431 500H470ZM260 52Q309 52 340 60Q371 68 400 84V416Q371 432 340 440Q309 448 260 448Q215 448 188.5 431Q162 414 147.5 386Q133 358 129 322.5Q125 287 125 250Q125 213 129 177.5Q133 142 147.5 114Q162 86 188.5 69Q215 52 260 52ZM265 702Q242 702 226.5 690Q211 678 211 650Q211 622 226.5 610Q242 598 265 598Q288 598 303.5 610Q319 622 319 650Q319 678 303.5 690Q288 702 265 702ZM265 549Q220 549 190.5 573.5Q161 598 161 650Q161 702 190.5 726.5Q220 751 265 751Q310 751 339.5 726.5Q369 702 369 650Q369 598 339.5 573.5Q310 549 265 549Z" glyph-name="aring.school" horiz-adv-x="535" unicode="&#57424;" /><glyph d="M427 0 381 120H148L103 0H30L240 510H290L500 0ZM168 172H361L265 427ZM265 702Q242 702 226.5 690Q211 678 211 650Q211 622 226.5 610Q242 598 265 598Q288 598 303.5 610Q319 622 319 650Q319 678 303.5 690Q288 702 265 702ZM265 549Q220 549 190.5 573.5Q161 598 161 650Q161 702 190.5 726.5Q220 751 265 751Q310 751 339.5 726.5Q369 702 369 650Q369 598 339.5 573.5Q310 549 265 549Z" glyph-name="aring.small" horiz-adv-x="530" unicode="&#57483;" /><glyph d="M360 343Q360 370 354.5 390Q349 410 335.5 423Q322 436 299 442Q276 448 241 448Q190 448 155 440.5Q120 433 91 423V483Q124 497 164.5 503.5Q205 510 241 510Q297 510 333.5 498Q370 486 391.5 463.5Q413 441 421.5 410Q430 379 430 342V0H391L376 40Q342 15 302.5 2.5Q263 -10 225 -10Q176 -10 142.5 3.5Q109 17 88.5 39Q68 61 59 90Q50 119 50 151Q50 183 59.5 210Q69 237 90 257.5Q111 278 145 291Q179 304 228 307L360 315ZM241 549Q196 549 166.5 573.5Q137 598 137 650Q137 661 138.5 672.5Q140 684 144 693L201 838H271L226 751H241Q286 751 315.5 726.5Q345 702 345 650Q345 598 315.5 573.5Q286 549 241 549ZM223 253Q169 248 145 221.5Q121 195 121 151Q121 134 124 116.5Q127 99 138 84.5Q149 70 170 61Q191 52 227 52Q268 52 298 62.5Q328 73 360 92V266ZM241 702Q218 702 202.5 690Q187 678 187 650Q187 622 202.5 610Q218 598 241 598Q264 598 279.5 610Q295 622 295 650Q295 678 279.5 690Q264 702 241 702Z" glyph-name="aringacute" horiz-adv-x="495" unicode="&#507;" /><glyph d="M470 0H431L416 41Q377 16 339 3Q301 -10 260 -10Q200 -10 160 10.5Q120 31 97 66Q74 101 64.5 148.5Q55 196 55 250Q55 304 64.5 351.5Q74 399 97 434Q120 469 160 489.5Q200 510 260 510Q300 510 340.5 497Q381 484 416 458L431 500H470ZM260 52Q309 52 340 60Q371 68 400 84V416Q371 432 340 440Q309 448 260 448Q215 448 188.5 431Q162 414 147.5 386Q133 358 129 322.5Q125 287 125 250Q125 213 129 177.5Q133 142 147.5 114Q162 86 188.5 69Q215 52 260 52ZM265 549Q220 549 190.5 573.5Q161 598 161 650Q161 661 162.5 672.5Q164 684 168 693L225 838H295L250 751H265Q310 751 339.5 726.5Q369 702 369 650Q369 598 339.5 573.5Q310 549 265 549ZM265 702Q242 702 226.5 690Q211 678 211 650Q211 622 226.5 610Q242 598 265 598Q288 598 303.5 610Q319 622 319 650Q319 678 303.5 690Q288 702 265 702Z" glyph-name="aringacute.school" horiz-adv-x="535" unicode="&#57431;" /><glyph d="M427 0 381 120H148L103 0H30L240 510H290L500 0ZM168 172H361L265 427ZM265 549Q220 549 190.5 573.5Q161 598 161 650Q161 661 162.5 672.5Q164 684 168 693L225 838H295L250 751H265Q310 751 339.5 726.5Q369 702 369 650Q369 598 339.5 573.5Q310 549 265 549ZM265 702Q242 702 226.5 690Q211 678 211 650Q211 622 226.5 610Q242 598 265 598Q288 598 303.5 610Q319 622 319 650Q319 678 303.5 690Q288 702 265 702Z" glyph-name="aringacute.small" horiz-adv-x="530" unicode="&#57490;" /><glyph d="M785 347 430 -8H390L35 347V437L377 95V750H443V95L785 437Z" glyph-name="arrowdown" horiz-adv-x="830" unicode="&#8595;" /><glyph d="M393 0 38 355V395L393 750H483L141 408H795V342H141L483 0Z" glyph-name="arrowleft" horiz-adv-x="830" unicode="&#8592;" /><glyph d="M440 750 795 395V355L440 0H350L692 342H38V408H692L350 750Z" glyph-name="arrowright" horiz-adv-x="830" unicode="&#8594;" /><glyph d="M35 403 390 758H430L785 403V313L443 655V0H377V655L35 313Z" glyph-name="arrowup" horiz-adv-x="830" unicode="&#8593;" /><glyph d="M14 375 247 760H313L546 375H473L280 686L87 375Z" glyph-name="asciicircum" horiz-adv-x="560" unicode="^" /><glyph d="M342 334Q361 334 377.5 338.5Q394 343 407.5 349Q421 355 430.5 362Q440 369 445 374V309Q432 297 405.5 286Q379 275 344 275Q306 275 281.5 286.5Q257 298 237 311.5Q217 325 197 336.5Q177 348 148 348Q129 348 112.5 343.5Q96 339 82.5 333Q69 327 59.5 320Q50 313 45 308V373Q58 385 84.5 396Q111 407 146 407Q184 407 208.5 395.5Q233 384 253 370.5Q273 357 293 345.5Q313 334 342 334Z" glyph-name="asciitilde" horiz-adv-x="490" unicode="~" /><glyph d="M217 550 316 445 253 402 185 528ZM171 528 103 400 42 446 139 550ZM159 609 139 750H217L197 609ZM210 601 339 662 361 588 221 564ZM135 564 -6 588 18 661 146 601Z" glyph-name="asterisk" horiz-adv-x="355" unicode="*" /><glyph d="M40 250Q40 350 66.5 423Q93 496 144 543Q195 590 269.5 612.5Q344 635 440 635Q633 635 731.5 553.5Q830 472 830 308Q830 270 822.5 225Q815 180 791 141Q767 102 723 76Q679 50 607 50H568L553 87Q518 61 484 50.5Q450 40 417 40Q379 40 345.5 52.5Q312 65 287 91Q262 117 247 156.5Q232 196 232 250Q232 304 247 343.5Q262 383 287 409Q312 435 345.5 447.5Q379 460 417 460Q449 460 483.5 449.5Q518 439 553 413L568 450H607V107Q696 106 731 159Q766 212 766 313Q766 384 746.5 434Q727 484 686.5 515.5Q646 547 585 561.5Q524 576 440 576Q356 576 294 558Q232 540 191 500.5Q150 461 129.5 399Q109 337 109 250Q109 163 129.5 101Q150 39 191 -0.5Q232 -40 294 -58Q356 -76 440 -76Q474 -76 509 -73Q544 -70 577.5 -65Q611 -60 641 -52Q671 -44 695 -34L696 -96Q648 -113 579.5 -124Q511 -135 440 -135Q344 -135 269.5 -112.5Q195 -90 144 -43Q93 4 66.5 76.5Q40 149 40 250ZM427 102Q456 102 482 110Q508 118 537 134V366Q508 382 482 390Q456 398 427 398Q361 398 331.5 361.5Q302 325 302 250Q302 175 331.5 138.5Q361 102 427 102Z" glyph-name="at" horiz-adv-x="870" unicode="@" /><glyph d="M40 375Q40 442 47 506Q54 570 73 626.5Q92 683 125 730.5Q158 778 210.5 812.5Q263 847 336.5 866Q410 885 510 885Q610 885 683 871Q756 857 807 831.5Q858 806 890 769Q922 732 939.5 685.5Q957 639 963.5 585Q970 531 970 470Q970 390 958.5 326Q947 262 916.5 217.5Q886 173 832.5 149Q779 125 695 125H656L641 166Q602 141 564 128Q526 115 485 115Q425 115 385 135.5Q345 156 322 191Q299 226 289.5 273.5Q280 321 280 375Q280 429 289.5 476.5Q299 524 322 559Q345 594 385 614.5Q425 635 485 635Q525 635 565.5 622Q606 609 641 583L656 625H695V182Q756 182 796 201.5Q836 221 859.5 258.5Q883 296 892 349Q901 402 901 470Q901 549 889 614.5Q877 680 836.5 727Q796 774 718.5 800Q641 826 510 826Q423 826 359 809Q295 792 250.5 761Q206 730 178.5 688Q151 646 135.5 595.5Q120 545 114.5 489Q109 433 109 375Q109 317 114.5 261Q120 205 135.5 154.5Q151 104 178.5 62Q206 20 250.5 -11Q295 -42 359 -59Q423 -76 510 -76Q598 -76 660 -64.5Q722 -53 765 -32L766 -99Q718 -116 655 -125.5Q592 -135 510 -135Q410 -135 336.5 -116Q263 -97 210.5 -62.5Q158 -28 125 19.5Q92 67 73 123.5Q54 180 47 244Q40 308 40 375ZM485 177Q534 177 565 185Q596 193 625 209V541Q596 557 565 565Q534 573 485 573Q440 573 413.5 556Q387 539 372.5 511Q358 483 354 447.5Q350 412 350 375Q350 338 354 302.5Q358 267 372.5 239Q387 211 413.5 194Q440 177 485 177Z" glyph-name="at.cap" horiz-adv-x="1010" unicode="&#57746;" /><glyph d="M360 343Q360 370 354.5 390Q349 410 335.5 423Q322 436 299 442Q276 448 241 448Q190 448 155 440.5Q120 433 91 423V483Q124 497 164.5 503.5Q205 510 241 510Q297 510 333.5 498Q370 486 391.5 463.5Q413 441 421.5 410Q430 379 430 342V0H391L376 40Q342 15 302.5 2.5Q263 -10 225 -10Q176 -10 142.5 3.5Q109 17 88.5 39Q68 61 59 90Q50 119 50 151Q50 183 59.5 210Q69 237 90 257.5Q111 278 145 291Q179 304 228 307L360 315ZM223 253Q169 248 145 221.5Q121 195 121 151Q121 134 124 116.5Q127 99 138 84.5Q149 70 170 61Q191 52 227 52Q268 52 298 62.5Q328 73 360 92V266ZM317 644Q334 644 343.5 649Q353 654 358 662Q363 670 364.5 678.5Q366 687 366 695H422Q426 642 396.5 613.5Q367 585 313 585Q282 585 263 596Q244 607 229 620.5Q214 634 200 645Q186 656 165 656Q148 656 138.5 651Q129 646 124 638Q119 630 117.5 621Q116 612 116 605H60Q56 658 85.5 686.5Q115 715 169 715Q200 715 219 704Q238 693 253 679.5Q268 666 282 655Q296 644 317 644Z" glyph-name="atilde" horiz-adv-x="495" unicode="&#227;" /><glyph d="M470 0H431L416 41Q377 16 339 3Q301 -10 260 -10Q200 -10 160 10.5Q120 31 97 66Q74 101 64.5 148.5Q55 196 55 250Q55 304 64.5 351.5Q74 399 97 434Q120 469 160 489.5Q200 510 260 510Q300 510 340.5 497Q381 484 416 458L431 500H470ZM260 52Q309 52 340 60Q371 68 400 84V416Q371 432 340 440Q309 448 260 448Q215 448 188.5 431Q162 414 147.5 386Q133 358 129 322.5Q125 287 125 250Q125 213 129 177.5Q133 142 147.5 114Q162 86 188.5 69Q215 52 260 52ZM341 644Q358 644 367.5 649Q377 654 382 662Q387 670 388.5 678.5Q390 687 390 695H446Q450 642 420.5 613.5Q391 585 337 585Q306 585 287 596Q268 607 253 620.5Q238 634 224 645Q210 656 189 656Q172 656 162.5 651Q153 646 148 638Q143 630 141.5 621Q140 612 140 605H84Q80 658 109.5 686.5Q139 715 193 715Q224 715 243 704Q262 693 277 679.5Q292 666 306 655Q320 644 341 644Z" glyph-name="atilde.school" horiz-adv-x="535" unicode="&#57423;" /><glyph d="M427 0 381 120H148L103 0H30L240 510H290L500 0ZM168 172H361L265 427ZM341 644Q358 644 367.5 649Q377 654 382 662Q387 670 388.5 678.5Q390 687 390 695H446Q450 642 420.5 613.5Q391 585 337 585Q306 585 287 596Q268 607 253 620.5Q238 634 224 645Q210 656 189 656Q172 656 162.5 651Q153 646 148 638Q143 630 141.5 621Q140 612 140 605H84Q80 658 109.5 686.5Q139 715 193 715Q224 715 243 704Q262 693 277 679.5Q292 666 306 655Q320 644 341 644Z" glyph-name="atilde.small" horiz-adv-x="530" unicode="&#57482;" /><glyph d="M275 510Q335 510 375 489.5Q415 469 438 434Q461 399 470.5 351.5Q480 304 480 250Q480 196 470.5 148.5Q461 101 438 66Q415 31 375 10.5Q335 -10 275 -10Q234 -10 196 3Q158 16 119 41L104 0H65V750H135V469Q167 490 203.5 500Q240 510 275 510ZM275 448Q226 448 195 440Q164 432 135 416V84Q164 68 195 60Q226 52 275 52Q320 52 346.5 69Q373 86 387.5 114Q402 142 406 177.5Q410 213 410 250Q410 287 406 322.5Q402 358 387.5 386Q373 414 346.5 431Q320 448 275 448Z" glyph-name="b" horiz-adv-x="535" unicode="b" /><glyph d="M75 500H294Q381 500 416 466.5Q451 433 451 370Q451 341 437 315Q423 289 400 277Q435 263 455 227Q475 191 475 151Q475 119 467 91Q459 63 439.5 43Q420 23 388.5 11.5Q357 0 311 0H75ZM404 151Q404 169 400.5 185.5Q397 202 386.5 214.5Q376 227 356.5 234Q337 241 306 241H141V61H306Q337 61 356.5 68Q376 75 386.5 87.5Q397 100 400.5 116.5Q404 133 404 151ZM308 302Q332 302 347 307Q362 312 370.5 321Q379 330 381.5 342.5Q384 355 384 370Q384 385 381 398Q378 411 369 420Q360 429 344 434Q328 439 302 439H141V302Z" glyph-name="b.small" horiz-adv-x="520" unicode="&#57453;" /><glyph d="M156 598Q215 598 239 563Q263 528 263 466Q263 404 239 369Q215 334 156 334Q137 334 117 341Q97 348 82 360L73 341H40V716H97V581Q108 589 123.5 593.5Q139 598 156 598ZM150 551Q130 551 117.5 546.5Q105 542 97 538V395Q105 390 117.5 386Q130 382 150 382Q184 382 195 406.5Q206 431 206 466Q206 483 203.5 498.5Q201 514 195 525.5Q189 537 178 544Q167 551 150 551Z" glyph-name="b.superior" horiz-adv-x="293" unicode="&#57658;" /><glyph d="M332 -206 -15 816H58L405 -206Z" glyph-name="backslash" horiz-adv-x="390" unicode="\" /><glyph d="M87 -206V816H158V-206Z" glyph-name="bar" horiz-adv-x="245" unicode="|" /><glyph d="M340 -10Q248 -10 193 22.5Q138 55 108.5 109Q79 163 69.5 232Q60 301 60 375Q60 448 69.5 517.5Q79 587 108.5 641Q138 695 193 727.5Q248 760 340 760Q432 760 487 727.5Q542 695 571.5 641Q601 587 610.5 517.5Q620 448 620 375Q620 301 610.5 232Q601 163 571.5 109Q542 55 487 22.5Q432 -10 340 -10ZM340 53Q406 53 446 76.5Q486 100 508.5 141.5Q531 183 539 238.5Q547 294 548 359H132Q132 294 140 238.5Q148 183 170.5 141.5Q193 100 233.5 76.5Q274 53 340 53ZM340 697Q278 697 238.5 676Q199 655 176.5 618.5Q154 582 144.5 531.5Q135 481 133 422H547Q545 481 535.5 531.5Q526 582 503 618.5Q480 655 441 676Q402 697 340 697Z" glyph-name="barredO" horiz-adv-x="680" unicode="&#57373;" /><glyph d="M475 250Q475 193 466.5 145Q458 97 434.5 62.5Q411 28 370 9Q329 -10 265 -10Q201 -10 160 9Q119 28 96 62.5Q73 97 64 145Q55 193 55 250Q55 307 64 355Q73 403 96 437.5Q119 472 160 491Q201 510 265 510Q329 510 370 491Q411 472 434.5 437.5Q458 403 466.5 355Q475 307 475 250ZM265 52Q310 52 337 65Q364 78 379 101Q394 124 399 155.5Q404 187 405 225H125Q125 187 130 155.5Q135 124 149.5 101Q164 78 191.5 65Q219 52 265 52ZM265 448Q220 448 193 435.5Q166 423 151 401Q136 379 131 348.5Q126 318 125 282H405Q404 318 398.5 348.5Q393 379 378 401Q363 423 336 435.5Q309 448 265 448Z" glyph-name="barredo" horiz-adv-x="530" unicode="&#57409;" /><glyph d="M523 250Q523 193 511 145Q499 97 471 62.5Q443 28 398.5 9Q354 -10 290 -10Q226 -10 181.5 9Q137 28 109.5 62.5Q82 97 69.5 145Q57 193 57 250Q57 307 69.5 355Q82 403 109.5 437.5Q137 472 181.5 491Q226 510 290 510Q354 510 398.5 491Q443 472 471 437.5Q499 403 511 355Q523 307 523 250ZM290 52Q336 52 366.5 65Q397 78 415.5 101Q434 124 442 156Q450 188 452 226H127Q128 188 136 156Q144 124 162.5 101Q181 78 212 65Q243 52 290 52ZM290 448Q245 448 215 436Q185 424 166.5 402.5Q148 381 139.5 351.5Q131 322 128 287H452Q449 322 440 351.5Q431 381 412.5 402.5Q394 424 364 436Q334 448 290 448Z" glyph-name="barredo.small" horiz-adv-x="580" unicode="&#57596;" /><glyph d="M55 375Q55 455 85 525Q115 595 167.5 647.5Q220 700 290 730Q360 760 440 760Q520 760 590 730Q660 700 712.5 647.5Q765 595 795 525Q825 455 825 375Q825 295 795 225Q765 155 712.5 102.5Q660 50 590 20Q520 -10 440 -10Q360 -10 290 20Q220 50 167.5 102.5Q115 155 85 225Q55 295 55 375Z" glyph-name="blackcircle" horiz-adv-x="880" unicode="&#9679;" /><glyph d="M65 0V500H565V0Z" glyph-name="blacksmallsquare" horiz-adv-x="630" unicode="&#9642;" /><glyph d="M65 0V750H815V0Z" glyph-name="blacksquare" horiz-adv-x="880" unicode="&#57869;" /><glyph d="M28 338Q51 338 61 347.5Q71 357 70 377L52 707Q49 765 80.5 790.5Q112 816 165 816H180V750H165Q121 750 123 711L141 381Q142 358 133.5 338.5Q125 319 111 305Q125 291 133.5 271.5Q142 252 141 229L123 -101Q121 -140 165 -140H180V-206H165Q112 -206 80.5 -180.5Q49 -155 52 -97L70 233Q72 269 33 272H18V338Z" glyph-name="braceleft" horiz-adv-x="210" unicode="{" /><glyph d="M28 408Q51 408 61 417.5Q71 427 70 447L52 777Q49 835 80.5 860.5Q112 886 165 886H180V820H165Q121 820 123 781L141 451Q142 428 133.5 408.5Q125 389 111 375Q125 361 133.5 341.5Q142 322 141 299L123 -31Q121 -70 165 -70H180V-136H165Q112 -136 80.5 -110.5Q49 -85 52 -27L70 303Q72 339 33 342H18V408Z" glyph-name="braceleft.cap" horiz-adv-x="210" unicode="&#57740;" /><glyph d="M192 338V272H177Q138 269 140 233L158 -97Q161 -155 129.5 -180.5Q98 -206 45 -206H30V-140H45Q89 -140 87 -101L69 229Q68 252 78 273Q88 294 102 305Q88 316 78 337Q68 358 69 381L87 711Q89 750 45 750H30V816H45Q98 816 129.5 790.5Q161 765 158 707L140 377Q138 338 182 338Z" glyph-name="braceright" horiz-adv-x="210" unicode="}" /><glyph d="M192 408V342H177Q138 339 140 303L158 -27Q161 -85 129.5 -110.5Q98 -136 45 -136H30V-70H45Q89 -70 87 -31L69 299Q68 322 78 343Q88 364 102 375Q88 386 78 407Q68 428 69 451L87 781Q89 820 45 820H30V886H45Q98 886 129.5 860.5Q161 835 158 777L140 447Q138 408 182 408Z" glyph-name="braceright.cap" horiz-adv-x="210" unicode="&#57741;" /><glyph d="M136 -140H200V-206H65V816H200V750H136Z" glyph-name="bracketleft" horiz-adv-x="230" unicode="[" /><glyph d="M136 -70H200V-136H65V886H200V820H136Z" glyph-name="bracketleft.cap" horiz-adv-x="230" unicode="&#57738;" /><glyph d="M94 750H30V816H165V-206H30V-140H94Z" glyph-name="bracketright" horiz-adv-x="230" unicode="]" /><glyph d="M94 820H30V886H165V-136H30V-70H94Z" glyph-name="bracketright.cap" horiz-adv-x="230" unicode="&#57739;" /><glyph d="M285 550Q114 550 110 750H161Q162 716 167.5 690Q173 664 187 646Q201 628 225 619Q249 610 285 610Q321 610 345 619Q369 628 383 646Q397 664 402.5 690Q408 716 409 750H460Q456 550 285 550Z" glyph-name="breve" horiz-adv-x="570" unicode="&#728;" /><glyph d="M285 790Q144 790 140 900H191Q193 869 217.5 857Q242 845 285 845Q328 845 352.5 857Q377 869 379 900H430Q426 790 285 790Z" glyph-name="breve.cap" horiz-adv-x="570" unicode="&#57711;" /><glyph d="M87 -206V272H158V-206ZM158 338H87V815H158Z" glyph-name="brokenbar" horiz-adv-x="245" unicode="&#166;" /><glyph d="M50 375Q50 403 60.5 427.5Q71 452 89.5 470.5Q108 489 132.5 499.5Q157 510 185 510Q213 510 237.5 499.5Q262 489 280.5 470.5Q299 452 309.5 427.5Q320 403 320 375Q320 347 309.5 322.5Q299 298 280.5 279.5Q262 261 237.5 250.5Q213 240 185 240Q157 240 132.5 250.5Q108 261 89.5 279.5Q71 298 60.5 322.5Q50 347 50 375Z" glyph-name="bullet" horiz-adv-x="370" unicode="&#8226;" /><glyph d="M50 750H62L359 544Q354 538 353 534L50 678ZM788 750H800V678L509 540L502 552ZM50 655 350 530 344 520 50 589ZM800 655V589L521 523Q518 526 514 534L513 535ZM188 750 368 559 362 549 100 750ZM50 510V569L340 515Q335 507 330 503ZM662 750H750L498 557L491 568ZM800 569V510L536 503L524 517ZM317 496Q312 488 307 483.5Q302 479 296 476L50 430V490ZM800 490V430L568 474L542 496ZM800 410V345L624 418Q616 431 606 441Q596 451 584 461ZM272 750 379 574 371 563 212 750ZM578 750H638L487 574L479 587ZM50 410 264 461Q238 451 213 443.5Q188 436 166 422Q144 408 127.5 393.5Q111 379 98 365L50 345ZM337 750 393 590 383 579 290 750ZM800 321V300Q775 306 747 315Q719 324 695 336Q671 348 653.5 362.5Q636 377 633 394Q631 398 631 401ZM513 750H560L475 593L464 609ZM392 750 410 605 397 594 351 750ZM458 750H499L459 617L453 626Q445 624 441 622ZM405 750H444L433 619Q428 617 424.5 614.5Q421 612 416 610ZM71 331Q62 322 56.5 315Q51 308 50 303V321Z" glyph-name="bullseye" horiz-adv-x="850" unicode="&#63743;" /><glyph d="M55 250Q55 304 64 351.5Q73 399 97 434Q121 469 162 489.5Q203 510 266 510Q303 510 342.5 504.5Q382 499 415 485V425Q386 435 352 441.5Q318 448 265 448Q218 448 190 431Q162 414 147.5 386Q133 358 129 322.5Q125 287 125 250Q125 213 129 177.5Q133 142 147.5 114Q162 86 190 69Q218 52 265 52Q318 52 352 58.5Q386 65 415 75V15Q382 1 342.5 -4.5Q303 -10 266 -10Q203 -10 162 10.5Q121 31 97 66Q73 101 64 148.5Q55 196 55 250Z" glyph-name="c" horiz-adv-x="460" unicode="c" /><glyph d="M60 250Q60 304 73 351.5Q86 399 114.5 434Q143 469 188 489.5Q233 510 296 510Q333 510 372.5 504.5Q412 499 445 485V425Q416 435 382 441.5Q348 448 295 448Q248 448 216 431Q184 414 165 386Q146 358 138 322.5Q130 287 130 250Q130 213 138 177.5Q146 142 165 114Q184 86 216 69Q248 52 295 52Q348 52 382 58.5Q416 65 445 75V15Q412 1 372.5 -4.5Q333 -10 296 -10Q233 -10 188 10.5Q143 31 114.5 66Q86 101 73 148.5Q60 196 60 250Z" glyph-name="c.small" horiz-adv-x="505" unicode="&#57454;" /><glyph d="M87 466Q87 430 101 407Q115 384 150 384Q172 384 186.5 387.5Q201 391 215 396V347Q201 340 183.5 337Q166 334 146 334Q114 334 91.5 343.5Q69 353 55.5 370.5Q42 388 36 412.5Q30 437 30 466Q30 496 36 520Q42 544 55.5 561.5Q69 579 91.5 588.5Q114 598 146 598Q166 598 183.5 595Q201 592 215 585V536Q201 541 186.5 544.5Q172 548 150 548Q115 548 101 525.5Q87 503 87 466Z" glyph-name="c.superior" horiz-adv-x="235" unicode="&#57659;" /><glyph d="M55 250Q55 304 64 351.5Q73 399 97 434Q121 469 162 489.5Q203 510 266 510Q303 510 342.5 504.5Q382 499 415 485V425Q386 435 352 441.5Q318 448 265 448Q218 448 190 431Q162 414 147.5 386Q133 358 129 322.5Q125 287 125 250Q125 213 129 177.5Q133 142 147.5 114Q162 86 190 69Q218 52 265 52Q318 52 352 58.5Q386 65 415 75V15Q382 1 342.5 -4.5Q303 -10 266 -10Q203 -10 162 10.5Q121 31 97 66Q73 101 64 148.5Q55 196 55 250ZM241 550 291 750H371L291 550Z" glyph-name="cacute" horiz-adv-x="460" unicode="&#263;" /><glyph d="M60 250Q60 304 73 351.5Q86 399 114.5 434Q143 469 188 489.5Q233 510 296 510Q333 510 372.5 504.5Q412 499 445 485V425Q416 435 382 441.5Q348 448 295 448Q248 448 216 431Q184 414 165 386Q146 358 138 322.5Q130 287 130 250Q130 213 138 177.5Q146 142 165 114Q184 86 216 69Q248 52 295 52Q348 52 382 58.5Q416 65 445 75V15Q412 1 372.5 -4.5Q333 -10 296 -10Q233 -10 188 10.5Q143 31 114.5 66Q86 101 73 148.5Q60 196 60 250ZM261 550 311 750H391L311 550Z" glyph-name="cacute.small" horiz-adv-x="505" unicode="&#57497;" /><glyph d="M470 750 325 550H245L100 750H155L285 609L415 750Z" glyph-name="caron" horiz-adv-x="570" unicode="&#711;" /><glyph d="M186 900 285 844 384 900H440L325 800H245L130 900Z" glyph-name="caron.cap" horiz-adv-x="570" unicode="&#57709;" /><glyph d="M429 750 381 550H335L351 750Z" glyph-name="caronSlovak" horiz-adv-x="570" unicode="&#57698;" /><glyph d="M55 250Q55 304 64 351.5Q73 399 97 434Q121 469 162 489.5Q203 510 266 510Q303 510 342.5 504.5Q382 499 415 485V425Q386 435 352 441.5Q318 448 265 448Q218 448 190 431Q162 414 147.5 386Q133 358 129 322.5Q125 287 125 250Q125 213 129 177.5Q133 142 147.5 114Q162 86 190 69Q218 52 265 52Q318 52 352 58.5Q386 65 415 75V15Q382 1 342.5 -4.5Q303 -10 266 -10Q203 -10 162 10.5Q121 31 97 66Q73 101 64 148.5Q55 196 55 250ZM451 750 306 550H226L81 750H136L266 609L396 750Z" glyph-name="ccaron" horiz-adv-x="460" unicode="&#269;" /><glyph d="M60 250Q60 304 73 351.5Q86 399 114.5 434Q143 469 188 489.5Q233 510 296 510Q333 510 372.5 504.5Q412 499 445 485V425Q416 435 382 441.5Q348 448 295 448Q248 448 216 431Q184 414 165 386Q146 358 138 322.5Q130 287 130 250Q130 213 138 177.5Q146 142 165 114Q184 86 216 69Q248 52 295 52Q348 52 382 58.5Q416 65 445 75V15Q412 1 372.5 -4.5Q333 -10 296 -10Q233 -10 188 10.5Q143 31 114.5 66Q86 101 73 148.5Q60 196 60 250ZM471 750 326 550H246L101 750H156L286 609L416 750Z" glyph-name="ccaron.small" horiz-adv-x="505" unicode="&#57499;" /><glyph d="M55 250Q55 304 64 351.5Q73 399 97 434Q121 469 162 489.5Q203 510 266 510Q303 510 342.5 504.5Q382 499 415 485V425Q386 435 352 441.5Q318 448 265 448Q218 448 190 431Q162 414 147.5 386Q133 358 129 322.5Q125 287 125 250Q125 213 129 177.5Q133 142 147.5 114Q162 86 190 69Q218 52 265 52Q318 52 352 58.5Q386 65 415 75V15Q384 2 348 -3.5Q312 -9 277 -10L281 -64Q296 -68 312.5 -75Q329 -82 343.5 -93Q358 -104 367 -121Q376 -138 376 -161Q376 -202 347 -226Q318 -250 265 -250Q224 -250 201.5 -243.5Q179 -237 171 -232V-186Q182 -190 194 -193Q205 -195 218.5 -197Q232 -199 248 -199Q279 -199 297 -190.5Q315 -182 315 -163Q315 -147 307.5 -136Q300 -125 288 -117.5Q276 -110 260 -106Q244 -102 226 -100L235 -8Q181 -3 146.5 19Q112 41 91.5 75.5Q71 110 63 154.5Q55 199 55 250Z" glyph-name="ccedilla" horiz-adv-x="460" unicode="&#231;" /><glyph d="M60 250Q60 304 73 351.5Q86 399 114.5 434Q143 469 188 489.5Q233 510 296 510Q333 510 372.5 504.5Q412 499 445 485V425Q416 435 382 441.5Q348 448 295 448Q248 448 216 431Q184 414 165 386Q146 358 138 322.5Q130 287 130 250Q130 213 138 177.5Q146 142 165 114Q184 86 216 69Q248 52 295 52Q348 52 382 58.5Q416 65 445 75V15Q414 2 378 -3.5Q342 -9 307 -10L311 -64Q326 -68 342.5 -75Q359 -82 373.5 -93Q388 -104 397 -121Q406 -138 406 -161Q406 -202 377 -226Q348 -250 295 -250Q254 -250 231.5 -243.5Q209 -237 201 -232V-186Q212 -190 224 -193Q235 -195 248.5 -197Q262 -199 278 -199Q309 -199 327 -190.5Q345 -182 345 -163Q345 -147 337.5 -136Q330 -125 318 -117.5Q306 -110 290 -106Q274 -102 256 -100L265 -8Q210 -3 171 19Q132 41 107.5 75.5Q83 110 71.5 154.5Q60 199 60 250Z" glyph-name="ccedilla.small" horiz-adv-x="505" unicode="&#57501;" /><glyph d="M55 250Q55 304 64 351.5Q73 399 97 434Q121 469 162 489.5Q203 510 266 510Q303 510 342.5 504.5Q382 499 415 485V425Q386 435 352 441.5Q318 448 265 448Q218 448 190 431Q162 414 147.5 386Q133 358 129 322.5Q125 287 125 250Q125 213 129 177.5Q133 142 147.5 114Q162 86 190 69Q218 52 265 52Q318 52 352 58.5Q386 65 415 75V15Q382 1 342.5 -4.5Q303 -10 266 -10Q203 -10 162 10.5Q121 31 97 66Q73 101 64 148.5Q55 196 55 250ZM396 550 266 691 136 550H81L226 750H306L451 550Z" glyph-name="ccircumflex" horiz-adv-x="460" unicode="&#265;" /><glyph d="M60 250Q60 304 73 351.5Q86 399 114.5 434Q143 469 188 489.5Q233 510 296 510Q333 510 372.5 504.5Q412 499 445 485V425Q416 435 382 441.5Q348 448 295 448Q248 448 216 431Q184 414 165 386Q146 358 138 322.5Q130 287 130 250Q130 213 138 177.5Q146 142 165 114Q184 86 216 69Q248 52 295 52Q348 52 382 58.5Q416 65 445 75V15Q412 1 372.5 -4.5Q333 -10 296 -10Q233 -10 188 10.5Q143 31 114.5 66Q86 101 73 148.5Q60 196 60 250ZM416 550 286 691 156 550H101L246 750H326L471 550Z" glyph-name="ccircumflex.small" horiz-adv-x="505" unicode="&#57498;" /><glyph d="M55 250Q55 304 64 351.5Q73 399 97 434Q121 469 162 489.5Q203 510 266 510Q303 510 342.5 504.5Q382 499 415 485V425Q386 435 352 441.5Q318 448 265 448Q218 448 190 431Q162 414 147.5 386Q133 358 129 322.5Q125 287 125 250Q125 213 129 177.5Q133 142 147.5 114Q162 86 190 69Q218 52 265 52Q318 52 352 58.5Q386 65 415 75V15Q382 1 342.5 -4.5Q303 -10 266 -10Q203 -10 162 10.5Q121 31 97 66Q73 101 64 148.5Q55 196 55 250ZM216 650Q216 671 230.5 685.5Q245 700 266 700Q287 700 301.5 685.5Q316 671 316 650Q316 629 301.5 614.5Q287 600 266 600Q245 600 230.5 614.5Q216 629 216 650Z" glyph-name="cdotaccent" horiz-adv-x="460" unicode="&#267;" /><glyph d="M60 250Q60 304 73 351.5Q86 399 114.5 434Q143 469 188 489.5Q233 510 296 510Q333 510 372.5 504.5Q412 499 445 485V425Q416 435 382 441.5Q348 448 295 448Q248 448 216 431Q184 414 165 386Q146 358 138 322.5Q130 287 130 250Q130 213 138 177.5Q146 142 165 114Q184 86 216 69Q248 52 295 52Q348 52 382 58.5Q416 65 445 75V15Q412 1 372.5 -4.5Q333 -10 296 -10Q233 -10 188 10.5Q143 31 114.5 66Q86 101 73 148.5Q60 196 60 250ZM235 650Q235 671 249.5 685.5Q264 700 285 700Q306 700 320.5 685.5Q335 671 335 650Q335 629 320.5 614.5Q306 600 285 600Q264 600 249.5 614.5Q235 629 235 650Z" glyph-name="cdotaccent.small" horiz-adv-x="505" unicode="&#57500;" /><glyph d="M305 0 310 -64Q325 -68 341.5 -75Q358 -82 372.5 -93Q387 -104 396 -121Q405 -138 405 -161Q405 -202 376 -226Q347 -250 294 -250Q253 -250 230.5 -243.5Q208 -237 200 -232V-186Q211 -190 223 -193Q234 -195 247.5 -197Q261 -199 277 -199Q308 -199 326 -190.5Q344 -182 344 -163Q344 -147 336.5 -136Q329 -125 317 -117.5Q305 -110 289 -106Q273 -102 255 -100L265 0Z" glyph-name="cedilla" horiz-adv-x="570" unicode="&#184;" /><glyph d="M367 568Q391 565 414.5 559Q438 553 458 545V485Q429 495 390.5 503Q352 511 298 511Q251 511 218 496Q185 481 164.5 454Q144 427 134.5 391Q125 355 125 313Q125 271 134.5 234.5Q144 198 164.5 171.5Q185 145 218 130Q251 115 298 115Q352 115 390.5 122.5Q429 130 458 140V80Q425 66 380.5 59.5Q336 53 299 53Q291 53 283 53Q275 53 267 54L228 -62H153L202 66Q126 92 90.5 155.5Q55 219 55 313Q55 372 69.5 420Q84 468 114 502Q144 536 190 554.5Q236 573 299 573L338 688H413L367 568Z" glyph-name="cent" horiz-adv-x="515" unicode="&#162;" /><glyph d="M399 630Q426 626 453 619.5Q480 613 500 605V545Q471 555 427.5 564Q384 573 330 573Q235 573 180 521.5Q125 470 125 375Q125 280 180 228.5Q235 177 330 177Q384 177 427.5 186Q471 195 500 205V145Q483 138 461.5 132.5Q440 127 417 123Q394 119 371.5 117Q349 115 331 115Q323 115 315 115Q307 115 299 116L260 0H185L233 126Q149 149 102 211Q55 273 55 375Q55 439 74.5 487.5Q94 536 130 569Q166 602 217 618.5Q268 635 331 635L370 750H445L399 630Z" glyph-name="cent.LP" horiz-adv-x="570" unicode="&#57751;" /><glyph d="M367 505Q391 502 414.5 496Q438 490 458 482V422Q429 432 390.5 440Q352 448 298 448Q251 448 218 433Q185 418 164.5 391Q144 364 134.5 328Q125 292 125 250Q125 208 134.5 171.5Q144 135 164.5 108.5Q185 82 218 67Q251 52 298 52Q352 52 390.5 59.5Q429 67 458 77V17Q425 3 380.5 -3.5Q336 -10 299 -10Q291 -10 283 -10Q275 -10 267 -9L228 -125H153L202 3Q126 29 90.5 92.5Q55 156 55 250Q55 309 69.5 357Q84 405 114 439Q144 473 190 491.5Q236 510 299 510L338 625H413L367 505Z" glyph-name="cent.OP" horiz-adv-x="515" unicode="&#57791;" /><glyph d="M55 250Q55 304 75.5 351.5Q96 399 131 434Q166 469 213.5 489.5Q261 510 315 510Q369 510 416.5 489.5Q464 469 499 434Q534 399 554.5 351.5Q575 304 575 250Q575 196 554.5 148.5Q534 101 499 66Q464 31 416.5 10.5Q369 -10 315 -10Q261 -10 213.5 10.5Q166 31 131 66Q96 101 75.5 148.5Q55 196 55 250Z" glyph-name="circle" horiz-adv-x="630" unicode="&#9675;" /><glyph d="M415 550 285 691 155 550H100L245 750H325L470 550Z" glyph-name="circumflex" horiz-adv-x="570" unicode="&#710;" /><glyph d="M384 800 285 856 186 800H130L245 900H325L440 800Z" glyph-name="circumflex.cap" horiz-adv-x="570" unicode="&#57705;" /><glyph d="M45 40Q45 61 59.5 75.5Q74 90 95 90Q116 90 130.5 75.5Q145 61 145 40Q145 19 130.5 4.5Q116 -10 95 -10Q74 -10 59.5 4.5Q45 19 45 40ZM45 375Q45 396 59.5 410.5Q74 425 95 425Q116 425 130.5 410.5Q145 396 145 375Q145 354 130.5 339.5Q116 325 95 325Q74 325 59.5 339.5Q45 354 45 375Z" glyph-name="colon" horiz-adv-x="190" unicode=":" /><glyph d="M140 66 75 -125H25L50 66Z" glyph-name="comma" horiz-adv-x="190" unicode="," /><glyph d="M238 550 294 750H344L318 550Z" glyph-name="commaabovecmb" horiz-adv-x="570" unicode="&#787;" /><glyph d="M332 -50 276 -250H226L252 -50Z" glyph-name="commaaccent" horiz-adv-x="570" unicode="&#57701;" /><glyph d="M387 52Q447 52 495 69Q543 86 577 119.5Q611 153 629.5 201.5Q648 250 648 313Q648 375 629.5 423.5Q611 472 577 505Q543 538 495 555.5Q447 573 387 573Q327 573 279 555.5Q231 538 197 505Q163 472 144.5 423.5Q126 375 126 313Q126 250 144.5 201.5Q163 153 197 119.5Q231 86 279 69Q327 52 387 52ZM387 -10Q318 -10 257.5 11.5Q197 33 152 74Q107 115 81 175Q55 235 55 313Q55 391 81 451Q107 511 152 552Q197 593 257.5 614Q318 635 387 635Q456 635 516.5 614Q577 593 622 552Q667 511 693 451Q719 391 719 313Q719 235 693 175Q667 115 622 74Q577 33 516.5 11.5Q456 -10 387 -10ZM196 313Q196 367 212.5 404.5Q229 442 256 466Q283 490 317.5 500.5Q352 511 388 511Q425 511 454.5 506.5Q484 502 517 488V428Q502 433 490 437Q478 441 464 443.5Q450 446 432 447.5Q414 449 387 449Q362 449 340 441.5Q318 434 301.5 418Q285 402 275.5 376Q266 350 266 313Q266 276 275.5 250Q285 224 301.5 207.5Q318 191 340 183.5Q362 176 387 176Q414 176 432 177.5Q450 179 464 181.5Q478 184 490 188Q502 192 517 197V137Q484 123 454.5 118.5Q425 114 388 114Q351 114 316.5 125Q282 136 255 159.5Q228 183 212 221Q196 259 196 313Z" glyph-name="copyright" horiz-adv-x="774" unicode="&#169;" /><glyph d="M211 423Q245 423 267.5 426.5Q290 430 311 435V376Q285 370 261 367.5Q237 365 211 365Q120 365 77.5 415.5Q35 466 35 563Q35 660 77.5 710Q120 760 211 760Q237 760 261 757.5Q285 755 311 749V690Q290 695 267.5 698.5Q245 702 211 702Q154 702 125.5 670Q97 638 97 563Q97 488 125.5 455.5Q154 423 211 423Z" glyph-name="cordinal" horiz-adv-x="336" unicode="&#57417;" /><glyph d="M216 430Q250 430 275 433.5Q300 437 321 442V381Q295 375 268.5 372.5Q242 370 216 370Q125 370 85 419Q45 468 45 565Q45 662 85 711Q125 760 216 760Q242 760 268.5 757.5Q295 755 321 749V688Q300 693 275 696.5Q250 700 216 700Q159 700 134 669.5Q109 639 109 565Q109 491 134 460.5Q159 430 216 430Z" glyph-name="cordinal.small" horiz-adv-x="366" unicode="&#57656;" /><glyph d="M320 114Q363 114 399.5 121Q436 128 462 149Q488 170 503 209Q518 248 518 312Q518 376 503 415Q488 454 462 475Q436 496 399.5 503Q363 510 320 510Q277 510 240.5 503Q204 496 178 475Q152 454 137 415Q122 376 122 312Q122 248 137 209Q152 170 178 149Q204 128 240.5 121Q277 114 320 114ZM547 -10 471 80Q438 64 400 58Q362 52 320 52Q278 52 239.5 58Q201 64 169 80L93 -10L42 33L115 119Q86 149 70.5 196Q55 243 55 312Q55 381 70.5 428Q86 475 114 504L42 591L93 634L168 544Q201 560 239.5 566Q278 572 320 572Q362 572 400.5 566Q439 560 471 544L547 634L598 591L525 504Q553 475 569 428Q585 381 585 312Q585 243 569 196Q553 149 525 119L598 33Z" glyph-name="currency" horiz-adv-x="640" unicode="&#164;" /><glyph d="M260 510Q295 510 331.5 500Q368 490 400 469V750H470V0H431L416 41Q377 16 339 3Q301 -10 260 -10Q200 -10 160 10.5Q120 31 97 66Q74 101 64.5 148.5Q55 196 55 250Q55 304 64.5 351.5Q74 399 97 434Q120 469 160 489.5Q200 510 260 510ZM260 448Q215 448 188.5 431Q162 414 147.5 386Q133 358 129 322.5Q125 287 125 250Q125 213 129 177.5Q133 142 147.5 114Q162 86 188.5 69Q215 52 260 52Q309 52 340 60Q371 68 400 84V416Q371 432 340 440Q309 448 260 448Z" glyph-name="d" horiz-adv-x="535" unicode="d" /><glyph d="M75 0V500H243Q307 500 353 482.5Q399 465 428.5 432.5Q458 400 471.5 353.5Q485 307 485 250Q485 193 471.5 146.5Q458 100 428.5 67.5Q399 35 353 17.5Q307 0 243 0ZM242 61Q292 61 325 74.5Q358 88 378 113Q398 138 406.5 173Q415 208 415 250Q415 292 406.5 327Q398 362 378 387Q358 412 325 425.5Q292 439 242 439H141V61Z" glyph-name="d.small" horiz-adv-x="545" unicode="&#57455;" /><glyph d="M137 598Q154 598 169.5 593.5Q185 589 196 581V716H253V341H220L211 360Q196 348 176 341Q156 334 137 334Q78 334 54 369Q30 404 30 466Q30 528 54 563Q78 598 137 598ZM143 551Q126 551 115 544Q104 537 98 525.5Q92 514 89.5 498.5Q87 483 87 466Q87 449 89.5 433.5Q92 418 98 406.5Q104 395 115 388.5Q126 382 143 382Q163 382 175.5 386Q188 390 196 395V538Q188 542 175.5 546.5Q163 551 143 551Z" glyph-name="d.superior" horiz-adv-x="293" unicode="&#57660;" /><glyph d="M199 551 230 301H130L161 551ZM161 609 141 750H219L199 609ZM151 561 10 541V619L151 599ZM209 599 350 619V541L209 561Z" glyph-name="dagger" horiz-adv-x="360" unicode="&#8224;" /><glyph d="M199 352 230 102H130L161 352ZM209 599 350 619V541L209 561ZM161 609 141 750H219L199 609ZM209 400 350 420V342L209 362ZM151 362 10 342V420L151 400ZM151 561 10 541V619L151 599ZM199 551 209 480 199 410H161L151 480L161 551Z" glyph-name="daggerdbl" horiz-adv-x="360" unicode="&#8225;" /><glyph d="M260 510Q295 510 331.5 500Q368 490 400 469V750H470V0H431L416 41Q377 16 339 3Q301 -10 260 -10Q200 -10 160 10.5Q120 31 97 66Q74 101 64.5 148.5Q55 196 55 250Q55 304 64.5 351.5Q74 399 97 434Q120 469 160 489.5Q200 510 260 510ZM260 448Q215 448 188.5 431Q162 414 147.5 386Q133 358 129 322.5Q125 287 125 250Q125 213 129 177.5Q133 142 147.5 114Q162 86 188.5 69Q215 52 260 52Q309 52 340 60Q371 68 400 84V416Q371 432 340 440Q309 448 260 448ZM614 750 566 550H520L536 750Z" glyph-name="dcaron" horiz-adv-x="555" unicode="&#271;" /><glyph d="M435 750 290 550H210L65 750H120L250 609L380 750ZM75 0V500H243Q307 500 353 482.5Q399 465 428.5 432.5Q458 400 471.5 353.5Q485 307 485 250Q485 193 471.5 146.5Q458 100 428.5 67.5Q399 35 353 17.5Q307 0 243 0ZM242 61Q292 61 325 74.5Q358 88 378 113Q398 138 406.5 173Q415 208 415 250Q415 292 406.5 327Q398 362 378 387Q358 412 325 425.5Q292 439 242 439H141V61Z" glyph-name="dcaron.small" horiz-adv-x="545" unicode="&#57502;" /><glyph d="M260 510Q295 510 331.5 500Q368 490 400 469V750H470V0H431L416 41Q377 16 339 3Q301 -10 260 -10Q200 -10 160 10.5Q120 31 97 66Q74 101 64.5 148.5Q55 196 55 250Q55 304 64.5 351.5Q74 399 97 434Q120 469 160 489.5Q200 510 260 510ZM260 448Q215 448 188.5 431Q162 414 147.5 386Q133 358 129 322.5Q125 287 125 250Q125 213 129 177.5Q133 142 147.5 114Q162 86 188.5 69Q215 52 260 52Q309 52 340 60Q371 68 400 84V416Q371 432 340 440Q309 448 260 448ZM235 -50Q306 -58 343 -87Q380 -116 380 -161Q380 -202 351 -226Q322 -250 269 -250Q228 -250 205.5 -243.5Q183 -237 175 -232V-186Q186 -190 198 -193Q209 -195 222.5 -197Q236 -199 252 -199Q283 -199 301 -190.5Q319 -182 319 -163Q319 -147 311.5 -135Q304 -123 292 -115Q280 -107 264 -102Q248 -97 230 -95Z" glyph-name="dcedilla" horiz-adv-x="535" unicode="&#7697;" /><glyph d="M215 -50Q286 -58 323 -87Q360 -116 360 -161Q360 -202 331 -226Q302 -250 249 -250Q208 -250 185.5 -243.5Q163 -237 155 -232V-186Q166 -190 178 -193Q189 -195 202.5 -197Q216 -199 232 -199Q263 -199 281 -190.5Q299 -182 299 -163Q299 -147 291.5 -135Q284 -123 272 -115Q260 -107 244 -102Q228 -97 210 -95ZM75 0V500H243Q307 500 353 482.5Q399 465 428.5 432.5Q458 400 471.5 353.5Q485 307 485 250Q485 193 471.5 146.5Q458 100 428.5 67.5Q399 35 353 17.5Q307 0 243 0ZM242 61Q292 61 325 74.5Q358 88 378 113Q398 138 406.5 173Q415 208 415 250Q415 292 406.5 327Q398 362 378 387Q358 412 325 425.5Q292 439 242 439H141V61Z" glyph-name="dcedilla.small" horiz-adv-x="545" unicode="&#57503;" /><glyph d="M260 510Q329 510 400 469V603H265V654H400V750H470V654H560V603H470V0H431L416 41Q377 16 339 3Q301 -10 260 -10Q200 -10 160 10.5Q120 31 97 66Q74 101 64.5 148.5Q55 196 55 250Q55 304 64.5 351.5Q74 399 97 434Q120 469 160 489.5Q200 510 260 510ZM260 52Q309 52 340 60Q371 68 400 84V416Q371 432 340 440Q309 448 260 448Q215 448 188.5 431Q162 414 147.5 386Q133 358 129 322.5Q125 287 125 250Q125 213 129 177.5Q133 142 147.5 114Q162 86 188.5 69Q215 52 260 52Z" glyph-name="dcroat" horiz-adv-x="535" unicode="&#273;" /><glyph d="M115 277V500H283Q347 500 393 482.5Q439 465 468.5 432.5Q498 400 511.5 353.5Q525 307 525 250Q525 193 511.5 146.5Q498 100 468.5 67.5Q439 35 393 17.5Q347 0 283 0H115V222H25V277ZM282 61Q332 61 365 74.5Q398 88 418 113Q438 138 446.5 173Q455 208 455 250Q455 292 446.5 327Q438 362 418 387Q398 412 365 425.5Q332 439 282 439H181V277H301V222H181V61Z" glyph-name="dcroat.small" horiz-adv-x="585" unicode="&#57505;" /><glyph d="M260 510Q295 510 331.5 500Q368 490 400 469V750H470V0H431L416 41Q377 16 339 3Q301 -10 260 -10Q200 -10 160 10.5Q120 31 97 66Q74 101 64.5 148.5Q55 196 55 250Q55 304 64.5 351.5Q74 399 97 434Q120 469 160 489.5Q200 510 260 510ZM260 448Q215 448 188.5 431Q162 414 147.5 386Q133 358 129 322.5Q125 287 125 250Q125 213 129 177.5Q133 142 147.5 114Q162 86 188.5 69Q215 52 260 52Q309 52 340 60Q371 68 400 84V416Q371 432 340 440Q309 448 260 448ZM220 -150Q220 -129 234.5 -114.5Q249 -100 270 -100Q291 -100 305.5 -114.5Q320 -129 320 -150Q320 -171 305.5 -185.5Q291 -200 270 -200Q249 -200 234.5 -185.5Q220 -171 220 -150Z" glyph-name="ddotbelow" horiz-adv-x="535" unicode="&#7693;" /><glyph d="M75 0V500H243Q307 500 353 482.5Q399 465 428.5 432.5Q458 400 471.5 353.5Q485 307 485 250Q485 193 471.5 146.5Q458 100 428.5 67.5Q399 35 353 17.5Q307 0 243 0ZM242 61Q292 61 325 74.5Q358 88 378 113Q398 138 406.5 173Q415 208 415 250Q415 292 406.5 327Q398 362 378 387Q358 412 325 425.5Q292 439 242 439H141V61ZM210 -150Q210 -129 224.5 -114.5Q239 -100 260 -100Q281 -100 295.5 -114.5Q310 -129 310 -150Q310 -171 295.5 -185.5Q281 -200 260 -200Q239 -200 224.5 -185.5Q210 -171 210 -150Z" glyph-name="ddotbelow.small" horiz-adv-x="545" unicode="&#57504;" /><glyph d="M168 490Q142 490 117.5 496.5Q93 503 73.5 518.5Q54 534 42 560Q30 586 30 625Q30 665 42 691Q54 717 73.5 732.5Q93 748 117.5 754Q142 760 168 760Q193 760 218 754Q243 748 262.5 732.5Q282 717 294 691Q306 665 306 625Q306 586 294 560Q282 534 262.5 518.5Q243 503 218 496.5Q193 490 168 490ZM168 705Q132 705 110.5 687Q89 669 89 625Q89 581 110.5 563Q132 545 168 545Q204 545 225.5 563Q247 581 247 625Q247 669 225.5 687Q204 705 168 705Z" glyph-name="degree" horiz-adv-x="336" unicode="&#176;" /><glyph d="M140 650Q140 671 154.5 685.5Q169 700 190 700Q211 700 225.5 685.5Q240 671 240 650Q240 629 225.5 614.5Q211 600 190 600Q169 600 154.5 614.5Q140 629 140 650ZM330 650Q330 671 344.5 685.5Q359 700 380 700Q401 700 415.5 685.5Q430 671 430 650Q430 629 415.5 614.5Q401 600 380 600Q359 600 344.5 614.5Q330 629 330 650Z" glyph-name="dieresis" horiz-adv-x="570" unicode="&#168;" /><glyph d="M140 850Q140 871 154.5 885.5Q169 900 190 900Q211 900 225.5 885.5Q240 871 240 850Q240 829 225.5 814.5Q211 800 190 800Q169 800 154.5 814.5Q140 829 140 850ZM330 850Q330 871 344.5 885.5Q359 900 380 900Q401 900 415.5 885.5Q430 871 430 850Q430 829 415.5 814.5Q401 800 380 800Q359 800 344.5 814.5Q330 829 330 850Z" glyph-name="dieresis.cap" horiz-adv-x="570" unicode="&#57706;" /><glyph d="M445 374V308H45V374ZM195 181Q195 202 209.5 216.5Q224 231 245 231Q266 231 280.5 216.5Q295 202 295 181Q295 160 280.5 145.5Q266 131 245 131Q224 131 209.5 145.5Q195 160 195 181ZM195 501Q195 522 209.5 536.5Q224 551 245 551Q266 551 280.5 536.5Q295 522 295 501Q295 480 280.5 465.5Q266 451 245 451Q224 451 209.5 465.5Q195 480 195 501Z" glyph-name="divide" horiz-adv-x="490" unicode="&#247;" /><glyph d="M815 408V342H65V408ZM390 710Q390 731 404.5 745.5Q419 760 440 760Q461 760 475.5 745.5Q490 731 490 710Q490 689 475.5 674.5Q461 660 440 660Q419 660 404.5 674.5Q390 689 390 710ZM390 40Q390 61 404.5 75.5Q419 90 440 90Q461 90 475.5 75.5Q490 61 490 40Q490 19 475.5 4.5Q461 -10 440 -10Q419 -10 404.5 4.5Q390 19 390 40Z" glyph-name="divide.cap" horiz-adv-x="880" unicode="&#57874;" /><glyph d="M116 422Q116 383 151 369.5Q186 356 260 349Q315 344 353.5 335Q392 326 416.5 309.5Q441 293 452.5 268Q464 243 464 207Q464 139 406 95.5Q348 52 225 52L186 -62H111L157 58Q127 62 100 67.5Q73 73 59 80V139Q70 134 89 129.5Q108 125 131.5 121.5Q155 118 182 115.5Q209 113 236 113Q318 113 357.5 137Q397 161 397 206Q397 249 364.5 267Q332 285 255 291Q199 296 160 305Q121 314 97 329.5Q73 345 62 367.5Q51 390 51 422Q51 494 108 533Q165 572 282 572L321 687H396L350 567Q375 563 398 558.5Q421 554 439 546V487Q410 497 364.5 504Q319 511 266 511Q188 511 152 490.5Q116 470 116 422Z" glyph-name="dollar" horiz-adv-x="515" unicode="$" /><glyph d="M114 483Q114 460 127 447Q140 434 163 427.5Q186 421 218.5 418Q251 415 289 412Q345 407 388 400Q431 393 460.5 378Q490 363 505 338Q520 313 520 271Q520 193 454.5 154Q389 115 264 115H244L205 0H130L176 121Q140 126 107 132Q74 138 60 145V203Q71 198 94 193.5Q117 189 145.5 184.5Q174 180 205 177.5Q236 175 265 175Q307 175 342 179.5Q377 184 402 195.5Q427 207 440.5 225Q454 243 454 270Q454 295 442 310Q430 325 408 334Q386 343 354.5 347Q323 351 284 354Q227 359 183 365.5Q139 372 109.5 385.5Q80 399 65 422Q50 445 50 483Q50 565 115 600Q180 635 296 635Q302 635 310 635Q318 635 326 634L365 750H440L394 629Q423 625 450.5 620Q478 615 495 607V549Q480 554 457 558.5Q434 563 407 567Q380 571 351 573Q322 575 295 575Q254 575 221 571.5Q188 568 164 557.5Q140 547 127 529Q114 511 114 483Z" glyph-name="dollar.LP" horiz-adv-x="570" unicode="&#57750;" /><glyph d="M116 360Q116 321 151 307.5Q186 294 260 287Q315 282 353.5 273Q392 264 416.5 247.5Q441 231 452.5 206Q464 181 464 145Q464 77 406 33.5Q348 -10 225 -10L186 -124H111L157 -4Q127 0 100 5.5Q73 11 59 18V77Q70 72 89 67.5Q108 63 131.5 59.5Q155 56 182 53.5Q209 51 236 51Q318 51 357.5 75Q397 99 397 144Q397 187 364.5 205Q332 223 255 229Q199 234 160 243Q121 252 97 267.5Q73 283 62 305.5Q51 328 51 360Q51 432 108 471Q165 510 282 510L321 625H396L350 505Q375 501 398 496.5Q421 492 439 484V425Q410 435 364.5 442Q319 449 266 449Q188 449 152 428.5Q116 408 116 360Z" glyph-name="dollar.OP" horiz-adv-x="515" unicode="&#57790;" /><glyph d="M235 650Q235 671 249.5 685.5Q264 700 285 700Q306 700 320.5 685.5Q335 671 335 650Q335 629 320.5 614.5Q306 600 285 600Q264 600 249.5 614.5Q235 629 235 650Z" glyph-name="dotaccent" horiz-adv-x="570" unicode="&#729;" /><glyph d="M235 850Q235 871 249.5 885.5Q264 900 285 900Q306 900 320.5 885.5Q335 871 335 850Q335 829 320.5 814.5Q306 800 285 800Q264 800 249.5 814.5Q235 829 235 850Z" glyph-name="dotaccent.cap" horiz-adv-x="570" unicode="&#57715;" /><glyph d="M191 -10Q137 -10 109 15Q81 40 81 100V500H149V92Q149 66 158.5 56.5Q168 47 191 47V-10Z" glyph-name="dotlessi" horiz-adv-x="240" unicode="&#305;" /><glyph d="M-47 -201Q-25 -198 -2 -190.5Q21 -183 39.5 -169.5Q58 -156 69.5 -136Q81 -116 81 -87V500H149V-96Q149 -135 131 -165Q113 -195 85 -215.5Q57 -236 22 -247Q-13 -258 -47 -260Z" glyph-name="dotlessj" horiz-adv-x="230" unicode="&#567;" /><glyph d="M87 -206V816H158V-206ZM217 -206V816H288V-206Z" glyph-name="doublebar" horiz-adv-x="375" unicode="&#57726;" /><glyph d="M200 550 120 750H200L250 550ZM320 550 240 750H320L370 550Z" glyph-name="doublegrave" horiz-adv-x="570" unicode="&#57700;" /><glyph d="M320 800 230 900H320L370 800ZM200 800 110 900H200L250 800Z" glyph-name="doublegrave.cap" horiz-adv-x="570" unicode="&#57714;" /><glyph d="M55 250Q55 304 64 351.5Q73 399 96.5 434Q120 469 161 489.5Q202 510 265 510Q329 510 366.5 489.5Q404 469 423.5 434Q443 399 449 351.5Q455 304 455 250V218H125Q126 185 132.5 155Q139 125 154 102Q169 79 196 65.5Q223 52 265 52Q319 52 356 58Q393 64 430 80V20Q388 1 345 -4.5Q302 -10 265 -10Q202 -10 161 10.5Q120 31 96.5 66Q73 101 64 148.5Q55 196 55 250ZM265 448Q221 448 194.5 433.5Q168 419 153 395Q138 371 132 340Q126 309 125 275H385Q385 308 382.5 339.5Q380 371 368 395Q356 419 332 433.5Q308 448 265 448Z" glyph-name="e" horiz-adv-x="510" unicode="e" /><glyph d="M405 226H141V61H440V0H75V500H440V439H141V287H405Z" glyph-name="e.small" horiz-adv-x="500" unicode="&#57456;" /><glyph d="M30 466Q30 527 56 562.5Q82 598 141 598Q173 598 193 588Q213 578 224 561.5Q235 545 239 522Q243 499 243 474L242 446H87Q89 417 103 400Q117 383 152 383Q178 383 197.5 387.5Q217 392 232 398V350Q210 341 187 337.5Q164 334 143 334Q83 334 56.5 369.5Q30 405 30 466ZM141 549Q112 549 100 531Q88 513 87 485H186Q186 498 184.5 509.5Q183 521 178.5 530Q174 539 165 544Q156 549 141 549Z" glyph-name="e.superior" horiz-adv-x="273" unicode="&#57661;" /><glyph d="M55 250Q55 304 64 351.5Q73 399 96.5 434Q120 469 161 489.5Q202 510 265 510Q329 510 366.5 489.5Q404 469 423.5 434Q443 399 449 351.5Q455 304 455 250V218H125Q126 185 132.5 155Q139 125 154 102Q169 79 196 65.5Q223 52 265 52Q319 52 356 58Q393 64 430 80V20Q388 1 345 -4.5Q302 -10 265 -10Q202 -10 161 10.5Q120 31 96.5 66Q73 101 64 148.5Q55 196 55 250ZM265 448Q221 448 194.5 433.5Q168 419 153 395Q138 371 132 340Q126 309 125 275H385Q385 308 382.5 339.5Q380 371 368 395Q356 419 332 433.5Q308 448 265 448ZM240 550 290 750H370L290 550Z" glyph-name="eacute" horiz-adv-x="510" unicode="&#233;" /><glyph d="M405 226H141V61H440V0H75V500H440V439H141V287H405ZM240 550 290 750H370L290 550Z" glyph-name="eacute.small" horiz-adv-x="500" unicode="&#57506;" /><glyph d="M55 250Q55 304 64 351.5Q73 399 96.5 434Q120 469 161 489.5Q202 510 265 510Q329 510 366.5 489.5Q404 469 423.5 434Q443 399 449 351.5Q455 304 455 250V218H125Q126 185 132.5 155Q139 125 154 102Q169 79 196 65.5Q223 52 265 52Q319 52 356 58Q393 64 430 80V20Q388 1 345 -4.5Q302 -10 265 -10Q202 -10 161 10.5Q120 31 96.5 66Q73 101 64 148.5Q55 196 55 250ZM265 448Q221 448 194.5 433.5Q168 419 153 395Q138 371 132 340Q126 309 125 275H385Q385 308 382.5 339.5Q380 371 368 395Q356 419 332 433.5Q308 448 265 448ZM240 550 290 750H370L290 550ZM215 -150Q215 -129 229.5 -114.5Q244 -100 265 -100Q286 -100 300.5 -114.5Q315 -129 315 -150Q315 -171 300.5 -185.5Q286 -200 265 -200Q244 -200 229.5 -185.5Q215 -171 215 -150Z" glyph-name="eacutedotbelow" horiz-adv-x="510" unicode="&#57384;" /><glyph d="M405 226H141V61H440V0H75V500H440V439H141V287H405ZM240 550 290 750H370L290 550ZM215 -150Q215 -129 229.5 -114.5Q244 -100 265 -100Q286 -100 300.5 -114.5Q315 -129 315 -150Q315 -171 300.5 -185.5Q286 -200 265 -200Q244 -200 229.5 -185.5Q215 -171 215 -150Z" glyph-name="eacutedotbelow.small" horiz-adv-x="500" unicode="&#57516;" /><glyph d="M55 250Q55 304 64 351.5Q73 399 96.5 434Q120 469 161 489.5Q202 510 265 510Q329 510 366.5 489.5Q404 469 423.5 434Q443 399 449 351.5Q455 304 455 250V218H125Q126 185 132.5 155Q139 125 154 102Q169 79 196 65.5Q223 52 265 52Q319 52 356 58Q393 64 430 80V20Q388 1 345 -4.5Q302 -10 265 -10Q202 -10 161 10.5Q120 31 96.5 66Q73 101 64 148.5Q55 196 55 250ZM265 448Q221 448 194.5 433.5Q168 419 153 395Q138 371 132 340Q126 309 125 275H385Q385 308 382.5 339.5Q380 371 368 395Q356 419 332 433.5Q308 448 265 448ZM265 550Q94 550 90 750H141Q142 716 147.5 690Q153 664 167 646Q181 628 205 619Q229 610 265 610Q301 610 325 619Q349 628 363 646Q377 664 382.5 690Q388 716 389 750H440Q436 550 265 550Z" glyph-name="ebreve" horiz-adv-x="510" unicode="&#277;" /><glyph d="M405 226H141V61H440V0H75V500H440V439H141V287H405ZM265 550Q94 550 90 750H141Q142 716 147.5 690Q153 664 167 646Q181 628 205 619Q229 610 265 610Q301 610 325 619Q349 628 363 646Q377 664 382.5 690Q388 716 389 750H440Q436 550 265 550Z" glyph-name="ebreve.small" horiz-adv-x="500" unicode="&#57512;" /><glyph d="M55 250Q55 304 64 351.5Q73 399 96.5 434Q120 469 161 489.5Q202 510 265 510Q329 510 366.5 489.5Q404 469 423.5 434Q443 399 449 351.5Q455 304 455 250V218H125Q126 185 132.5 155Q139 125 154 102Q169 79 196 65.5Q223 52 265 52Q319 52 356 58Q393 64 430 80V20Q388 1 345 -4.5Q302 -10 265 -10Q202 -10 161 10.5Q120 31 96.5 66Q73 101 64 148.5Q55 196 55 250ZM265 448Q221 448 194.5 433.5Q168 419 153 395Q138 371 132 340Q126 309 125 275H385Q385 308 382.5 339.5Q380 371 368 395Q356 419 332 433.5Q308 448 265 448ZM450 750 305 550H225L80 750H135L265 609L395 750Z" glyph-name="ecaron" horiz-adv-x="510" unicode="&#283;" /><glyph d="M405 226H141V61H440V0H75V500H440V439H141V287H405ZM450 750 305 550H225L80 750H135L265 609L395 750Z" glyph-name="ecaron.small" horiz-adv-x="500" unicode="&#57510;" /><glyph d="M55 250Q55 304 64 351.5Q73 399 96.5 434Q120 469 161 489.5Q202 510 265 510Q329 510 366.5 489.5Q404 469 423.5 434Q443 399 449 351.5Q455 304 455 250V218H125Q126 185 132.5 155Q139 125 154 102Q169 79 196 65.5Q223 52 265 52Q319 52 356 58Q393 64 430 80V20Q388 1 345 -4.5Q302 -10 265 -10Q202 -10 161 10.5Q120 31 96.5 66Q73 101 64 148.5Q55 196 55 250ZM265 448Q221 448 194.5 433.5Q168 419 153 395Q138 371 132 340Q126 309 125 275H385Q385 308 382.5 339.5Q380 371 368 395Q356 419 332 433.5Q308 448 265 448ZM395 550 265 691 135 550H80L225 750H305L450 550Z" glyph-name="ecircumflex" horiz-adv-x="510" unicode="&#234;" /><glyph d="M405 226H141V61H440V0H75V500H440V439H141V287H405ZM395 550 265 691 135 550H80L225 750H305L450 550Z" glyph-name="ecircumflex.small" horiz-adv-x="500" unicode="&#57508;" /><glyph d="M55 250Q55 304 64 351.5Q73 399 96.5 434Q120 469 161 489.5Q202 510 265 510Q329 510 366.5 489.5Q404 469 423.5 434Q443 399 449 351.5Q455 304 455 250V218H125Q126 185 132.5 155Q139 125 154 102Q169 79 196 65.5Q223 52 265 52Q319 52 356 58Q393 64 430 80V20Q388 1 345 -4.5Q302 -10 265 -10Q202 -10 161 10.5Q120 31 96.5 66Q73 101 64 148.5Q55 196 55 250ZM265 448Q221 448 194.5 433.5Q168 419 153 395Q138 371 132 340Q126 309 125 275H385Q385 308 382.5 339.5Q380 371 368 395Q356 419 332 433.5Q308 448 265 448ZM120 650Q120 671 134.5 685.5Q149 700 170 700Q191 700 205.5 685.5Q220 671 220 650Q220 629 205.5 614.5Q191 600 170 600Q149 600 134.5 614.5Q120 629 120 650ZM310 650Q310 671 324.5 685.5Q339 700 360 700Q381 700 395.5 685.5Q410 671 410 650Q410 629 395.5 614.5Q381 600 360 600Q339 600 324.5 614.5Q310 629 310 650Z" glyph-name="edieresis" horiz-adv-x="510" unicode="&#235;" /><glyph d="M405 226H141V61H440V0H75V500H440V439H141V287H405ZM120 650Q120 671 134.5 685.5Q149 700 170 700Q191 700 205.5 685.5Q220 671 220 650Q220 629 205.5 614.5Q191 600 170 600Q149 600 134.5 614.5Q120 629 120 650ZM310 650Q310 671 324.5 685.5Q339 700 360 700Q381 700 395.5 685.5Q410 671 410 650Q410 629 395.5 614.5Q381 600 360 600Q339 600 324.5 614.5Q310 629 310 650Z" glyph-name="edieresis.small" horiz-adv-x="500" unicode="&#57509;" /><glyph d="M55 250Q55 304 64 351.5Q73 399 96.5 434Q120 469 161 489.5Q202 510 265 510Q329 510 366.5 489.5Q404 469 423.5 434Q443 399 449 351.5Q455 304 455 250V218H125Q126 185 132.5 155Q139 125 154 102Q169 79 196 65.5Q223 52 265 52Q319 52 356 58Q393 64 430 80V20Q388 1 345 -4.5Q302 -10 265 -10Q202 -10 161 10.5Q120 31 96.5 66Q73 101 64 148.5Q55 196 55 250ZM265 448Q221 448 194.5 433.5Q168 419 153 395Q138 371 132 340Q126 309 125 275H385Q385 308 382.5 339.5Q380 371 368 395Q356 419 332 433.5Q308 448 265 448ZM215 650Q215 671 229.5 685.5Q244 700 265 700Q286 700 300.5 685.5Q315 671 315 650Q315 629 300.5 614.5Q286 600 265 600Q244 600 229.5 614.5Q215 629 215 650Z" glyph-name="edotaccent" horiz-adv-x="510" unicode="&#279;" /><glyph d="M405 226H141V61H440V0H75V500H440V439H141V287H405ZM215 650Q215 671 229.5 685.5Q244 700 265 700Q286 700 300.5 685.5Q315 671 315 650Q315 629 300.5 614.5Q286 600 265 600Q244 600 229.5 614.5Q215 629 215 650Z" glyph-name="edotaccent.small" horiz-adv-x="500" unicode="&#57515;" /><glyph d="M55 250Q55 304 64 351.5Q73 399 96.5 434Q120 469 161 489.5Q202 510 265 510Q329 510 366.5 489.5Q404 469 423.5 434Q443 399 449 351.5Q455 304 455 250V218H125Q126 185 132.5 155Q139 125 154 102Q169 79 196 65.5Q223 52 265 52Q319 52 356 58Q393 64 430 80V20Q388 1 345 -4.5Q302 -10 265 -10Q202 -10 161 10.5Q120 31 96.5 66Q73 101 64 148.5Q55 196 55 250ZM265 448Q221 448 194.5 433.5Q168 419 153 395Q138 371 132 340Q126 309 125 275H385Q385 308 382.5 339.5Q380 371 368 395Q356 419 332 433.5Q308 448 265 448ZM180 550 100 750H180L230 550ZM300 550 220 750H300L350 550Z" glyph-name="edoublegrave" horiz-adv-x="510" unicode="&#57383;" /><glyph d="M405 226H141V61H440V0H75V500H440V439H141V287H405ZM180 550 100 750H180L230 550ZM300 550 220 750H300L350 550Z" glyph-name="edoublegrave.small" horiz-adv-x="500" unicode="&#57514;" /><glyph d="M55 250Q55 304 64 351.5Q73 399 96.5 434Q120 469 161 489.5Q202 510 265 510Q329 510 366.5 489.5Q404 469 423.5 434Q443 399 449 351.5Q455 304 455 250V218H125Q126 185 132.5 155Q139 125 154 102Q169 79 196 65.5Q223 52 265 52Q319 52 356 58Q393 64 430 80V20Q388 1 345 -4.5Q302 -10 265 -10Q202 -10 161 10.5Q120 31 96.5 66Q73 101 64 148.5Q55 196 55 250ZM265 448Q221 448 194.5 433.5Q168 419 153 395Q138 371 132 340Q126 309 125 275H385Q385 308 382.5 339.5Q380 371 368 395Q356 419 332 433.5Q308 448 265 448ZM240 550 160 750H240L290 550Z" glyph-name="egrave" horiz-adv-x="510" unicode="&#232;" /><glyph d="M405 226H141V61H440V0H75V500H440V439H141V287H405ZM240 550 160 750H240L290 550Z" glyph-name="egrave.small" horiz-adv-x="500" unicode="&#57507;" /><glyph d="M55 250Q55 304 64 351.5Q73 399 96.5 434Q120 469 161 489.5Q202 510 265 510Q329 510 366.5 489.5Q404 469 423.5 434Q443 399 449 351.5Q455 304 455 250V218H125Q126 185 132.5 155Q139 125 154 102Q169 79 196 65.5Q223 52 265 52Q319 52 356 58Q393 64 430 80V20Q388 1 345 -4.5Q302 -10 265 -10Q202 -10 161 10.5Q120 31 96.5 66Q73 101 64 148.5Q55 196 55 250ZM265 448Q221 448 194.5 433.5Q168 419 153 395Q138 371 132 340Q126 309 125 275H385Q385 308 382.5 339.5Q380 371 368 395Q356 419 332 433.5Q308 448 265 448ZM240 550 160 750H240L290 550ZM215 -150Q215 -129 229.5 -114.5Q244 -100 265 -100Q286 -100 300.5 -114.5Q315 -129 315 -150Q315 -171 300.5 -185.5Q286 -200 265 -200Q244 -200 229.5 -185.5Q215 -171 215 -150Z" glyph-name="egravedotbelow" horiz-adv-x="510" unicode="&#57385;" /><glyph d="M405 226H141V61H440V0H75V500H440V439H141V287H405ZM240 550 160 750H240L290 550ZM215 -150Q215 -129 229.5 -114.5Q244 -100 265 -100Q286 -100 300.5 -114.5Q315 -129 315 -150Q315 -171 300.5 -185.5Q286 -200 265 -200Q244 -200 229.5 -185.5Q215 -171 215 -150Z" glyph-name="egravedotbelow.small" horiz-adv-x="500" unicode="&#57517;" /><glyph d="M285 -10Q215 -10 166.5 8Q118 26 88 56.5Q58 87 45 127Q32 167 32 211Q32 239 39.5 268Q47 297 62 322Q77 347 100.5 366.5Q124 386 156 395Q107 418 82 460.5Q57 503 57 552Q57 593 68.5 630.5Q80 668 107 697Q134 726 177.5 743Q221 760 285 760Q349 760 392.5 743Q436 726 463 697Q490 668 501.5 630.5Q513 593 513 552Q513 503 488 460.5Q463 418 414 395Q446 386 469.5 366.5Q493 347 508 322Q523 297 530.5 268Q538 239 538 211Q538 167 525 127Q512 87 482 56.5Q452 26 403.5 8Q355 -10 285 -10ZM285 358Q197 358 151.5 322.5Q106 287 106 211Q106 184 114 156Q122 128 142.5 104.5Q163 81 197.5 66.5Q232 52 285 52Q338 52 372.5 66.5Q407 81 427.5 104.5Q448 128 456 156Q464 184 464 211Q464 287 418.5 322.5Q373 358 285 358ZM285 420Q327 420 356.5 431.5Q386 443 404.5 462Q423 481 431 504.5Q439 528 439 552Q439 577 433 603Q427 629 410 650Q393 671 363 684.5Q333 698 285 698Q237 698 207 684.5Q177 671 160 650Q143 629 137 603Q131 577 131 552Q131 528 139 504.5Q147 481 165.5 462Q184 443 213.5 431.5Q243 420 285 420Z" glyph-name="eight" horiz-adv-x="570" unicode="8" /><glyph d="M285 -10Q215 -10 166.5 8Q118 26 88 56.5Q58 87 45 127Q32 167 32 211Q32 239 39.5 268Q47 297 62 322Q77 347 100.5 366.5Q124 386 156 395Q107 418 82 460.5Q57 503 57 552Q57 593 68.5 630.5Q80 668 107 697Q134 726 177.5 743Q221 760 285 760Q349 760 392.5 743Q436 726 463 697Q490 668 501.5 630.5Q513 593 513 552Q513 503 488 460.5Q463 418 414 395Q446 386 469.5 366.5Q493 347 508 322Q523 297 530.5 268Q538 239 538 211Q538 167 525 127Q512 87 482 56.5Q452 26 403.5 8Q355 -10 285 -10ZM285 358Q197 358 151.5 322.5Q106 287 106 211Q106 184 114 156Q122 128 142.5 104.5Q163 81 197.5 66.5Q232 52 285 52Q338 52 372.5 66.5Q407 81 427.5 104.5Q448 128 456 156Q464 184 464 211Q464 287 418.5 322.5Q373 358 285 358ZM285 420Q327 420 356.5 431.5Q386 443 404.5 462Q423 481 431 504.5Q439 528 439 552Q439 577 433 603Q427 629 410 650Q393 671 363 684.5Q333 698 285 698Q237 698 207 684.5Q177 671 160 650Q143 629 137 603Q131 577 131 552Q131 528 139 504.5Q147 481 165.5 462Q184 443 213.5 431.5Q243 420 285 420Z" glyph-name="eight.LP" horiz-adv-x="570" unicode="&#57776;" /><glyph d="M300 -10Q230 -10 181.5 8Q133 26 103 56.5Q73 87 60 127Q47 167 47 211Q47 239 54.5 268Q62 297 77 322Q92 347 115.5 366.5Q139 386 171 395Q122 418 97 460.5Q72 503 72 552Q72 593 83.5 630.5Q95 668 122 697Q149 726 192.5 743Q236 760 300 760Q364 760 407.5 743Q451 726 478 697Q505 668 516.5 630.5Q528 593 528 552Q528 503 503 460.5Q478 418 429 395Q461 386 484.5 366.5Q508 347 523 322Q538 297 545.5 268Q553 239 553 211Q553 167 540 127Q527 87 497 56.5Q467 26 418.5 8Q370 -10 300 -10ZM300 358Q212 358 166.5 322.5Q121 287 121 211Q121 184 129 156Q137 128 157.5 104.5Q178 81 212.5 66.5Q247 52 300 52Q353 52 387.5 66.5Q422 81 442.5 104.5Q463 128 471 156Q479 184 479 211Q479 287 433.5 322.5Q388 358 300 358ZM300 420Q342 420 371.5 431.5Q401 443 419.5 462Q438 481 446 504.5Q454 528 454 552Q454 577 448 603Q442 629 425 650Q408 671 378 684.5Q348 698 300 698Q252 698 222 684.5Q192 671 175 650Q158 629 152 603Q146 577 146 552Q146 528 154 504.5Q162 481 180.5 462Q199 443 228.5 431.5Q258 420 300 420Z" glyph-name="eight.LT" horiz-adv-x="600" unicode="&#57786;" /><glyph d="M285 -10Q215 -10 166.5 8Q118 26 88 56.5Q58 87 45 127Q32 167 32 211Q32 239 39.5 268Q47 297 62 322Q77 347 100.5 366.5Q124 386 156 395Q107 418 82 460.5Q57 503 57 552Q57 593 68.5 630.5Q80 668 107 697Q134 726 177.5 743Q221 760 285 760Q349 760 392.5 743Q436 726 463 697Q490 668 501.5 630.5Q513 593 513 552Q513 503 488 460.5Q463 418 414 395Q446 386 469.5 366.5Q493 347 508 322Q523 297 530.5 268Q538 239 538 211Q538 167 525 127Q512 87 482 56.5Q452 26 403.5 8Q355 -10 285 -10ZM285 358Q197 358 151.5 322.5Q106 287 106 211Q106 184 114 156Q122 128 142.5 104.5Q163 81 197.5 66.5Q232 52 285 52Q338 52 372.5 66.5Q407 81 427.5 104.5Q448 128 456 156Q464 184 464 211Q464 287 418.5 322.5Q373 358 285 358ZM285 420Q327 420 356.5 431.5Q386 443 404.5 462Q423 481 431 504.5Q439 528 439 552Q439 577 433 603Q427 629 410 650Q393 671 363 684.5Q333 698 285 698Q237 698 207 684.5Q177 671 160 650Q143 629 137 603Q131 577 131 552Q131 528 139 504.5Q147 481 165.5 462Q184 443 213.5 431.5Q243 420 285 420Z" glyph-name="eight.OP" horiz-adv-x="570" unicode="&#57816;" /><glyph d="M300 -10Q230 -10 181.5 8Q133 26 103 56.5Q73 87 60 127Q47 167 47 211Q47 239 54.5 268Q62 297 77 322Q92 347 115.5 366.5Q139 386 171 395Q122 418 97 460.5Q72 503 72 552Q72 593 83.5 630.5Q95 668 122 697Q149 726 192.5 743Q236 760 300 760Q364 760 407.5 743Q451 726 478 697Q505 668 516.5 630.5Q528 593 528 552Q528 503 503 460.5Q478 418 429 395Q461 386 484.5 366.5Q508 347 523 322Q538 297 545.5 268Q553 239 553 211Q553 167 540 127Q527 87 497 56.5Q467 26 418.5 8Q370 -10 300 -10ZM300 358Q212 358 166.5 322.5Q121 287 121 211Q121 184 129 156Q137 128 157.5 104.5Q178 81 212.5 66.5Q247 52 300 52Q353 52 387.5 66.5Q422 81 442.5 104.5Q463 128 471 156Q479 184 479 211Q479 287 433.5 322.5Q388 358 300 358ZM300 420Q342 420 371.5 431.5Q401 443 419.5 462Q438 481 446 504.5Q454 528 454 552Q454 577 448 603Q442 629 425 650Q408 671 378 684.5Q348 698 300 698Q252 698 222 684.5Q192 671 175 650Q158 629 152 603Q146 577 146 552Q146 528 154 504.5Q162 481 180.5 462Q199 443 228.5 431.5Q258 420 300 420Z" glyph-name="eight.OT" horiz-adv-x="600" unicode="&#57826;" /><glyph d="M241 302Q275 302 297.5 307.5Q320 313 333 323Q346 333 351 346.5Q356 360 356 375Q356 390 351 403.5Q346 417 333 427Q320 437 297.5 443Q275 449 241 449Q207 449 185 443Q163 437 150 427Q137 417 131.5 403.5Q126 390 126 375Q126 360 131.5 346.5Q137 333 150 323Q163 313 185 307.5Q207 302 241 302ZM241 -10Q180 -10 140.5 2.5Q101 15 77.5 36Q54 57 44.5 85.5Q35 114 35 146Q35 191 57.5 226Q80 261 115 275Q92 287 75.5 312.5Q59 338 59 375Q59 406 67.5 431.5Q76 457 97 474Q118 491 153 500.5Q188 510 241 510Q294 510 329 500.5Q364 491 385 474Q406 457 414.5 431.5Q423 406 423 375Q423 338 406.5 312.5Q390 287 367 275Q402 261 424.5 226Q447 191 447 146Q447 114 437.5 85.5Q428 57 404.5 36Q381 15 341.5 2.5Q302 -10 241 -10ZM241 51Q281 51 307 59Q333 67 348.5 80Q364 93 370 110.5Q376 128 376 146Q376 164 370 181.5Q364 199 348.5 212Q333 225 307 233Q281 241 241 241Q201 241 175 233Q149 225 133.5 212Q118 199 112 181.5Q106 164 106 146Q106 128 112 110.5Q118 93 133.5 80Q149 67 175 59Q201 51 241 51Z" glyph-name="eight.XP" horiz-adv-x="482" unicode="&#57836;" /><glyph d="M300 299Q349 299 378.5 305Q408 311 424 321.5Q440 332 444.5 346Q449 360 449 375Q449 390 442.5 403.5Q436 417 419.5 427Q403 437 374 443Q345 449 300 449Q255 449 226 443Q197 437 180.5 427Q164 417 157.5 403.5Q151 390 151 375Q151 360 155.5 346Q160 332 176 321.5Q192 311 221 305Q250 299 300 299ZM300 51Q353 51 386 59Q419 67 437.5 80Q456 93 462.5 110.5Q469 128 469 146Q469 166 464.5 183Q460 200 442.5 212.5Q425 225 391.5 232Q358 239 300 239Q242 239 208.5 232Q175 225 157.5 212.5Q140 200 135.5 183Q131 166 131 146Q131 128 137.5 110.5Q144 93 162.5 80Q181 67 214 59Q247 51 300 51ZM300 -10Q227 -10 180.5 3.5Q134 17 107 39.5Q80 62 70 91.5Q60 121 60 153Q60 175 68.5 195Q77 215 90.5 231Q104 247 122 258Q140 269 158 274Q131 281 107.5 306.5Q84 332 84 369Q84 400 94 426Q104 452 128.5 471Q153 490 195 500Q237 510 300 510Q363 510 405 500Q447 490 471.5 471Q496 452 506 426Q516 400 516 369Q516 332 492.5 306.5Q469 281 442 274Q460 269 478 258Q496 247 509.5 231Q523 215 531.5 195Q540 175 540 153Q540 121 530 91.5Q520 62 493 39.5Q466 17 419.5 3.5Q373 -10 300 -10Z" glyph-name="eight.XT" horiz-adv-x="600" unicode="&#57846;" /><glyph d="M206 -5Q233 -5 250 -0.5Q267 4 276 11.5Q285 19 288.5 29.5Q292 40 292 51Q292 62 288.5 72Q285 82 276 90Q267 98 250 102.5Q233 107 206 107Q179 107 162 102.5Q145 98 135.5 90Q126 82 122.5 72Q119 62 119 51Q119 40 122.5 29.5Q126 19 135.5 11.5Q145 4 162 -0.5Q179 -5 206 -5ZM206 -260Q158 -260 125.5 -250.5Q93 -241 73 -223.5Q53 -206 44 -182.5Q35 -159 35 -132Q35 -96 52 -67.5Q69 -39 95 -28Q78 -19 66 2Q54 23 54 51Q54 78 61.5 100Q69 122 87 137Q105 152 134 160.5Q163 169 206 169Q248 169 277 160.5Q306 152 324 137Q342 122 349.5 100Q357 78 357 51Q357 23 345 2Q333 -19 316 -28Q343 -39 359.5 -67.5Q376 -96 376 -132Q376 -159 367.5 -182.5Q359 -206 339 -223.5Q319 -241 286.5 -250.5Q254 -260 206 -260ZM206 -199Q265 -199 286.5 -178.5Q308 -158 308 -130Q308 -103 286.5 -83Q265 -63 206 -63Q147 -63 125 -83Q103 -103 103 -130Q103 -158 125 -178.5Q147 -199 206 -199Z" glyph-name="eight.inf" horiz-adv-x="411" unicode="&#57856;" /><glyph d="M55 250Q55 304 64 351.5Q73 399 96.5 434Q120 469 161 489.5Q202 510 265 510Q329 510 366.5 489.5Q404 469 423.5 434Q443 399 449 351.5Q455 304 455 250V218H125Q126 185 132.5 155Q139 125 154 102Q169 79 196 65.5Q223 52 265 52Q319 52 356 58Q393 64 430 80V20Q388 1 345 -4.5Q302 -10 265 -10Q202 -10 161 10.5Q120 31 96.5 66Q73 101 64 148.5Q55 196 55 250ZM265 448Q221 448 194.5 433.5Q168 419 153 395Q138 371 132 340Q126 309 125 275H385Q385 308 382.5 339.5Q380 371 368 395Q356 419 332 433.5Q308 448 265 448ZM265 750Q436 750 440 550H389Q388 584 382.5 610Q377 636 363 654Q349 672 325 681Q301 690 265 690Q229 690 205 681Q181 672 167 654Q153 636 147.5 610Q142 584 141 550H90Q94 750 265 750Z" glyph-name="einvertedbreve" horiz-adv-x="510" unicode="&#519;" /><glyph d="M405 226H141V61H440V0H75V500H440V439H141V287H405ZM265 750Q436 750 440 550H389Q388 584 382.5 610Q377 636 363 654Q349 672 325 681Q301 690 265 690Q229 690 205 681Q181 672 167 654Q153 636 147.5 610Q142 584 141 550H90Q94 750 265 750Z" glyph-name="einvertedbreve.small" horiz-adv-x="500" unicode="&#57513;" /><glyph d="M100 40Q100 61 114.5 75.5Q129 90 150 90Q171 90 185.5 75.5Q200 61 200 40Q200 19 185.5 4.5Q171 -10 150 -10Q129 -10 114.5 4.5Q100 19 100 40ZM430 40Q430 61 444.5 75.5Q459 90 480 90Q501 90 515.5 75.5Q530 61 530 40Q530 19 515.5 4.5Q501 -10 480 -10Q459 -10 444.5 4.5Q430 19 430 40ZM760 40Q760 61 774.5 75.5Q789 90 810 90Q831 90 845.5 75.5Q860 61 860 40Q860 19 845.5 4.5Q831 -10 810 -10Q789 -10 774.5 4.5Q760 19 760 40Z" glyph-name="ellipsis" horiz-adv-x="960" unicode="&#8230;" /><glyph d="M55 250Q55 304 64 351.5Q73 399 96.5 434Q120 469 161 489.5Q202 510 265 510Q329 510 366.5 489.5Q404 469 423.5 434Q443 399 449 351.5Q455 304 455 250V218H125Q126 185 132.5 155Q139 125 154 102Q169 79 196 65.5Q223 52 265 52Q319 52 356 58Q393 64 430 80V20Q388 1 345 -4.5Q302 -10 265 -10Q202 -10 161 10.5Q120 31 96.5 66Q73 101 64 148.5Q55 196 55 250ZM265 448Q221 448 194.5 433.5Q168 419 153 395Q138 371 132 340Q126 309 125 275H385Q385 308 382.5 339.5Q380 371 368 395Q356 419 332 433.5Q308 448 265 448ZM128 680H402V620H128Z" glyph-name="emacron" horiz-adv-x="510" unicode="&#275;" /><glyph d="M405 226H141V61H440V0H75V500H440V439H141V287H405ZM128 680H402V620H128Z" glyph-name="emacron.small" horiz-adv-x="500" unicode="&#57511;" /><glyph d="M955 272H45V338H955Z" glyph-name="emdash" horiz-adv-x="1000" unicode="&#8212;" /><glyph d="M955 342H45V408H955Z" glyph-name="emdash.cap" horiz-adv-x="1000" unicode="&#57734;" /><glyph glyph-name="emspace" horiz-adv-x="1000" unicode="&#8195;" /><glyph d="M455 272H45V338H455Z" glyph-name="endash" horiz-adv-x="500" unicode="&#8211;" /><glyph d="M455 342H45V408H455Z" glyph-name="endash.cap" horiz-adv-x="500" unicode="&#57732;" /><glyph d="M270 448Q221 448 192 440Q163 432 135 416V0H65V500H104L119 458Q189 510 270 510Q360 510 400 471Q440 432 440 360V-96Q440 -135 422 -165Q404 -195 375.5 -215.5Q347 -236 311.5 -247Q276 -258 242 -260V-201Q264 -198 287 -190.5Q310 -183 328.5 -169.5Q347 -156 358.5 -136Q370 -116 370 -87V363Q370 412 343.5 430Q317 448 270 448Z" glyph-name="eng" horiz-adv-x="500" unicode="&#331;" /><glyph d="M495 -97Q495 -136 477 -166Q459 -196 430.5 -216.5Q402 -237 366.5 -248Q331 -259 297 -261V-200Q319 -197 343 -190Q367 -183 386.5 -170Q406 -157 419 -137Q432 -117 432 -88V23L140 378L141 0H75V500H119L430 122L429 500H495V-97Z" glyph-name="eng.small" horiz-adv-x="570" unicode="&#57648;" /><glyph glyph-name="enspace" horiz-adv-x="500" unicode="&#8194;" /><glyph d="M55 250Q55 304 64 351.5Q73 399 96.5 434Q120 469 161 489.5Q202 510 265 510Q329 510 366.5 489.5Q404 469 423.5 434Q443 399 449 351.5Q455 304 455 250V218H125Q126 185 132.5 155Q139 125 154 102Q169 79 196 65.5Q223 52 265 52Q319 52 356 58Q393 64 430 80V20Q414 13 399 8Q384 3 368 0Q319 -27 290.5 -65Q262 -103 262 -142Q262 -165 274.5 -182Q287 -199 316 -199Q333 -199 347.5 -196.5Q362 -194 373 -191V-239Q360 -244 342 -247Q324 -250 302 -250Q257 -250 229 -225Q201 -200 201 -155Q201 -115 220 -77.5Q239 -40 276 -10H265Q202 -10 161 10.5Q120 31 96.5 66Q73 101 64 148.5Q55 196 55 250ZM265 448Q221 448 194.5 433.5Q168 419 153 395Q138 371 132 340Q126 309 125 275H385Q385 308 382.5 339.5Q380 371 368 395Q356 419 332 433.5Q308 448 265 448Z" glyph-name="eogonek" horiz-adv-x="510" unicode="&#281;" /><glyph d="M405 226H141V61H440V0Q391 -27 362.5 -65Q334 -103 334 -142Q334 -165 346.5 -182Q359 -199 388 -199Q405 -199 419.5 -196.5Q434 -194 445 -191V-239Q432 -244 414 -247Q396 -250 374 -250Q329 -250 301 -225Q273 -200 273 -155Q273 -111 295 -71.5Q317 -32 360 0H75V500H440V439H141V287H405Z" glyph-name="eogonek.small" horiz-adv-x="500" unicode="&#57518;" /><glyph d="M445 374H45V440H445ZM445 242H45V308H445Z" glyph-name="equal" horiz-adv-x="490" unicode="=" /><glyph d="M815 508V442H65V508ZM815 308V242H65V308Z" glyph-name="equal.cap" horiz-adv-x="880" unicode="&#57875;" /><glyph d="M45 -78H345V-144H45ZM45 54H345V-12H45Z" glyph-name="equal.inf" horiz-adv-x="390" unicode="&#57860;" /><glyph d="M385 760Q478 760 544 727.5Q610 695 652.5 641Q695 587 715 517.5Q735 448 735 375V342H194V126Q229 91 276.5 72.5Q324 54 385 54Q470 54 528.5 89Q587 124 620 187H700Q682 144 653.5 108Q625 72 586 45.5Q547 19 497 4.5Q447 -10 385 -10Q293 -10 227 22.5Q161 55 118 109Q75 163 55 232Q35 301 35 375Q35 448 55 517.5Q75 587 118 641Q161 695 227 727.5Q293 760 385 760ZM385 696Q324 696 276.5 677.5Q229 659 194 624V408H576V624Q541 659 493.5 677.5Q446 696 385 696Z" glyph-name="estimated" horiz-adv-x="770" unicode="&#8494;" /><glyph d="M425 691 348 652Q375 623 400.5 584.5Q426 546 446.5 497Q467 448 480 386.5Q493 325 495 250Q495 193 485 145Q475 97 449.5 62.5Q424 28 381.5 9Q339 -10 275 -10Q211 -10 168.5 9Q126 28 101 62.5Q76 97 65.5 145Q55 193 55 250Q55 307 65.5 355Q76 403 101 437.5Q126 472 168.5 491Q211 510 275 510Q306 510 332 503Q358 496 381 484Q364 524 340 558Q316 592 288 621L135 543V602L247 659Q212 689 176.5 711.5Q141 734 112 750H226Q242 740 263.5 725.5Q285 711 308 690L425 750ZM425 250Q425 292 420 328.5Q415 365 399 391.5Q383 418 353.5 433Q324 448 275 448Q225 448 195.5 433Q166 418 150.5 391.5Q135 365 130 328.5Q125 292 125 250Q125 208 130 171.5Q135 135 150.5 108.5Q166 82 195.5 67Q225 52 275 52Q324 52 353.5 67Q383 82 399 108.5Q415 135 420 171.5Q425 208 425 250Z" glyph-name="eth" horiz-adv-x="550" unicode="&#240;" /><glyph d="M115 277V500H283Q347 500 393 482.5Q439 465 468.5 432.5Q498 400 511.5 353.5Q525 307 525 250Q525 193 511.5 146.5Q498 100 468.5 67.5Q439 35 393 17.5Q347 0 283 0H115V222H25V277ZM282 61Q332 61 365 74.5Q398 88 418 113Q438 138 446.5 173Q455 208 455 250Q455 292 446.5 327Q438 362 418 387Q398 412 365 425.5Q332 439 282 439H181V277H301V222H181V61Z" glyph-name="eth.small" horiz-adv-x="585" unicode="&#57649;" /><glyph d="M75 210 45 750H145L115 210ZM45 40Q45 61 59.5 75.5Q74 90 95 90Q116 90 130.5 75.5Q145 61 145 40Q145 19 130.5 4.5Q116 -10 95 -10Q74 -10 59.5 4.5Q45 19 45 40Z" glyph-name="exclam" horiz-adv-x="190" unicode="!" /><glyph d="M115 290 145 -250H45L75 290ZM45 460Q45 481 59.5 495.5Q74 510 95 510Q116 510 130.5 495.5Q145 481 145 460Q145 439 130.5 424.5Q116 410 95 410Q74 410 59.5 424.5Q45 439 45 460Z" glyph-name="exclamdown" horiz-adv-x="190" unicode="&#161;" /><glyph d="M115 540 145 0H45L75 540ZM45 710Q45 731 59.5 745.5Q74 760 95 760Q116 760 130.5 745.5Q145 731 145 710Q145 689 130.5 674.5Q116 660 95 660Q74 660 59.5 674.5Q45 689 45 710Z" glyph-name="exclamdown.cap" horiz-adv-x="190" unicode="&#57716;" /><glyph d="M111 133V182L350 441H35V500H440V451L206 198Q258 198 306 190.5Q354 183 391 160Q428 137 449.5 95Q471 53 471 -17Q471 -98 444 -146Q417 -194 376 -219.5Q335 -245 286.5 -252.5Q238 -260 195 -260Q140 -260 98 -250.5Q56 -241 30 -228V-166Q58 -177 98 -187.5Q138 -198 196 -198Q227 -198 263 -192Q299 -186 329 -166.5Q359 -147 379 -111.5Q399 -76 399 -17Q399 38 381 68.5Q363 99 333 113Q303 127 263 130Q223 133 179 133Z" glyph-name="ezh" horiz-adv-x="500" unicode="&#658;" /><glyph d="M111 133V182L345 438H30V500H440V451L211 201Q263 201 311.5 193Q360 185 397.5 161.5Q435 138 457 95.5Q479 53 479 -17Q479 -98 450.5 -146Q422 -194 379.5 -219.5Q337 -245 287.5 -252.5Q238 -260 195 -260Q140 -260 95.5 -250.5Q51 -241 25 -228V-163Q53 -174 95.5 -184.5Q138 -195 196 -195Q227 -195 263.5 -189.5Q300 -184 331.5 -165Q363 -146 383.5 -111Q404 -76 404 -17Q404 38 385.5 68.5Q367 99 336 113Q305 127 264 130Q223 133 179 133Z" glyph-name="ezh.small" horiz-adv-x="500" unicode="&#57651;" /><glyph d="M111 133V182L350 441H35V500H440V451L206 198Q258 198 306 190.5Q354 183 391 160Q428 137 449.5 95Q471 53 471 -17Q471 -98 444 -146Q417 -194 376 -219.5Q335 -245 286.5 -252.5Q238 -260 195 -260Q140 -260 98 -250.5Q56 -241 30 -228V-166Q58 -177 98 -187.5Q138 -198 196 -198Q227 -198 263 -192Q299 -186 329 -166.5Q359 -147 379 -111.5Q399 -76 399 -17Q399 38 381 68.5Q363 99 333 113Q303 127 263 130Q223 133 179 133ZM435 750 290 550H210L65 750H120L250 609L380 750Z" glyph-name="ezhcaron" horiz-adv-x="500" unicode="&#495;" /><glyph d="M111 133V182L345 438H30V500H440V451L211 201Q263 201 311.5 193Q360 185 397.5 161.5Q435 138 457 95.5Q479 53 479 -17Q479 -98 450.5 -146Q422 -194 379.5 -219.5Q337 -245 287.5 -252.5Q238 -260 195 -260Q140 -260 95.5 -250.5Q51 -241 25 -228V-163Q53 -174 95.5 -184.5Q138 -195 196 -195Q227 -195 263.5 -189.5Q300 -184 331.5 -165Q363 -146 383.5 -111Q404 -76 404 -17Q404 38 385.5 68.5Q367 99 336 113Q305 127 264 130Q223 133 179 133ZM421 750 276 550H196L51 750H106L236 609L366 750Z" glyph-name="ezhcaron.small" horiz-adv-x="500" unicode="&#57652;" /><glyph d="M370 690Q355 694 339 696Q323 698 300 698Q251 698 219 678.5Q187 659 187 610V500H345V445H187V0H120V445H20V476L120 505V610Q120 682 163 721Q206 760 300 760Q316 760 335.5 758.5Q355 757 370 753Z" glyph-name="f" horiz-adv-x="375" unicode="f" /><glyph d="M395 226H141V0H75V500H430V439H141V287H395Z" glyph-name="f.small" horiz-adv-x="480" unicode="&#57457;" /><glyph d="M189 668Q182 670 174 672Q166 674 152 674Q133 674 120 666Q107 658 107 637V591H179V543H107V341H50V543H5V578L50 591V642Q50 682 73.5 702.5Q97 723 148 723Q156 723 168 722Q180 721 189 717Z" glyph-name="f.superior" horiz-adv-x="194" unicode="&#57662;" /><glyph d="M655 510Q715 510 755 489.5Q795 469 818 434Q841 399 850.5 351.5Q860 304 860 250Q860 196 850.5 148.5Q841 101 818 66Q795 31 755 10.5Q715 -10 655 -10Q614 -10 576 3Q538 16 499 41L484 0H445V694Q430 696 413.5 697Q397 698 380 698Q341 698 305.5 692.5Q270 687 244 673.5Q218 660 202.5 638.5Q187 617 187 585V500H345V445H187V0H120V445H20V476L120 505V585Q120 673 187.5 716.5Q255 760 380 760Q411 760 448.5 757.5Q486 755 515 750V469Q547 490 583.5 500Q620 510 655 510ZM655 448Q606 448 575 440Q544 432 515 416V84Q544 68 575 60Q606 52 655 52Q700 52 726.5 69Q753 86 767.5 114Q782 142 786 177.5Q790 213 790 250Q790 287 786 322.5Q782 358 767.5 386Q753 414 726.5 431Q700 448 655 448Z" glyph-name="f_b" horiz-adv-x="915" unicode="&#57682;" /><glyph d="M120 610Q120 682 163 721Q206 760 300 760Q316 760 335.5 758.5Q355 757 370 753V690Q355 694 339 696Q323 698 300 698Q251 698 219 678.5Q187 659 187 610V500H513V92Q513 66 522.5 56.5Q532 47 555 47V-10Q501 -10 473 15Q445 40 445 100V445H187V0H120V445H20V476L120 505Z" glyph-name="f_dotlessi" horiz-adv-x="605" unicode="&#57692;" /><glyph d="M370 690Q355 694 339 696Q323 698 300 698Q251 698 219 678.5Q187 659 187 610V500H445V585Q445 673 512.5 716.5Q580 760 705 760Q736 760 773.5 757.5Q811 755 840 750V469Q872 490 908.5 500Q945 510 980 510Q1040 510 1080 489.5Q1120 469 1143 434Q1166 399 1175.5 351.5Q1185 304 1185 250Q1185 196 1175.5 148.5Q1166 101 1143 66Q1120 31 1080 10.5Q1040 -10 980 -10Q939 -10 901 3Q863 16 824 41L809 0H770V694Q755 696 738.5 697Q722 698 705 698Q666 698 630.5 692.5Q595 687 569 673.5Q543 660 527.5 638.5Q512 617 512 585V500H670V445H512V0H445V445H187V0H120V445H20V476L120 505V610Q120 682 163 721Q206 760 300 760Q316 760 335.5 758.5Q355 757 370 753ZM980 448Q931 448 900 440Q869 432 840 416V84Q869 68 900 60Q931 52 980 52Q1025 52 1051.5 69Q1078 86 1092.5 114Q1107 142 1111 177.5Q1115 213 1115 250Q1115 287 1111 322.5Q1107 358 1092.5 386Q1078 414 1051.5 431Q1025 448 980 448Z" glyph-name="f_f_b" horiz-adv-x="1240" unicode="&#57683;" /><glyph d="M838 500V92Q838 66 847.5 56.5Q857 47 880 47V-10Q826 -10 798 15Q770 40 770 100V445H512V0H445V445H187V0H120V445H20V476L120 505V610Q120 682 163 721Q206 760 300 760Q316 760 335.5 758.5Q355 757 370 753V690Q355 694 339 696Q323 698 300 698Q251 698 219 678.5Q187 659 187 610V500H445V610Q445 682 488 721Q531 760 625 760Q641 760 660.5 758.5Q680 757 695 753V690Q680 694 664 696Q648 698 625 698Q576 698 544 678.5Q512 659 512 610V500Z" glyph-name="f_f_dotlessi" horiz-adv-x="930" unicode="&#57693;" /><glyph d="M370 690Q355 694 339 696Q323 698 300 698Q251 698 219 678.5Q187 659 187 610V500H445V585Q445 673 512.5 716.5Q580 760 705 760Q736 760 772.5 757.5Q809 755 838 750V469Q870 490 905 500Q940 510 975 510Q1065 510 1105 471Q1145 432 1145 360V0H1075V363Q1075 412 1048.5 430Q1022 448 975 448Q926 448 896 440Q866 432 838 416V0H770V694Q755 696 738.5 697Q722 698 705 698Q666 698 630.5 692.5Q595 687 569 673.5Q543 660 527.5 638.5Q512 617 512 585V500H670V445H512V0H445V445H187V0H120V445H20V476L120 505V610Q120 682 163 721Q206 760 300 760Q316 760 335.5 758.5Q355 757 370 753Z" glyph-name="f_f_h" horiz-adv-x="1205" unicode="&#57685;" /><glyph d="M370 690Q355 694 339 696Q323 698 300 698Q251 698 219 678.5Q187 659 187 610V500H445V585Q445 673 512.5 716.5Q580 760 705 760Q736 760 773 757.5Q810 755 838 751V685Q806 690 774.5 694Q743 698 705 698Q666 698 630.5 692.5Q595 687 569 673.5Q543 660 527.5 638.5Q512 617 512 585V500H838V-96Q838 -135 820 -165Q802 -195 774 -215.5Q746 -236 711 -247Q676 -258 642 -260V-201Q664 -198 687 -190.5Q710 -183 728.5 -169.5Q747 -156 758.5 -136Q770 -116 770 -87V445H512V0H445V445H187V0H120V445H20V476L120 505V610Q120 682 163 721Q206 760 300 760Q316 760 335.5 758.5Q355 757 370 753Z" glyph-name="f_f_j" horiz-adv-x="919" unicode="&#57687;" /><glyph d="M370 690Q355 694 339 696Q323 698 300 698Q251 698 219 678.5Q187 659 187 610V500H445V585Q445 673 512.5 716.5Q580 760 705 760Q736 760 772.5 757.5Q809 755 838 750V276L1064 500H1158L943 294L1185 0H1098L901 254L838 194V0H770V694Q755 696 738.5 697Q722 698 705 698Q666 698 630.5 692.5Q595 687 569 673.5Q543 660 527.5 638.5Q512 617 512 585V500H670V445H512V0H445V445H187V0H120V445H20V476L120 505V610Q120 682 163 721Q206 760 300 760Q316 760 335.5 758.5Q355 757 370 753Z" glyph-name="f_f_k" horiz-adv-x="1205" unicode="&#57689;" /><glyph d="M370 690Q355 694 339 696Q323 698 300 698Q251 698 219 678.5Q187 659 187 610V500H445V610Q445 682 488 721Q531 760 625 760Q641 760 660.5 758.5Q680 757 695 753V690Q680 694 664 696Q648 698 625 698Q576 698 544 678.5Q512 659 512 610V500H770V640L840 660V500H995V445H840V134Q840 88 864 68Q888 48 936 48Q946 48 955.5 48.5Q965 49 975 50V-6Q966 -8 953 -9Q940 -10 930 -10Q899 -10 870 -2.5Q841 5 819 21.5Q797 38 783.5 63.5Q770 89 770 126V445H512V0H445V445H187V0H120V445H20V476L120 505V610Q120 682 163 721Q206 760 300 760Q316 760 335.5 758.5Q355 757 370 753Z" glyph-name="f_f_t" horiz-adv-x="1025" unicode="&#57691;" /><glyph d="M750 363Q750 412 723.5 430Q697 448 650 448Q601 448 571 440Q541 432 513 416V0H445V694Q430 696 413.5 697Q397 698 380 698Q341 698 305.5 692.5Q270 687 244 673.5Q218 660 202.5 638.5Q187 617 187 585V500H345V445H187V0H120V445H20V476L120 505V585Q120 673 187.5 716.5Q255 760 380 760Q411 760 447.5 757.5Q484 755 513 750V469Q545 490 580 500Q615 510 650 510Q740 510 780 471Q820 432 820 360V0H750V363Z" glyph-name="f_h" horiz-adv-x="880" unicode="&#57684;" /><glyph d="M317 -201Q339 -198 362 -190.5Q385 -183 403.5 -169.5Q422 -156 433.5 -136Q445 -116 445 -87V445H187V0H120V445H20V476L120 505V585Q120 673 187.5 716.5Q255 760 380 760Q411 760 448 757.5Q485 755 513 751V685Q481 690 449.5 694Q418 698 380 698Q341 698 305.5 692.5Q270 687 244 673.5Q218 660 202.5 638.5Q187 617 187 585V500H513V-96Q513 -135 495 -165Q477 -195 449 -215.5Q421 -236 386 -247Q351 -258 317 -260Z" glyph-name="f_j" horiz-adv-x="594" unicode="&#57686;" /><glyph d="M618 294 860 0H773L576 254L513 194V0H445V694Q430 696 413.5 697Q397 698 380 698Q341 698 305.5 692.5Q270 687 244 673.5Q218 660 202.5 638.5Q187 617 187 585V500H345V445H187V0H120V445H20V476L120 505V585Q120 673 187.5 716.5Q255 760 380 760Q411 760 447.5 757.5Q484 755 513 750V276L739 500H833Z" glyph-name="f_k" horiz-adv-x="880" unicode="&#57688;" /><glyph d="M650 -6Q641 -8 628 -9Q615 -10 605 -10Q574 -10 545 -2.5Q516 5 494 21.5Q472 38 458.5 63.5Q445 89 445 126V445H187V0H120V445H20V476L120 505V610Q120 682 163 721Q206 760 300 760Q316 760 335.5 758.5Q355 757 370 753V690Q355 694 339 696Q323 698 300 698Q251 698 219 678.5Q187 659 187 610V500H445V640L515 660V500H670V445H515V134Q515 88 539 68Q563 48 611 48Q621 48 630.5 48.5Q640 49 650 50Z" glyph-name="f_t" horiz-adv-x="700" unicode="&#57690;" /><glyph d="M650 -6Q641 -8 628 -9Q615 -10 605 -10Q574 -10 545 -2.5Q516 5 494 21.5Q472 38 458.5 63.5Q445 89 445 126V445H187V0H120V445H20V476L120 505V610Q120 682 163 721Q206 760 300 760Q316 760 335.5 758.5Q355 757 370 753V690Q355 694 339 696Q323 698 300 698Q251 698 219 678.5Q187 659 187 610V500H445V640L515 660V500H770V640L840 660V500H995V445H840V134Q840 88 864 68Q888 48 936 48Q946 48 955.5 48.5Q965 49 975 50V-6Q966 -8 953 -9Q940 -10 930 -10Q899 -10 870 -2.5Q841 5 819 21.5Q797 38 783.5 63.5Q770 89 770 126V445H515V134Q515 88 539 68Q563 48 611 48Q621 48 630.5 48.5Q640 49 650 50Z" glyph-name="f_t_t" horiz-adv-x="1025" unicode="&#57694;" /><glyph d="M695 690Q680 694 664 696Q648 698 625 698Q576 698 544 678.5Q512 659 512 610V500H670V445H512V0H445V445H187V0H120V445H20V476L120 505V610Q120 682 163 721Q206 760 300 760Q316 760 335.5 758.5Q355 757 370 753V690Q355 694 339 696Q323 698 300 698Q251 698 219 678.5Q187 659 187 610V500H445V610Q445 682 488 721Q531 760 625 760Q641 760 660.5 758.5Q680 757 695 753Z" glyph-name="ff" horiz-adv-x="700" unicode="&#64256;" /><glyph d="M880 -10Q826 -10 798 15Q770 40 770 100V445H512V0H445V445H187V0H120V445H20V476L120 505V610Q120 682 163 721Q206 760 300 760Q316 760 335.5 758.5Q355 757 370 753V690Q355 694 339 696Q323 698 300 698Q251 698 219 678.5Q187 659 187 610V500H445V585Q445 673 512.5 716.5Q580 760 705 760Q736 760 773 757.5Q810 755 838 751V685Q806 690 774.5 694Q743 698 705 698Q666 698 630.5 692.5Q595 687 569 673.5Q543 660 527.5 638.5Q512 617 512 585V500H838V92Q838 66 847.5 56.5Q857 47 880 47V-10Z" glyph-name="ffi" horiz-adv-x="930" unicode="&#64259;" /><glyph d="M370 690Q355 694 339 696Q323 698 300 698Q251 698 219 678.5Q187 659 187 610V500H445V585Q445 673 512.5 716.5Q580 760 705 760Q736 760 773 757.5Q810 755 838 751V92Q838 66 847.5 56.5Q857 47 880 47V-10Q826 -10 798 15Q770 40 770 100V694Q755 696 738.5 697Q722 698 705 698Q666 698 630.5 692.5Q595 687 569 673.5Q543 660 527.5 638.5Q512 617 512 585V500H670V445H512V0H445V445H187V0H120V445H20V476L120 505V610Q120 682 163 721Q206 760 300 760Q316 760 335.5 758.5Q355 757 370 753Z" glyph-name="ffl" horiz-adv-x="930" unicode="&#64260;" /><glyph d="M555 -10Q501 -10 473 15Q445 40 445 100V445H187V0H120V445H20V476L120 505V585Q120 673 187.5 716.5Q255 760 380 760Q411 760 448 757.5Q485 755 513 751V685Q481 690 449.5 694Q418 698 380 698Q341 698 305.5 692.5Q270 687 244 673.5Q218 660 202.5 638.5Q187 617 187 585V500H513V92Q513 66 522.5 56.5Q532 47 555 47V-10Z" glyph-name="fi" horiz-adv-x="605" unicode="&#64257;" /><glyph d="M525 272H45V338H525Z" glyph-name="figuredash" horiz-adv-x="570" unicode="&#8210;" /><glyph d="M525 342H45V408H525Z" glyph-name="figuredash.cap" horiz-adv-x="570" unicode="&#57735;" /><glyph glyph-name="figurespace" horiz-adv-x="570" unicode="&#8199;" /><glyph d="M65 750H815V0H65ZM136 66H744V684H136ZM212 100 165 147 393 375 165 603 212 650 440 422 668 650 715 603 487 375 715 147 668 100 440 328Z" glyph-name="filledbox" horiz-adv-x="880" unicode="&#9632;" /><glyph d="M65 500H565V0H65ZM131 61H499V439H131ZM160 142 268 250 160 358 207 405 315 297 423 405 470 358 362 250 470 142 423 95 315 203 207 95Z" glyph-name="filledsmallbox" horiz-adv-x="630" unicode="&#57870;" /><glyph d="M204 -73Q235 -73 271 -67Q307 -61 337 -41.5Q367 -22 387 13.5Q407 49 407 108Q407 165 389.5 195.5Q372 226 344 240Q316 254 280.5 256Q245 258 209 258H69V625H464V563H137V318Q160 320 186 321.5Q212 323 232 323Q277 323 321.5 316.5Q366 310 401 287.5Q436 265 457.5 222.5Q479 180 479 108Q479 27 452 -21Q425 -69 384 -94.5Q343 -120 294.5 -127.5Q246 -135 203 -135Q148 -135 106 -125.5Q64 -116 38 -103V-41Q66 -52 106 -62.5Q146 -73 204 -73Z" glyph-name="five" horiz-adv-x="500" unicode="5" /><glyph d="M224 52Q255 52 291 58Q327 64 357 83.5Q387 103 407 138.5Q427 174 427 233Q427 290 409.5 320.5Q392 351 364 365Q336 379 300.5 381Q265 383 229 383H89V750H484V688H157V443Q180 445 206 446.5Q232 448 252 448Q297 448 341.5 441.5Q386 435 421 412.5Q456 390 477.5 347.5Q499 305 499 233Q499 152 472 104Q445 56 404 30.5Q363 5 314.5 -2.5Q266 -10 223 -10Q168 -10 126 -0.5Q84 9 58 22V84Q86 73 126 62.5Q166 52 224 52Z" glyph-name="five.LP" horiz-adv-x="570" unicode="&#57773;" /><glyph d="M245 52Q276 52 312 58Q348 64 378 83.5Q408 103 428 138.5Q448 174 448 233Q448 290 430.5 320.5Q413 351 385 365Q357 379 321.5 381Q286 383 250 383H110V750H505V688H178V443Q201 445 227 446.5Q253 448 273 448Q318 448 362.5 441.5Q407 435 442 412.5Q477 390 498.5 347.5Q520 305 520 233Q520 152 493 104Q466 56 425 30.5Q384 5 335.5 -2.5Q287 -10 244 -10Q189 -10 147 -0.5Q105 9 79 22V84Q107 73 147 62.5Q187 52 245 52Z" glyph-name="five.LT" horiz-adv-x="600" unicode="&#57783;" /><glyph d="M204 -198Q235 -198 271 -192Q307 -186 337 -166.5Q367 -147 387 -111.5Q407 -76 407 -17Q407 40 389.5 70.5Q372 101 344 115Q316 129 280.5 131Q245 133 209 133H69V500H464V438H137V193Q160 195 186 196.5Q212 198 232 198Q277 198 321.5 191.5Q366 185 401 162.5Q436 140 457.5 97.5Q479 55 479 -17Q479 -98 452 -146Q425 -194 384 -219.5Q343 -245 294.5 -252.5Q246 -260 203 -260Q148 -260 106 -250.5Q64 -241 38 -228V-166Q66 -177 106 -187.5Q146 -198 204 -198Z" glyph-name="five.OP" horiz-adv-x="500" unicode="&#57813;" /><glyph d="M249 -198Q280 -198 316 -192Q352 -186 382 -166.5Q412 -147 432 -111.5Q452 -76 452 -17Q452 40 434.5 70.5Q417 101 389 115Q361 129 325.5 131Q290 133 254 133H114V500H509V438H182V193Q205 195 231 196.5Q257 198 277 198Q322 198 366.5 191.5Q411 185 446 162.5Q481 140 502.5 97.5Q524 55 524 -17Q524 -98 497 -146Q470 -194 429 -219.5Q388 -245 339.5 -252.5Q291 -260 248 -260Q193 -260 151 -250.5Q109 -241 83 -228V-166Q111 -177 151 -187.5Q191 -198 249 -198Z" glyph-name="five.OT" horiz-adv-x="600" unicode="&#57823;" /><glyph d="M224 54Q385 54 385 148Q385 175 378.5 192.5Q372 210 355 220Q338 230 309.5 234Q281 238 238 238H53V500H438V438H119V298Q139 299 161 300Q180 301 202.5 301.5Q225 302 246 302Q310 302 351 291.5Q392 281 415.5 261.5Q439 242 447.5 213.5Q456 185 456 148Q456 72 400.5 31Q345 -10 223 -10Q158 -10 112.5 0.5Q67 11 36 25V88Q61 77 84 70.5Q107 64 129.5 60Q152 56 175 55Q198 54 224 54Z" glyph-name="five.XP" horiz-adv-x="491" unicode="&#57833;" /><glyph d="M278 54Q367 54 418 77Q469 100 469 151Q469 178 461.5 195Q454 212 437 221.5Q420 231 392 234.5Q364 238 322 238H77V500H522V438H143V298Q175 299 208 300Q235 301 266 301.5Q297 302 320 302Q387 302 430 292Q473 282 497.5 263Q522 244 531 216Q540 188 540 151Q540 69 476.5 29.5Q413 -10 277 -10Q198 -10 144.5 0.5Q91 11 60 25V88Q111 66 165.5 60Q220 54 278 54Z" glyph-name="five.XT" horiz-adv-x="600" unicode="&#57843;" /><glyph d="M199 -199Q316 -199 316 -129Q316 -92 292.5 -77.5Q269 -63 206 -63H49V159H370V98H114V-4Q118 -4 128 -3.5Q138 -3 151.5 -2.5Q165 -2 180 -1.5Q195 -1 209 -1Q258 -1 292 -9Q326 -17 346 -33.5Q366 -50 375 -74Q384 -98 384 -129Q384 -193 338.5 -226.5Q293 -260 197 -260Q175 -260 152 -258.5Q129 -257 107.5 -254Q86 -251 67 -247Q48 -243 35 -238V-176Q89 -192 128.5 -195.5Q168 -199 198 -199Z" glyph-name="five.inf" horiz-adv-x="414" unicode="&#57853;" /></font>
</defs>
</svg>
